<?xml version="1.0" encoding="utf-8"?>
<!-- Generator: Adobe Illustrator 16.0.0, SVG Export Plug-In . SVG Version: 6.00 Build 0)  -->
<!DOCTYPE svg PUBLIC "-//W3C//DTD SVG 1.1//EN" "http://www.w3.org/Graphics/SVG/1.1/DTD/svg11.dtd">
<svg version="1.1" id="Capa_1" xmlns="http://www.w3.org/2000/svg" xmlns:xlink="http://www.w3.org/1999/xlink" x="0px" y="0px"
	 width="35.671px" height="40.607px" viewBox="0 0 35.671 40.607" enable-background="new 0 0 35.671 40.607" xml:space="preserve">
<g>
	<path fill="#CF7254" d="M-166.456,9.639h11.116c0.908,0,1.646-0.738,1.646-1.646V0h-14.411v7.992
		C-168.104,8.9-167.365,9.639-166.456,9.639L-166.456,9.639z M-166.456,9.639"/>
	<path fill="#DEB248" d="M-167.151,17.583h6.717c0.571,0,1.036-0.466,1.036-1.036s-0.465-1.035-1.036-1.035h-6.717
		c-0.573,0-1.035,0.465-1.035,1.035S-167.725,17.583-167.151,17.583L-167.151,17.583z M-167.151,17.583"/>
	<path fill="#DEB248" d="M-167.151,21.725h10.856c0.575,0,1.037-0.464,1.037-1.035s-0.462-1.035-1.037-1.035h-10.856
		c-0.573,0-1.035,0.464-1.035,1.035S-167.725,21.725-167.151,21.725L-167.151,21.725z M-167.151,21.725"/>
	<path fill="#DEB248" d="M-152.149,23.797h-15.002c-0.573,0-1.035,0.463-1.035,1.033c0,0.571,0.462,1.037,1.035,1.037h15.002
		c0.571,0,1.035-0.466,1.035-1.037C-151.114,24.26-151.578,23.797-152.149,23.797L-152.149,23.797z M-152.149,23.797"/>
	<path fill="#404B5A" d="M-150.501,0h-1.122v7.992c0,2.051-1.666,3.717-3.717,3.717h-11.116c-2.052,0-3.72-1.666-3.72-3.717V0
		h-1.768c-1.882,0-3.409,1.527-3.409,3.409v24.108c0,1.883,1.527,3.409,3.409,3.409h24.248c1.884,0,3.409-1.526,3.409-3.409V6.256
		L-150.501,0z M-148.949,25.205c0,1.151-0.935,2.086-2.086,2.086h-17.707c-1.149,0-2.085-0.935-2.085-2.086v-9.031
		c0-1.152,0.936-2.086,2.085-2.086h17.707c1.151,0,2.086,0.934,2.086,2.086V25.205z M-146.619,10.415h-2.975V7.438h2.975V10.415z
		 M-146.619,10.415"/>
</g>
<g>
	<g>
		<path fill="#CF7254" d="M-117.232,25.759c3.556,0.085,6.666,1.955,8.454,4.762c0.165,0.256,0.447,0.406,0.738,0.406
			c0.078,0,0.159-0.011,0.238-0.034c0.373-0.106,0.63-0.443,0.635-0.83v-0.105c0-5.612-4.486-10.169-10.062-10.303v-1.632
			c0-0.379-0.214-0.727-0.547-0.902c-0.15-0.081-0.313-0.12-0.479-0.12c-0.201,0-0.4,0.062-0.575,0.179l-6.93,4.742
			c-0.248,0.169-0.396,0.451-0.396,0.751c-0.002,0.301,0.146,0.583,0.392,0.755l6.929,4.802c0.174,0.122,0.38,0.183,0.581,0.183
			c0.166,0,0.326-0.039,0.476-0.117c0.337-0.176,0.548-0.526,0.548-0.906V25.759z M-117.232,25.759"/>
		<path d="M-108.251,24.313"/>
	</g>
	<g>
		<path fill="#DEB248" d="M-126.936,4.911c0,0.701-0.566,1.271-1.271,1.271c-0.7,0-1.269-0.57-1.269-1.271
			c0-0.701,0.568-1.271,1.269-1.271C-127.502,3.64-126.936,4.21-126.936,4.911z"/>
		<path fill="#81BBCD" d="M-121.332,4.911c0,0.701-0.568,1.271-1.271,1.271c-0.698,0-1.27-0.57-1.27-1.271
			c0-0.701,0.571-1.271,1.27-1.271C-121.9,3.64-121.332,4.21-121.332,4.911z"/>
		<path fill="#404B5A" d="M-101.284,0.004h-27.438c-2.271,0-4.113,1.841-4.113,4.111v21.955c0,2.268,1.843,4.118,4.113,4.118h6.121
			v-2.745h-6.121c-0.75,0-1.367-0.617-1.367-1.373V9.61h30.18v16.459c0,0.756-0.617,1.373-1.374,1.373h-4.271v2.745h4.271
			c2.277,0,4.119-1.851,4.119-4.118V4.115C-97.165,1.845-99.006,0.004-101.284,0.004z M-126.2,5.636
			c0,0.736-0.598,1.335-1.331,1.335h-1.333c-0.735,0-1.332-0.599-1.332-1.335V4.303c0-0.74,0.591-1.338,1.332-1.338h1.333
			c0.733,0,1.331,0.599,1.331,1.338V5.636z M-120.616,5.636c0,0.735-0.597,1.335-1.33,1.335h-1.332c-0.734,0-1.33-0.6-1.33-1.335
			V4.303c0-0.74,0.588-1.338,1.33-1.338h1.332c0.733,0,1.33,0.599,1.33,1.338V5.636z M-100.974,6.182h-16.516
			c-0.703,0-1.271-0.57-1.271-1.271c0-0.701,0.567-1.271,1.271-1.271h16.516c0.699,0,1.271,0.57,1.271,1.271
			C-99.704,5.612-100.275,6.182-100.974,6.182z"/>
	</g>
</g>
<g>
	<circle fill="#DEB248" cx="-81.407" cy="4.911" r="1.271"/>
	<g>
		<path fill="#CF7254" d="M-66.084,27.392c0,0.38,0.213,0.73,0.549,0.906c0.151,0.078,0.31,0.117,0.475,0.117
			c0.204,0,0.408-0.062,0.582-0.183l6.929-4.802c0.246-0.172,0.395-0.455,0.395-0.755c-0.002-0.3-0.15-0.582-0.397-0.751
			l-6.933-4.742c-0.174-0.118-0.371-0.179-0.575-0.179c-0.165,0-0.328,0.039-0.478,0.12c-0.333,0.175-0.546,0.523-0.546,0.902v1.632
			c-5.577,0.134-10.064,4.691-10.064,10.303v0.105c0.005,0.387,0.262,0.724,0.634,0.83c0.079,0.023,0.162,0.034,0.241,0.034
			c0.29,0,0.572-0.149,0.737-0.406c1.788-2.807,4.898-4.676,8.452-4.762V27.392z M-66.084,25.759"/>
		<path d="M-76.547,24.313"/>
	</g>
	<circle fill="#81BBCD" cx="-75.769" cy="4.911" r="1.271"/>
	<path fill="#404B5A" d="M-54.451,0.004H-81.89c-2.269,0-4.111,1.841-4.111,4.111v21.955c0,2.268,1.843,4.118,4.111,4.118h3.875
		v-2.745h-3.875c-0.747,0-1.366-0.617-1.366-1.373V9.61h30.18v16.459c0,0.756-0.615,1.373-1.375,1.373h-5.761v2.745h5.761
		c2.279,0,4.121-1.851,4.121-4.118V4.115C-50.33,1.845-52.172,0.004-54.451,0.004z M-79.365,5.636c0,0.736-0.6,1.335-1.332,1.335
		h-1.331c-0.736,0-1.332-0.599-1.332-1.335V4.303c0-0.74,0.59-1.338,1.332-1.338h1.331c0.732,0,1.332,0.599,1.332,1.338V5.636z
		 M-73.78,5.636c0,0.735-0.598,1.335-1.33,1.335h-1.333c-0.733,0-1.332-0.6-1.332-1.335V4.303c0-0.74,0.59-1.338,1.332-1.338h1.333
		c0.732,0,1.33,0.599,1.33,1.338V5.636z M-54.142,6.182h-16.514c-0.704,0-1.271-0.57-1.271-1.271c0-0.701,0.567-1.271,1.271-1.271
		h16.514c0.701,0,1.272,0.57,1.272,1.271C-52.869,5.612-53.44,6.182-54.142,6.182z"/>
</g>
<g>
	<path fill="#CF7254" d="M-25.259,26.451c-0.085,3.553-1.953,6.662-4.759,8.45c-0.255,0.164-0.405,0.444-0.405,0.736
		c0,0.079,0.012,0.161,0.035,0.24c0.105,0.371,0.444,0.629,0.828,0.635h0.105c5.607,0,10.161-4.484,10.295-10.058h1.632
		c0.379,0,0.725-0.21,0.902-0.546c0.08-0.148,0.118-0.313,0.118-0.476c0-0.202-0.061-0.403-0.179-0.575l-4.738-6.926
		c-0.171-0.248-0.452-0.395-0.753-0.396c-0.3-0.002-0.582,0.146-0.752,0.392l-4.802,6.924c-0.121,0.172-0.182,0.377-0.182,0.582
		c0,0.163,0.04,0.323,0.117,0.474c0.176,0.335,0.524,0.545,0.904,0.545H-25.259z M-25.259,26.451"/>
	<g>
		<circle fill="#DEB248" cx="-36.662" cy="4.903" r="1.271"/>
		<circle fill="#81BBCD" cx="-31.062" cy="4.903" r="1.269"/>
		<path fill="#404B5A" d="M-9.759,0h-27.419c-2.27,0-4.109,1.839-4.109,4.107v21.938c0,2.267,1.84,4.117,4.109,4.117h8.9v-2.744
			h-8.9c-0.748,0-1.364-0.616-1.364-1.373V9.599h30.155v16.446c0,0.757-0.615,1.373-1.372,1.373h-6.748v2.744h6.748
			c2.276,0,4.116-1.85,4.116-4.117V4.107C-5.643,1.839-7.483,0-9.759,0z M-34.658,5.628c0,0.735-0.597,1.333-1.329,1.333h-1.33
			c-0.735,0-1.332-0.599-1.332-1.333V4.297c0-0.74,0.588-1.338,1.332-1.338h1.33c0.732,0,1.329,0.599,1.329,1.338V5.628z
			 M-29.075,5.627c0,0.735-0.599,1.333-1.331,1.333h-1.331c-0.734,0-1.331-0.599-1.331-1.333V4.296c0-0.74,0.59-1.338,1.331-1.338
			h1.331c0.732,0,1.331,0.599,1.331,1.338V5.627z M-9.452,6.172h-16.502c-0.701,0-1.271-0.569-1.271-1.27
			c0-0.7,0.569-1.269,1.271-1.269h16.502c0.701,0,1.27,0.569,1.27,1.269C-8.182,5.604-8.75,6.172-9.452,6.172z"/>
	</g>
</g>
<g>
	<path fill="#CF7254" d="M19.63,31.689c0.084-3.553,1.954-6.662,4.758-8.45c0.257-0.165,0.404-0.444,0.404-0.736
		c0-0.079-0.01-0.161-0.032-0.24c-0.107-0.371-0.445-0.629-0.83-0.635h-0.104c-5.608,0-10.161,4.484-10.296,10.059h-1.631
		c-0.378,0-0.727,0.21-0.902,0.545c-0.078,0.149-0.117,0.313-0.117,0.476c0,0.204,0.06,0.404,0.178,0.576l4.738,6.926
		c0.171,0.248,0.45,0.396,0.751,0.396c0.301,0.002,0.583-0.146,0.754-0.392l4.801-6.924c0.12-0.172,0.183-0.377,0.183-0.582
		c0-0.162-0.04-0.323-0.117-0.474c-0.177-0.335-0.524-0.545-0.904-0.545H19.63z M19.63,31.689"/>
	<g>
		<path fill="#DEB248" d="M5.909,4.927c0,0.701-0.568,1.27-1.271,1.27c-0.698,0-1.268-0.569-1.268-1.27
			c0-0.7,0.569-1.269,1.268-1.269C5.34,3.658,5.909,4.227,5.909,4.927z"/>
		<circle fill="#81BBCD" cx="10.238" cy="4.927" r="1.269"/>
		<path fill="#404B5A" d="M31.541,0.024H4.124c-2.27,0-4.109,1.839-4.109,4.107v21.938c0,2.267,1.84,4.117,4.109,4.117h6.756v-2.744
			H4.124c-0.749,0-1.365-0.616-1.365-1.373V9.623h30.156v16.446c0,0.757-0.617,1.373-1.374,1.373h-9.025v2.744h9.025
			c2.276,0,4.116-1.85,4.116-4.117V4.131C35.657,1.863,33.817,0.024,31.541,0.024z M6.643,5.652c0,0.735-0.598,1.333-1.33,1.333
			H3.981c-0.733,0-1.33-0.599-1.33-1.333V4.321c0-0.74,0.59-1.338,1.33-1.338h1.332c0.732,0,1.33,0.599,1.33,1.338V5.652z
			 M12.225,5.651c0,0.735-0.599,1.333-1.329,1.333H9.564c-0.735,0-1.333-0.599-1.333-1.333V4.32c0-0.74,0.591-1.338,1.333-1.338
			h1.332c0.73,0,1.329,0.599,1.329,1.338V5.651z M31.848,6.196H15.347c-0.703,0-1.27-0.569-1.27-1.27c0-0.7,0.566-1.269,1.27-1.269
			h16.501c0.702,0,1.27,0.569,1.27,1.269C33.118,5.627,32.55,6.196,31.848,6.196z"/>
	</g>
</g>
<g>
	<g>
		<path fill="#CF7254" d="M58.404,20.02c3.549,0.084,6.652,1.952,8.438,4.753c0.166,0.256,0.445,0.404,0.736,0.404
			c0.078,0,0.16-0.011,0.24-0.033c0.369-0.107,0.629-0.443,0.633-0.829v-0.105c0-5.6-4.477-10.147-10.047-10.281V12.3
			c0-0.378-0.209-0.726-0.543-0.902c-0.148-0.079-0.312-0.118-0.477-0.118c-0.201,0-0.4,0.06-0.574,0.178l-6.917,4.733
			c-0.247,0.169-0.394,0.45-0.396,0.75c-0.002,0.3,0.147,0.582,0.394,0.753l6.914,4.794c0.172,0.121,0.377,0.182,0.58,0.182
			c0.164,0,0.324-0.039,0.475-0.117c0.334-0.176,0.545-0.524,0.545-0.903V20.02z M58.404,20.02"/>
		<g>
			<path d="M65.708,24.284"/>
		</g>
	</g>
	<g>
		<circle fill="#DEB248" cx="45.796" cy="4.921" r="1.269"/>
		<circle fill="#81BBCD" cx="51.388" cy="4.921" r="1.267"/>
		<path fill="#404B5A" d="M72.662,0.024H45.279c-2.265,0-4.104,1.836-4.104,4.103v21.908c0,2.264,1.839,4.111,4.104,4.111h20.644
			h2.125h4.613c2.273,0,4.113-1.847,4.113-4.111V4.126C76.775,1.86,74.935,0.024,72.662,0.024z M49.384,4.314
			c0-0.739,0.59-1.336,1.331-1.336h1.329c0.73,0,1.327,0.597,1.327,1.336v1.329c0,0.734-0.597,1.332-1.327,1.332h-1.329
			c-0.734,0-1.331-0.598-1.331-1.332V4.314z M43.809,4.315c0-0.739,0.59-1.337,1.331-1.337h1.329c0.732,0,1.329,0.598,1.329,1.337
			v1.329c0,0.734-0.597,1.332-1.329,1.332H45.14c-0.733,0-1.331-0.598-1.331-1.332V4.315z M74.035,26.035
			c0,0.756-0.617,1.371-1.373,1.371h-4.613h-2.125H45.279c-0.747,0-1.363-0.615-1.363-1.371V9.611h30.119V26.035z M72.97,6.188
			H56.49c-0.699,0-1.268-0.568-1.268-1.268s0.568-1.268,1.268-1.268h16.48c0.701,0,1.268,0.568,1.268,1.268
			S73.671,6.188,72.97,6.188z"/>
	</g>
</g>
<g>
	<g>
		<path fill="#CF7254" d="M101.511,21.63c0,0.379,0.209,0.727,0.543,0.903c0.152,0.078,0.312,0.117,0.475,0.117
			c0.205,0,0.408-0.061,0.58-0.182l6.914-4.794c0.246-0.171,0.396-0.453,0.393-0.753c-0.002-0.3-0.146-0.581-0.395-0.75
			l-6.918-4.733c-0.172-0.118-0.371-0.178-0.574-0.178c-0.162,0-0.328,0.039-0.477,0.118c-0.334,0.176-0.543,0.523-0.543,0.902
			v1.628c-5.57,0.134-10.047,4.681-10.047,10.281v0.105c0.006,0.386,0.264,0.722,0.635,0.829c0.078,0.022,0.16,0.033,0.24,0.033
			c0.289,0,0.57-0.148,0.734-0.404c1.785-2.801,4.891-4.668,8.439-4.753V21.63z M101.511,20"/>
		<g>
			<path d="M94.204,24.264"/>
		</g>
	</g>
	<g>
		<circle fill="#DEB248" cx="87.761" cy="4.901" r="1.268"/>
		<circle fill="#81BBCD" cx="93.354" cy="4.901" r="1.267"/>
		<path fill="#404B5A" d="M114.626,0.004H87.245c-2.266,0-4.105,1.836-4.105,4.103v21.908c0,2.264,1.84,4.111,4.105,4.111h20.643
			h2.125h4.613c2.275,0,4.113-1.847,4.113-4.111V4.106C118.739,1.84,116.901,0.004,114.626,0.004z M91.349,4.294
			c0-0.739,0.59-1.336,1.33-1.336h1.33c0.732,0,1.328,0.597,1.328,1.336v1.329c0,0.734-0.596,1.332-1.328,1.332h-1.33
			c-0.732,0-1.33-0.598-1.33-1.332V4.294z M85.774,4.295c0-0.739,0.59-1.337,1.33-1.337h1.33c0.73,0,1.328,0.598,1.328,1.337v1.329
			c0,0.734-0.598,1.332-1.328,1.332h-1.33c-0.732,0-1.33-0.598-1.33-1.332V4.295z M115.999,26.015c0,0.756-0.615,1.371-1.373,1.371
			h-4.613h-2.125H87.245c-0.748,0-1.363-0.615-1.363-1.371V9.591h30.117V26.015z M114.935,6.168h-16.48
			c-0.699,0-1.268-0.568-1.268-1.268s0.568-1.268,1.268-1.268h16.48c0.701,0,1.27,0.568,1.27,1.268S115.636,6.168,114.935,6.168z"/>
	</g>
</g>
<g>
	<g>
		<path fill="#CF7254" d="M140.101,18.103c-0.086,2.883-1.949,5.406-4.742,6.856c-0.254,0.134-0.402,0.361-0.402,0.598
			c0,0.063,0.01,0.129,0.033,0.194c0.107,0.3,0.443,0.511,0.826,0.516h0.105c5.586,0,10.123-3.638,10.256-8.161h1.625
			c0.377,0,0.725-0.171,0.898-0.443c0.08-0.121,0.119-0.254,0.119-0.386c0-0.164-0.061-0.326-0.178-0.466l-4.723-5.619
			c-0.17-0.202-0.449-0.321-0.748-0.323c-0.299-0.001-0.58,0.119-0.75,0.319l-4.783,5.618c-0.121,0.14-0.182,0.306-0.182,0.472
			c0,0.132,0.039,0.262,0.117,0.385c0.176,0.272,0.523,0.442,0.9,0.442H140.101z M140.101,18.103"/>
		<g>
			<path d="M135.847,24.039"/>
		</g>
	</g>
	<g>
		<circle fill="#DEB248" cx="128.74" cy="4.89" r="1.265"/>
		<circle fill="#81BBCD" cx="134.319" cy="4.89" r="1.266"/>
		<path fill="#404B5A" d="M155.544,0.004h-27.318c-2.26,0-4.094,1.833-4.094,4.093v21.857c0,2.258,1.834,4.101,4.094,4.101h20.594
			h2.119h4.605c2.268,0,4.1-1.843,4.1-4.101V4.097C159.644,1.836,157.812,0.004,155.544,0.004z M132.321,4.284
			c0-0.736,0.586-1.333,1.326-1.333h1.326c0.729,0,1.324,0.597,1.324,1.333v1.327c0,0.732-0.596,1.329-1.324,1.329h-1.326
			c-0.732,0-1.326-0.597-1.326-1.329V4.284z M126.759,4.285c0-0.736,0.588-1.333,1.326-1.333h1.326c0.73,0,1.326,0.597,1.326,1.333
			v1.327c0,0.732-0.596,1.329-1.326,1.329h-1.326c-0.73,0-1.326-0.597-1.326-1.329V4.285z M156.911,25.954
			c0,0.754-0.615,1.368-1.367,1.368h-4.605h-2.119h-20.594c-0.746,0-1.361-0.614-1.361-1.368V9.568h30.047V25.954z M155.851,6.154
			h-16.441c-0.699,0-1.266-0.566-1.266-1.264s0.566-1.265,1.266-1.265h16.441c0.699,0,1.266,0.567,1.266,1.265
			S156.55,6.154,155.851,6.154z"/>
	</g>
</g>
<g>
	<g>
		<path fill="#404B5A" d="M237.552,26.402l-4.369-4.36c-0.418-0.417-0.986-0.612-1.535-0.585l-2.102-2.102
			c3.578-4.733,3.215-11.5-1.096-15.817c-4.715-4.713-12.365-4.713-17.08,0.01c-4.725,4.722-4.725,12.364-0.01,17.079
			c4.316,4.316,11.086,4.674,15.816,1.096l2.102,2.102c-0.027,0.55,0.17,1.118,0.586,1.535l4.361,4.36
			c0.779,0.78,2.053,0.78,2.834,0l0.482-0.484C238.331,28.455,238.331,27.191,237.552,26.402L237.552,26.402z M225.837,18.015
			c-3.273,3.273-8.592,3.283-11.863,0.009c-3.273-3.272-3.273-8.582,0.008-11.864c3.273-3.273,8.59-3.282,11.865-0.009
			C229.118,9.424,229.106,14.732,225.837,18.015L225.837,18.015z M225.837,18.015"/>
	</g>
	<path fill="#CF7254" d="M223.194,10.824h-1.977V8.848c0-0.715-0.578-1.292-1.285-1.292h-0.012c-0.705,0-1.283,0.577-1.283,1.292
		v1.977h-1.979c-0.713,0-1.289,0.578-1.289,1.283v0.008c0,0.706,0.576,1.282,1.289,1.282h1.979v1.978
		c0,0.714,0.578,1.291,1.283,1.291h0.01c0.705,0,1.281-0.577,1.281-1.291v-1.978h1.977c0.715,0,1.293-0.577,1.293-1.282v-0.008
		C224.489,11.402,223.913,10.824,223.194,10.824L223.194,10.824z M223.194,10.824"/>
</g>
<g>
	<g>
		<path fill="#404B5A" d="M270.827,26.402l-4.369-4.36c-0.414-0.417-0.984-0.612-1.533-0.585l-2.102-2.102
			c3.576-4.733,3.213-11.5-1.098-15.817c-4.715-4.713-12.365-4.713-17.08,0.01c-4.725,4.722-4.725,12.364-0.01,17.079
			c4.316,4.316,11.086,4.674,15.816,1.096l2.104,2.102c-0.025,0.55,0.168,1.118,0.586,1.535l4.359,4.36
			c0.781,0.78,2.053,0.78,2.836,0l0.48-0.484C271.606,28.455,271.606,27.191,270.827,26.402L270.827,26.402z M259.114,18.015
			c-3.273,3.273-8.59,3.283-11.865,0.009c-3.273-3.272-3.273-8.582,0.008-11.864c3.273-3.273,8.592-3.282,11.865-0.009
			C262.396,9.424,262.382,14.732,259.114,18.015L259.114,18.015z M259.114,18.015"/>
	</g>
	<path fill="#CF7254" d="M256.47,10.824h-1.977h-2.58h-1.977c-0.713,0-1.291,0.578-1.291,1.283v0.008
		c0,0.706,0.578,1.282,1.291,1.282h1.977h2.574h1.979c0.715,0,1.289-0.577,1.289-1.282v-0.008
		C257.767,11.402,257.188,10.824,256.47,10.824z"/>
</g>
<g>
	<path fill="#404B5A" d="M282.802,28.873c0.033,0.817,0.705,1.463,1.525,1.463h14.25c0.816,0,1.49-0.646,1.521-1.463L301.12,7.39
		h-19.336L282.802,28.873z M294.677,12.726c0-0.343,0.277-0.621,0.619-0.621h0.99c0.344,0,0.621,0.277,0.621,0.621v12.272
		c0,0.343-0.277,0.621-0.621,0.621h-0.99c-0.342,0-0.619-0.278-0.619-0.621V12.726z M290.337,12.726
		c0-0.343,0.275-0.621,0.619-0.621h0.992c0.344,0,0.621,0.277,0.621,0.621v12.272c0,0.343-0.277,0.621-0.621,0.621h-0.992
		c-0.344,0-0.619-0.278-0.619-0.621V12.726z M285.997,12.726c0-0.343,0.279-0.621,0.621-0.621h0.99c0.342,0,0.619,0.277,0.619,0.621
		v12.272c0,0.343-0.277,0.621-0.619,0.621h-0.99c-0.342,0-0.621-0.278-0.621-0.621V12.726z M285.997,12.726"/>
	<path fill="#CF7254" d="M301.798,1.566h-6.574V0.323c0-0.175-0.145-0.319-0.318-0.319h-6.906c-0.174,0-0.318,0.144-0.318,0.319
		v1.243h-6.574c-0.529,0-0.957,0.43-0.957,0.959v3.008h22.605V2.525C302.755,1.996,302.327,1.566,301.798,1.566L301.798,1.566z
		 M301.798,1.566"/>
</g>
<g>
	<path fill="#CF7254" d="M336.606,0.004h-19.053v13.335h19.053V0.004z M334.7,11.434h-15.24V1.909h15.24V11.434z M334.7,11.434"/>
	<path fill="#404B5A" d="M338.511,13.339v1.906h-22.861v-1.906c-2.105,0-3.811,1.707-3.811,3.81v11.432
		c0,1.053,0.852,1.904,1.904,1.904h26.67c1.055,0,1.906-0.853,1.906-1.904V17.149C342.319,15.046,340.614,13.339,338.511,13.339
		L338.511,13.339z M336.606,26.674c0,1.054-0.854,1.907-1.906,1.907h-15.24c-1.053,0-1.906-0.853-1.906-1.907V24.77h19.053V26.674z
		 M339.462,20.96h-1.904c-0.527,0-0.951-0.425-0.951-0.952s0.424-0.952,0.951-0.952h1.904c0.527,0,0.951,0.425,0.951,0.952
		S339.989,20.96,339.462,20.96L339.462,20.96z M339.462,20.96"/>
	<rect x="321.358" y="3.82" fill="#DEB248" width="11.432" height="1.904"/>
	<polygon fill="#DEB248" points="321.366,7.625 332.794,7.625 332.79,9.534 321.358,9.534 	"/>
</g>
<g>
	<g>
		<path fill="#404B5A" d="M402.876,7.149c0.961-0.664,1.607-1.893,1.607-3.298c0-1.903-0.387-3.848-3.24-3.848
			c-2.855,0-3.24,1.944-3.24,3.848c0,1.405,0.646,2.634,1.607,3.298c-2.127,0.638-3.666,2.485-3.666,4.659
			c0,1.122,0.57,1.917,1.695,2.366c0.826,0.328,1.969,0.481,3.604,0.481c1.633,0,2.777-0.153,3.602-0.481
			c1.127-0.449,1.697-1.244,1.697-2.366C406.542,9.634,405.001,7.787,402.876,7.149L402.876,7.149z M402.876,7.149"/>
	</g>
	<path fill="#404B5A" d="M392.728,21.536c0.959-0.664,1.607-1.894,1.607-3.298c0-1.903-0.385-3.848-3.24-3.848
		s-3.24,1.944-3.24,3.848c0,1.405,0.646,2.634,1.607,3.298c-2.125,0.638-3.666,2.485-3.666,4.658c0,1.122,0.57,1.917,1.697,2.366
		c0.822,0.329,1.967,0.482,3.602,0.482s2.779-0.153,3.602-0.482c1.127-0.449,1.699-1.244,1.699-2.366
		C396.396,24.021,394.853,22.174,392.728,21.536L392.728,21.536z M392.728,21.536"/>
	<path fill="#404B5A" d="M413.022,21.536c0.961-0.664,1.607-1.894,1.607-3.298c0-1.903-0.385-3.848-3.24-3.848
		s-3.238,1.944-3.238,3.848c0,1.405,0.646,2.634,1.607,3.298c-2.125,0.638-3.668,2.485-3.668,4.658c0,1.122,0.572,1.917,1.697,2.366
		c0.824,0.329,1.969,0.482,3.602,0.482c1.635,0,2.779-0.153,3.604-0.482c1.127-0.449,1.695-1.244,1.695-2.366
		C416.688,24.021,415.147,22.174,413.022,21.536L413.022,21.536z M413.022,21.536"/>
	<path fill="#CF7254" d="M404.821,28.772c-0.037-0.094-0.109-0.168-0.201-0.208c-0.092-0.04-0.195-0.041-0.289-0.004
		c-0.814,0.325-1.824,0.484-3.088,0.484c-1.266,0-2.275-0.158-3.088-0.484c-0.094-0.037-0.199-0.036-0.289,0.004
		c-0.094,0.04-0.166,0.114-0.203,0.208l-0.281,0.703c-0.076,0.194,0.018,0.414,0.211,0.491c0.996,0.398,2.189,0.592,3.65,0.592
		c1.459,0,2.654-0.194,3.648-0.592c0.195-0.077,0.289-0.297,0.211-0.491L404.821,28.772z M404.821,28.772"/>
	<path fill="#CF7254" d="M390.083,12.469l0.695,0.298c0.049,0.021,0.1,0.03,0.148,0.03c0.146,0,0.287-0.085,0.35-0.229
		c0.346-0.805,0.947-1.632,1.842-2.524c0.893-0.895,1.719-1.497,2.523-1.843c0.094-0.04,0.166-0.114,0.203-0.208
		c0.037-0.093,0.037-0.197-0.004-0.289l-0.297-0.696c-0.084-0.191-0.307-0.28-0.498-0.198c-0.986,0.423-1.967,1.13-3,2.163
		s-1.738,2.014-2.162,3C389.802,12.164,389.892,12.386,390.083,12.469L390.083,12.469z M390.083,12.469"/>
	<path fill="#CF7254" d="M406.843,8.201c0.805,0.346,1.631,0.948,2.525,1.843c0.895,0.893,1.496,1.72,1.842,2.524
		c0.062,0.144,0.201,0.229,0.348,0.229c0.051,0,0.102-0.009,0.148-0.03l0.695-0.298c0.193-0.083,0.283-0.306,0.199-0.497
		c-0.422-0.985-1.129-1.967-2.162-3s-2.014-1.739-2.998-2.163c-0.193-0.082-0.414,0.007-0.496,0.198l-0.299,0.696
		c-0.041,0.092-0.043,0.196-0.006,0.289C406.677,8.087,406.749,8.162,406.843,8.201L406.843,8.201z M406.843,8.201"/>
</g>
<g>
	<path fill="#404B5A" d="M354.29,17.458h-1.631c-0.451,0-0.818,0.367-0.818,0.816V29.5c0,0.451,0.367,0.816,0.818,0.816h1.631
		c0.449,0,0.814-0.365,0.814-0.816V18.273C355.104,17.824,354.739,17.458,354.29,17.458L354.29,17.458z"/>
	<path fill="#404B5A" d="M362.14,13.257h-1.633c-0.449,0-0.814,0.367-0.814,0.815V29.5c0,0.451,0.365,0.816,0.814,0.816h1.633
		c0.451,0,0.814-0.365,0.814-0.816V14.072C362.954,13.624,362.591,13.257,362.14,13.257L362.14,13.257z"/>
	<path fill="#404B5A" d="M369.989,7.841h-1.633c-0.453,0-0.816,0.366-0.816,0.816V29.5c0,0.451,0.363,0.816,0.816,0.816h1.633
		c0.447,0,0.812-0.365,0.812-0.816V8.657C370.802,8.208,370.437,7.841,369.989,7.841L369.989,7.841z"/>
	<path fill="#404B5A" d="M377.835,12.849h-1.631c-0.451,0-0.816,0.366-0.816,0.816V29.5c0,0.451,0.365,0.816,0.816,0.816h1.631
		c0.451,0,0.816-0.365,0.816-0.816V13.665C378.651,13.215,378.286,12.849,377.835,12.849L377.835,12.849z"/>
	<path fill="#CF7254" d="M377.021,5.491c-0.576,0-1.098,0.216-1.506,0.562l-4.117-2.975c0.072-0.229,0.123-0.469,0.123-0.724
		c0-1.297-1.051-2.35-2.348-2.35c-1.299,0-2.352,1.053-2.352,2.35c0,0.284,0.061,0.554,0.148,0.806l-4.461,3.472
		c-0.35-0.205-0.75-0.331-1.186-0.331c-1.299,0-2.35,1.053-2.35,2.351c0,0.078,0.014,0.153,0.023,0.231l-3.824,2.039
		c-0.428-0.448-1.029-0.73-1.697-0.73c-1.299,0-2.352,1.053-2.352,2.351c0,1.297,1.053,2.35,2.352,2.35
		c1.297,0,2.35-1.053,2.35-2.35c0-0.159-0.02-0.312-0.047-0.461l3.709-1.979c0.432,0.543,1.09,0.899,1.836,0.899
		c1.299,0,2.35-1.053,2.35-2.35c0-0.385-0.1-0.743-0.264-1.063l4.34-3.376c0.395,0.304,0.887,0.491,1.424,0.491
		c0.568,0,1.08-0.209,1.486-0.544l4.129,2.981c-0.068,0.223-0.119,0.455-0.119,0.7c0,1.298,1.053,2.351,2.352,2.351
		s2.35-1.053,2.35-2.351C379.37,6.544,378.319,5.491,377.021,5.491z"/>
</g>
<g>
	<g>
		<circle fill="#DEB248" cx="168.572" cy="4.89" r="1.265"/>
		<circle fill="#81BBCD" cx="174.15" cy="4.89" r="1.265"/>
		<path fill="#404B5A" d="M195.374,0.004h-27.316c-2.26,0-4.096,1.833-4.096,4.093v21.857c0,2.258,1.836,4.101,4.096,4.101h20.594
			h2.121h4.602c2.27,0,4.102-1.843,4.102-4.101V4.097C199.476,1.836,197.644,0.004,195.374,0.004z M172.151,4.284
			c0-0.736,0.588-1.333,1.326-1.333h1.326c0.729,0,1.326,0.597,1.326,1.333v1.327c0,0.732-0.598,1.329-1.326,1.329h-1.326
			c-0.73,0-1.326-0.597-1.326-1.329V4.284z M166.591,4.285c0-0.736,0.588-1.333,1.326-1.333h1.328c0.729,0,1.324,0.597,1.324,1.333
			v1.327c0,0.732-0.596,1.329-1.324,1.329h-1.328c-0.73,0-1.326-0.597-1.326-1.329V4.285z M196.743,25.954
			c0,0.754-0.613,1.368-1.369,1.368h-4.602h-2.121h-20.594c-0.746,0-1.359-0.614-1.359-1.368V9.568h30.045V25.954z M195.683,6.154
			h-16.443c-0.697,0-1.264-0.566-1.264-1.264s0.566-1.265,1.264-1.265h16.443c0.699,0,1.266,0.567,1.266,1.265
			S196.382,6.154,195.683,6.154z"/>
	</g>
	<g>
		<path fill="#CF7254" d="M183.506,19.031c0.086-2.883,1.947-5.406,4.742-6.856c0.255-0.134,0.404-0.36,0.404-0.598
			c0-0.063-0.013-0.129-0.035-0.194c-0.105-0.3-0.442-0.511-0.825-0.515h-0.105c-5.588,0-10.125,3.637-10.256,8.161h-1.625
			c-0.379,0-0.724,0.171-0.899,0.442c-0.08,0.122-0.12,0.254-0.12,0.387c0,0.164,0.062,0.326,0.18,0.467l4.722,5.619
			c0.168,0.201,0.449,0.321,0.749,0.322c0.298,0.001,0.579-0.119,0.751-0.319l4.783-5.618c0.119-0.139,0.182-0.305,0.182-0.471
			c0-0.132-0.04-0.263-0.117-0.385c-0.177-0.272-0.524-0.442-0.902-0.442H183.506z M183.506,19.031"/>
		<g>
			<path d="M187.761,13.094"/>
		</g>
	</g>
</g>
</svg>
