<?xml version="1.0" encoding="utf-8"?>
<!-- Generator: Adobe Illustrator 16.0.0, SVG Export Plug-In . SVG Version: 6.00 Build 0)  -->
<!DOCTYPE svg PUBLIC "-//W3C//DTD SVG 1.1//EN" "http://www.w3.org/Graphics/SVG/1.1/DTD/svg11.dtd">
<svg version="1.1" id="Capa_1" xmlns="http://www.w3.org/2000/svg" xmlns:xlink="http://www.w3.org/1999/xlink" x="0px" y="0px"
	 width="28.085px" height="27.673px" viewBox="0 0 28.085 27.673" enable-background="new 0 0 28.085 27.673" xml:space="preserve">
<g>
	<g>
		<path d="M-266.196,22.889"/>
		<g>
			<g>
				<path fill="#CF7254" d="M-267.236,9.981c-0.456,0.458-0.456,1.2,0,1.655l6.374,6.375l-1.147,1.148
					c-0.384,0.383-0.384,1.004,0,1.387l0.691,0.69c0.344,1.447,0.688,2.896,1.033,4.342l0.798,3.348
					c0.055,0.224,0.217,0.406,0.433,0.486c0.076,0.028,0.157,0.042,0.236,0.042c0.143,0,0.286-0.046,0.405-0.134
					c4.021-2.958,7.559-6.497,10.518-10.517c0.136-0.185,0.169-0.426,0.091-0.642c-0.079-0.217-0.261-0.378-0.485-0.432
					l-2.673-0.637c-1.674-0.398-3.345-0.796-5.019-1.194l-0.691-0.691c-0.38-0.384-1.002-0.384-1.383,0l-1.15,1.148l-6.374-6.375
					C-266.037,9.525-266.779,9.525-267.236,9.981L-267.236,9.981z M-259.852,21.48l4.115-4.114l6.108,1.456
					c-0.462,0.603-0.939,1.193-1.43,1.772l-2.562-0.91l1.792,1.793c-0.53,0.597-1.075,1.179-1.637,1.747l-1.422-0.892l0.897,1.418
					c-0.611,0.601-1.238,1.187-1.881,1.755l-1.787-1.787l0.905,2.548c-0.537,0.452-1.084,0.895-1.644,1.323L-259.852,21.48z
					 M-258.396,27.59"/>
			</g>
		</g>
		<g>
			<circle fill="#DEB248" cx="-283.432" cy="3.121" r="1.058"/>
			<circle fill="#81BBCD" cx="-278.771" cy="3.121" r="1.056"/>
		</g>
		<g>
			<path fill="#DEB248" d="M-269.258,10.52V9.302c0-0.336-0.273-0.608-0.609-0.608h-13.013c-0.337,0-0.609,0.272-0.609,0.608v1.218
				c0,0.334,0.272,0.606,0.609,0.606h13.013C-269.531,11.126-269.258,10.854-269.258,10.52L-269.258,10.52z"/>
			<path fill="#DEB248" d="M-272.184,14.836V13.62c0-0.338-0.273-0.61-0.608-0.61h-7.288c-0.338,0-0.61,0.272-0.61,0.61v1.216
				c0,0.335,0.272,0.608,0.61,0.608h7.288C-272.457,15.444-272.184,15.171-272.184,14.836L-272.184,14.836z"/>
			<path fill="#DEB248" d="M-274.482,19.049v-1.217c0-0.337-0.272-0.61-0.607-0.61h-3.036c-0.338,0-0.608,0.272-0.608,0.61v1.217
				c0,0.334,0.271,0.608,0.608,0.608h3.036C-274.755,19.657-274.482,19.383-274.482,19.049L-274.482,19.049z"/>
			<path fill="#DEB248" d="M-261.925,10.52V9.302c0-0.336-0.271-0.608-0.607-0.608h-0.646c-0.337,0-0.609,0.272-0.609,0.608v1.218
				c0,0.334,0.272,0.606,0.609,0.606h0.646C-262.196,11.126-261.925,10.854-261.925,10.52L-261.925,10.52z"/>
			<path fill="#DEB248" d="M-264.051,19.049v-1.217c0-0.337-0.273-0.61-0.608-0.61h-7.29c-0.336,0-0.609,0.272-0.609,0.61v1.217
				c0,0.334,0.273,0.608,0.609,0.608h7.29C-264.324,19.657-264.051,19.383-264.051,19.049L-264.051,19.049z"/>
			<g>
				<g>
					<g>
						<path fill="#404B5A" d="M-262.945,22.818c-0.274-0.313-0.46-0.686-0.562-1.08h-1.437h-1.771h-17.203
							c-0.624,0-1.138-0.514-1.138-1.143V6.907h25.101v7.022c0.582-0.582,0.937-1.078,2.284-1.078V2.335
							c0-1.888-1.531-3.418-3.426-3.418h-22.821c-1.889,0-3.422,1.531-3.422,3.418v18.26c0,1.886,1.533,3.426,3.422,3.426h17.203
							h1.771h2.348L-262.945,22.818z M-274.577,1.941h13.736c0.584,0,1.057,0.473,1.057,1.057c0,0.583-0.473,1.057-1.057,1.057
							h-13.736c-0.583,0-1.057-0.474-1.057-1.057C-275.634,2.415-275.16,1.941-274.577,1.941z M-280.497,2.493
							c0-0.615,0.489-1.113,1.107-1.113h1.109c0.607,0,1.105,0.498,1.105,1.113v1.108c0,0.612-0.498,1.109-1.105,1.109h-1.109
							c-0.613,0-1.107-0.498-1.107-1.109V2.493z M-285.144,2.493c0-0.615,0.49-1.113,1.107-1.113h1.107
							c0.609,0,1.108,0.498,1.108,1.113v1.109c0,0.612-0.499,1.109-1.108,1.109h-1.107c-0.611,0-1.107-0.498-1.107-1.109V2.493z"/>
					</g>
				</g>
			</g>
		</g>
	</g>
	<g>
		<g>
			<path fill="#404B5A" d="M-145.737,4.659h-22.547c-0.715,0-1.411,0.579-1.559,1.292l-3.204,15.587
				c-0.146,0.713,0.312,1.292,1.025,1.292h22.547c0.716,0,1.411-0.578,1.559-1.292l3.204-15.587
				C-144.565,5.238-145.023,4.659-145.737,4.659L-145.737,4.659z M-148.436,9.876l-10.006,4.826c-0.432,0.208-0.924,0.208-1.269,0
				l-8.024-4.826c-0.581-0.349-0.659-1.166-0.175-1.819c0.324-0.438,0.834-0.71,1.332-0.71c0.221,0,0.427,0.054,0.601,0.159
				l7.458,4.487l9.303-4.487c0.216-0.104,0.446-0.159,0.665-0.159c0.496,0,0.896,0.272,1.04,0.708
				C-147.295,8.71-147.709,9.527-148.436,9.876L-148.436,9.876z M-148.436,9.876"/>
		</g>
		<path fill="#CF7254" d="M-181.497,8.064h9.714c0.516,0,0.931-0.417,0.931-0.931c0-0.515-0.415-0.932-0.931-0.932h-9.714
			c-0.514,0-0.932,0.417-0.932,0.932C-182.429,7.647-182.011,8.064-181.497,8.064L-181.497,8.064z M-181.497,8.064"/>
		<path fill="#CF7254" d="M-174.39,14.672h-9.716c-0.514,0-0.93,0.417-0.93,0.931c0,0.515,0.416,0.931,0.93,0.931h9.716
			c0.515,0,0.932-0.416,0.932-0.931C-173.458,15.088-173.875,14.672-174.39,14.672L-174.39,14.672z M-174.39,14.672"/>
		<path fill="#DEB248" d="M-172.156,11.314c0-0.515-0.416-0.931-0.93-0.931h-5.806c-0.514,0-0.933,0.416-0.933,0.931
			c0,0.513,0.419,0.93,0.933,0.93h5.806C-172.572,12.244-172.156,11.828-172.156,11.314L-172.156,11.314z M-172.156,11.314"/>
		<path fill="#DEB248" d="M-175.692,18.852h-3.103c-0.515,0-0.931,0.417-0.931,0.931c0,0.514,0.416,0.931,0.931,0.931h3.103
			c0.514,0,0.93-0.417,0.93-0.931C-174.763,19.269-175.179,18.852-175.692,18.852L-175.692,18.852z M-175.692,18.852"/>
	</g>
	<g>
		<path fill="#CF7254" d="M-225.116,6.826c0.161,0,0.323-0.039,0.472-0.116c0.335-0.176,0.548-0.525,0.548-0.904V4.662V4.177
			c3.546,0.084,6.649,1.95,8.434,4.75c0.163,0.256,0.443,0.404,0.734,0.404c0.08,0,0.159-0.011,0.239-0.034
			c0.371-0.106,0.628-0.442,0.633-0.828V8.365c0-5.599-4.474-10.144-10.04-10.277V-3.54c0-0.378-0.209-0.725-0.544-0.901
			c-0.148-0.079-0.312-0.119-0.475-0.119c-0.204,0-0.403,0.061-0.577,0.179l-6.912,4.731c-0.248,0.169-0.396,0.45-0.397,0.75
			c0,0.299,0.146,0.581,0.393,0.752l6.912,4.792C-225.523,6.765-225.32,6.826-225.116,6.826z"/>
		<path fill="#404B5A" d="M-214.929,11.016c-0.876,0-1.682-0.441-2.154-1.183c-1.229-1.929-3.156-3.264-5.343-3.76
			c-0.09,0.901-0.622,1.701-1.442,2.133c-0.386,0.199-0.818,0.304-1.248,0.304c-0.558,0-1.092-0.167-1.54-0.482l-3.243-2.248
			l-0.113,0.022v21.896l16.243,3.132V10.735c-0.142,0.071-0.29,0.133-0.447,0.179C-214.448,10.982-214.686,11.016-214.929,11.016z
			 M-219.739,22.252l-1.89-3.575c-0.072-0.132-0.146-0.375-0.222-0.734h-0.029c-0.039,0.168-0.117,0.423-0.255,0.767l-1.894,3.542
			h-2.946l3.495-5.483l-3.198-5.49h3.01l1.564,3.29c0.123,0.26,0.233,0.573,0.334,0.926h0.026c0.063-0.212,0.179-0.535,0.343-0.958
			l1.744-3.258h2.756l-3.289,5.442l3.38,5.531H-219.739z"/>
		<path fill="#404B5A" d="M-202.766,5.918h-9.86c0.162,0.79,0.254,1.605,0.254,2.447v0.125c-0.003,0.23-0.042,0.451-0.103,0.663
			h3.073v2.193h-3.284V13.5h3.248v2.168h-3.248v2.163h3.248v2.167h-3.248v2.162h3.248v2.169h-3.248v3.246h9.92
			c0.502,0,0.91-0.422,0.91-0.94V6.865C-201.855,6.34-202.264,5.918-202.766,5.918z M-204.024,24.33h-4.33v-2.169h4.33V24.33z
			 M-204.024,19.999h-4.33v-2.167h4.33V19.999z M-204.024,15.668h-4.33V13.5h4.33V15.668z M-204.024,11.332h-4.33V9.17h4.33V11.332z
			"/>
	</g>
	<g>
		<g>
			<path fill="#404B5A" d="M-133.055,15.6h-1.568c-0.434,0-0.783,0.353-0.783,0.784V29.22c0,0.433,0.35,0.784,0.783,0.784h1.568
				c0.432,0,0.783-0.351,0.783-0.784V16.383C-132.272,15.952-132.624,15.6-133.055,15.6L-133.055,15.6z"/>
			<path fill="#404B5A" d="M-125.516,10.397h-1.568c-0.432,0-0.783,0.352-0.783,0.784V29.22c0,0.433,0.352,0.784,0.783,0.784h1.568
				c0.432,0,0.783-0.351,0.783-0.784V11.182C-124.733,10.749-125.084,10.397-125.516,10.397L-125.516,10.397z"/>
			<path fill="#404B5A" d="M-117.975,15.208h-1.568c-0.432,0-0.783,0.353-0.783,0.784V29.22c0,0.433,0.352,0.784,0.783,0.784h1.568
				c0.432,0,0.783-0.351,0.783-0.784V15.992C-117.192,15.561-117.543,15.208-117.975,15.208L-117.975,15.208z"/>
			<path fill="#DEB248" d="M-111.233-2.583c-1.248,0-2.258,1.01-2.258,2.257c0,0.544,0.201,1.038,0.521,1.428l-5.012,7.183
				c-0.244-0.089-0.504-0.146-0.777-0.146c-0.555,0-1.055,0.207-1.449,0.539l-3.955-2.857c0.072-0.221,0.119-0.452,0.119-0.696
				c0-1.247-1.008-2.257-2.256-2.257c-1.246,0-2.26,1.011-2.26,2.257c0,0.273,0.057,0.533,0.146,0.775l-4.289,3.336
				c-0.336-0.198-0.721-0.318-1.139-0.318c-1.246,0-2.258,1.011-2.258,2.257c0,1.247,1.012,2.259,2.258,2.259
				c1.248,0,2.258-1.012,2.258-2.259c0-0.369-0.098-0.712-0.254-1.02l4.17-3.243c0.381,0.292,0.85,0.472,1.367,0.472
				c0.545,0,1.039-0.201,1.428-0.523l3.969,2.865c-0.068,0.213-0.115,0.437-0.115,0.672c0,1.248,1.014,2.258,2.26,2.258
				c1.248,0,2.256-1.01,2.256-2.258c0-0.515-0.178-0.984-0.469-1.364l5.039-7.222c0.221,0.072,0.453,0.122,0.699,0.122
				c1.246,0,2.258-1.011,2.258-2.258S-109.987-2.583-111.233-2.583z"/>
			<g>
				<path stroke="#FFFFFF" stroke-width="2" stroke-miterlimit="10" d="M-115.043,27.074"/>
				<g>
					<g>
						<g>
							<path fill="#404B5A" d="M-112.809,14.531L-112.809,14.531c0.748-0.66,2.148-1.23,3.143-1.301V5.517
								c0-0.431-0.352-0.784-0.783-0.784h-1.568c-0.434,0-0.783,0.353-0.783,0.784v8.577
								C-112.809,14.531-112.834,14.531-112.809,14.531z"/>
							<path fill="#404B5A" d="M-109.667,26.281c-1.566-0.042-3.051-1.272-3.135-1.426v4.365c0,0.433,0.35,0.784,0.783,0.784h1.568
								c0.432,0,0.783-0.351,0.783-0.784V26.281L-109.667,26.281z"/>
						</g>
					</g>
				</g>
			</g>
		</g>
		<g>
			<path fill="#CF7254" d="M-107.448,14.83c-3.57,0-6.666,2.08-8.188,5.116c1.521,3.039,4.617,5.118,8.188,5.118
				s6.664-2.079,8.188-5.118C-100.784,16.91-103.877,14.83-107.448,14.83L-107.448,14.83z M-103.411,17.544
				c0.961,0.612,1.775,1.436,2.389,2.402c-0.613,0.968-1.428,1.791-2.389,2.404c-1.209,0.771-2.605,1.178-4.037,1.178
				c-1.434,0-2.828-0.407-4.037-1.178c-0.963-0.614-1.777-1.436-2.389-2.404c0.611-0.966,1.426-1.79,2.389-2.402
				c0.062-0.041,0.125-0.08,0.191-0.118c-0.162,0.437-0.248,0.909-0.248,1.4c0,2.261,1.832,4.094,4.094,4.094
				s4.092-1.833,4.092-4.094c0-0.491-0.086-0.963-0.244-1.4C-103.538,17.464-103.475,17.503-103.411,17.544L-103.411,17.544z
				 M-107.448,18.315c0,0.848-0.688,1.536-1.535,1.536c-0.85,0-1.535-0.688-1.535-1.536s0.686-1.535,1.535-1.535
				C-108.135,16.78-107.448,17.468-107.448,18.315L-107.448,18.315z M-107.448,18.315"/>
		</g>
	</g>
	<g>
		<path fill="#CF7254" d="M-78.461-4.789c2.775,1.768,4.623,4.841,4.707,8.356h-1.613c-0.377,0-0.723,0.208-0.896,0.541
			c-0.076,0.148-0.115,0.308-0.115,0.468c0,0.056,0.016,0.108,0.025,0.164l0,0v0.002c0.012,0.065,0.025,0.128,0.049,0.192
			c0.027,0.075,0.059,0.15,0.105,0.217l4.748,6.847c0.17,0.244,0.449,0.39,0.744,0.39c0.297-0.002,0.576-0.148,0.744-0.394
			l1.844-2.694l0,0l1.863-2.724l0,0l0.98-1.43c0.115-0.171,0.176-0.37,0.176-0.569c0-0.162-0.039-0.325-0.117-0.471
			c-0.174-0.331-0.52-0.54-0.893-0.54h-1.613c-0.131-5.514-4.635-9.946-10.18-9.946h-0.104c-0.383,0.004-0.717,0.259-0.82,0.627
			c-0.023,0.078-0.035,0.158-0.035,0.236C-78.861-5.229-78.713-4.95-78.461-4.789z"/>
		<path fill="#404B5A" d="M-58.291,6.576h-5.941l-2.195,3.206h1.562v2.172h-3.049l-0.205,0.299v1.835h3.219v2.147h-3.219v2.143
			h3.219v2.147h-3.219v2.142h3.219v2.149h-3.219v3.216h9.828c0.496,0,0.9-0.42,0.9-0.932V7.513
			C-57.391,6.994-57.795,6.576-58.291,6.576z M-59.537,24.815h-4.291v-2.149h4.291V24.815z M-59.537,20.525h-4.291v-2.147h4.291
			V20.525z M-59.537,16.235h-4.291v-2.147h4.291V16.235z M-59.537,11.939h-4.291V9.798h4.291V11.939z"/>
		<path fill="#404B5A" d="M-72.818,12.951l-0.064-0.09l-2.67,4.417l3.35,5.479h-2.904l-1.869-3.542
			c-0.074-0.13-0.146-0.372-0.221-0.727h-0.031c-0.037,0.167-0.115,0.419-0.252,0.76l-1.873,3.509h-2.92l3.463-5.432l-3.168-5.439
			h2.98l1.551,3.259c0.119,0.257,0.23,0.567,0.328,0.917h0.025c0.064-0.211,0.18-0.53,0.34-0.948l1.73-3.229h1.465l-4.012-5.783
			c-0.219-0.314-0.361-0.67-0.428-1.046l-7.287,1.405v21.69l16.092,3.103V13.54c-0.434,0.318-0.953,0.513-1.506,0.516
			C-71.543,14.059-72.336,13.646-72.818,12.951z"/>
	</g>
	<g>
		<path fill="#CF7254" d="M-32.694,4.47c0-0.164,0.039-0.325,0.117-0.475c0.174-0.337,0.525-0.547,0.906-0.547h1.145h0.488
			c-0.086-3.556-1.957-6.667-4.766-8.458c-0.254-0.163-0.404-0.444-0.404-0.736c0-0.079,0.014-0.161,0.035-0.239
			c0.107-0.373,0.443-0.63,0.828-0.635h0.105c5.613,0,10.172,4.486,10.305,10.067h1.633c0.379,0,0.729,0.209,0.902,0.546
			c0.08,0.148,0.121,0.312,0.121,0.475c0,0.204-0.062,0.404-0.18,0.579l-4.742,6.931c-0.172,0.247-0.453,0.396-0.754,0.396
			c-0.299,0.002-0.582-0.147-0.752-0.394l-4.807-6.929C-32.633,4.878-32.694,4.674-32.694,4.47z"/>
		<path fill="#404B5A" d="M-13.842,6.417l-6.887,0.063L-22.581,9h2.391l4.867,0.012l0.049,16.93h-8.514v2.192h9.945
			c0.504,0,0.912-0.424,0.912-0.944V7.368C-12.93,6.842-13.338,6.417-13.842,6.417z"/>
		<path fill="#404B5A" d="M-33.725,13.416c-0.723,0-1.273,0.057-1.559,0.132v4.982c0.361,0.095,0.818,0.134,1.369,0.134
			c1.998,0,3.213-0.969,3.213-2.738C-30.702,14.233-31.899,13.416-33.725,13.416z"/>
		<path fill="#404B5A" d="M-22.063,17.693l2.838,2.837l2.84-2.837l-0.896-0.896l-1.205,0.001v-5.335
			c0-0.323-0.254-0.584-0.562-0.584h-4.855c0,0-0.789,1.221-1.082,1.571c-0.129,0.155-0.494,1.083-1.998,1.083
			c-1.258,0-1.752-0.745-2.008-1.056c-0.561-0.679-3.92-5.15-4.396-5.89c-0.371-0.573-0.918-1.256-0.918-1.896l-6.855,1.611v21.953
			l16.287,3.14v-8.892l1.809,1.809l2.836-2.838l-2.836-2.839l-1.809,1.809v-7.97l4.916,0.003l0.025,4.323l-1.234,0.003
			L-22.063,17.693z M-30.038,18.587c-0.873,0.934-2.299,1.408-3.914,1.408c-0.496,0-0.955-0.021-1.332-0.114v5.133h-1.654V12.351
			c0.797-0.134,1.844-0.247,3.174-0.247c1.637,0,2.834,0.38,3.596,1.065c0.703,0.608,1.121,1.542,1.121,2.681
			C-29.047,17.01-29.391,17.922-30.038,18.587z"/>
	</g>
	<g>
		<path fill="#404B5A" d="M68.02,17.259l-4.992,9.444c-0.244,0.47-0.936,0.968-1.471,0.968l-20.014,0.002
			c-0.424,0-0.828-0.167-1.127-0.466c-0.299-0.297-0.467-0.703-0.467-1.126l0.002-15.541c0-0.878,0.713-1.593,1.594-1.593
			l1.461-0.003v1.359h-0.979c-0.191,0-0.373,0.076-0.512,0.21c-0.135,0.137-0.211,0.32-0.211,0.512l0.002,14.568
			c0,0.4,0.324,0.724,0.725,0.724h1.002l4.729-9.568c0.268-0.536,0.773-0.966,1.307-0.966h11.584l0.004-3.851
			c0.758,0.071,1.354,0.697,1.354,1.471v2.38h5.312C67.948,15.788,68.477,16.409,68.02,17.259L68.02,17.259z"/>
		<path fill="#CF7254" d="M59.522,5.011l-3.381-3.676c-0.113-0.123-0.273-0.193-0.441-0.193H45.237
			c-0.719,0-1.307,0.586-1.307,1.307c0,0-0.043,14.289,0,19.053c0.004,0.481,0.26,0.499,0.26,0.5l0.838-1.7V2.449
			c0-0.116,0.096-0.21,0.209-0.21h9.662c0.15,0,0.273,0.123,0.273,0.273v2.905c0,0.304,0.246,0.549,0.549,0.549h2.59
			c0.152,0,0.273,0.123,0.273,0.273v8.7h1.098V5.417C59.682,5.266,59.624,5.122,59.522,5.011z M56.272,4.869V3.098l1.629,1.771
			H56.272z"/>
		<path fill="#DEB248" d="M56.866,7.084H46.752c-0.371,0-0.674,0.303-0.674,0.673c0,0.374,0.303,0.677,0.674,0.677h10.113
			c0.373,0,0.676-0.304,0.676-0.677C57.542,7.387,57.239,7.084,56.866,7.084L56.866,7.084z"/>
		<path fill="#DEB248" d="M57.542,11.69c0-0.371-0.303-0.673-0.676-0.673H46.752c-0.371,0-0.674,0.302-0.674,0.673
			c0,0.373,0.303,0.676,0.674,0.676h10.113C57.239,12.366,57.542,12.062,57.542,11.69L57.542,11.69z"/>
		<path fill="#DEB248" d="M46.079,15.651c0,0.371,0.303,0.673,0.674,0.673h0.242c0.428-1.189,1.486-1.349,1.486-1.349h-1.729
			C46.381,14.975,46.079,15.277,46.079,15.651L46.079,15.651z"/>
	</g>
	<g>
		<path fill="#DEB248" d="M15.974,12.056H3.615c-0.447,0-0.791,0.345-0.791,0.792c0,0.445,0.344,0.805,0.791,0.805h12.359
			c0.445,0,0.791-0.359,0.791-0.805C16.765,12.401,16.419,12.056,15.974,12.056L15.974,12.056z M15.974,12.056"/>
		<g>
			<path fill="#CF7254" d="M13.371,22.029l-1.119,3.835c-0.023,0.084-0.043,0.167-0.043,0.25c0,0.348,0.344,0.71,0.789,0.71
				c0.104,0,0.176-0.013,0.232-0.028l3.928-1.105L13.371,22.029z"/>
			<path fill="#CF7254" d="M27.664,13.354l-1.785-1.788c-0.34-0.339-0.711-0.5-1.146-0.5c-0.371,0-0.707,0.147-1,0.437l-1.986,1.952
				l-7.273,7.276l3.908,3.819l7.301-7.286l1.951-1.952c0.26-0.258,0.404-0.581,0.453-0.967
				C28.085,13.908,27.939,13.628,27.664,13.354z"/>
		</g>
		<path fill="#DEB248" d="M15.947,16.411c0-0.445-0.348-0.79-0.791-0.79H3.615c-0.447,0-0.791,0.345-0.791,0.79
			s0.344,0.805,0.791,0.805h11.541C15.599,17.216,15.947,16.856,15.947,16.411L15.947,16.411z"/>
		<path fill="#DEB248" d="M9.349,19.156H3.615c-0.447,0-0.791,0.346-0.791,0.79c0,0.447,0.344,0.792,0.791,0.792h5.734
			c0.447,0,0.805-0.344,0.805-0.792C10.154,19.501,9.796,19.156,9.349,19.156L9.349,19.156z"/>
		<path fill="#DEB248" d="M9.349,22.721H3.615c-0.447,0-0.791,0.345-0.791,0.79c0,0.446,0.344,0.79,0.791,0.79h5.734
			c0.447,0,0.805-0.343,0.805-0.79C10.154,23.066,9.796,22.721,9.349,22.721L9.349,22.721z M9.349,22.721"/>
		<path fill="#404B5A" d="M19.509,8.522L11.855,0L1.788,0.035c-0.488,0-0.906,0.171-1.234,0.503C0.222,0.869,0.05,1.284,0.05,1.759
			v24.107c0,0.978,0.76,1.726,1.738,1.726h8.743l0.209-1.58H1.788c-0.102,0-0.143-0.042-0.143-0.146V1.759
			c0-0.101,0.041-0.145,0.143-0.145l8.7-0.01v6.743c0,0.978,0.744,1.769,1.721,1.769h5.734v4.83l1.594-1.512V8.522H19.509z
			 M12.101,8.52c-0.1,0-0.143-0.057-0.143-0.172V2.478l5.445,6.042H12.101z"/>
	</g>
	<g>
		<g>
			<path fill="#CF7254" d="M97.249,5.029L93.87,1.356c-0.113-0.123-0.273-0.192-0.441-0.192H82.975
				c-0.719,0-1.307,0.586-1.307,1.306c0,0-0.043,14.276,0,19.037c0.006,0.48,0.26,0.499,0.26,0.499l0.838-1.697V2.469
				c0-0.116,0.096-0.21,0.211-0.21h9.652c0.15,0,0.273,0.123,0.273,0.272v2.903c0,0.302,0.246,0.549,0.549,0.549h2.586
				c0.152,0,0.275,0.122,0.275,0.272v8.692h1.096V5.435C97.409,5.283,97.352,5.14,97.249,5.029z M93.999,4.888V3.117l1.631,1.771
				H93.999z"/>
			<path fill="#DEB248" d="M94.594,7.1H84.491c-0.373,0-0.674,0.304-0.674,0.673c0,0.374,0.301,0.676,0.674,0.676h10.104
				c0.373,0,0.674-0.302,0.674-0.676C95.268,7.404,94.967,7.1,94.594,7.1L94.594,7.1z"/>
			<path fill="#DEB248" d="M95.268,11.703c0-0.371-0.301-0.673-0.674-0.673H84.491c-0.373,0-0.674,0.302-0.674,0.673
				c0,0.373,0.301,0.676,0.674,0.676h10.104C94.967,12.378,95.268,12.076,95.268,11.703L95.268,11.703z"/>
			<path fill="#DEB248" d="M83.817,15.66c0,0.371,0.301,0.673,0.674,0.673h0.242c0.428-1.188,1.482-1.349,1.482-1.349h-1.725
				C84.118,14.985,83.817,15.287,83.817,15.66L83.817,15.66z"/>
			<path fill="#CF7254" d="M83.817,15.66"/>
		</g>
		<g>
			<path fill="#CF7254" d="M113.946,18.311c-0.195-0.374-0.584-0.609-1.01-0.609h-1.822c-0.148-6.233-5.24-11.244-11.51-11.244
				h-0.115c-0.434,0.005-0.809,0.293-0.93,0.709c-0.023,0.089-0.035,0.179-0.035,0.267c0,0.326,0.166,0.641,0.449,0.824
				c3.137,1.999,5.227,5.473,5.324,9.446h-1.828c-0.424,0-0.812,0.235-1.01,0.611c-0.088,0.168-0.131,0.348-0.131,0.53
				c0,0-0.049,0.289,0.203,0.649l5.365,7.741c0.193,0.276,0.51,0.441,0.846,0.44c0.334-0.002,0.65-0.167,0.838-0.444l2.086-3.046
				l2.105-3.079l1.105-1.616c0.135-0.193,0.201-0.418,0.201-0.644C114.079,18.66,114.036,18.477,113.946,18.311z"/>
			<g>
				<path fill="#404B5A" d="M99.987,20.573c-0.502-0.719-0.562-1.409-0.543-1.794c0.01-0.459,0.125-0.918,0.346-1.34
					c0.477-0.912,1.373-1.508,2.383-1.607c-0.004-0.013-0.008-0.026-0.01-0.039h-2.428v-2.379c0-0.773-0.598-1.399-1.354-1.47
					l-0.002,3.849H86.803c-0.531,0-1.037,0.43-1.305,0.965l-4.725,9.561h-1.002c-0.4,0-0.725-0.324-0.725-0.724V11.038
					c0-0.191,0.076-0.375,0.211-0.511c0.137-0.134,0.318-0.21,0.512-0.21h0.979V8.958l-1.463,0.003c-0.879,0-1.59,0.714-1.59,1.592
					l-0.004,15.529c0,0.423,0.168,0.828,0.465,1.125c0.301,0.299,0.703,0.466,1.129,0.466l19.996-0.003
					c0.535,0,1.225-0.497,1.471-0.967l1.508-2.852L99.987,20.573z"/>
			</g>
		</g>
	</g>
</g>
</svg>
