<?xml version="1.0" encoding="utf-8"?>
<!-- Generator: Adobe Illustrator 16.0.0, SVG Export Plug-In . SVG Version: 6.00 Build 0)  -->
<!DOCTYPE svg PUBLIC "-//W3C//DTD SVG 1.1//EN" "http://www.w3.org/Graphics/SVG/1.1/DTD/svg11.dtd">
<svg version="1.1" id="Capa_1" xmlns="http://www.w3.org/2000/svg" xmlns:xlink="http://www.w3.org/1999/xlink" x="0px" y="0px"
	 width="22.473px" height="30.186px" viewBox="0 0 22.473 30.186" enable-background="new 0 0 22.473 30.186" xml:space="preserve">
<g>
	<path fill="#CF7254" d="M-451.49,10.024h11.116c0.908,0,1.646-0.738,1.646-1.646V0.386h-14.411v7.992
		C-453.138,9.286-452.399,10.024-451.49,10.024L-451.49,10.024z M-451.49,10.024"/>
	<path fill="#DEB248" d="M-452.185,17.969h6.717c0.571,0,1.036-0.466,1.036-1.036s-0.465-1.035-1.036-1.035h-6.717
		c-0.573,0-1.035,0.465-1.035,1.035S-452.758,17.969-452.185,17.969L-452.185,17.969z M-452.185,17.969"/>
	<path fill="#DEB248" d="M-452.185,22.11h10.856c0.575,0,1.037-0.464,1.037-1.035s-0.462-1.035-1.037-1.035h-10.856
		c-0.573,0-1.035,0.464-1.035,1.035S-452.758,22.11-452.185,22.11L-452.185,22.11z M-452.185,22.11"/>
	<path fill="#DEB248" d="M-437.183,24.183h-15.002c-0.573,0-1.035,0.463-1.035,1.033c0,0.571,0.462,1.037,1.035,1.037h15.002
		c0.571,0,1.035-0.466,1.035-1.037C-436.148,24.646-436.612,24.183-437.183,24.183L-437.183,24.183z M-437.183,24.183"/>
	<path fill="#404B5A" d="M-435.535,0.386h-1.122v7.992c0,2.051-1.666,3.717-3.717,3.717h-11.116c-2.052,0-3.72-1.666-3.72-3.717
		V0.386h-1.768c-1.882,0-3.409,1.527-3.409,3.409v24.108c0,1.883,1.527,3.409,3.409,3.409h24.248c1.884,0,3.409-1.526,3.409-3.409
		V6.642L-435.535,0.386z M-433.983,25.591c0,1.151-0.935,2.086-2.086,2.086h-17.707c-1.149,0-2.085-0.935-2.085-2.086V16.56
		c0-1.152,0.936-2.086,2.085-2.086h17.707c1.151,0,2.086,0.934,2.086,2.086V25.591z M-431.653,10.801h-2.975V7.824h2.975V10.801z
		 M-431.653,10.801"/>
</g>
<g>
	<g>
		<path fill="#CF7254" d="M-402.266,26.145c3.556,0.085,6.666,1.955,8.454,4.762c0.165,0.256,0.447,0.406,0.738,0.406
			c0.078,0,0.159-0.011,0.238-0.034c0.373-0.106,0.63-0.443,0.635-0.83v-0.105c0-5.612-4.486-10.169-10.062-10.303v-1.632
			c0-0.379-0.214-0.727-0.547-0.902c-0.15-0.081-0.313-0.12-0.479-0.12c-0.201,0-0.4,0.062-0.575,0.179l-6.93,4.742
			c-0.248,0.169-0.396,0.451-0.396,0.751c-0.002,0.301,0.146,0.583,0.392,0.755l6.929,4.802c0.174,0.122,0.38,0.183,0.581,0.183
			c0.166,0,0.326-0.039,0.476-0.117c0.337-0.176,0.548-0.526,0.548-0.906V26.145z M-402.266,26.145"/>
		<path d="M-393.285,24.699"/>
	</g>
	<g>
		<path fill="#DEB248" d="M-411.97,5.296c0,0.701-0.566,1.271-1.271,1.271c-0.7,0-1.269-0.57-1.269-1.271
			c0-0.701,0.568-1.271,1.269-1.271C-412.536,4.026-411.97,4.596-411.97,5.296z"/>
		<path fill="#81BBCD" d="M-406.365,5.296c0,0.701-0.568,1.271-1.271,1.271c-0.698,0-1.27-0.57-1.27-1.271
			c0-0.701,0.571-1.271,1.27-1.271C-406.934,4.026-406.365,4.596-406.365,5.296z"/>
		<path fill="#404B5A" d="M-386.317,0.39h-27.438c-2.271,0-4.113,1.841-4.113,4.111v21.955c0,2.268,1.843,4.118,4.113,4.118h6.121
			v-2.745h-6.121c-0.75,0-1.367-0.617-1.367-1.373V9.996h30.18v16.459c0,0.756-0.617,1.373-1.374,1.373h-4.271v2.745h4.271
			c2.277,0,4.119-1.851,4.119-4.118V4.5C-382.198,2.23-384.04,0.39-386.317,0.39z M-411.233,6.021c0,0.736-0.598,1.335-1.331,1.335
			h-1.333c-0.735,0-1.332-0.599-1.332-1.335V4.689c0-0.74,0.591-1.338,1.332-1.338h1.333c0.733,0,1.331,0.599,1.331,1.338V6.021z
			 M-405.649,6.021c0,0.735-0.597,1.335-1.33,1.335h-1.332c-0.734,0-1.33-0.6-1.33-1.335V4.688c0-0.74,0.588-1.338,1.33-1.338h1.332
			c0.733,0,1.33,0.599,1.33,1.338V6.021z M-386.008,6.567h-16.516c-0.703,0-1.271-0.57-1.271-1.271c0-0.701,0.567-1.271,1.271-1.271
			h16.516c0.699,0,1.271,0.57,1.271,1.271C-384.737,5.998-385.309,6.567-386.008,6.567z"/>
	</g>
</g>
<g>
	<circle fill="#DEB248" cx="-366.441" cy="5.296" r="1.271"/>
	<g>
		<path fill="#CF7254" d="M-351.118,27.778c0,0.38,0.213,0.73,0.549,0.906c0.151,0.078,0.31,0.117,0.475,0.117
			c0.204,0,0.408-0.062,0.582-0.183l6.929-4.802c0.246-0.172,0.395-0.455,0.395-0.755c-0.002-0.3-0.15-0.582-0.397-0.751
			l-6.933-4.742c-0.174-0.118-0.371-0.179-0.575-0.179c-0.165,0-0.328,0.039-0.478,0.12c-0.333,0.175-0.546,0.523-0.546,0.902v1.632
			c-5.577,0.134-10.064,4.691-10.064,10.303v0.105c0.005,0.387,0.262,0.724,0.634,0.83c0.079,0.023,0.162,0.034,0.241,0.034
			c0.29,0,0.572-0.149,0.737-0.406c1.788-2.807,4.898-4.676,8.452-4.762V27.778z M-351.118,26.145"/>
		<path d="M-361.581,24.699"/>
	</g>
	<circle fill="#81BBCD" cx="-360.802" cy="5.296" r="1.271"/>
	<path fill="#404B5A" d="M-339.485,0.39h-27.438c-2.269,0-4.111,1.841-4.111,4.111v21.955c0,2.268,1.843,4.118,4.111,4.118h3.875
		v-2.745h-3.875c-0.747,0-1.366-0.617-1.366-1.373V9.996h30.18v16.459c0,0.756-0.615,1.373-1.375,1.373h-5.761v2.745h5.761
		c2.279,0,4.121-1.851,4.121-4.118V4.5C-335.364,2.23-337.206,0.39-339.485,0.39z M-364.399,6.021c0,0.736-0.6,1.335-1.332,1.335
		h-1.331c-0.736,0-1.332-0.599-1.332-1.335V4.689c0-0.74,0.59-1.338,1.332-1.338h1.331c0.732,0,1.332,0.599,1.332,1.338V6.021z
		 M-358.814,6.021c0,0.735-0.598,1.335-1.33,1.335h-1.333c-0.733,0-1.332-0.6-1.332-1.335V4.688c0-0.74,0.59-1.338,1.332-1.338
		h1.333c0.732,0,1.33,0.599,1.33,1.338V6.021z M-339.175,6.567h-16.514c-0.704,0-1.271-0.57-1.271-1.271
		c0-0.701,0.567-1.271,1.271-1.271h16.514c0.701,0,1.272,0.57,1.272,1.271C-337.903,5.998-338.474,6.567-339.175,6.567z"/>
</g>
<g>
	<path fill="#CF7254" d="M-310.293,26.836c-0.085,3.553-1.953,6.662-4.759,8.45c-0.255,0.164-0.405,0.444-0.405,0.736
		c0,0.079,0.012,0.161,0.035,0.24c0.105,0.371,0.444,0.629,0.828,0.635h0.105c5.607,0,10.161-4.484,10.295-10.058h1.632
		c0.379,0,0.725-0.21,0.902-0.546c0.08-0.148,0.118-0.313,0.118-0.476c0-0.202-0.061-0.403-0.179-0.575l-4.738-6.926
		c-0.171-0.248-0.452-0.395-0.753-0.396c-0.3-0.002-0.582,0.146-0.752,0.392l-4.802,6.924c-0.121,0.172-0.182,0.377-0.182,0.582
		c0,0.163,0.04,0.323,0.117,0.474c0.176,0.335,0.524,0.545,0.904,0.545H-310.293z M-310.293,26.836"/>
	<g>
		<circle fill="#DEB248" cx="-321.695" cy="5.289" r="1.271"/>
		<circle fill="#81BBCD" cx="-316.095" cy="5.289" r="1.269"/>
		<path fill="#404B5A" d="M-294.793,0.386h-27.419c-2.27,0-4.109,1.839-4.109,4.107v21.938c0,2.267,1.84,4.117,4.109,4.117h8.9
			v-2.744h-8.9c-0.748,0-1.364-0.616-1.364-1.373V9.985h30.155v16.446c0,0.757-0.615,1.373-1.372,1.373h-6.748v2.744h6.748
			c2.276,0,4.116-1.85,4.116-4.117V4.493C-290.677,2.225-292.517,0.386-294.793,0.386z M-319.691,6.014
			c0,0.735-0.597,1.333-1.329,1.333h-1.33c-0.735,0-1.332-0.599-1.332-1.333V4.683c0-0.74,0.588-1.338,1.332-1.338h1.33
			c0.732,0,1.329,0.599,1.329,1.338V6.014z M-314.108,6.013c0,0.735-0.599,1.333-1.331,1.333h-1.331
			c-0.734,0-1.331-0.599-1.331-1.333V4.682c0-0.74,0.59-1.338,1.331-1.338h1.331c0.732,0,1.331,0.599,1.331,1.338V6.013z
			 M-294.485,6.558h-16.502c-0.701,0-1.271-0.569-1.271-1.27c0-0.7,0.569-1.269,1.271-1.269h16.502c0.701,0,1.27,0.569,1.27,1.269
			C-293.216,5.989-293.784,6.558-294.485,6.558z"/>
	</g>
</g>
<g>
	<path fill="#CF7254" d="M-265.403,32.075c0.084-3.553,1.954-6.662,4.758-8.45c0.257-0.165,0.404-0.444,0.404-0.736
		c0-0.079-0.01-0.161-0.032-0.24c-0.107-0.371-0.445-0.629-0.83-0.635h-0.104c-5.608,0-10.161,4.484-10.296,10.059h-1.631
		c-0.378,0-0.727,0.21-0.902,0.545c-0.078,0.149-0.117,0.313-0.117,0.476c0,0.204,0.06,0.404,0.178,0.576l4.738,6.926
		c0.171,0.248,0.45,0.396,0.751,0.396c0.301,0.002,0.583-0.146,0.754-0.392l4.801-6.924c0.12-0.172,0.183-0.377,0.183-0.582
		c0-0.162-0.04-0.323-0.117-0.474c-0.177-0.335-0.524-0.545-0.904-0.545H-265.403z M-265.403,32.075"/>
	<g>
		<path fill="#DEB248" d="M-279.125,5.312c0,0.701-0.568,1.27-1.271,1.27c-0.698,0-1.268-0.569-1.268-1.27
			c0-0.7,0.569-1.269,1.268-1.269C-279.693,4.043-279.125,4.612-279.125,5.312z"/>
		<circle fill="#81BBCD" cx="-274.795" cy="5.312" r="1.269"/>
		<path fill="#404B5A" d="M-253.493,0.41h-27.417c-2.27,0-4.109,1.839-4.109,4.107v21.938c0,2.267,1.84,4.117,4.109,4.117h6.756
			v-2.744h-6.756c-0.749,0-1.365-0.616-1.365-1.373V10.009h30.156v16.446c0,0.757-0.617,1.373-1.374,1.373h-9.025v2.744h9.025
			c2.276,0,4.116-1.85,4.116-4.117V4.517C-249.377,2.249-251.217,0.41-253.493,0.41z M-278.391,6.038
			c0,0.735-0.598,1.333-1.33,1.333h-1.332c-0.733,0-1.33-0.599-1.33-1.333V4.707c0-0.74,0.59-1.338,1.33-1.338h1.332
			c0.732,0,1.33,0.599,1.33,1.338V6.038z M-272.809,6.037c0,0.735-0.599,1.333-1.329,1.333h-1.332c-0.735,0-1.333-0.599-1.333-1.333
			V4.706c0-0.74,0.591-1.338,1.333-1.338h1.332c0.73,0,1.329,0.599,1.329,1.338V6.037z M-253.186,6.582h-16.501
			c-0.703,0-1.27-0.569-1.27-1.27c0-0.7,0.566-1.269,1.27-1.269h16.501c0.702,0,1.27,0.569,1.27,1.269
			C-251.916,6.013-252.483,6.582-253.186,6.582z"/>
	</g>
</g>
<g>
	<g>
		<path fill="#CF7254" d="M-182.739,20.028c3.549,0.084,6.652,1.952,8.438,4.753c0.166,0.256,0.445,0.404,0.736,0.404
			c0.078,0,0.16-0.011,0.24-0.033c0.369-0.107,0.629-0.443,0.633-0.829v-0.105c0-5.6-4.477-10.147-10.047-10.281v-1.628
			c0-0.378-0.209-0.726-0.543-0.902c-0.148-0.079-0.312-0.118-0.477-0.118c-0.201,0-0.4,0.06-0.574,0.178l-6.917,4.733
			c-0.247,0.169-0.394,0.45-0.396,0.75c-0.002,0.3,0.147,0.582,0.394,0.753l6.914,4.794c0.172,0.121,0.377,0.182,0.58,0.182
			c0.164,0,0.324-0.039,0.475-0.117c0.334-0.176,0.545-0.524,0.545-0.903V20.028z M-182.739,20.028"/>
		<g>
			<path d="M-175.434,24.292"/>
		</g>
	</g>
	<g>
		<circle fill="#DEB248" cx="-195.347" cy="4.929" r="1.269"/>
		<circle fill="#81BBCD" cx="-189.754" cy="4.929" r="1.267"/>
		<path fill="#404B5A" d="M-168.481,0.032h-27.382c-2.265,0-4.104,1.836-4.104,4.103v21.908c0,2.264,1.839,4.111,4.104,4.111h20.644
			h2.125h4.613c2.273,0,4.113-1.847,4.113-4.111V4.135C-164.368,1.869-166.208,0.032-168.481,0.032z M-191.759,4.323
			c0-0.739,0.59-1.336,1.331-1.336h1.329c0.73,0,1.327,0.597,1.327,1.336v1.329c0,0.734-0.597,1.332-1.327,1.332h-1.329
			c-0.734,0-1.331-0.598-1.331-1.332V4.323z M-197.334,4.324c0-0.739,0.59-1.337,1.331-1.337h1.329c0.732,0,1.329,0.598,1.329,1.337
			v1.329c0,0.734-0.597,1.332-1.329,1.332h-1.329c-0.733,0-1.331-0.598-1.331-1.332V4.324z M-167.108,26.043
			c0,0.756-0.617,1.371-1.373,1.371h-4.613h-2.125h-20.644c-0.747,0-1.363-0.615-1.363-1.371V9.619h30.119V26.043z M-168.172,6.197
			h-16.48c-0.699,0-1.268-0.568-1.268-1.268s0.568-1.268,1.268-1.268h16.48c0.701,0,1.268,0.568,1.268,1.268
			S-167.471,6.197-168.172,6.197z"/>
	</g>
</g>
<g>
	<g>
		<path fill="#CF7254" d="M-225.327,22.016c0,0.379,0.209,0.727,0.543,0.903c0.152,0.078,0.312,0.117,0.475,0.117
			c0.205,0,0.408-0.061,0.58-0.182l6.914-4.794c0.246-0.171,0.396-0.453,0.393-0.753c-0.002-0.3-0.146-0.581-0.395-0.75
			l-6.918-4.733c-0.172-0.118-0.371-0.178-0.574-0.178c-0.162,0-0.328,0.039-0.477,0.118c-0.334,0.176-0.543,0.523-0.543,0.902
			v1.628c-5.57,0.134-10.047,4.681-10.047,10.281v0.105c0.006,0.386,0.264,0.722,0.635,0.829c0.078,0.022,0.16,0.033,0.24,0.033
			c0.289,0,0.57-0.148,0.734-0.404c1.785-2.801,4.891-4.668,8.439-4.753V22.016z M-225.327,20.386"/>
		<g>
			<path d="M-232.633,24.649"/>
		</g>
	</g>
	<g>
		<circle fill="#DEB248" cx="-239.077" cy="5.287" r="1.268"/>
		<circle fill="#81BBCD" cx="-233.484" cy="5.287" r="1.267"/>
		<path fill="#404B5A" d="M-212.211,0.39h-27.381c-2.266,0-4.105,1.836-4.105,4.103V26.4c0,2.264,1.84,4.111,4.105,4.111h20.643
			h2.125h4.613c2.275,0,4.113-1.847,4.113-4.111V4.492C-208.098,2.226-209.936,0.39-212.211,0.39z M-235.489,4.68
			c0-0.739,0.59-1.336,1.33-1.336h1.33c0.732,0,1.328,0.597,1.328,1.336v1.329c0,0.734-0.596,1.332-1.328,1.332h-1.33
			c-0.732,0-1.33-0.598-1.33-1.332V4.68z M-241.063,4.681c0-0.739,0.59-1.337,1.33-1.337h1.33c0.73,0,1.328,0.598,1.328,1.337V6.01
			c0,0.734-0.598,1.332-1.328,1.332h-1.33c-0.732,0-1.33-0.598-1.33-1.332V4.681z M-210.838,26.4c0,0.756-0.615,1.371-1.373,1.371
			h-4.613h-2.125h-20.643c-0.748,0-1.363-0.615-1.363-1.371V9.977h30.117V26.4z M-211.903,6.554h-16.48
			c-0.699,0-1.268-0.568-1.268-1.268s0.568-1.268,1.268-1.268h16.48c0.701,0,1.27,0.568,1.27,1.268S-211.202,6.554-211.903,6.554z"
			/>
	</g>
</g>
<g>
	<g>
		<path fill="#CF7254" d="M-145.502,18.189c-0.086,2.894-1.957,5.426-4.76,6.881c-0.255,0.134-0.404,0.362-0.404,0.601
			c0,0.063,0.01,0.13,0.033,0.194c0.108,0.301,0.445,0.513,0.829,0.518h0.106c5.607,0,10.161-3.651,10.294-8.191h1.631
			c0.378,0,0.728-0.172,0.902-0.445c0.081-0.121,0.12-0.255,0.12-0.388c0-0.165-0.061-0.327-0.178-0.468l-4.741-5.64
			c-0.17-0.203-0.451-0.322-0.75-0.324c-0.3-0.001-0.583,0.12-0.753,0.32l-4.801,5.639c-0.122,0.14-0.182,0.307-0.182,0.473
			c0,0.132,0.039,0.263,0.118,0.386c0.176,0.273,0.525,0.444,0.904,0.444H-145.502z M-145.502,18.189"/>
		<g>
			<path d="M-149.772,24.147"/>
		</g>
	</g>
	<g>
		<circle fill="#DEB248" cx="-156.905" cy="4.926" r="1.269"/>
		<circle fill="#81BBCD" cx="-151.305" cy="4.926" r="1.271"/>
		<path fill="#404B5A" d="M-130.001,0.022h-27.42c-2.268,0-4.109,1.839-4.109,4.108V26.07c0,2.266,1.841,4.116,4.109,4.116h20.671
			h2.127h4.623c2.276,0,4.115-1.85,4.115-4.116V4.13C-125.886,1.862-127.725,0.022-130.001,0.022z M-153.311,4.319
			c0-0.739,0.588-1.338,1.331-1.338h1.331c0.731,0,1.329,0.599,1.329,1.338V5.65c0,0.735-0.598,1.334-1.329,1.334h-1.331
			c-0.735,0-1.331-0.599-1.331-1.334V4.319z M-158.894,4.319c0-0.739,0.59-1.338,1.331-1.338h1.331c0.733,0,1.332,0.599,1.332,1.338
			v1.332c0,0.735-0.598,1.334-1.332,1.334h-1.331c-0.733,0-1.331-0.599-1.331-1.334V4.319z M-128.629,26.07
			c0,0.756-0.618,1.373-1.373,1.373h-4.623h-2.127h-20.671c-0.749,0-1.366-0.616-1.366-1.373V9.623h30.159V26.07z M-129.693,6.195
			h-16.503c-0.702,0-1.271-0.568-1.271-1.269c0-0.701,0.569-1.27,1.271-1.27h16.503c0.702,0,1.27,0.569,1.27,1.27
			C-128.423,5.627-128.992,6.195-129.693,6.195z"/>
	</g>
</g>
<g>
	<g>
		<path fill="#404B5A" d="M-44.969,26.277l-4.35-4.342c-0.417-0.414-0.983-0.609-1.529-0.583l-2.092-2.093
			c3.563-4.713,3.201-11.452-1.091-15.75c-4.695-4.693-12.312-4.693-17.007,0.011c-4.705,4.702-4.705,12.312-0.011,17.006
			c4.299,4.297,11.039,4.654,15.75,1.091l2.092,2.093c-0.027,0.548,0.169,1.113,0.583,1.528l4.343,4.342
			c0.776,0.776,2.044,0.776,2.822,0l0.48-0.482C-44.193,28.321-44.193,27.062-44.969,26.277L-44.969,26.277z M-56.633,17.925
			c-3.259,3.259-8.556,3.269-11.813,0.008c-3.259-3.258-3.259-8.545,0.007-11.813c3.26-3.259,8.554-3.269,11.815-0.009
			C-53.367,9.372-53.377,14.656-56.633,17.925L-56.633,17.925z M-56.633,17.925"/>
	</g>
	<path fill="#CF7254" d="M-59.265,10.765h-1.968V8.797c0-0.712-0.576-1.287-1.279-1.287h-0.012c-0.702,0-1.277,0.575-1.277,1.287
		v1.968h-1.97c-0.71,0-1.284,0.576-1.284,1.278v0.008c0,0.703,0.574,1.277,1.284,1.277h1.97v1.968c0,0.71,0.576,1.286,1.277,1.286
		h0.01c0.702,0,1.275-0.576,1.275-1.286v-1.968h1.968c0.712,0,1.288-0.575,1.288-1.277v-0.008
		C-57.976,11.341-58.549,10.765-59.265,10.765L-59.265,10.765z M-59.265,10.765"/>
</g>
<g>
	<g>
		<path fill="#404B5A" d="M-7.314,26.247l-4.34-4.332c-0.412-0.414-0.978-0.608-1.523-0.582l-2.088-2.088
			c3.553-4.701,3.192-11.424-1.09-15.712c-4.684-4.683-12.284-4.683-16.967,0.01c-4.693,4.691-4.693,12.282-0.009,16.966
			c4.288,4.288,11.012,4.644,15.711,1.088l2.09,2.088c-0.025,0.547,0.167,1.111,0.582,1.525l4.33,4.331
			c0.776,0.775,2.04,0.775,2.817,0l0.477-0.48C-6.539,28.286-6.539,27.03-7.314,26.247L-7.314,26.247z M-18.949,17.915
			c-3.252,3.251-8.533,3.261-11.787,0.009c-3.252-3.251-3.252-8.525,0.007-11.786c3.252-3.251,8.535-3.26,11.787-0.009
			C-15.689,9.38-15.703,14.653-18.949,17.915L-18.949,17.915z M-18.949,17.915"/>
	</g>
	<path fill="#CF7254" d="M-21.576,10.771h-1.963h-2.563h-1.963c-0.708,0-1.283,0.574-1.283,1.274v0.008
		c0,0.702,0.574,1.274,1.283,1.274h1.963h2.558h1.965c0.71,0,1.281-0.573,1.281-1.274v-0.008
		C-20.288,11.345-20.862,10.771-21.576,10.771z"/>
</g>
<g>
	<path fill="#404B5A" d="M2.637,28.7c0.034,0.812,0.701,1.455,1.516,1.455H18.32c0.812,0,1.481-0.643,1.512-1.455l1.015-21.357
		H1.625L2.637,28.7z M14.442,12.648c0-0.341,0.275-0.617,0.616-0.617h0.984c0.342,0,0.618,0.276,0.618,0.617v12.201
		c0,0.341-0.276,0.617-0.618,0.617h-0.984c-0.34,0-0.616-0.276-0.616-0.617V12.648z M10.128,12.648c0-0.341,0.273-0.617,0.615-0.617
		h0.986c0.341,0,0.617,0.276,0.617,0.617v12.201c0,0.341-0.276,0.617-0.617,0.617h-0.986c-0.342,0-0.615-0.276-0.615-0.617V12.648z
		 M5.813,12.648c0-0.341,0.278-0.617,0.618-0.617h0.984c0.34,0,0.616,0.276,0.616,0.617v12.201c0,0.341-0.276,0.617-0.616,0.617
		H6.431c-0.34,0-0.618-0.276-0.618-0.617V12.648z M5.813,12.648"/>
	<path fill="#CF7254" d="M21.522,1.553h-6.536V0.317C14.986,0.143,14.842,0,14.669,0H7.804C7.631,0,7.487,0.143,7.487,0.317v1.235
		H0.951C0.425,1.553,0,1.981,0,2.506v2.991h22.473V2.506C22.473,1.981,22.048,1.553,21.522,1.553L21.522,1.553z M21.522,1.553"/>
</g>
<g>
	<path fill="#CF7254" d="M55.819,0.39H36.767v13.335h19.053V0.39z M53.913,11.82h-15.24V2.295h15.24V11.82z M53.913,11.82"/>
	<path fill="#404B5A" d="M57.724,13.725v1.906H34.862v-1.906c-2.105,0-3.811,1.707-3.811,3.81v11.432
		c0,1.053,0.852,1.904,1.904,1.904h26.67c1.055,0,1.906-0.853,1.906-1.904V17.535C61.532,15.432,59.827,13.725,57.724,13.725
		L57.724,13.725z M55.819,27.06c0,1.054-0.854,1.907-1.906,1.907h-15.24c-1.053,0-1.906-0.853-1.906-1.907v-1.904h19.053V27.06z
		 M58.675,21.346h-1.904c-0.527,0-0.951-0.425-0.951-0.952s0.424-0.952,0.951-0.952h1.904c0.527,0,0.951,0.425,0.951,0.952
		S59.202,21.346,58.675,21.346L58.675,21.346z M58.675,21.346"/>
	<rect x="40.571" y="4.206" fill="#DEB248" width="11.432" height="1.904"/>
	<polygon fill="#DEB248" points="40.579,8.01 52.007,8.01 52.003,9.919 40.571,9.919 	"/>
</g>
<g>
	<g>
		<path fill="#404B5A" d="M122.089,7.535c0.961-0.664,1.607-1.893,1.607-3.298c0-1.903-0.387-3.848-3.24-3.848
			c-2.855,0-3.24,1.944-3.24,3.848c0,1.405,0.646,2.634,1.607,3.298c-2.127,0.638-3.666,2.485-3.666,4.659
			c0,1.122,0.57,1.917,1.695,2.366c0.826,0.328,1.969,0.481,3.604,0.481c1.633,0,2.777-0.153,3.602-0.481
			c1.127-0.449,1.697-1.244,1.697-2.366C125.755,10.02,124.214,8.173,122.089,7.535L122.089,7.535z M122.089,7.535"/>
	</g>
	<path fill="#404B5A" d="M111.941,21.922c0.959-0.664,1.607-1.894,1.607-3.298c0-1.903-0.385-3.848-3.24-3.848
		s-3.24,1.944-3.24,3.848c0,1.405,0.646,2.634,1.607,3.298c-2.125,0.638-3.666,2.485-3.666,4.658c0,1.122,0.57,1.917,1.697,2.366
		c0.822,0.329,1.967,0.482,3.602,0.482s2.779-0.153,3.602-0.482c1.127-0.449,1.699-1.244,1.699-2.366
		C115.609,24.407,114.066,22.56,111.941,21.922L111.941,21.922z M111.941,21.922"/>
	<path fill="#404B5A" d="M132.236,21.922c0.961-0.664,1.607-1.894,1.607-3.298c0-1.903-0.385-3.848-3.24-3.848
		s-3.238,1.944-3.238,3.848c0,1.405,0.646,2.634,1.607,3.298c-2.125,0.638-3.668,2.485-3.668,4.658c0,1.122,0.572,1.917,1.697,2.366
		c0.824,0.329,1.969,0.482,3.602,0.482c1.635,0,2.779-0.153,3.604-0.482c1.127-0.449,1.695-1.244,1.695-2.366
		C135.902,24.407,134.361,22.56,132.236,21.922L132.236,21.922z M132.236,21.922"/>
	<path fill="#CF7254" d="M124.035,29.158c-0.037-0.094-0.109-0.168-0.201-0.208c-0.092-0.04-0.195-0.041-0.289-0.004
		c-0.814,0.325-1.824,0.484-3.088,0.484c-1.266,0-2.275-0.158-3.088-0.484c-0.094-0.037-0.199-0.036-0.289,0.004
		c-0.094,0.04-0.166,0.114-0.203,0.208l-0.281,0.703c-0.076,0.194,0.018,0.414,0.211,0.491c0.996,0.398,2.189,0.592,3.65,0.592
		c1.459,0,2.654-0.194,3.648-0.592c0.195-0.077,0.289-0.297,0.211-0.491L124.035,29.158z M124.035,29.158"/>
	<path fill="#CF7254" d="M109.296,12.855l0.695,0.298c0.049,0.021,0.1,0.03,0.148,0.03c0.146,0,0.287-0.085,0.35-0.229
		c0.346-0.805,0.947-1.632,1.842-2.524c0.893-0.895,1.719-1.497,2.523-1.843c0.094-0.04,0.166-0.114,0.203-0.208
		c0.037-0.093,0.037-0.197-0.004-0.289l-0.297-0.696c-0.084-0.191-0.307-0.28-0.498-0.198c-0.986,0.423-1.967,1.13-3,2.163
		s-1.738,2.014-2.162,3C109.015,12.549,109.105,12.772,109.296,12.855L109.296,12.855z M109.296,12.855"/>
	<path fill="#CF7254" d="M126.056,8.587c0.805,0.346,1.631,0.948,2.525,1.843c0.895,0.893,1.496,1.72,1.842,2.524
		c0.062,0.144,0.201,0.229,0.348,0.229c0.051,0,0.102-0.009,0.148-0.03l0.695-0.298c0.193-0.083,0.283-0.306,0.199-0.497
		c-0.422-0.985-1.129-1.967-2.162-3s-2.014-1.739-2.998-2.163c-0.193-0.082-0.414,0.007-0.496,0.198l-0.299,0.696
		c-0.041,0.092-0.043,0.196-0.006,0.289C125.89,8.473,125.962,8.547,126.056,8.587L126.056,8.587z M126.056,8.587"/>
</g>
<g>
	<path fill="#404B5A" d="M73.503,17.843h-1.631c-0.451,0-0.818,0.367-0.818,0.816v11.227c0,0.451,0.367,0.816,0.818,0.816h1.631
		c0.449,0,0.814-0.365,0.814-0.816V18.659C74.318,18.21,73.953,17.843,73.503,17.843L73.503,17.843z"/>
	<path fill="#404B5A" d="M81.353,13.643H79.72c-0.449,0-0.814,0.367-0.814,0.815v15.428c0,0.451,0.365,0.816,0.814,0.816h1.633
		c0.451,0,0.814-0.365,0.814-0.816V14.458C82.167,14.009,81.804,13.643,81.353,13.643L81.353,13.643z"/>
	<path fill="#404B5A" d="M89.203,8.227H87.57c-0.453,0-0.816,0.366-0.816,0.816v20.843c0,0.451,0.363,0.816,0.816,0.816h1.633
		c0.447,0,0.812-0.365,0.812-0.816V9.043C90.015,8.593,89.65,8.227,89.203,8.227L89.203,8.227z"/>
	<path fill="#404B5A" d="M97.048,13.234h-1.631c-0.451,0-0.816,0.366-0.816,0.816v15.835c0,0.451,0.365,0.816,0.816,0.816h1.631
		c0.451,0,0.816-0.365,0.816-0.816V14.05C97.865,13.601,97.5,13.234,97.048,13.234L97.048,13.234z"/>
	<path fill="#CF7254" d="M96.234,5.876c-0.576,0-1.098,0.216-1.506,0.562l-4.117-2.975c0.072-0.229,0.123-0.469,0.123-0.724
		c0-1.297-1.051-2.35-2.348-2.35c-1.299,0-2.352,1.053-2.352,2.35c0,0.284,0.061,0.554,0.148,0.806l-4.461,3.472
		c-0.35-0.205-0.75-0.331-1.186-0.331c-1.299,0-2.35,1.053-2.35,2.351c0,0.078,0.014,0.153,0.023,0.231l-3.824,2.039
		c-0.428-0.448-1.029-0.73-1.697-0.73c-1.299,0-2.352,1.053-2.352,2.351c0,1.297,1.053,2.35,2.352,2.35
		c1.297,0,2.35-1.053,2.35-2.35c0-0.159-0.02-0.312-0.047-0.461l3.709-1.979c0.432,0.543,1.09,0.899,1.836,0.899
		c1.299,0,2.35-1.053,2.35-2.35c0-0.385-0.1-0.743-0.264-1.063l4.34-3.376c0.395,0.304,0.887,0.491,1.424,0.491
		c0.568,0,1.08-0.209,1.486-0.544l4.129,2.981c-0.068,0.223-0.119,0.455-0.119,0.7c0,1.298,1.053,2.351,2.352,2.351
		s2.35-1.053,2.35-2.351C98.583,6.93,97.533,5.876,96.234,5.876z"/>
</g>
<g>
	<g>
		<circle fill="#DEB248" cx="-116.402" cy="4.912" r="1.27"/>
		<circle fill="#81BBCD" cx="-110.801" cy="4.912" r="1.27"/>
		<path fill="#404B5A" d="M-89.491,0.006h-27.427c-2.269,0-4.112,1.84-4.112,4.109v21.946c0,2.267,1.843,4.118,4.112,4.118h20.677
			h2.13h4.62c2.279,0,4.118-1.851,4.118-4.118V4.116C-85.373,1.846-87.212,0.006-89.491,0.006z M-112.808,4.304
			c0-0.74,0.59-1.339,1.332-1.339h1.332c0.731,0,1.332,0.599,1.332,1.339v1.332c0,0.735-0.6,1.334-1.332,1.334h-1.332
			c-0.733,0-1.332-0.6-1.332-1.334V4.304z M-118.391,4.305c0-0.74,0.59-1.339,1.332-1.339h1.333c0.731,0,1.33,0.599,1.33,1.339
			v1.332c0,0.735-0.598,1.334-1.33,1.334h-1.333c-0.733,0-1.332-0.599-1.332-1.334V4.305z M-88.117,26.062
			c0,0.757-0.616,1.373-1.375,1.373h-4.62h-2.13h-20.677c-0.749,0-1.365-0.616-1.365-1.373V9.609h30.167V26.062z M-89.182,6.181
			h-16.51c-0.7,0-1.269-0.568-1.269-1.269c0-0.701,0.569-1.271,1.269-1.271h16.51c0.702,0,1.271,0.569,1.271,1.271
			C-87.911,5.613-88.479,6.181-89.182,6.181z"/>
	</g>
	<g>
		<path fill="#CF7254" d="M-101.408,19.11c0.086-2.895,1.956-5.428,4.762-6.884c0.256-0.134,0.406-0.362,0.406-0.601
			c0-0.063-0.013-0.13-0.035-0.195c-0.106-0.302-0.444-0.513-0.829-0.517h-0.106c-5.61,0-10.166,3.652-10.297,8.194h-1.632
			c-0.38,0-0.727,0.171-0.903,0.444c-0.081,0.122-0.121,0.255-0.121,0.388c0,0.164,0.062,0.327,0.18,0.469l4.741,5.642
			c0.168,0.202,0.451,0.322,0.752,0.324c0.299,0.001,0.582-0.12,0.754-0.321l4.803-5.64c0.12-0.14,0.182-0.307,0.182-0.473
			c0-0.133-0.04-0.264-0.118-0.386c-0.177-0.273-0.526-0.444-0.906-0.444H-101.408z M-101.408,19.11"/>
		<g>
			<path d="M-97.135,13.15"/>
		</g>
	</g>
</g>
</svg>
