<?xml version="1.0" encoding="utf-8"?>
<!-- Generator: Adobe Illustrator 16.0.0, SVG Export Plug-In . SVG Version: 6.00 Build 0)  -->
<!DOCTYPE svg PUBLIC "-//W3C//DTD SVG 1.1//EN" "http://www.w3.org/Graphics/SVG/1.1/DTD/svg11.dtd">
<svg version="1.1" id="Capa_1" xmlns="http://www.w3.org/2000/svg" xmlns:xlink="http://www.w3.org/1999/xlink" x="0px" y="0px"
	 width="36.41px" height="26.531px" viewBox="0 0 36.41 26.531" enable-background="new 0 0 36.41 26.531" xml:space="preserve">
<g>
	<g>
		<path d="M-343.865,21.747"/>
		<g>
			<g>
				<path fill="#CF7254" d="M-344.905,8.839c-0.456,0.458-0.456,1.2,0,1.655l6.374,6.375l-1.147,1.148
					c-0.384,0.383-0.384,1.004,0,1.387l0.691,0.69c0.344,1.447,0.688,2.896,1.033,4.342l0.798,3.348
					c0.055,0.224,0.217,0.406,0.433,0.486c0.076,0.028,0.157,0.042,0.236,0.042c0.143,0,0.286-0.046,0.405-0.134
					c4.021-2.958,7.559-6.497,10.518-10.517c0.136-0.185,0.169-0.426,0.091-0.642c-0.079-0.217-0.261-0.378-0.485-0.432
					l-2.673-0.637c-1.674-0.398-3.345-0.796-5.019-1.194l-0.691-0.691c-0.38-0.384-1.002-0.384-1.383,0l-1.15,1.148l-6.374-6.375
					C-343.706,8.383-344.448,8.383-344.905,8.839L-344.905,8.839z M-337.52,20.338l4.115-4.114l6.108,1.456
					c-0.462,0.603-0.939,1.193-1.43,1.772l-2.562-0.91l1.792,1.793c-0.53,0.597-1.075,1.179-1.637,1.747l-1.422-0.892l0.897,1.418
					c-0.611,0.601-1.238,1.187-1.881,1.755l-1.787-1.787l0.905,2.548c-0.537,0.452-1.084,0.895-1.644,1.323L-337.52,20.338z
					 M-336.064,26.448"/>
			</g>
		</g>
		<g>
			<circle fill="#DEB248" cx="-361.1" cy="1.979" r="1.058"/>
			<circle fill="#81BBCD" cx="-356.439" cy="1.979" r="1.056"/>
		</g>
		<g>
			<path fill="#DEB248" d="M-346.926,9.378V8.16c0-0.336-0.273-0.608-0.609-0.608h-13.013c-0.337,0-0.609,0.272-0.609,0.608v1.218
				c0,0.334,0.272,0.606,0.609,0.606h13.013C-347.2,9.984-346.926,9.712-346.926,9.378L-346.926,9.378z"/>
			<path fill="#DEB248" d="M-349.852,13.694v-1.216c0-0.338-0.273-0.61-0.608-0.61h-7.288c-0.338,0-0.61,0.272-0.61,0.61v1.216
				c0,0.335,0.272,0.608,0.61,0.608h7.288C-350.125,14.302-349.852,14.029-349.852,13.694L-349.852,13.694z"/>
			<path fill="#DEB248" d="M-352.151,17.907V16.69c0-0.337-0.272-0.61-0.607-0.61h-3.036c-0.338,0-0.608,0.272-0.608,0.61v1.217
				c0,0.334,0.271,0.608,0.608,0.608h3.036C-352.423,18.515-352.151,18.241-352.151,17.907L-352.151,17.907z"/>
			<path fill="#DEB248" d="M-339.593,9.378V8.16c0-0.336-0.271-0.608-0.607-0.608h-0.646c-0.337,0-0.609,0.272-0.609,0.608v1.218
				c0,0.334,0.272,0.606,0.609,0.606h0.646C-339.865,9.984-339.593,9.712-339.593,9.378L-339.593,9.378z"/>
			<path fill="#DEB248" d="M-341.719,17.907V16.69c0-0.337-0.273-0.61-0.608-0.61h-7.29c-0.336,0-0.609,0.272-0.609,0.61v1.217
				c0,0.334,0.273,0.608,0.609,0.608h7.29C-341.993,18.515-341.719,18.241-341.719,17.907L-341.719,17.907z"/>
			<g>
				<g>
					<g>
						<path fill="#404B5A" d="M-340.614,21.676c-0.274-0.313-0.46-0.686-0.562-1.08h-1.437h-1.771h-17.203
							c-0.624,0-1.138-0.514-1.138-1.143V5.765h25.101v7.022c0.582-0.582,0.937-1.078,2.284-1.078V1.193
							c0-1.888-1.531-3.418-3.426-3.418h-22.821c-1.889,0-3.422,1.531-3.422,3.418v18.26c0,1.886,1.533,3.426,3.422,3.426h17.203
							h1.771h2.348L-340.614,21.676z M-352.246,0.799h13.736c0.584,0,1.057,0.473,1.057,1.057c0,0.583-0.473,1.057-1.057,1.057
							h-13.736c-0.583,0-1.057-0.474-1.057-1.057C-353.302,1.272-352.829,0.799-352.246,0.799z M-358.166,1.351
							c0-0.615,0.489-1.113,1.107-1.113h1.109c0.607,0,1.105,0.498,1.105,1.113v1.108c0,0.612-0.498,1.109-1.105,1.109h-1.109
							c-0.613,0-1.107-0.498-1.107-1.109V1.351z M-362.812,1.351c0-0.615,0.49-1.113,1.107-1.113h1.107
							c0.609,0,1.108,0.498,1.108,1.113v1.109c0,0.612-0.499,1.109-1.108,1.109h-1.107c-0.611,0-1.107-0.498-1.107-1.109V1.351z"/>
					</g>
				</g>
			</g>
		</g>
	</g>
	<g>
		<g>
			<path fill="#404B5A" d="M-223.406,3.517h-22.547c-0.715,0-1.411,0.579-1.559,1.292l-3.204,15.587
				c-0.146,0.713,0.312,1.292,1.025,1.292h22.547c0.716,0,1.411-0.578,1.559-1.292l3.204-15.587
				C-222.234,4.096-222.692,3.517-223.406,3.517L-223.406,3.517z M-226.104,8.734l-10.006,4.826c-0.432,0.208-0.924,0.208-1.269,0
				l-8.024-4.826c-0.581-0.349-0.659-1.166-0.175-1.819c0.324-0.438,0.834-0.71,1.332-0.71c0.221,0,0.427,0.054,0.601,0.159
				l7.458,4.487l9.303-4.487c0.216-0.104,0.446-0.159,0.665-0.159c0.496,0,0.896,0.272,1.04,0.708
				C-224.963,7.568-225.377,8.385-226.104,8.734L-226.104,8.734z M-226.104,8.734"/>
		</g>
		<path fill="#CF7254" d="M-259.166,6.922h9.714c0.516,0,0.931-0.417,0.931-0.931c0-0.515-0.415-0.932-0.931-0.932h-9.714
			c-0.514,0-0.932,0.417-0.932,0.932C-260.097,6.505-259.679,6.922-259.166,6.922L-259.166,6.922z M-259.166,6.922"/>
		<path fill="#CF7254" d="M-252.058,13.53h-9.716c-0.514,0-0.93,0.417-0.93,0.931c0,0.515,0.416,0.931,0.93,0.931h9.716
			c0.515,0,0.932-0.416,0.932-0.931C-251.126,13.946-251.543,13.53-252.058,13.53L-252.058,13.53z M-252.058,13.53"/>
		<path fill="#DEB248" d="M-249.825,10.172c0-0.515-0.416-0.931-0.93-0.931h-5.806c-0.514,0-0.933,0.416-0.933,0.931
			c0,0.513,0.419,0.93,0.933,0.93h5.806C-250.241,11.102-249.825,10.686-249.825,10.172L-249.825,10.172z M-249.825,10.172"/>
		<path fill="#DEB248" d="M-253.361,17.71h-3.103c-0.515,0-0.931,0.417-0.931,0.931c0,0.514,0.416,0.931,0.931,0.931h3.103
			c0.514,0,0.93-0.417,0.93-0.931C-252.431,18.127-252.847,17.71-253.361,17.71L-253.361,17.71z M-253.361,17.71"/>
	</g>
	<g>
		<path fill="#CF7254" d="M-302.785,5.684c0.161,0,0.323-0.039,0.472-0.116c0.335-0.176,0.548-0.525,0.548-0.904V3.52V3.035
			c3.546,0.084,6.649,1.95,8.434,4.75c0.163,0.256,0.443,0.404,0.734,0.404c0.08,0,0.159-0.011,0.239-0.034
			c0.371-0.106,0.628-0.442,0.633-0.828V7.223c0-5.599-4.474-10.144-10.04-10.277v-1.628c0-0.378-0.209-0.725-0.544-0.901
			c-0.148-0.079-0.312-0.119-0.475-0.119c-0.204,0-0.403,0.061-0.577,0.179l-6.912,4.731c-0.248,0.169-0.396,0.45-0.397,0.75
			c0,0.299,0.146,0.581,0.393,0.752l6.912,4.792C-303.192,5.623-302.989,5.684-302.785,5.684z"/>
		<path fill="#404B5A" d="M-292.597,9.874c-0.876,0-1.682-0.441-2.154-1.183c-1.229-1.929-3.156-3.264-5.343-3.76
			c-0.09,0.901-0.622,1.701-1.442,2.133c-0.386,0.199-0.818,0.304-1.248,0.304c-0.558,0-1.092-0.167-1.54-0.482l-3.243-2.248
			l-0.113,0.022v21.896l16.243,3.132V9.593c-0.142,0.071-0.29,0.133-0.447,0.179C-292.117,9.84-292.354,9.874-292.597,9.874z
			 M-297.408,21.11l-1.89-3.575c-0.072-0.132-0.146-0.375-0.222-0.734h-0.029c-0.039,0.168-0.117,0.423-0.255,0.767l-1.894,3.542
			h-2.946l3.495-5.483l-3.198-5.49h3.01l1.564,3.29c0.123,0.26,0.233,0.573,0.334,0.926h0.026c0.063-0.212,0.179-0.535,0.343-0.958
			l1.744-3.258h2.756l-3.289,5.442l3.38,5.531H-297.408z"/>
		<path fill="#404B5A" d="M-280.434,4.776h-9.86c0.162,0.79,0.254,1.605,0.254,2.447v0.125c-0.003,0.23-0.042,0.451-0.103,0.663
			h3.073v2.193h-3.284v2.153h3.248v2.168h-3.248v2.163h3.248v2.167h-3.248v2.162h3.248v2.169h-3.248v3.246h9.92
			c0.502,0,0.91-0.422,0.91-0.94V5.723C-279.524,5.198-279.932,4.776-280.434,4.776z M-281.693,23.188h-4.33v-2.169h4.33V23.188z
			 M-281.693,18.857h-4.33v-2.167h4.33V18.857z M-281.693,14.526h-4.33v-2.168h4.33V14.526z M-281.693,10.19h-4.33V8.028h4.33V10.19
			z"/>
	</g>
	<g>
		<g>
			<path fill="#404B5A" d="M-210.724,14.458h-1.568c-0.434,0-0.783,0.353-0.783,0.784v12.836c0,0.433,0.35,0.784,0.783,0.784h1.568
				c0.432,0,0.783-0.351,0.783-0.784V15.241C-209.94,14.81-210.292,14.458-210.724,14.458L-210.724,14.458z"/>
			<path fill="#404B5A" d="M-203.185,9.255h-1.568c-0.432,0-0.783,0.352-0.783,0.784v18.038c0,0.433,0.352,0.784,0.783,0.784h1.568
				c0.432,0,0.783-0.351,0.783-0.784V10.04C-202.401,9.607-202.753,9.255-203.185,9.255L-203.185,9.255z"/>
			<path fill="#404B5A" d="M-195.644,14.065h-1.568c-0.432,0-0.783,0.353-0.783,0.784v13.228c0,0.433,0.352,0.784,0.783,0.784h1.568
				c0.432,0,0.783-0.351,0.783-0.784V14.85C-194.86,14.418-195.212,14.065-195.644,14.065L-195.644,14.065z"/>
			<path fill="#DEB248" d="M-188.901-3.725c-1.248,0-2.258,1.01-2.258,2.257c0,0.544,0.201,1.038,0.521,1.428l-5.012,7.183
				c-0.244-0.089-0.504-0.146-0.777-0.146c-0.555,0-1.055,0.207-1.449,0.539l-3.955-2.857c0.072-0.221,0.119-0.452,0.119-0.696
				c0-1.247-1.008-2.257-2.256-2.257c-1.246,0-2.26,1.011-2.26,2.257c0,0.273,0.057,0.533,0.146,0.775l-4.289,3.336
				c-0.336-0.198-0.721-0.318-1.139-0.318c-1.246,0-2.258,1.011-2.258,2.257c0,1.247,1.012,2.259,2.258,2.259
				c1.248,0,2.258-1.012,2.258-2.259c0-0.369-0.098-0.712-0.254-1.02l4.17-3.243c0.381,0.292,0.85,0.472,1.367,0.472
				c0.545,0,1.039-0.201,1.428-0.523l3.969,2.865c-0.068,0.213-0.115,0.437-0.115,0.672c0,1.248,1.014,2.258,2.26,2.258
				c1.248,0,2.256-1.01,2.256-2.258c0-0.515-0.178-0.984-0.469-1.364l5.039-7.222c0.221,0.072,0.453,0.122,0.699,0.122
				c1.246,0,2.258-1.011,2.258-2.258S-187.655-3.725-188.901-3.725z"/>
			<g>
				<path stroke="#FFFFFF" stroke-width="2" stroke-miterlimit="10" d="M-192.712,25.932"/>
				<g>
					<g>
						<g>
							<path fill="#404B5A" d="M-190.478,13.389L-190.478,13.389c0.748-0.66,2.148-1.23,3.143-1.301V4.375
								c0-0.431-0.352-0.784-0.783-0.784h-1.568c-0.434,0-0.783,0.353-0.783,0.784v8.577
								C-190.478,13.389-190.503,13.389-190.478,13.389z"/>
							<path fill="#404B5A" d="M-187.335,25.139c-1.566-0.042-3.051-1.272-3.135-1.426v4.365c0,0.433,0.35,0.784,0.783,0.784h1.568
								c0.432,0,0.783-0.351,0.783-0.784V25.139L-187.335,25.139z"/>
						</g>
					</g>
				</g>
			</g>
		</g>
		<g>
			<path fill="#CF7254" d="M-185.116,13.688c-3.57,0-6.666,2.08-8.188,5.116c1.521,3.039,4.617,5.118,8.188,5.118
				s6.664-2.079,8.188-5.118C-178.452,15.768-181.546,13.688-185.116,13.688L-185.116,13.688z M-181.079,16.402
				c0.961,0.612,1.775,1.436,2.389,2.402c-0.613,0.968-1.428,1.791-2.389,2.404c-1.209,0.771-2.605,1.178-4.037,1.178
				c-1.434,0-2.828-0.407-4.037-1.178c-0.963-0.614-1.777-1.436-2.389-2.404c0.611-0.966,1.426-1.79,2.389-2.402
				c0.062-0.041,0.125-0.08,0.191-0.118c-0.162,0.437-0.248,0.909-0.248,1.4c0,2.261,1.832,4.094,4.094,4.094
				s4.092-1.833,4.092-4.094c0-0.491-0.086-0.963-0.244-1.4C-181.206,16.322-181.144,16.361-181.079,16.402L-181.079,16.402z
				 M-185.116,17.173c0,0.848-0.688,1.536-1.535,1.536c-0.85,0-1.535-0.688-1.535-1.536s0.686-1.535,1.535-1.535
				C-185.804,15.638-185.116,16.326-185.116,17.173L-185.116,17.173z M-185.116,17.173"/>
		</g>
	</g>
	<g>
		<path fill="#CF7254" d="M-156.129-5.931c2.775,1.768,4.623,4.841,4.707,8.356h-1.613c-0.377,0-0.723,0.208-0.896,0.541
			c-0.076,0.148-0.115,0.308-0.115,0.468c0,0.056,0.016,0.108,0.025,0.164l0,0V3.6c0.012,0.065,0.025,0.128,0.049,0.192
			c0.027,0.075,0.059,0.15,0.105,0.217l4.748,6.847c0.17,0.244,0.449,0.39,0.744,0.39c0.297-0.002,0.576-0.148,0.744-0.394
			l1.844-2.694l0,0l1.863-2.724l0,0l0.98-1.43c0.115-0.171,0.176-0.37,0.176-0.569c0-0.162-0.039-0.325-0.117-0.471
			c-0.174-0.331-0.52-0.54-0.893-0.54h-1.613c-0.131-5.514-4.635-9.946-10.18-9.946h-0.104c-0.383,0.004-0.717,0.259-0.82,0.627
			c-0.023,0.078-0.035,0.158-0.035,0.236C-156.53-6.371-156.381-6.092-156.129-5.931z"/>
		<path fill="#404B5A" d="M-135.959,5.434h-5.941l-2.195,3.206h1.562v2.172h-3.049l-0.205,0.299v1.835h3.219v2.147h-3.219v2.143
			h3.219v2.147h-3.219v2.142h3.219v2.149h-3.219v3.216h9.828c0.496,0,0.9-0.42,0.9-0.932V6.371
			C-135.059,5.852-135.463,5.434-135.959,5.434z M-137.206,23.673h-4.291v-2.149h4.291V23.673z M-137.206,19.383h-4.291v-2.147
			h4.291V19.383z M-137.206,15.093h-4.291v-2.147h4.291V15.093z M-137.206,10.797h-4.291V8.656h4.291V10.797z"/>
		<path fill="#404B5A" d="M-150.487,11.809l-0.064-0.09l-2.67,4.417l3.35,5.479h-2.904l-1.869-3.542
			c-0.074-0.13-0.146-0.372-0.221-0.727h-0.031c-0.037,0.167-0.115,0.419-0.252,0.76l-1.873,3.509h-2.92l3.463-5.432l-3.168-5.439
			h2.98l1.551,3.259c0.119,0.257,0.23,0.567,0.328,0.917h0.025c0.064-0.211,0.18-0.53,0.34-0.948l1.73-3.229h1.465l-4.012-5.783
			c-0.219-0.314-0.361-0.67-0.428-1.046l-7.287,1.405v21.69l16.092,3.103V12.398c-0.434,0.318-0.953,0.513-1.506,0.516
			C-149.211,12.917-150.004,12.504-150.487,11.809z"/>
	</g>
	<g>
		<path fill="#CF7254" d="M-110.362,3.328c0-0.164,0.039-0.325,0.117-0.475c0.174-0.337,0.525-0.547,0.906-0.547h1.145h0.488
			c-0.086-3.556-1.957-6.667-4.766-8.458c-0.254-0.163-0.404-0.444-0.404-0.736c0-0.079,0.014-0.161,0.035-0.239
			c0.107-0.373,0.443-0.63,0.828-0.635h0.105c5.613,0,10.172,4.486,10.305,10.067h1.633c0.379,0,0.729,0.209,0.902,0.546
			c0.08,0.148,0.121,0.312,0.121,0.475c0,0.204-0.062,0.404-0.18,0.579l-4.742,6.931c-0.172,0.247-0.453,0.396-0.754,0.396
			c-0.299,0.002-0.582-0.147-0.752-0.394l-4.807-6.929C-110.302,3.736-110.362,3.532-110.362,3.328z"/>
		<path fill="#404B5A" d="M-91.511,5.275l-6.887,0.063l-1.852,2.519h2.391l4.867,0.012l0.049,16.93h-8.514v2.192h9.945
			c0.504,0,0.912-0.424,0.912-0.944V6.226C-90.599,5.7-91.007,5.275-91.511,5.275z"/>
		<path fill="#404B5A" d="M-111.394,12.274c-0.723,0-1.273,0.057-1.559,0.132v4.982c0.361,0.095,0.818,0.134,1.369,0.134
			c1.998,0,3.213-0.969,3.213-2.738C-108.37,13.091-109.567,12.274-111.394,12.274z"/>
		<path fill="#404B5A" d="M-99.731,16.551l2.838,2.837l2.84-2.837l-0.896-0.896l-1.205,0.001v-5.335
			c0-0.323-0.254-0.584-0.562-0.584h-4.855c0,0-0.789,1.221-1.082,1.571c-0.129,0.155-0.494,1.083-1.998,1.083
			c-1.258,0-1.752-0.745-2.008-1.056c-0.561-0.679-3.92-5.15-4.396-5.89c-0.371-0.573-0.918-1.256-0.918-1.896l-6.855,1.611v21.953
			l16.287,3.14v-8.892l1.809,1.809l2.836-2.838l-2.836-2.839l-1.809,1.809v-7.97l4.916,0.003l0.025,4.323l-1.234,0.003
			L-99.731,16.551z M-107.706,17.445c-0.873,0.934-2.299,1.408-3.914,1.408c-0.496,0-0.955-0.021-1.332-0.114v5.133h-1.654V11.209
			c0.797-0.134,1.844-0.247,3.174-0.247c1.637,0,2.834,0.38,3.596,1.065c0.703,0.608,1.121,1.542,1.121,2.681
			C-106.716,15.868-107.06,16.78-107.706,17.445z"/>
	</g>
	<g>
		<path fill="#404B5A" d="M-9.648,16.117l-4.992,9.444c-0.244,0.47-0.936,0.968-1.471,0.968l-20.014,0.002
			c-0.424,0-0.828-0.167-1.127-0.466c-0.299-0.297-0.467-0.703-0.467-1.126l0.002-15.541c0-0.878,0.713-1.593,1.594-1.593
			l1.461-0.003v1.359h-0.979c-0.191,0-0.373,0.076-0.512,0.21c-0.135,0.137-0.211,0.32-0.211,0.512l0.002,14.568
			c0,0.4,0.324,0.724,0.725,0.724h1.002l4.729-9.568c0.268-0.536,0.773-0.966,1.307-0.966h11.584l0.004-3.851
			c0.758,0.071,1.354,0.697,1.354,1.471v2.38h5.312C-9.721,14.646-9.191,15.267-9.648,16.117L-9.648,16.117z"/>
		<path fill="#CF7254" d="M-18.146,3.869l-3.381-3.676C-21.641,0.07-21.801,0-21.969,0h-10.463c-0.719,0-1.307,0.586-1.307,1.307
			c0,0-0.043,14.289,0,19.053c0.004,0.481,0.26,0.499,0.26,0.5l0.838-1.7V1.307c0-0.116,0.096-0.21,0.209-0.21h9.662
			c0.15,0,0.273,0.123,0.273,0.273v2.905c0,0.304,0.246,0.549,0.549,0.549h2.59c0.152,0,0.273,0.123,0.273,0.273v8.7h1.098V4.274
			C-17.986,4.124-18.045,3.979-18.146,3.869z M-21.396,3.727V1.956l1.629,1.771H-21.396z"/>
		<path fill="#DEB248" d="M-20.803,5.942h-10.113c-0.371,0-0.674,0.303-0.674,0.673c0,0.374,0.303,0.677,0.674,0.677h10.113
			c0.373,0,0.676-0.304,0.676-0.677C-20.127,6.245-20.43,5.942-20.803,5.942L-20.803,5.942z"/>
		<path fill="#DEB248" d="M-20.127,10.548c0-0.371-0.303-0.673-0.676-0.673h-10.113c-0.371,0-0.674,0.302-0.674,0.673
			c0,0.373,0.303,0.676,0.674,0.676h10.113C-20.43,11.224-20.127,10.92-20.127,10.548L-20.127,10.548z"/>
		<path fill="#DEB248" d="M-31.59,14.509c0,0.371,0.303,0.673,0.674,0.673h0.242c0.428-1.189,1.486-1.349,1.486-1.349h-1.729
			C-31.287,13.833-31.59,14.135-31.59,14.509L-31.59,14.509z"/>
	</g>
	<g>
		<path fill="#DEB248" d="M-61.694,10.914h-12.359c-0.447,0-0.791,0.345-0.791,0.792c0,0.445,0.344,0.805,0.791,0.805h12.359
			c0.445,0,0.791-0.359,0.791-0.805C-60.903,11.259-61.249,10.914-61.694,10.914L-61.694,10.914z M-61.694,10.914"/>
		<g>
			<path fill="#CF7254" d="M-64.298,20.887l-1.119,3.835c-0.023,0.084-0.043,0.167-0.043,0.25c0,0.348,0.344,0.71,0.789,0.71
				c0.104,0,0.176-0.013,0.232-0.028l3.928-1.105L-64.298,20.887z"/>
			<path fill="#CF7254" d="M-50.005,12.212l-1.785-1.788c-0.34-0.339-0.711-0.5-1.146-0.5c-0.371,0-0.707,0.147-1,0.437
				l-1.986,1.952l-7.273,7.276l3.908,3.819l7.301-7.286l1.951-1.952c0.26-0.258,0.404-0.581,0.453-0.967
				C-49.583,12.766-49.729,12.486-50.005,12.212z"/>
		</g>
		<path fill="#DEB248" d="M-61.722,15.269c0-0.445-0.348-0.79-0.791-0.79h-11.541c-0.447,0-0.791,0.345-0.791,0.79
			s0.344,0.805,0.791,0.805h11.541C-62.069,16.074-61.722,15.714-61.722,15.269L-61.722,15.269z"/>
		<path fill="#DEB248" d="M-68.319,18.014h-5.734c-0.447,0-0.791,0.346-0.791,0.79c0,0.447,0.344,0.792,0.791,0.792h5.734
			c0.447,0,0.805-0.344,0.805-0.792C-67.515,18.359-67.872,18.014-68.319,18.014L-68.319,18.014z"/>
		<path fill="#DEB248" d="M-68.319,21.579h-5.734c-0.447,0-0.791,0.345-0.791,0.79c0,0.446,0.344,0.79,0.791,0.79h5.734
			c0.447,0,0.805-0.343,0.805-0.79C-67.515,21.924-67.872,21.579-68.319,21.579L-68.319,21.579z M-68.319,21.579"/>
		<path fill="#404B5A" d="M-58.159,7.38l-7.654-8.522L-75.88-1.107c-0.488,0-0.906,0.171-1.234,0.503
			c-0.332,0.331-0.504,0.747-0.504,1.222v24.107c0,0.978,0.76,1.726,1.738,1.726h8.743l0.209-1.58h-8.952
			c-0.102,0-0.143-0.042-0.143-0.146V0.617c0-0.101,0.041-0.145,0.143-0.145l8.7-0.01v6.743c0,0.978,0.744,1.769,1.721,1.769h5.734
			v4.83l1.594-1.512V7.38H-58.159z M-65.567,7.378c-0.1,0-0.143-0.057-0.143-0.172V1.335l5.445,6.042H-65.567z"/>
	</g>
	<g>
		<g>
			<path fill="#CF7254" d="M19.58,3.887l-3.379-3.673c-0.113-0.123-0.273-0.192-0.441-0.192H5.307C4.588,0.021,4,0.607,4,1.327
				c0,0-0.043,14.276,0,19.037c0.006,0.48,0.26,0.499,0.26,0.499l0.838-1.697V1.327c0-0.116,0.096-0.21,0.211-0.21h9.652
				c0.15,0,0.273,0.123,0.273,0.272v2.903c0,0.302,0.246,0.549,0.549,0.549h2.586c0.152,0,0.275,0.122,0.275,0.272v8.692h1.096
				V4.292C19.74,4.141,19.684,3.998,19.58,3.887z M16.33,3.746V1.975l1.631,1.771H16.33z"/>
			<path fill="#DEB248" d="M16.926,5.958H6.822c-0.373,0-0.674,0.304-0.674,0.673c0,0.374,0.301,0.676,0.674,0.676h10.104
				c0.373,0,0.674-0.302,0.674-0.676C17.6,6.262,17.299,5.958,16.926,5.958L16.926,5.958z"/>
			<path fill="#DEB248" d="M17.6,10.561c0-0.371-0.301-0.673-0.674-0.673H6.822c-0.373,0-0.674,0.302-0.674,0.673
				c0,0.373,0.301,0.676,0.674,0.676h10.104C17.299,11.236,17.6,10.934,17.6,10.561L17.6,10.561z"/>
			<path fill="#DEB248" d="M6.148,14.518c0,0.371,0.301,0.673,0.674,0.673h0.242c0.428-1.188,1.482-1.349,1.482-1.349H6.822
				C6.449,13.843,6.148,14.145,6.148,14.518L6.148,14.518z"/>
			<path fill="#CF7254" d="M6.148,14.518"/>
		</g>
		<g>
			<path fill="#CF7254" d="M36.277,17.168c-0.195-0.374-0.584-0.609-1.01-0.609h-1.822c-0.148-6.233-5.24-11.244-11.51-11.244H21.82
				c-0.434,0.005-0.809,0.293-0.93,0.709c-0.023,0.089-0.035,0.179-0.035,0.267c0,0.326,0.166,0.641,0.449,0.824
				c3.137,1.999,5.227,5.473,5.324,9.446h-1.828c-0.424,0-0.812,0.235-1.01,0.611c-0.088,0.168-0.131,0.348-0.131,0.53
				c0,0-0.049,0.289,0.203,0.649l5.365,7.741c0.193,0.276,0.51,0.441,0.846,0.44c0.334-0.002,0.65-0.167,0.838-0.444l2.086-3.046
				l2.105-3.079l1.105-1.616c0.135-0.193,0.201-0.418,0.201-0.644C36.41,17.518,36.367,17.334,36.277,17.168z"/>
			<g>
				<path fill="#404B5A" d="M22.318,19.431c-0.502-0.719-0.562-1.409-0.543-1.794c0.01-0.459,0.125-0.918,0.346-1.34
					c0.477-0.912,1.373-1.508,2.383-1.607c-0.004-0.013-0.008-0.026-0.01-0.039h-2.428v-2.379c0-0.773-0.598-1.399-1.354-1.47
					l-0.002,3.849H9.135c-0.531,0-1.037,0.43-1.305,0.965l-4.725,9.561H2.104c-0.4,0-0.725-0.324-0.725-0.724V9.896
					c0-0.191,0.076-0.375,0.211-0.511c0.137-0.134,0.318-0.21,0.512-0.21H3.08V7.816L1.617,7.819c-0.879,0-1.59,0.714-1.59,1.592
					L0.023,24.94c0,0.423,0.168,0.828,0.465,1.125c0.301,0.299,0.703,0.466,1.129,0.466l19.996-0.003
					c0.535,0,1.225-0.497,1.471-0.967l1.508-2.852L22.318,19.431z"/>
			</g>
		</g>
	</g>
</g>
</svg>
