<?xml version="1.0" encoding="utf-8"?>
<!-- Generator: Adobe Illustrator 16.0.0, SVG Export Plug-In . SVG Version: 6.00 Build 0)  -->
<!DOCTYPE svg PUBLIC "-//W3C//DTD SVG 1.1//EN" "http://www.w3.org/Graphics/SVG/1.1/DTD/svg11.dtd">
<svg version="1.1" id="Capa_1" xmlns="http://www.w3.org/2000/svg" xmlns:xlink="http://www.w3.org/1999/xlink" x="0px" y="0px"
	 width="27.984px" height="37.634px" viewBox="0 0 27.984 37.634" enable-background="new 0 0 27.984 37.634" xml:space="preserve">
<g>
	<g>
		<path d="M-180.822,29.269"/>
		<g>
			<g>
				<path fill="#CF7254" d="M-181.862,16.361c-0.456,0.458-0.456,1.2,0,1.655l6.374,6.375l-1.147,1.148
					c-0.384,0.383-0.384,1.004,0,1.387l0.691,0.69c0.344,1.447,0.688,2.896,1.033,4.342l0.798,3.348
					c0.055,0.224,0.217,0.406,0.433,0.486c0.076,0.028,0.157,0.042,0.236,0.042c0.143,0,0.286-0.046,0.405-0.134
					c4.021-2.958,7.559-6.497,10.518-10.517c0.136-0.185,0.169-0.426,0.091-0.642c-0.079-0.217-0.261-0.378-0.485-0.432
					l-2.673-0.637c-1.674-0.398-3.345-0.796-5.019-1.194l-0.691-0.691c-0.38-0.384-1.002-0.384-1.383,0l-1.15,1.148l-6.374-6.375
					C-180.663,15.905-181.405,15.905-181.862,16.361L-181.862,16.361z M-174.477,27.86l4.115-4.114l6.108,1.456
					c-0.462,0.603-0.939,1.193-1.43,1.772l-2.562-0.91l1.792,1.793c-0.53,0.597-1.075,1.179-1.637,1.747l-1.422-0.892l0.897,1.418
					c-0.611,0.601-1.238,1.187-1.881,1.755l-1.787-1.787l0.905,2.548c-0.537,0.452-1.084,0.895-1.644,1.323L-174.477,27.86z
					 M-173.021,33.97"/>
			</g>
		</g>
		<g>
			<circle fill="#DEB248" cx="-198.057" cy="9.501" r="1.058"/>
			<circle fill="#81BBCD" cx="-193.396" cy="9.501" r="1.056"/>
		</g>
		<g>
			<path fill="#DEB248" d="M-183.883,16.9v-1.218c0-0.336-0.273-0.608-0.609-0.608h-13.013c-0.337,0-0.609,0.272-0.609,0.608V16.9
				c0,0.334,0.272,0.606,0.609,0.606h13.013C-184.157,17.507-183.883,17.235-183.883,16.9L-183.883,16.9z"/>
			<path fill="#DEB248" d="M-186.809,21.216V20c0-0.338-0.273-0.61-0.608-0.61h-7.288c-0.338,0-0.61,0.272-0.61,0.61v1.216
				c0,0.335,0.272,0.608,0.61,0.608h7.288C-187.083,21.825-186.809,21.552-186.809,21.216L-186.809,21.216z"/>
			<path fill="#DEB248" d="M-189.108,25.429v-1.217c0-0.337-0.272-0.61-0.607-0.61h-3.036c-0.338,0-0.608,0.272-0.608,0.61v1.217
				c0,0.334,0.271,0.608,0.608,0.608h3.036C-189.38,26.037-189.108,25.764-189.108,25.429L-189.108,25.429z"/>
			<path fill="#DEB248" d="M-176.55,16.9v-1.218c0-0.336-0.271-0.608-0.607-0.608h-0.646c-0.337,0-0.609,0.272-0.609,0.608V16.9
				c0,0.334,0.272,0.606,0.609,0.606h0.646C-176.822,17.507-176.55,17.235-176.55,16.9L-176.55,16.9z"/>
			<path fill="#DEB248" d="M-178.676,25.429v-1.217c0-0.337-0.273-0.61-0.608-0.61h-7.29c-0.336,0-0.609,0.272-0.609,0.61v1.217
				c0,0.334,0.273,0.608,0.609,0.608h7.29C-178.95,26.037-178.676,25.764-178.676,25.429L-178.676,25.429z"/>
			<g>
				<g>
					<g>
						<path fill="#404B5A" d="M-177.571,29.199c-0.274-0.313-0.46-0.686-0.562-1.08h-1.437h-1.771h-17.203
							c-0.624,0-1.138-0.514-1.138-1.143V13.288h25.101v7.022c0.582-0.582,0.937-1.078,2.284-1.078V8.716
							c0-1.888-1.531-3.418-3.426-3.418h-22.821c-1.889,0-3.422,1.531-3.422,3.418v18.26c0,1.886,1.533,3.426,3.422,3.426h17.203
							h1.771h2.348L-177.571,29.199z M-189.203,8.322h13.736c0.584,0,1.057,0.473,1.057,1.057c0,0.583-0.473,1.057-1.057,1.057
							h-13.736c-0.583,0-1.057-0.474-1.057-1.057C-190.259,8.795-189.786,8.322-189.203,8.322z M-195.123,8.873
							c0-0.615,0.489-1.113,1.107-1.113h1.109c0.607,0,1.105,0.498,1.105,1.113v1.108c0,0.612-0.498,1.109-1.105,1.109h-1.109
							c-0.613,0-1.107-0.498-1.107-1.109V8.873z M-199.769,8.873c0-0.615,0.49-1.113,1.107-1.113h1.107
							c0.609,0,1.108,0.498,1.108,1.113v1.109c0,0.612-0.499,1.109-1.108,1.109h-1.107c-0.611,0-1.107-0.498-1.107-1.109V8.873z"/>
					</g>
				</g>
			</g>
		</g>
	</g>
	<g>
		<g>
			<path fill="#404B5A" d="M-60.363,11.04H-82.91c-0.715,0-1.411,0.579-1.559,1.292l-3.204,15.587
				c-0.146,0.713,0.312,1.292,1.025,1.292H-64.1c0.716,0,1.411-0.578,1.559-1.292l3.204-15.587
				C-59.191,11.619-59.649,11.04-60.363,11.04L-60.363,11.04z M-63.061,16.256l-10.006,4.826c-0.432,0.208-0.924,0.208-1.269,0
				l-8.024-4.826c-0.581-0.349-0.659-1.166-0.175-1.819c0.324-0.438,0.834-0.71,1.332-0.71c0.221,0,0.427,0.054,0.601,0.159
				l7.458,4.487l9.303-4.487c0.216-0.104,0.446-0.159,0.665-0.159c0.496,0,0.896,0.272,1.04,0.708
				C-61.92,15.091-62.334,15.907-63.061,16.256L-63.061,16.256z M-63.061,16.256"/>
		</g>
		<path fill="#CF7254" d="M-96.123,14.444h9.714c0.516,0,0.931-0.417,0.931-0.931c0-0.515-0.415-0.932-0.931-0.932h-9.714
			c-0.514,0-0.932,0.417-0.932,0.932C-97.054,14.028-96.636,14.444-96.123,14.444L-96.123,14.444z M-96.123,14.444"/>
		<path fill="#CF7254" d="M-89.015,21.052h-9.716c-0.514,0-0.93,0.417-0.93,0.931c0,0.515,0.416,0.931,0.93,0.931h9.716
			c0.515,0,0.932-0.416,0.932-0.931C-88.083,21.469-88.5,21.052-89.015,21.052L-89.015,21.052z M-89.015,21.052"/>
		<path fill="#DEB248" d="M-86.782,17.694c0-0.515-0.416-0.931-0.93-0.931h-5.806c-0.514,0-0.933,0.416-0.933,0.931
			c0,0.513,0.419,0.93,0.933,0.93h5.806C-87.198,18.624-86.782,18.208-86.782,17.694L-86.782,17.694z M-86.782,17.694"/>
		<path fill="#DEB248" d="M-90.318,25.232h-3.103c-0.515,0-0.931,0.417-0.931,0.931c0,0.514,0.416,0.931,0.931,0.931h3.103
			c0.514,0,0.93-0.417,0.93-0.931C-89.388,25.649-89.804,25.232-90.318,25.232L-90.318,25.232z M-90.318,25.232"/>
	</g>
	<g>
		<path fill="#CF7254" d="M-139.742,13.206c0.161,0,0.323-0.039,0.472-0.116c0.335-0.176,0.548-0.525,0.548-0.904v-1.144v-0.485
			c3.546,0.084,6.649,1.95,8.434,4.75c0.163,0.256,0.443,0.404,0.734,0.404c0.08,0,0.159-0.011,0.239-0.034
			c0.371-0.106,0.628-0.442,0.633-0.828v-0.104c0-5.599-4.474-10.144-10.04-10.277V2.84c0-0.378-0.209-0.725-0.544-0.901
			c-0.148-0.079-0.312-0.119-0.475-0.119c-0.204,0-0.403,0.061-0.577,0.179l-6.912,4.731c-0.248,0.169-0.396,0.45-0.397,0.75
			c0,0.299,0.146,0.581,0.393,0.752l6.912,4.792C-140.149,13.145-139.946,13.206-139.742,13.206z"/>
		<path fill="#404B5A" d="M-129.554,17.396c-0.876,0-1.682-0.441-2.154-1.183c-1.229-1.929-3.156-3.264-5.343-3.76
			c-0.09,0.901-0.622,1.701-1.442,2.133c-0.386,0.199-0.818,0.304-1.248,0.304c-0.558,0-1.092-0.167-1.54-0.482l-3.243-2.248
			l-0.113,0.022v21.896l16.243,3.132V17.116c-0.142,0.071-0.29,0.133-0.447,0.179C-129.074,17.362-129.311,17.396-129.554,17.396z
			 M-134.365,28.632l-1.89-3.575c-0.072-0.132-0.146-0.375-0.222-0.734h-0.029c-0.039,0.168-0.117,0.423-0.255,0.767l-1.894,3.542
			h-2.946l3.495-5.483l-3.198-5.49h3.01l1.564,3.29c0.123,0.26,0.233,0.573,0.334,0.926h0.026c0.063-0.212,0.179-0.535,0.343-0.958
			l1.744-3.258h2.756l-3.289,5.442l3.38,5.531H-134.365z"/>
		<path fill="#404B5A" d="M-117.391,12.298h-9.86c0.162,0.79,0.254,1.605,0.254,2.447v0.125c-0.003,0.23-0.042,0.451-0.103,0.663
			h3.073v2.193h-3.284v2.153h3.248v2.168h-3.248v2.163h3.248v2.167h-3.248v2.162h3.248v2.169h-3.248v3.246h9.92
			c0.502,0,0.91-0.422,0.91-0.94V13.245C-116.481,12.721-116.889,12.298-117.391,12.298z M-118.65,30.71h-4.33v-2.169h4.33V30.71z
			 M-118.65,26.379h-4.33v-2.167h4.33V26.379z M-118.65,22.049h-4.33v-2.168h4.33V22.049z M-118.65,17.712h-4.33v-2.162h4.33V17.712
			z"/>
	</g>
	<g>
		<g>
			<path fill="#404B5A" d="M-47.681,21.98h-1.568c-0.434,0-0.783,0.353-0.783,0.784V35.6c0,0.433,0.35,0.784,0.783,0.784h1.568
				c0.432,0,0.783-0.351,0.783-0.784V22.764C-46.897,22.333-47.249,21.98-47.681,21.98L-47.681,21.98z"/>
			<path fill="#404B5A" d="M-40.142,16.778h-1.568c-0.432,0-0.783,0.352-0.783,0.784V35.6c0,0.433,0.352,0.784,0.783,0.784h1.568
				c0.432,0,0.783-0.351,0.783-0.784V17.562C-39.358,17.129-39.71,16.778-40.142,16.778L-40.142,16.778z"/>
			<path fill="#404B5A" d="M-32.601,21.588h-1.568c-0.432,0-0.783,0.353-0.783,0.784V35.6c0,0.433,0.352,0.784,0.783,0.784h1.568
				c0.432,0,0.783-0.351,0.783-0.784V22.372C-31.817,21.941-32.169,21.588-32.601,21.588L-32.601,21.588z"/>
			<path fill="#DEB248" d="M-25.858,3.797c-1.248,0-2.258,1.01-2.258,2.257c0,0.544,0.201,1.038,0.521,1.428l-5.012,7.183
				c-0.244-0.089-0.504-0.146-0.777-0.146c-0.555,0-1.055,0.207-1.449,0.539l-3.955-2.857c0.072-0.221,0.119-0.452,0.119-0.696
				c0-1.247-1.008-2.257-2.256-2.257c-1.246,0-2.26,1.011-2.26,2.257c0,0.273,0.057,0.533,0.146,0.775l-4.289,3.336
				c-0.336-0.198-0.721-0.318-1.139-0.318c-1.246,0-2.258,1.011-2.258,2.257c0,1.247,1.012,2.259,2.258,2.259
				c1.248,0,2.258-1.012,2.258-2.259c0-0.369-0.098-0.712-0.254-1.02l4.17-3.243c0.381,0.292,0.85,0.472,1.367,0.472
				c0.545,0,1.039-0.201,1.428-0.523l3.969,2.865c-0.068,0.213-0.115,0.437-0.115,0.672c0,1.248,1.014,2.258,2.26,2.258
				c1.248,0,2.256-1.01,2.256-2.258c0-0.515-0.178-0.984-0.469-1.364l5.039-7.222c0.221,0.072,0.453,0.122,0.699,0.122
				c1.246,0,2.258-1.011,2.258-2.258S-24.612,3.797-25.858,3.797z"/>
			<g>
				<path stroke="#FFFFFF" stroke-width="2" stroke-miterlimit="10" d="M-29.669,33.454"/>
				<g>
					<g>
						<g>
							<path fill="#404B5A" d="M-27.435,20.911L-27.435,20.911c0.748-0.66,2.148-1.23,3.143-1.301v-7.713
								c0-0.431-0.352-0.784-0.783-0.784h-1.568c-0.434,0-0.783,0.353-0.783,0.784v8.577C-27.435,20.911-27.46,20.911-27.435,20.911
								z"/>
							<path fill="#404B5A" d="M-24.292,32.661c-1.566-0.042-3.051-1.272-3.135-1.426V35.6c0,0.433,0.35,0.784,0.783,0.784h1.568
								c0.432,0,0.783-0.351,0.783-0.784V32.661L-24.292,32.661z"/>
						</g>
					</g>
				</g>
			</g>
		</g>
		<g>
			<path fill="#CF7254" d="M-22.073,21.21c-3.57,0-6.666,2.08-8.188,5.116c1.521,3.039,4.617,5.118,8.188,5.118
				s6.664-2.079,8.188-5.118C-15.409,23.29-18.503,21.21-22.073,21.21L-22.073,21.21z M-18.036,23.924
				c0.961,0.612,1.775,1.436,2.389,2.402c-0.613,0.968-1.428,1.791-2.389,2.404c-1.209,0.771-2.605,1.178-4.037,1.178
				c-1.434,0-2.828-0.407-4.037-1.178c-0.963-0.614-1.777-1.436-2.389-2.404c0.611-0.966,1.426-1.79,2.389-2.402
				c0.062-0.041,0.125-0.08,0.191-0.118c-0.162,0.437-0.248,0.909-0.248,1.4c0,2.261,1.832,4.094,4.094,4.094
				s4.092-1.833,4.092-4.094c0-0.491-0.086-0.963-0.244-1.4C-18.163,23.845-18.101,23.884-18.036,23.924L-18.036,23.924z
				 M-22.073,24.696c0,0.848-0.688,1.536-1.535,1.536c-0.85,0-1.535-0.688-1.535-1.536s0.686-1.535,1.535-1.535
				C-22.761,23.161-22.073,23.848-22.073,24.696L-22.073,24.696z M-22.073,24.696"/>
		</g>
	</g>
	<g>
		<path fill="#CF7254" d="M6.914,1.592c2.775,1.768,4.623,4.841,4.707,8.356h-1.613c-0.377,0-0.723,0.208-0.896,0.541
			c-0.076,0.148-0.115,0.308-0.115,0.468c0,0.056,0.016,0.108,0.025,0.164l0,0v0.002c0.012,0.065,0.025,0.128,0.049,0.192
			c0.027,0.075,0.059,0.15,0.105,0.217l4.748,6.847c0.17,0.244,0.449,0.39,0.744,0.39c0.297-0.002,0.576-0.148,0.744-0.394
			l1.844-2.694l0,0l1.863-2.724l0,0l0.98-1.43c0.115-0.171,0.176-0.37,0.176-0.569c0-0.162-0.039-0.325-0.117-0.471
			c-0.174-0.331-0.52-0.54-0.893-0.54h-1.613C17.521,4.432,13.017,0,7.472,0H7.369c-0.383,0.004-0.717,0.259-0.82,0.627
			C6.525,0.706,6.513,0.785,6.513,0.864C6.513,1.152,6.662,1.43,6.914,1.592z"/>
		<path fill="#404B5A" d="M27.083,12.956h-5.941l-2.195,3.206h1.562v2.172H17.46l-0.205,0.299v1.835h3.219v2.147h-3.219v2.143h3.219
			v2.147h-3.219v2.142h3.219v2.149h-3.219v3.216h9.828c0.496,0,0.9-0.42,0.9-0.932V13.894C27.984,13.375,27.58,12.956,27.083,12.956
			z M25.837,31.196h-4.291v-2.149h4.291V31.196z M25.837,26.905h-4.291v-2.147h4.291V26.905z M25.837,22.616h-4.291v-2.147h4.291
			V22.616z M25.837,18.32h-4.291v-2.142h4.291V18.32z"/>
		<path fill="#404B5A" d="M12.556,19.331l-0.064-0.09l-2.67,4.417l3.35,5.479h-2.904l-1.869-3.542
			c-0.074-0.13-0.146-0.372-0.221-0.727H8.146c-0.037,0.167-0.115,0.419-0.252,0.76l-1.873,3.509h-2.92l3.463-5.432l-3.168-5.439
			h2.98l1.551,3.259c0.119,0.257,0.23,0.567,0.328,0.917h0.025c0.064-0.211,0.18-0.53,0.34-0.948l1.73-3.229h1.465l-4.012-5.783
			c-0.219-0.314-0.361-0.67-0.428-1.046l-7.287,1.405v21.69l16.092,3.103V19.92c-0.434,0.318-0.953,0.513-1.506,0.516
			C13.832,20.439,13.039,20.027,12.556,19.331z"/>
	</g>
	<g>
		<path fill="#CF7254" d="M52.681,10.85c0-0.164,0.039-0.325,0.117-0.475c0.174-0.337,0.525-0.547,0.906-0.547h1.145h0.488
			c-0.086-3.556-1.957-6.667-4.766-8.458c-0.254-0.163-0.404-0.444-0.404-0.736c0-0.079,0.014-0.161,0.035-0.239
			c0.107-0.373,0.443-0.63,0.828-0.635h0.105c5.613,0,10.172,4.486,10.305,10.067h1.633c0.379,0,0.729,0.209,0.902,0.546
			c0.08,0.148,0.121,0.312,0.121,0.475c0,0.204-0.062,0.404-0.18,0.579l-4.742,6.931c-0.172,0.247-0.453,0.396-0.754,0.396
			c-0.299,0.002-0.582-0.147-0.752-0.394l-4.807-6.929C52.741,11.259,52.681,11.054,52.681,10.85z"/>
		<path fill="#404B5A" d="M71.532,12.798l-6.887,0.063l-1.852,2.519h2.391l4.867,0.012l0.049,16.93h-8.514v2.192h9.945
			c0.504,0,0.912-0.424,0.912-0.944V13.748C72.444,13.222,72.036,12.798,71.532,12.798z"/>
		<path fill="#404B5A" d="M51.649,19.796c-0.723,0-1.273,0.057-1.559,0.132v4.982c0.361,0.095,0.818,0.134,1.369,0.134
			c1.998,0,3.213-0.969,3.213-2.738C54.673,20.613,53.476,19.796,51.649,19.796z"/>
		<path fill="#404B5A" d="M63.312,24.073l2.838,2.837l2.84-2.837l-0.896-0.896l-1.205,0.001v-5.335c0-0.323-0.254-0.584-0.562-0.584
			H61.47c0,0-0.789,1.221-1.082,1.571c-0.129,0.155-0.494,1.083-1.998,1.083c-1.258,0-1.752-0.745-2.008-1.056
			c-0.561-0.679-3.92-5.15-4.396-5.89c-0.371-0.573-0.918-1.256-0.918-1.896l-6.855,1.611v21.953l16.287,3.14v-8.892l1.809,1.809
			l2.836-2.838l-2.836-2.839l-1.809,1.809v-7.97l4.916,0.003l0.025,4.323l-1.234,0.003L63.312,24.073z M55.337,24.968
			c-0.873,0.934-2.299,1.408-3.914,1.408c-0.496,0-0.955-0.021-1.332-0.114v5.133h-1.654V18.731
			c0.797-0.134,1.844-0.247,3.174-0.247c1.637,0,2.834,0.38,3.596,1.065c0.703,0.608,1.121,1.542,1.121,2.681
			C56.327,23.39,55.983,24.303,55.337,24.968z"/>
	</g>
	<g>
		<path fill="#404B5A" d="M153.395,23.64l-4.992,9.444c-0.244,0.47-0.936,0.968-1.471,0.968l-20.014,0.002
			c-0.424,0-0.828-0.167-1.127-0.466c-0.299-0.297-0.467-0.703-0.467-1.126l0.002-15.541c0-0.878,0.713-1.593,1.594-1.593
			l1.461-0.003v1.359h-0.979c-0.191,0-0.373,0.076-0.512,0.21c-0.135,0.137-0.211,0.32-0.211,0.512l0.002,14.568
			c0,0.4,0.324,0.724,0.725,0.724h1.002l4.729-9.568c0.268-0.536,0.773-0.966,1.307-0.966h11.584l0.004-3.851
			c0.758,0.071,1.354,0.697,1.354,1.471v2.38h5.312C153.322,22.168,153.852,22.79,153.395,23.64L153.395,23.64z"/>
		<path fill="#CF7254" d="M144.896,11.392l-3.381-3.676c-0.113-0.123-0.273-0.193-0.441-0.193h-10.463
			c-0.719,0-1.307,0.586-1.307,1.307c0,0-0.043,14.289,0,19.053c0.004,0.481,0.26,0.499,0.26,0.5l0.838-1.7V8.829
			c0-0.116,0.096-0.21,0.209-0.21h9.662c0.15,0,0.273,0.123,0.273,0.273v2.905c0,0.304,0.246,0.549,0.549,0.549h2.59
			c0.152,0,0.273,0.123,0.273,0.273v8.7h1.098v-9.522C145.057,11.646,144.998,11.502,144.896,11.392z M141.646,11.25V9.478
			l1.629,1.771H141.646z"/>
		<path fill="#DEB248" d="M142.24,13.464h-10.113c-0.371,0-0.674,0.303-0.674,0.673c0,0.374,0.303,0.677,0.674,0.677h10.113
			c0.373,0,0.676-0.304,0.676-0.677C142.916,13.767,142.613,13.464,142.24,13.464L142.24,13.464z"/>
		<path fill="#DEB248" d="M142.916,18.07c0-0.371-0.303-0.673-0.676-0.673h-10.113c-0.371,0-0.674,0.302-0.674,0.673
			c0,0.373,0.303,0.676,0.674,0.676h10.113C142.613,18.746,142.916,18.443,142.916,18.07L142.916,18.07z"/>
		<path fill="#DEB248" d="M131.453,22.031c0,0.371,0.303,0.673,0.674,0.673h0.242c0.428-1.189,1.486-1.349,1.486-1.349h-1.729
			C131.756,21.355,131.453,21.658,131.453,22.031L131.453,22.031z"/>
	</g>
	<g>
		<path fill="#DEB248" d="M101.349,18.437H88.989c-0.447,0-0.791,0.345-0.791,0.792c0,0.445,0.344,0.805,0.791,0.805h12.359
			c0.445,0,0.791-0.359,0.791-0.805C102.14,18.781,101.794,18.437,101.349,18.437L101.349,18.437z M101.349,18.437"/>
		<g>
			<path fill="#CF7254" d="M98.745,28.41l-1.119,3.835c-0.023,0.084-0.043,0.167-0.043,0.25c0,0.348,0.344,0.71,0.789,0.71
				c0.104,0,0.176-0.013,0.232-0.028l3.928-1.105L98.745,28.41z"/>
			<path fill="#CF7254" d="M113.038,19.735l-1.785-1.788c-0.34-0.339-0.711-0.5-1.146-0.5c-0.371,0-0.707,0.147-1,0.437
				l-1.986,1.952l-7.273,7.276l3.908,3.819l7.301-7.286l1.951-1.952c0.26-0.258,0.404-0.581,0.453-0.967
				C113.46,20.289,113.313,20.009,113.038,19.735z"/>
		</g>
		<path fill="#DEB248" d="M101.321,22.792c0-0.445-0.348-0.79-0.791-0.79H88.989c-0.447,0-0.791,0.345-0.791,0.79
			s0.344,0.805,0.791,0.805h11.541C100.974,23.597,101.321,23.237,101.321,22.792L101.321,22.792z"/>
		<path fill="#DEB248" d="M94.724,25.536h-5.734c-0.447,0-0.791,0.346-0.791,0.79c0,0.447,0.344,0.792,0.791,0.792h5.734
			c0.447,0,0.805-0.344,0.805-0.792C95.528,25.882,95.171,25.536,94.724,25.536L94.724,25.536z"/>
		<path fill="#DEB248" d="M94.724,29.102h-5.734c-0.447,0-0.791,0.345-0.791,0.79c0,0.446,0.344,0.79,0.791,0.79h5.734
			c0.447,0,0.805-0.343,0.805-0.79C95.528,29.447,95.171,29.102,94.724,29.102L94.724,29.102z M94.724,29.102"/>
		<path fill="#404B5A" d="M104.884,14.903L97.229,6.38L87.163,6.415c-0.488,0-0.906,0.171-1.234,0.503
			c-0.332,0.331-0.504,0.747-0.504,1.222v24.107c0,0.978,0.76,1.726,1.738,1.726h8.743l0.209-1.58h-8.952
			c-0.102,0-0.143-0.042-0.143-0.146V8.14c0-0.101,0.041-0.145,0.143-0.145l8.7-0.01v6.743c0,0.978,0.744,1.769,1.721,1.769h5.734
			v4.83l1.594-1.512v-4.912H104.884z M97.476,14.9c-0.1,0-0.143-0.057-0.143-0.172V8.858l5.445,6.042H97.476z"/>
	</g>
	<g>
		<g>
			<path fill="#CF7254" d="M182.623,11.41l-3.379-3.673c-0.113-0.123-0.273-0.192-0.441-0.192H168.35
				c-0.719,0-1.307,0.586-1.307,1.306c0,0-0.043,14.276,0,19.037c0.006,0.48,0.26,0.499,0.26,0.499l0.838-1.697V8.85
				c0-0.116,0.096-0.21,0.211-0.21h9.652c0.15,0,0.273,0.123,0.273,0.272v2.903c0,0.302,0.246,0.549,0.549,0.549h2.586
				c0.152,0,0.275,0.122,0.275,0.272v8.692h1.096v-9.514C182.783,11.664,182.727,11.521,182.623,11.41z M179.373,11.268V9.498
				l1.631,1.771H179.373z"/>
			<path fill="#DEB248" d="M179.969,13.48h-10.104c-0.373,0-0.674,0.304-0.674,0.673c0,0.374,0.301,0.676,0.674,0.676h10.104
				c0.373,0,0.674-0.302,0.674-0.676C180.643,13.784,180.342,13.48,179.969,13.48L179.969,13.48z"/>
			<path fill="#DEB248" d="M180.643,18.083c0-0.371-0.301-0.673-0.674-0.673h-10.104c-0.373,0-0.674,0.302-0.674,0.673
				c0,0.373,0.301,0.676,0.674,0.676h10.104C180.342,18.759,180.643,18.456,180.643,18.083L180.643,18.083z"/>
			<path fill="#DEB248" d="M169.191,22.041c0,0.371,0.301,0.673,0.674,0.673h0.242c0.428-1.188,1.482-1.349,1.482-1.349h-1.725
				C169.492,21.365,169.191,21.667,169.191,22.041L169.191,22.041z"/>
			<path fill="#CF7254" d="M169.191,22.041"/>
		</g>
		<g>
			<path fill="#CF7254" d="M199.32,24.691c-0.195-0.374-0.584-0.609-1.01-0.609h-1.822c-0.148-6.233-5.24-11.244-11.51-11.244
				h-0.115c-0.434,0.005-0.809,0.293-0.93,0.709c-0.023,0.089-0.035,0.179-0.035,0.267c0,0.326,0.166,0.641,0.449,0.824
				c3.137,1.999,5.227,5.473,5.324,9.446h-1.828c-0.424,0-0.812,0.235-1.01,0.611c-0.088,0.168-0.131,0.348-0.131,0.53
				c0,0-0.049,0.289,0.203,0.649l5.365,7.741c0.193,0.276,0.51,0.441,0.846,0.44c0.334-0.002,0.65-0.167,0.838-0.444l2.086-3.046
				l2.105-3.079l1.105-1.616c0.135-0.193,0.201-0.418,0.201-0.644C199.453,25.041,199.41,24.857,199.32,24.691z"/>
			<g>
				<path fill="#404B5A" d="M185.361,26.954c-0.502-0.719-0.562-1.409-0.543-1.794c0.01-0.459,0.125-0.918,0.346-1.34
					c0.477-0.912,1.373-1.508,2.383-1.607c-0.004-0.013-0.008-0.026-0.01-0.039h-2.428v-2.379c0-0.773-0.598-1.399-1.354-1.47
					l-0.002,3.849h-11.576c-0.531,0-1.037,0.43-1.305,0.965l-4.725,9.561h-1.002c-0.4,0-0.725-0.324-0.725-0.724V17.418
					c0-0.191,0.076-0.375,0.211-0.511c0.137-0.134,0.318-0.21,0.512-0.21h0.979v-1.358l-1.463,0.003c-0.879,0-1.59,0.714-1.59,1.592
					l-0.004,15.529c0,0.423,0.168,0.828,0.465,1.125c0.301,0.299,0.703,0.466,1.129,0.466l19.996-0.003
					c0.535,0,1.225-0.497,1.471-0.967l1.508-2.852L185.361,26.954z"/>
			</g>
		</g>
	</g>
</g>
</svg>
