<?xml version="1.0" encoding="utf-8"?>
<!-- Generator: Adobe Illustrator 16.0.0, SVG Export Plug-In . SVG Version: 6.00 Build 0)  -->
<!DOCTYPE svg PUBLIC "-//W3C//DTD SVG 1.1//EN" "http://www.w3.org/Graphics/SVG/1.1/DTD/svg11.dtd">
<svg version="1.1" id="Capa_1" xmlns="http://www.w3.org/2000/svg" xmlns:xlink="http://www.w3.org/1999/xlink" x="0px" y="0px"
	 width="28.292px" height="38.016px" viewBox="0 0 28.292 38.016" enable-background="new 0 0 28.292 38.016" xml:space="preserve">
<g>
	<g>
		<path d="M-224.975,29.509"/>
		<g>
			<g>
				<path fill="#CF7254" d="M-226.015,16.601c-0.456,0.458-0.456,1.2,0,1.655l6.374,6.375l-1.147,1.148
					c-0.384,0.383-0.384,1.004,0,1.387l0.691,0.69c0.344,1.447,0.688,2.896,1.033,4.342l0.798,3.348
					c0.055,0.224,0.217,0.406,0.433,0.486c0.076,0.028,0.157,0.042,0.236,0.042c0.143,0,0.286-0.046,0.405-0.134
					c4.021-2.958,7.559-6.497,10.518-10.517c0.136-0.185,0.169-0.426,0.091-0.642c-0.079-0.217-0.261-0.378-0.485-0.432
					l-2.673-0.637c-1.674-0.398-3.345-0.796-5.019-1.194l-0.691-0.691c-0.38-0.384-1.002-0.384-1.383,0l-1.15,1.148l-6.374-6.375
					C-224.815,16.145-225.558,16.145-226.015,16.601L-226.015,16.601z M-218.63,28.1l4.115-4.114l6.108,1.456
					c-0.462,0.603-0.939,1.193-1.43,1.772l-2.562-0.91l1.792,1.793c-0.53,0.597-1.075,1.179-1.637,1.747l-1.422-0.892l0.897,1.418
					c-0.611,0.601-1.238,1.187-1.881,1.755l-1.787-1.787l0.905,2.548c-0.537,0.452-1.084,0.895-1.644,1.323L-218.63,28.1z
					 M-217.174,34.21"/>
			</g>
		</g>
		<g>
			<circle fill="#DEB248" cx="-242.21" cy="9.741" r="1.058"/>
			<circle fill="#81BBCD" cx="-237.549" cy="9.741" r="1.056"/>
		</g>
		<g>
			<path fill="#DEB248" d="M-228.036,17.14v-1.218c0-0.336-0.273-0.608-0.609-0.608h-13.013c-0.337,0-0.609,0.272-0.609,0.608v1.218
				c0,0.334,0.272,0.606,0.609,0.606h13.013C-228.31,17.747-228.036,17.475-228.036,17.14L-228.036,17.14z"/>
			<path fill="#DEB248" d="M-230.962,21.456V20.24c0-0.338-0.273-0.61-0.608-0.61h-7.288c-0.338,0-0.61,0.272-0.61,0.61v1.216
				c0,0.335,0.272,0.608,0.61,0.608h7.288C-231.235,22.064-230.962,21.792-230.962,21.456L-230.962,21.456z"/>
			<path fill="#DEB248" d="M-233.261,25.669v-1.217c0-0.337-0.272-0.61-0.607-0.61h-3.036c-0.338,0-0.608,0.272-0.608,0.61v1.217
				c0,0.334,0.271,0.608,0.608,0.608h3.036C-233.533,26.277-233.261,26.003-233.261,25.669L-233.261,25.669z"/>
			<path fill="#DEB248" d="M-220.703,17.14v-1.218c0-0.336-0.271-0.608-0.607-0.608h-0.646c-0.337,0-0.609,0.272-0.609,0.608v1.218
				c0,0.334,0.272,0.606,0.609,0.606h0.646C-220.975,17.747-220.703,17.475-220.703,17.14L-220.703,17.14z"/>
			<path fill="#DEB248" d="M-222.829,25.669v-1.217c0-0.337-0.273-0.61-0.608-0.61h-7.29c-0.336,0-0.609,0.272-0.609,0.61v1.217
				c0,0.334,0.273,0.608,0.609,0.608h7.29C-223.103,26.277-222.829,26.003-222.829,25.669L-222.829,25.669z"/>
			<g>
				<g>
					<g>
						<path fill="#404B5A" d="M-221.724,29.438c-0.274-0.313-0.46-0.686-0.562-1.08h-1.437h-1.771h-17.203
							c-0.624,0-1.138-0.514-1.138-1.143V13.527h25.101v7.022c0.582-0.582,0.937-1.078,2.284-1.078V8.956
							c0-1.888-1.531-3.418-3.426-3.418h-22.821c-1.889,0-3.422,1.531-3.422,3.418v18.26c0,1.886,1.533,3.426,3.422,3.426h17.203
							h1.771h2.348L-221.724,29.438z M-233.355,8.562h13.736c0.584,0,1.057,0.473,1.057,1.057c0,0.583-0.473,1.057-1.057,1.057
							h-13.736c-0.583,0-1.057-0.474-1.057-1.057C-234.412,9.035-233.938,8.562-233.355,8.562z M-239.275,9.113
							c0-0.615,0.489-1.113,1.107-1.113h1.109c0.607,0,1.105,0.498,1.105,1.113v1.108c0,0.612-0.498,1.109-1.105,1.109h-1.109
							c-0.613,0-1.107-0.498-1.107-1.109V9.113z M-243.922,9.113c0-0.615,0.49-1.113,1.107-1.113h1.107
							c0.609,0,1.108,0.498,1.108,1.113v1.109c0,0.612-0.499,1.109-1.108,1.109h-1.107c-0.611,0-1.107-0.498-1.107-1.109V9.113z"/>
					</g>
				</g>
			</g>
		</g>
	</g>
	<g>
		<g>
			<path fill="#404B5A" d="M-104.516,11.279h-22.547c-0.715,0-1.411,0.579-1.559,1.292l-3.204,15.587
				c-0.146,0.713,0.312,1.292,1.025,1.292h22.547c0.716,0,1.411-0.578,1.559-1.292l3.204-15.587
				C-103.344,11.858-103.802,11.279-104.516,11.279L-104.516,11.279z M-107.214,16.496l-10.006,4.826
				c-0.432,0.208-0.924,0.208-1.269,0l-8.024-4.826c-0.581-0.349-0.659-1.166-0.175-1.819c0.324-0.438,0.834-0.71,1.332-0.71
				c0.221,0,0.427,0.054,0.601,0.159l7.458,4.487l9.303-4.487c0.216-0.104,0.446-0.159,0.665-0.159c0.496,0,0.896,0.272,1.04,0.708
				C-106.073,15.331-106.487,16.147-107.214,16.496L-107.214,16.496z M-107.214,16.496"/>
		</g>
		<path fill="#CF7254" d="M-140.275,14.684h9.714c0.516,0,0.931-0.417,0.931-0.931c0-0.515-0.415-0.932-0.931-0.932h-9.714
			c-0.514,0-0.932,0.417-0.932,0.932C-141.207,14.268-140.789,14.684-140.275,14.684L-140.275,14.684z M-140.275,14.684"/>
		<path fill="#CF7254" d="M-133.168,21.292h-9.716c-0.514,0-0.93,0.417-0.93,0.931c0,0.515,0.416,0.931,0.93,0.931h9.716
			c0.515,0,0.932-0.416,0.932-0.931C-132.236,21.708-132.653,21.292-133.168,21.292L-133.168,21.292z M-133.168,21.292"/>
		<path fill="#DEB248" d="M-130.935,17.934c0-0.515-0.416-0.931-0.93-0.931h-5.806c-0.514,0-0.933,0.416-0.933,0.931
			c0,0.513,0.419,0.93,0.933,0.93h5.806C-131.351,18.864-130.935,18.448-130.935,17.934L-130.935,17.934z M-130.935,17.934"/>
		<path fill="#DEB248" d="M-134.471,25.472h-3.103c-0.515,0-0.931,0.417-0.931,0.931c0,0.514,0.416,0.931,0.931,0.931h3.103
			c0.514,0,0.93-0.417,0.93-0.931C-133.541,25.889-133.957,25.472-134.471,25.472L-134.471,25.472z M-134.471,25.472"/>
	</g>
	<g>
		<path fill="#CF7254" d="M-183.895,13.446c0.161,0,0.323-0.039,0.472-0.116c0.335-0.176,0.548-0.525,0.548-0.904v-1.144v-0.485
			c3.546,0.084,6.649,1.95,8.434,4.75c0.163,0.256,0.443,0.404,0.734,0.404c0.08,0,0.159-0.011,0.239-0.034
			c0.371-0.106,0.628-0.442,0.633-0.828v-0.104c0-5.599-4.474-10.144-10.04-10.277V3.08c0-0.378-0.209-0.725-0.544-0.901
			c-0.148-0.079-0.312-0.119-0.475-0.119c-0.204,0-0.403,0.061-0.577,0.179l-6.912,4.731c-0.248,0.169-0.396,0.45-0.397,0.75
			c0,0.299,0.146,0.581,0.393,0.752l6.912,4.792C-184.302,13.385-184.099,13.446-183.895,13.446z"/>
		<path fill="#404B5A" d="M-173.707,17.636c-0.876,0-1.682-0.441-2.154-1.183c-1.229-1.929-3.156-3.264-5.343-3.76
			c-0.09,0.901-0.622,1.701-1.442,2.133c-0.386,0.199-0.818,0.304-1.248,0.304c-0.558,0-1.092-0.167-1.54-0.482l-3.243-2.248
			l-0.113,0.022v21.896l16.243,3.132V17.355c-0.142,0.071-0.29,0.133-0.447,0.179C-173.227,17.602-173.464,17.636-173.707,17.636z
			 M-178.518,28.872l-1.89-3.575c-0.072-0.132-0.146-0.375-0.222-0.734h-0.029c-0.039,0.168-0.117,0.423-0.255,0.767l-1.894,3.542
			h-2.946l3.495-5.483l-3.198-5.49h3.01l1.564,3.29c0.123,0.26,0.233,0.573,0.334,0.926h0.026c0.063-0.212,0.179-0.535,0.343-0.958
			l1.744-3.258h2.756l-3.289,5.442l3.38,5.531H-178.518z"/>
		<path fill="#404B5A" d="M-161.544,12.538h-9.86c0.162,0.79,0.254,1.605,0.254,2.447v0.125c-0.003,0.23-0.042,0.451-0.103,0.663
			h3.073v2.193h-3.284v2.153h3.248v2.168h-3.248v2.163h3.248v2.167h-3.248v2.162h3.248v2.169h-3.248v3.246h9.92
			c0.502,0,0.91-0.422,0.91-0.94V13.485C-160.634,12.96-161.042,12.538-161.544,12.538z M-162.803,30.95h-4.33v-2.169h4.33V30.95z
			 M-162.803,26.619h-4.33v-2.167h4.33V26.619z M-162.803,22.289h-4.33v-2.168h4.33V22.289z M-162.803,17.952h-4.33v-2.162h4.33
			V17.952z"/>
	</g>
	<g>
		<g>
			<path fill="#404B5A" d="M-91.833,22.22h-1.568c-0.434,0-0.783,0.353-0.783,0.784V35.84c0,0.433,0.35,0.784,0.783,0.784h1.568
				c0.432,0,0.783-0.351,0.783-0.784V23.003C-91.05,22.572-91.402,22.22-91.833,22.22L-91.833,22.22z"/>
			<path fill="#404B5A" d="M-84.294,17.018h-1.568c-0.432,0-0.783,0.352-0.783,0.784V35.84c0,0.433,0.352,0.784,0.783,0.784h1.568
				c0.432,0,0.783-0.351,0.783-0.784V17.802C-83.511,17.369-83.863,17.018-84.294,17.018L-84.294,17.018z"/>
			<path fill="#404B5A" d="M-76.753,21.828h-1.568c-0.432,0-0.783,0.353-0.783,0.784V35.84c0,0.433,0.352,0.784,0.783,0.784h1.568
				c0.432,0,0.783-0.351,0.783-0.784V22.612C-75.97,22.181-76.322,21.828-76.753,21.828L-76.753,21.828z"/>
			<path fill="#DEB248" d="M-70.011,4.037c-1.248,0-2.258,1.01-2.258,2.257c0,0.544,0.201,1.038,0.521,1.428l-5.012,7.183
				c-0.244-0.089-0.504-0.146-0.777-0.146c-0.555,0-1.055,0.207-1.449,0.539l-3.955-2.857c0.072-0.221,0.119-0.452,0.119-0.696
				c0-1.247-1.008-2.257-2.256-2.257c-1.246,0-2.26,1.011-2.26,2.257c0,0.273,0.057,0.533,0.146,0.775l-4.289,3.336
				c-0.336-0.198-0.721-0.318-1.139-0.318c-1.246,0-2.258,1.011-2.258,2.257c0,1.247,1.012,2.259,2.258,2.259
				c1.248,0,2.258-1.012,2.258-2.259c0-0.369-0.098-0.712-0.254-1.02l4.17-3.243c0.381,0.292,0.85,0.472,1.367,0.472
				c0.545,0,1.039-0.201,1.428-0.523l3.969,2.865c-0.068,0.213-0.115,0.437-0.115,0.672c0,1.248,1.014,2.258,2.26,2.258
				c1.248,0,2.256-1.01,2.256-2.258c0-0.515-0.178-0.984-0.469-1.364l5.039-7.222c0.221,0.072,0.453,0.122,0.699,0.122
				c1.246,0,2.258-1.011,2.258-2.258S-68.765,4.037-70.011,4.037z"/>
			<g>
				<path stroke="#FFFFFF" stroke-width="2" stroke-miterlimit="10" d="M-73.822,33.694"/>
				<g>
					<g>
						<g>
							<path fill="#404B5A" d="M-71.587,21.151L-71.587,21.151c0.748-0.66,2.148-1.23,3.143-1.301v-7.713
								c0-0.431-0.352-0.784-0.783-0.784h-1.568c-0.434,0-0.783,0.353-0.783,0.784v8.577
								C-71.587,21.151-71.613,21.151-71.587,21.151z"/>
							<path fill="#404B5A" d="M-68.445,32.901c-1.566-0.042-3.051-1.272-3.135-1.426v4.365c0,0.433,0.35,0.784,0.783,0.784h1.568
								c0.432,0,0.783-0.351,0.783-0.784V32.901L-68.445,32.901z"/>
						</g>
					</g>
				</g>
			</g>
		</g>
		<g>
			<path fill="#CF7254" d="M-66.226,21.45c-3.57,0-6.666,2.08-8.188,5.116c1.521,3.039,4.617,5.118,8.188,5.118
				s6.664-2.079,8.188-5.118C-59.562,23.53-62.656,21.45-66.226,21.45L-66.226,21.45z M-62.189,24.164
				c0.961,0.612,1.775,1.436,2.389,2.402c-0.613,0.968-1.428,1.791-2.389,2.404c-1.209,0.771-2.605,1.178-4.037,1.178
				c-1.434,0-2.828-0.407-4.037-1.178c-0.963-0.614-1.777-1.436-2.389-2.404c0.611-0.966,1.426-1.79,2.389-2.402
				c0.062-0.041,0.125-0.08,0.191-0.118c-0.162,0.437-0.248,0.909-0.248,1.4c0,2.261,1.832,4.094,4.094,4.094
				s4.092-1.833,4.092-4.094c0-0.491-0.086-0.963-0.244-1.4C-62.316,24.084-62.253,24.124-62.189,24.164L-62.189,24.164z
				 M-66.226,24.936c0,0.848-0.688,1.536-1.535,1.536c-0.85,0-1.535-0.688-1.535-1.536s0.686-1.535,1.535-1.535
				C-66.914,23.4-66.226,24.088-66.226,24.936L-66.226,24.936z M-66.226,24.936"/>
		</g>
	</g>
	<g>
		<path fill="#CF7254" d="M-37.239,1.832c2.775,1.768,4.623,4.841,4.707,8.356h-1.613c-0.377,0-0.723,0.208-0.896,0.541
			c-0.076,0.148-0.115,0.308-0.115,0.468c0,0.056,0.016,0.108,0.025,0.164l0,0v0.002c0.012,0.065,0.025,0.128,0.049,0.192
			c0.027,0.075,0.059,0.15,0.105,0.217l4.748,6.847c0.17,0.244,0.449,0.39,0.744,0.39c0.297-0.002,0.576-0.148,0.744-0.394
			l1.844-2.694l0,0l1.863-2.724l0,0l0.98-1.43c0.115-0.171,0.176-0.37,0.176-0.569c0-0.162-0.039-0.325-0.117-0.471
			c-0.174-0.331-0.52-0.54-0.893-0.54h-1.613c-0.131-5.514-4.635-9.946-10.18-9.946h-0.104c-0.383,0.004-0.717,0.259-0.82,0.627
			c-0.023,0.078-0.035,0.158-0.035,0.236C-37.64,1.392-37.491,1.67-37.239,1.832z"/>
		<path fill="#404B5A" d="M-17.069,13.196h-5.941l-2.195,3.206h1.562v2.172h-3.049l-0.205,0.299v1.835h3.219v2.147h-3.219v2.143
			h3.219v2.147h-3.219v2.142h3.219v2.149h-3.219v3.216h9.828c0.496,0,0.9-0.42,0.9-0.932V14.133
			C-16.169,13.614-16.573,13.196-17.069,13.196z M-18.315,31.436h-4.291v-2.149h4.291V31.436z M-18.315,27.145h-4.291v-2.147h4.291
			V27.145z M-18.315,22.855h-4.291v-2.147h4.291V22.855z M-18.315,18.56h-4.291v-2.142h4.291V18.56z"/>
		<path fill="#404B5A" d="M-31.597,19.571l-0.064-0.09l-2.67,4.417l3.35,5.479h-2.904l-1.869-3.542
			c-0.074-0.13-0.146-0.372-0.221-0.727h-0.031c-0.037,0.167-0.115,0.419-0.252,0.76l-1.873,3.509h-2.92l3.463-5.432l-3.168-5.439
			h2.98l1.551,3.259c0.119,0.257,0.23,0.567,0.328,0.917h0.025c0.064-0.211,0.18-0.53,0.34-0.948l1.73-3.229h1.465l-4.012-5.783
			c-0.219-0.314-0.361-0.67-0.428-1.046l-7.287,1.405v21.69l16.092,3.103V20.16c-0.434,0.318-0.953,0.513-1.506,0.516
			C-30.321,20.679-31.114,20.267-31.597,19.571z"/>
	</g>
	<g>
		<path fill="#CF7254" d="M8.528,11.09c0-0.164,0.039-0.325,0.117-0.475c0.174-0.337,0.525-0.547,0.906-0.547h1.145h0.488
			C11.098,6.512,9.227,3.401,6.418,1.61C6.165,1.447,6.014,1.166,6.014,0.874c0-0.079,0.014-0.161,0.035-0.239
			C6.157,0.262,6.493,0.005,6.877,0h0.105c5.613,0,10.172,4.486,10.305,10.067h1.633c0.379,0,0.729,0.209,0.902,0.546
			c0.08,0.148,0.121,0.312,0.121,0.475c0,0.204-0.062,0.404-0.18,0.579l-4.742,6.931c-0.172,0.247-0.453,0.396-0.754,0.396
			c-0.299,0.002-0.582-0.147-0.752-0.394l-4.807-6.929C8.588,11.499,8.528,11.294,8.528,11.09z"/>
		<path fill="#404B5A" d="M27.379,13.038l-6.887,0.063l-1.852,2.519h2.391l4.867,0.012l0.049,16.93h-8.514v2.192h9.945
			c0.504,0,0.912-0.424,0.912-0.944V13.988C28.292,13.462,27.883,13.038,27.379,13.038z"/>
		<path fill="#404B5A" d="M7.497,20.036c-0.723,0-1.273,0.057-1.559,0.132v4.982c0.361,0.095,0.818,0.134,1.369,0.134
			c1.998,0,3.213-0.969,3.213-2.738C10.52,20.853,9.323,20.036,7.497,20.036z"/>
		<path fill="#404B5A" d="M19.159,24.313l2.838,2.837l2.84-2.837l-0.896-0.896l-1.205,0.001v-5.335c0-0.323-0.254-0.584-0.562-0.584
			h-4.855c0,0-0.789,1.221-1.082,1.571c-0.129,0.155-0.494,1.083-1.998,1.083c-1.258,0-1.752-0.745-2.008-1.056
			c-0.561-0.679-3.92-5.15-4.396-5.89c-0.371-0.573-0.918-1.256-0.918-1.896l-6.855,1.611v21.953l16.287,3.14v-8.892l1.809,1.809
			l2.836-2.838l-2.836-2.839l-1.809,1.809v-7.97l4.916,0.003l0.025,4.323l-1.234,0.003L19.159,24.313z M11.184,25.208
			c-0.873,0.934-2.299,1.408-3.914,1.408c-0.496,0-0.955-0.021-1.332-0.114v5.133H4.284V18.971c0.797-0.134,1.844-0.247,3.174-0.247
			c1.637,0,2.834,0.38,3.596,1.065c0.703,0.608,1.121,1.542,1.121,2.681C12.174,23.63,11.831,24.542,11.184,25.208z"/>
	</g>
	<g>
		<path fill="#404B5A" d="M109.242,23.879l-4.992,9.444c-0.244,0.47-0.936,0.968-1.471,0.968l-20.014,0.002
			c-0.424,0-0.828-0.167-1.127-0.466c-0.299-0.297-0.467-0.703-0.467-1.126l0.002-15.541c0-0.878,0.713-1.593,1.594-1.593
			l1.461-0.003v1.359H83.25c-0.191,0-0.373,0.076-0.512,0.21c-0.135,0.137-0.211,0.32-0.211,0.512l0.002,14.568
			c0,0.4,0.324,0.724,0.725,0.724h1.002l4.729-9.568c0.268-0.536,0.773-0.966,1.307-0.966h11.584l0.004-3.851
			c0.758,0.071,1.354,0.697,1.354,1.471v2.38h5.312C109.169,22.408,109.699,23.029,109.242,23.879L109.242,23.879z"/>
		<path fill="#CF7254" d="M100.744,11.631l-3.381-3.676c-0.113-0.123-0.273-0.193-0.441-0.193H86.458
			c-0.719,0-1.307,0.586-1.307,1.307c0,0-0.043,14.289,0,19.053c0.004,0.481,0.26,0.499,0.26,0.5l0.838-1.7V9.069
			c0-0.116,0.096-0.21,0.209-0.21h9.662c0.15,0,0.273,0.123,0.273,0.273v2.905c0,0.304,0.246,0.549,0.549,0.549h2.59
			c0.152,0,0.273,0.123,0.273,0.273v8.7h1.098v-9.522C100.904,11.886,100.845,11.742,100.744,11.631z M97.494,11.489V9.718
			l1.629,1.771H97.494z"/>
		<path fill="#DEB248" d="M98.087,13.704H87.974c-0.371,0-0.674,0.303-0.674,0.673c0,0.374,0.303,0.677,0.674,0.677h10.113
			c0.373,0,0.676-0.304,0.676-0.677C98.763,14.007,98.46,13.704,98.087,13.704L98.087,13.704z"/>
		<path fill="#DEB248" d="M98.763,18.31c0-0.371-0.303-0.673-0.676-0.673H87.974c-0.371,0-0.674,0.302-0.674,0.673
			c0,0.373,0.303,0.676,0.674,0.676h10.113C98.46,18.986,98.763,18.683,98.763,18.31L98.763,18.31z"/>
		<path fill="#DEB248" d="M87.3,22.271c0,0.371,0.303,0.673,0.674,0.673h0.242c0.428-1.189,1.486-1.349,1.486-1.349h-1.729
			C87.603,21.595,87.3,21.897,87.3,22.271L87.3,22.271z"/>
	</g>
	<g>
		<path fill="#DEB248" d="M57.196,18.676H44.836c-0.447,0-0.791,0.345-0.791,0.792c0,0.445,0.344,0.805,0.791,0.805h12.359
			c0.445,0,0.791-0.359,0.791-0.805C57.987,19.021,57.641,18.676,57.196,18.676L57.196,18.676z M57.196,18.676"/>
		<g>
			<path fill="#CF7254" d="M54.592,28.649l-1.119,3.835c-0.023,0.084-0.043,0.167-0.043,0.25c0,0.348,0.344,0.71,0.789,0.71
				c0.104,0,0.176-0.013,0.232-0.028l3.928-1.105L54.592,28.649z"/>
			<path fill="#CF7254" d="M68.885,19.975L67.1,18.187c-0.34-0.339-0.711-0.5-1.146-0.5c-0.371,0-0.707,0.147-1,0.437l-1.986,1.952
				l-7.273,7.276l3.908,3.819l7.301-7.286l1.951-1.952c0.26-0.258,0.404-0.581,0.453-0.967
				C69.307,20.528,69.161,20.249,68.885,19.975z"/>
		</g>
		<path fill="#DEB248" d="M57.168,23.031c0-0.445-0.348-0.79-0.791-0.79H44.836c-0.447,0-0.791,0.345-0.791,0.79
			s0.344,0.805,0.791,0.805h11.541C56.821,23.836,57.168,23.477,57.168,23.031L57.168,23.031z"/>
		<path fill="#DEB248" d="M50.571,25.776h-5.734c-0.447,0-0.791,0.346-0.791,0.79c0,0.447,0.344,0.792,0.791,0.792h5.734
			c0.447,0,0.805-0.344,0.805-0.792C51.375,26.122,51.018,25.776,50.571,25.776L50.571,25.776z"/>
		<path fill="#DEB248" d="M50.571,29.341h-5.734c-0.447,0-0.791,0.345-0.791,0.79c0,0.446,0.344,0.79,0.791,0.79h5.734
			c0.447,0,0.805-0.343,0.805-0.79C51.375,29.687,51.018,29.341,50.571,29.341L50.571,29.341z M50.571,29.341"/>
		<path fill="#404B5A" d="M60.731,15.143L53.077,6.62L43.01,6.655c-0.488,0-0.906,0.171-1.234,0.503
			c-0.332,0.331-0.504,0.747-0.504,1.222v24.107c0,0.978,0.76,1.726,1.738,1.726h8.743l0.209-1.58H43.01
			c-0.102,0-0.143-0.042-0.143-0.146V8.379c0-0.101,0.041-0.145,0.143-0.145l8.7-0.01v6.743c0,0.978,0.744,1.769,1.721,1.769h5.734
			v4.83l1.594-1.512v-4.912H60.731z M53.323,15.14c-0.1,0-0.143-0.057-0.143-0.172V9.098l5.445,6.042H53.323z"/>
	</g>
	<g>
		<g>
			<path fill="#CF7254" d="M138.47,11.649l-3.379-3.673c-0.113-0.123-0.273-0.192-0.441-0.192h-10.453
				c-0.719,0-1.307,0.586-1.307,1.306c0,0-0.043,14.276,0,19.037c0.006,0.48,0.26,0.499,0.26,0.499l0.838-1.697V9.089
				c0-0.116,0.096-0.21,0.211-0.21h9.652c0.15,0,0.273,0.123,0.273,0.272v2.903c0,0.302,0.246,0.549,0.549,0.549h2.586
				c0.152,0,0.275,0.122,0.275,0.272v8.692h1.096v-9.514C138.63,11.903,138.574,11.76,138.47,11.649z M135.22,11.508V9.737
				l1.631,1.771H135.22z"/>
			<path fill="#DEB248" d="M135.816,13.72h-10.104c-0.373,0-0.674,0.304-0.674,0.673c0,0.374,0.301,0.676,0.674,0.676h10.104
				c0.373,0,0.674-0.302,0.674-0.676C136.49,14.024,136.189,13.72,135.816,13.72L135.816,13.72z"/>
			<path fill="#DEB248" d="M136.49,18.323c0-0.371-0.301-0.673-0.674-0.673h-10.104c-0.373,0-0.674,0.302-0.674,0.673
				c0,0.373,0.301,0.676,0.674,0.676h10.104C136.189,18.999,136.49,18.696,136.49,18.323L136.49,18.323z"/>
			<path fill="#DEB248" d="M125.039,22.28c0,0.371,0.301,0.673,0.674,0.673h0.242c0.428-1.188,1.482-1.349,1.482-1.349h-1.725
				C125.339,21.605,125.039,21.907,125.039,22.28L125.039,22.28z"/>
			<path fill="#CF7254" d="M125.039,22.28"/>
		</g>
		<g>
			<path fill="#CF7254" d="M155.167,24.931c-0.195-0.374-0.584-0.609-1.01-0.609h-1.822c-0.148-6.233-5.24-11.244-11.51-11.244
				h-0.115c-0.434,0.005-0.809,0.293-0.93,0.709c-0.023,0.089-0.035,0.179-0.035,0.267c0,0.326,0.166,0.641,0.449,0.824
				c3.137,1.999,5.227,5.473,5.324,9.446h-1.828c-0.424,0-0.812,0.235-1.01,0.611c-0.088,0.168-0.131,0.348-0.131,0.53
				c0,0-0.049,0.289,0.203,0.649l5.365,7.741c0.193,0.276,0.51,0.441,0.846,0.44c0.334-0.002,0.65-0.167,0.838-0.444l2.086-3.046
				l2.105-3.079l1.105-1.616c0.135-0.193,0.201-0.418,0.201-0.644C155.3,25.28,155.257,25.097,155.167,24.931z"/>
			<g>
				<path fill="#404B5A" d="M141.208,27.193c-0.502-0.719-0.562-1.409-0.543-1.794c0.01-0.459,0.125-0.918,0.346-1.34
					c0.477-0.912,1.373-1.508,2.383-1.607c-0.004-0.013-0.008-0.026-0.01-0.039h-2.428v-2.379c0-0.773-0.598-1.399-1.354-1.47
					l-0.002,3.849h-11.576c-0.531,0-1.037,0.43-1.305,0.965l-4.725,9.561h-1.002c-0.4,0-0.725-0.324-0.725-0.724V17.658
					c0-0.191,0.076-0.375,0.211-0.511c0.137-0.134,0.318-0.21,0.512-0.21h0.979v-1.358l-1.463,0.003c-0.879,0-1.59,0.714-1.59,1.592
					l-0.004,15.529c0,0.423,0.168,0.828,0.465,1.125c0.301,0.299,0.703,0.466,1.129,0.466l19.996-0.003
					c0.535,0,1.225-0.497,1.471-0.967l1.508-2.852L141.208,27.193z"/>
			</g>
		</g>
	</g>
</g>
</svg>
