<?xml version="1.0" encoding="utf-8"?>
<!-- Generator: Adobe Illustrator 16.0.0, SVG Export Plug-In . SVG Version: 6.00 Build 0)  -->
<!DOCTYPE svg PUBLIC "-//W3C//DTD SVG 1.1//EN" "http://www.w3.org/Graphics/SVG/1.1/DTD/svg11.dtd">
<svg version="1.1" id="Capa_1" xmlns="http://www.w3.org/2000/svg" xmlns:xlink="http://www.w3.org/1999/xlink" x="0px" y="0px"
	 width="35.671px" height="30.186px" viewBox="0 0 35.671 30.186" enable-background="new 0 0 35.671 30.186" xml:space="preserve">
<g>
	<path fill="#CF7254" d="M-251.49,10.024h11.116c0.908,0,1.646-0.738,1.646-1.646V0.386h-14.411v7.992
		C-253.138,9.286-252.399,10.024-251.49,10.024L-251.49,10.024z M-251.49,10.024"/>
	<path fill="#DEB248" d="M-252.185,17.969h6.717c0.571,0,1.036-0.466,1.036-1.036s-0.465-1.035-1.036-1.035h-6.717
		c-0.573,0-1.035,0.465-1.035,1.035S-252.758,17.969-252.185,17.969L-252.185,17.969z M-252.185,17.969"/>
	<path fill="#DEB248" d="M-252.185,22.11h10.856c0.575,0,1.037-0.464,1.037-1.035s-0.462-1.035-1.037-1.035h-10.856
		c-0.573,0-1.035,0.464-1.035,1.035S-252.758,22.11-252.185,22.11L-252.185,22.11z M-252.185,22.11"/>
	<path fill="#DEB248" d="M-237.183,24.183h-15.002c-0.573,0-1.035,0.463-1.035,1.033c0,0.571,0.462,1.037,1.035,1.037h15.002
		c0.571,0,1.035-0.466,1.035-1.037C-236.148,24.646-236.612,24.183-237.183,24.183L-237.183,24.183z M-237.183,24.183"/>
	<path fill="#404B5A" d="M-235.535,0.386h-1.122v7.992c0,2.051-1.666,3.717-3.717,3.717h-11.116c-2.052,0-3.72-1.666-3.72-3.717
		V0.386h-1.768c-1.882,0-3.409,1.527-3.409,3.409v24.108c0,1.883,1.527,3.409,3.409,3.409h24.248c1.884,0,3.409-1.526,3.409-3.409
		V6.642L-235.535,0.386z M-233.983,25.591c0,1.151-0.935,2.086-2.086,2.086h-17.707c-1.149,0-2.085-0.935-2.085-2.086V16.56
		c0-1.152,0.936-2.086,2.085-2.086h17.707c1.151,0,2.086,0.934,2.086,2.086V25.591z M-231.653,10.801h-2.975V7.824h2.975V10.801z
		 M-231.653,10.801"/>
</g>
<g>
	<g>
		<path fill="#CF7254" d="M-202.266,26.145c3.556,0.085,6.666,1.955,8.454,4.762c0.165,0.256,0.447,0.406,0.738,0.406
			c0.078,0,0.159-0.011,0.238-0.034c0.373-0.106,0.63-0.443,0.635-0.83v-0.105c0-5.612-4.486-10.169-10.062-10.303v-1.632
			c0-0.379-0.214-0.727-0.547-0.902c-0.15-0.081-0.313-0.12-0.479-0.12c-0.201,0-0.4,0.062-0.575,0.179l-6.93,4.742
			c-0.248,0.169-0.396,0.451-0.396,0.751c-0.002,0.301,0.146,0.583,0.392,0.755l6.929,4.802c0.174,0.122,0.38,0.183,0.581,0.183
			c0.166,0,0.326-0.039,0.476-0.117c0.337-0.176,0.548-0.526,0.548-0.906V26.145z M-202.266,26.145"/>
		<path d="M-193.285,24.699"/>
	</g>
	<g>
		<path fill="#DEB248" d="M-211.97,5.296c0,0.701-0.566,1.271-1.271,1.271c-0.7,0-1.269-0.57-1.269-1.271
			c0-0.701,0.568-1.271,1.269-1.271C-212.536,4.026-211.97,4.596-211.97,5.296z"/>
		<path fill="#81BBCD" d="M-206.365,5.296c0,0.701-0.568,1.271-1.271,1.271c-0.698,0-1.27-0.57-1.27-1.271
			c0-0.701,0.571-1.271,1.27-1.271C-206.934,4.026-206.365,4.596-206.365,5.296z"/>
		<path fill="#404B5A" d="M-186.317,0.39h-27.438c-2.271,0-4.113,1.841-4.113,4.111v21.955c0,2.268,1.843,4.118,4.113,4.118h6.121
			v-2.745h-6.121c-0.75,0-1.367-0.617-1.367-1.373V9.996h30.18v16.459c0,0.756-0.617,1.373-1.374,1.373h-4.271v2.745h4.271
			c2.277,0,4.119-1.851,4.119-4.118V4.5C-182.198,2.23-184.04,0.39-186.317,0.39z M-211.233,6.021c0,0.736-0.598,1.335-1.331,1.335
			h-1.333c-0.735,0-1.332-0.599-1.332-1.335V4.689c0-0.74,0.591-1.338,1.332-1.338h1.333c0.733,0,1.331,0.599,1.331,1.338V6.021z
			 M-205.649,6.021c0,0.735-0.597,1.335-1.33,1.335h-1.332c-0.734,0-1.33-0.6-1.33-1.335V4.688c0-0.74,0.588-1.338,1.33-1.338h1.332
			c0.733,0,1.33,0.599,1.33,1.338V6.021z M-186.008,6.567h-16.516c-0.703,0-1.271-0.57-1.271-1.271c0-0.701,0.567-1.271,1.271-1.271
			h16.516c0.699,0,1.271,0.57,1.271,1.271C-184.737,5.998-185.309,6.567-186.008,6.567z"/>
	</g>
</g>
<g>
	<circle fill="#DEB248" cx="-166.441" cy="5.296" r="1.271"/>
	<g>
		<path fill="#CF7254" d="M-151.118,27.778c0,0.38,0.213,0.73,0.549,0.906c0.151,0.078,0.31,0.117,0.475,0.117
			c0.204,0,0.408-0.062,0.582-0.183l6.929-4.802c0.246-0.172,0.395-0.455,0.395-0.755c-0.002-0.3-0.15-0.582-0.397-0.751
			l-6.933-4.742c-0.174-0.118-0.371-0.179-0.575-0.179c-0.165,0-0.328,0.039-0.478,0.12c-0.333,0.175-0.546,0.523-0.546,0.902v1.632
			c-5.577,0.134-10.064,4.691-10.064,10.303v0.105c0.005,0.387,0.262,0.724,0.634,0.83c0.079,0.023,0.162,0.034,0.241,0.034
			c0.29,0,0.572-0.149,0.737-0.406c1.788-2.807,4.898-4.676,8.452-4.762V27.778z M-151.118,26.145"/>
		<path d="M-161.581,24.699"/>
	</g>
	<circle fill="#81BBCD" cx="-160.802" cy="5.296" r="1.271"/>
	<path fill="#404B5A" d="M-139.485,0.39h-27.438c-2.269,0-4.111,1.841-4.111,4.111v21.955c0,2.268,1.843,4.118,4.111,4.118h3.875
		v-2.745h-3.875c-0.747,0-1.366-0.617-1.366-1.373V9.996h30.18v16.459c0,0.756-0.615,1.373-1.375,1.373h-5.761v2.745h5.761
		c2.279,0,4.121-1.851,4.121-4.118V4.5C-135.364,2.23-137.206,0.39-139.485,0.39z M-164.399,6.021c0,0.736-0.6,1.335-1.332,1.335
		h-1.331c-0.736,0-1.332-0.599-1.332-1.335V4.689c0-0.74,0.59-1.338,1.332-1.338h1.331c0.732,0,1.332,0.599,1.332,1.338V6.021z
		 M-158.814,6.021c0,0.735-0.598,1.335-1.33,1.335h-1.333c-0.733,0-1.332-0.6-1.332-1.335V4.688c0-0.74,0.59-1.338,1.332-1.338
		h1.333c0.732,0,1.33,0.599,1.33,1.338V6.021z M-139.175,6.567h-16.514c-0.704,0-1.271-0.57-1.271-1.271
		c0-0.701,0.567-1.271,1.271-1.271h16.514c0.701,0,1.272,0.57,1.272,1.271C-137.903,5.998-138.474,6.567-139.175,6.567z"/>
</g>
<g>
	<path fill="#CF7254" d="M-110.293,26.836c-0.085,3.553-1.953,6.662-4.759,8.45c-0.255,0.164-0.405,0.444-0.405,0.736
		c0,0.079,0.012,0.161,0.035,0.24c0.105,0.371,0.444,0.629,0.828,0.635h0.105c5.607,0,10.161-4.484,10.295-10.058h1.632
		c0.379,0,0.725-0.21,0.902-0.546c0.08-0.148,0.118-0.313,0.118-0.476c0-0.202-0.061-0.403-0.179-0.575l-4.738-6.926
		c-0.171-0.248-0.452-0.395-0.753-0.396c-0.3-0.002-0.582,0.146-0.752,0.392l-4.802,6.924c-0.121,0.172-0.182,0.377-0.182,0.582
		c0,0.163,0.04,0.323,0.117,0.474c0.176,0.335,0.524,0.545,0.904,0.545H-110.293z M-110.293,26.836"/>
	<g>
		<circle fill="#DEB248" cx="-121.695" cy="5.289" r="1.271"/>
		<circle fill="#81BBCD" cx="-116.095" cy="5.289" r="1.269"/>
		<path fill="#404B5A" d="M-94.793,0.386h-27.419c-2.27,0-4.109,1.839-4.109,4.107v21.938c0,2.267,1.84,4.117,4.109,4.117h8.9
			v-2.744h-8.9c-0.748,0-1.364-0.616-1.364-1.373V9.985h30.155v16.446c0,0.757-0.615,1.373-1.372,1.373h-6.748v2.744h6.748
			c2.276,0,4.116-1.85,4.116-4.117V4.493C-90.677,2.225-92.517,0.386-94.793,0.386z M-119.691,6.014
			c0,0.735-0.597,1.333-1.329,1.333h-1.33c-0.735,0-1.332-0.599-1.332-1.333V4.683c0-0.74,0.588-1.338,1.332-1.338h1.33
			c0.732,0,1.329,0.599,1.329,1.338V6.014z M-114.108,6.013c0,0.735-0.599,1.333-1.331,1.333h-1.331
			c-0.734,0-1.331-0.599-1.331-1.333V4.682c0-0.74,0.59-1.338,1.331-1.338h1.331c0.732,0,1.331,0.599,1.331,1.338V6.013z
			 M-94.485,6.558h-16.502c-0.701,0-1.271-0.569-1.271-1.27c0-0.7,0.569-1.269,1.271-1.269h16.502c0.701,0,1.27,0.569,1.27,1.269
			C-93.216,5.989-93.784,6.558-94.485,6.558z"/>
	</g>
</g>
<g>
	<path fill="#CF7254" d="M-65.403,32.075c0.084-3.553,1.954-6.662,4.758-8.45c0.257-0.165,0.404-0.444,0.404-0.736
		c0-0.079-0.01-0.161-0.032-0.24c-0.107-0.371-0.445-0.629-0.83-0.635h-0.104c-5.608,0-10.161,4.484-10.296,10.059h-1.631
		c-0.378,0-0.727,0.21-0.902,0.545c-0.078,0.149-0.117,0.313-0.117,0.476c0,0.204,0.06,0.404,0.178,0.576l4.738,6.926
		c0.171,0.248,0.45,0.396,0.751,0.396c0.301,0.002,0.583-0.146,0.754-0.392l4.801-6.924c0.12-0.172,0.183-0.377,0.183-0.582
		c0-0.162-0.04-0.323-0.117-0.474c-0.177-0.335-0.524-0.545-0.904-0.545H-65.403z M-65.403,32.075"/>
	<g>
		<path fill="#DEB248" d="M-79.125,5.312c0,0.701-0.568,1.27-1.271,1.27c-0.698,0-1.268-0.569-1.268-1.27
			c0-0.7,0.569-1.269,1.268-1.269C-79.693,4.043-79.125,4.612-79.125,5.312z"/>
		<circle fill="#81BBCD" cx="-74.795" cy="5.312" r="1.269"/>
		<path fill="#404B5A" d="M-53.493,0.41H-80.91c-2.27,0-4.109,1.839-4.109,4.107v21.938c0,2.267,1.84,4.117,4.109,4.117h6.756
			v-2.744h-6.756c-0.749,0-1.365-0.616-1.365-1.373V10.009h30.156v16.446c0,0.757-0.617,1.373-1.374,1.373h-9.025v2.744h9.025
			c2.276,0,4.116-1.85,4.116-4.117V4.517C-49.377,2.249-51.217,0.41-53.493,0.41z M-78.391,6.038c0,0.735-0.598,1.333-1.33,1.333
			h-1.332c-0.733,0-1.33-0.599-1.33-1.333V4.707c0-0.74,0.59-1.338,1.33-1.338h1.332c0.732,0,1.33,0.599,1.33,1.338V6.038z
			 M-72.809,6.037c0,0.735-0.599,1.333-1.329,1.333h-1.332c-0.735,0-1.333-0.599-1.333-1.333V4.706c0-0.74,0.591-1.338,1.333-1.338
			h1.332c0.73,0,1.329,0.599,1.329,1.338V6.037z M-53.186,6.582h-16.501c-0.703,0-1.27-0.569-1.27-1.27
			c0-0.7,0.566-1.269,1.27-1.269h16.501c0.702,0,1.27,0.569,1.27,1.269C-51.916,6.013-52.483,6.582-53.186,6.582z"/>
	</g>
</g>
<g>
	<g>
		<path fill="#CF7254" d="M17.261,20.028c3.549,0.084,6.652,1.952,8.438,4.753c0.166,0.256,0.445,0.404,0.736,0.404
			c0.078,0,0.16-0.011,0.24-0.033c0.369-0.107,0.629-0.443,0.633-0.829v-0.105c0-5.6-4.477-10.147-10.047-10.281v-1.628
			c0-0.378-0.209-0.726-0.543-0.902c-0.148-0.079-0.312-0.118-0.477-0.118c-0.201,0-0.4,0.06-0.574,0.178L8.751,16.2
			c-0.247,0.169-0.394,0.45-0.396,0.75c-0.002,0.3,0.147,0.582,0.394,0.753l6.914,4.794c0.172,0.121,0.377,0.182,0.58,0.182
			c0.164,0,0.324-0.039,0.475-0.117c0.334-0.176,0.545-0.524,0.545-0.903V20.028z M17.261,20.028"/>
		<g>
			<path d="M24.566,24.292"/>
		</g>
	</g>
	<g>
		<circle fill="#DEB248" cx="4.653" cy="4.929" r="1.269"/>
		<circle fill="#81BBCD" cx="10.246" cy="4.929" r="1.267"/>
		<path fill="#404B5A" d="M31.519,0.032H4.137c-2.265,0-4.104,1.836-4.104,4.103v21.908c0,2.264,1.839,4.111,4.104,4.111h20.644
			h2.125h4.613c2.273,0,4.113-1.847,4.113-4.111V4.135C35.632,1.869,33.792,0.032,31.519,0.032z M8.241,4.323
			c0-0.739,0.59-1.336,1.331-1.336h1.329c0.73,0,1.327,0.597,1.327,1.336v1.329c0,0.734-0.597,1.332-1.327,1.332H9.572
			c-0.734,0-1.331-0.598-1.331-1.332V4.323z M2.666,4.324c0-0.739,0.59-1.337,1.331-1.337h1.329c0.732,0,1.329,0.598,1.329,1.337
			v1.329c0,0.734-0.597,1.332-1.329,1.332H3.997c-0.733,0-1.331-0.598-1.331-1.332V4.324z M32.892,26.043
			c0,0.756-0.617,1.371-1.373,1.371h-4.613h-2.125H4.137c-0.747,0-1.363-0.615-1.363-1.371V9.619h30.119V26.043z M31.828,6.197
			h-16.48c-0.699,0-1.268-0.568-1.268-1.268s0.568-1.268,1.268-1.268h16.48c0.701,0,1.268,0.568,1.268,1.268
			S32.529,6.197,31.828,6.197z"/>
	</g>
</g>
<g>
	<g>
		<path fill="#CF7254" d="M-25.327,22.016c0,0.379,0.209,0.727,0.543,0.903c0.152,0.078,0.312,0.117,0.475,0.117
			c0.205,0,0.408-0.061,0.58-0.182l6.914-4.794c0.246-0.171,0.396-0.453,0.393-0.753c-0.002-0.3-0.146-0.581-0.395-0.75
			l-6.918-4.733c-0.172-0.118-0.371-0.178-0.574-0.178c-0.162,0-0.328,0.039-0.477,0.118c-0.334,0.176-0.543,0.523-0.543,0.902
			v1.628c-5.57,0.134-10.047,4.681-10.047,10.281v0.105c0.006,0.386,0.264,0.722,0.635,0.829c0.078,0.022,0.16,0.033,0.24,0.033
			c0.289,0,0.57-0.148,0.734-0.404c1.785-2.801,4.891-4.668,8.439-4.753V22.016z M-25.327,20.386"/>
		<g>
			<path d="M-32.633,24.649"/>
		</g>
	</g>
	<g>
		<circle fill="#DEB248" cx="-39.077" cy="5.287" r="1.268"/>
		<circle fill="#81BBCD" cx="-33.484" cy="5.287" r="1.267"/>
		<path fill="#404B5A" d="M-12.211,0.39h-27.381c-2.266,0-4.105,1.836-4.105,4.103V26.4c0,2.264,1.84,4.111,4.105,4.111h20.643
			h2.125h4.613c2.275,0,4.113-1.847,4.113-4.111V4.492C-8.098,2.226-9.936,0.39-12.211,0.39z M-35.489,4.68
			c0-0.739,0.59-1.336,1.33-1.336h1.33c0.732,0,1.328,0.597,1.328,1.336v1.329c0,0.734-0.596,1.332-1.328,1.332h-1.33
			c-0.732,0-1.33-0.598-1.33-1.332V4.68z M-41.063,4.681c0-0.739,0.59-1.337,1.33-1.337h1.33c0.73,0,1.328,0.598,1.328,1.337V6.01
			c0,0.734-0.598,1.332-1.328,1.332h-1.33c-0.732,0-1.33-0.598-1.33-1.332V4.681z M-10.838,26.4c0,0.756-0.615,1.371-1.373,1.371
			h-4.613h-2.125h-20.643c-0.748,0-1.363-0.615-1.363-1.371V9.977h30.117V26.4z M-11.903,6.554h-16.48
			c-0.699,0-1.268-0.568-1.268-1.268s0.568-1.268,1.268-1.268h16.48c0.701,0,1.27,0.568,1.27,1.268S-11.202,6.554-11.903,6.554z"/>
	</g>
</g>
<g>
	<g>
		<path fill="#CF7254" d="M55.067,18.488c-0.086,2.883-1.949,5.406-4.742,6.856c-0.254,0.134-0.402,0.361-0.402,0.598
			c0,0.063,0.01,0.129,0.033,0.194c0.107,0.3,0.443,0.511,0.826,0.516h0.105c5.586,0,10.123-3.638,10.256-8.161h1.625
			c0.377,0,0.725-0.171,0.898-0.443c0.08-0.121,0.119-0.254,0.119-0.386c0-0.164-0.061-0.326-0.178-0.466l-4.723-5.619
			c-0.17-0.202-0.449-0.321-0.748-0.323c-0.299-0.001-0.58,0.119-0.75,0.319l-4.783,5.618c-0.121,0.14-0.182,0.306-0.182,0.472
			c0,0.132,0.039,0.262,0.117,0.385c0.176,0.272,0.523,0.442,0.9,0.442H55.067z M55.067,18.488"/>
		<g>
			<path d="M50.813,24.425"/>
		</g>
	</g>
	<g>
		<circle fill="#DEB248" cx="43.707" cy="5.275" r="1.265"/>
		<circle fill="#81BBCD" cx="49.286" cy="5.275" r="1.266"/>
		<path fill="#404B5A" d="M70.51,0.39H43.192c-2.26,0-4.094,1.833-4.094,4.093V26.34c0,2.258,1.834,4.101,4.094,4.101h20.594h2.119
			h4.605c2.268,0,4.1-1.843,4.1-4.101V4.482C74.61,2.222,72.778,0.39,70.51,0.39z M47.288,4.67c0-0.736,0.586-1.333,1.326-1.333
			h1.326c0.729,0,1.324,0.597,1.324,1.333v1.327c0,0.732-0.596,1.329-1.324,1.329h-1.326c-0.732,0-1.326-0.597-1.326-1.329V4.67z
			 M41.725,4.67c0-0.736,0.588-1.333,1.326-1.333h1.326c0.73,0,1.326,0.597,1.326,1.333v1.327c0,0.732-0.596,1.329-1.326,1.329
			h-1.326c-0.73,0-1.326-0.597-1.326-1.329V4.67z M71.877,26.34c0,0.754-0.615,1.368-1.367,1.368h-4.605h-2.119H43.192
			c-0.746,0-1.361-0.614-1.361-1.368V9.954h30.047V26.34z M70.817,6.54H54.375c-0.699,0-1.266-0.566-1.266-1.264
			s0.566-1.265,1.266-1.265h16.441c0.699,0,1.266,0.567,1.266,1.265S71.516,6.54,70.817,6.54z"/>
	</g>
</g>
<g>
	<g>
		<path fill="#404B5A" d="M152.518,26.788l-4.369-4.36c-0.418-0.417-0.986-0.612-1.535-0.585l-2.102-2.102
			c3.578-4.733,3.215-11.5-1.096-15.817c-4.715-4.713-12.365-4.713-17.08,0.01c-4.725,4.722-4.725,12.364-0.01,17.079
			c4.316,4.316,11.086,4.674,15.816,1.096l2.102,2.102c-0.027,0.55,0.17,1.118,0.586,1.535l4.361,4.36
			c0.779,0.78,2.053,0.78,2.834,0l0.482-0.484C153.297,28.841,153.297,27.577,152.518,26.788L152.518,26.788z M140.803,18.4
			c-3.273,3.273-8.592,3.283-11.863,0.009c-3.273-3.272-3.273-8.582,0.008-11.864c3.273-3.273,8.59-3.282,11.865-0.009
			C144.084,9.81,144.073,15.118,140.803,18.4L140.803,18.4z M140.803,18.4"/>
	</g>
	<path fill="#CF7254" d="M138.161,11.21h-1.977V9.233c0-0.715-0.578-1.292-1.285-1.292h-0.012c-0.705,0-1.283,0.577-1.283,1.292
		v1.977h-1.979c-0.713,0-1.289,0.578-1.289,1.283v0.008c0,0.706,0.576,1.282,1.289,1.282h1.979v1.978
		c0,0.714,0.578,1.291,1.283,1.291h0.01c0.705,0,1.281-0.577,1.281-1.291v-1.978h1.977c0.715,0,1.293-0.577,1.293-1.282v-0.008
		C139.456,11.788,138.879,11.21,138.161,11.21L138.161,11.21z M138.161,11.21"/>
</g>
<g>
	<g>
		<path fill="#404B5A" d="M185.793,26.788l-4.369-4.36c-0.414-0.417-0.984-0.612-1.533-0.585l-2.102-2.102
			c3.576-4.733,3.213-11.5-1.098-15.817c-4.715-4.713-12.365-4.713-17.08,0.01c-4.725,4.722-4.725,12.364-0.01,17.079
			c4.316,4.316,11.086,4.674,15.816,1.096l2.104,2.102c-0.025,0.55,0.168,1.118,0.586,1.535l4.359,4.36
			c0.781,0.78,2.053,0.78,2.836,0l0.48-0.484C186.573,28.841,186.573,27.577,185.793,26.788L185.793,26.788z M174.081,18.4
			c-3.273,3.273-8.59,3.283-11.865,0.009c-3.273-3.272-3.273-8.582,0.008-11.864c3.273-3.273,8.592-3.282,11.865-0.009
			C177.362,9.81,177.348,15.118,174.081,18.4L174.081,18.4z M174.081,18.4"/>
	</g>
	<path fill="#CF7254" d="M171.436,11.21h-1.977h-2.58h-1.977c-0.713,0-1.291,0.578-1.291,1.283v0.008
		c0,0.706,0.578,1.282,1.291,1.282h1.977h2.574h1.979c0.715,0,1.289-0.577,1.289-1.282v-0.008
		C172.733,11.788,172.155,11.21,171.436,11.21z"/>
</g>
<g>
	<path fill="#404B5A" d="M197.768,29.258c0.033,0.817,0.705,1.463,1.525,1.463h14.25c0.816,0,1.49-0.646,1.521-1.463l1.021-21.482
		H196.75L197.768,29.258z M209.643,13.112c0-0.343,0.277-0.621,0.619-0.621h0.99c0.344,0,0.621,0.277,0.621,0.621v12.272
		c0,0.343-0.277,0.621-0.621,0.621h-0.99c-0.342,0-0.619-0.278-0.619-0.621V13.112z M205.303,13.112
		c0-0.343,0.275-0.621,0.619-0.621h0.992c0.344,0,0.621,0.277,0.621,0.621v12.272c0,0.343-0.277,0.621-0.621,0.621h-0.992
		c-0.344,0-0.619-0.278-0.619-0.621V13.112z M200.963,13.112c0-0.343,0.279-0.621,0.621-0.621h0.99c0.342,0,0.619,0.277,0.619,0.621
		v12.272c0,0.343-0.277,0.621-0.619,0.621h-0.99c-0.342,0-0.621-0.278-0.621-0.621V13.112z M200.963,13.112"/>
	<path fill="#CF7254" d="M216.764,1.952h-6.574V0.708c0-0.175-0.145-0.319-0.318-0.319h-6.906c-0.174,0-0.318,0.144-0.318,0.319
		v1.243h-6.574c-0.529,0-0.957,0.43-0.957,0.959v3.008h22.605V2.911C217.721,2.382,217.293,1.952,216.764,1.952L216.764,1.952z
		 M216.764,1.952"/>
</g>
<g>
	<path fill="#CF7254" d="M251.573,0.39H232.52v13.335h19.053V0.39z M249.667,11.82h-15.24V2.295h15.24V11.82z M249.667,11.82"/>
	<path fill="#404B5A" d="M253.477,13.725v1.906h-22.861v-1.906c-2.105,0-3.811,1.707-3.811,3.81v11.432
		c0,1.053,0.852,1.904,1.904,1.904h26.67c1.055,0,1.906-0.853,1.906-1.904V17.535C257.286,15.432,255.581,13.725,253.477,13.725
		L253.477,13.725z M251.573,27.06c0,1.054-0.854,1.907-1.906,1.907h-15.24c-1.053,0-1.906-0.853-1.906-1.907v-1.904h19.053V27.06z
		 M254.428,21.346h-1.904c-0.527,0-0.951-0.425-0.951-0.952s0.424-0.952,0.951-0.952h1.904c0.527,0,0.951,0.425,0.951,0.952
		S254.956,21.346,254.428,21.346L254.428,21.346z M254.428,21.346"/>
	<rect x="236.325" y="4.206" fill="#DEB248" width="11.432" height="1.904"/>
	<polygon fill="#DEB248" points="236.333,8.01 247.76,8.01 247.756,9.919 236.325,9.919 	"/>
</g>
<g>
	<g>
		<path fill="#404B5A" d="M317.843,7.535c0.961-0.664,1.607-1.893,1.607-3.298c0-1.903-0.387-3.848-3.24-3.848
			c-2.855,0-3.24,1.944-3.24,3.848c0,1.405,0.646,2.634,1.607,3.298c-2.127,0.638-3.666,2.485-3.666,4.659
			c0,1.122,0.57,1.917,1.695,2.366c0.826,0.328,1.969,0.481,3.604,0.481c1.633,0,2.777-0.153,3.602-0.481
			c1.127-0.449,1.697-1.244,1.697-2.366C321.509,10.02,319.968,8.173,317.843,7.535L317.843,7.535z M317.843,7.535"/>
	</g>
	<path fill="#404B5A" d="M307.694,21.922c0.959-0.664,1.607-1.894,1.607-3.298c0-1.903-0.385-3.848-3.24-3.848
		s-3.24,1.944-3.24,3.848c0,1.405,0.646,2.634,1.607,3.298c-2.125,0.638-3.666,2.485-3.666,4.658c0,1.122,0.57,1.917,1.697,2.366
		c0.822,0.329,1.967,0.482,3.602,0.482s2.779-0.153,3.602-0.482c1.127-0.449,1.699-1.244,1.699-2.366
		C311.362,24.407,309.819,22.56,307.694,21.922L307.694,21.922z M307.694,21.922"/>
	<path fill="#404B5A" d="M327.989,21.922c0.961-0.664,1.607-1.894,1.607-3.298c0-1.903-0.385-3.848-3.24-3.848
		s-3.238,1.944-3.238,3.848c0,1.405,0.646,2.634,1.607,3.298c-2.125,0.638-3.668,2.485-3.668,4.658c0,1.122,0.572,1.917,1.697,2.366
		c0.824,0.329,1.969,0.482,3.602,0.482c1.635,0,2.779-0.153,3.604-0.482c1.127-0.449,1.695-1.244,1.695-2.366
		C331.655,24.407,330.114,22.56,327.989,21.922L327.989,21.922z M327.989,21.922"/>
	<path fill="#CF7254" d="M319.788,29.158c-0.037-0.094-0.109-0.168-0.201-0.208c-0.092-0.04-0.195-0.041-0.289-0.004
		c-0.814,0.325-1.824,0.484-3.088,0.484c-1.266,0-2.275-0.158-3.088-0.484c-0.094-0.037-0.199-0.036-0.289,0.004
		c-0.094,0.04-0.166,0.114-0.203,0.208l-0.281,0.703c-0.076,0.194,0.018,0.414,0.211,0.491c0.996,0.398,2.189,0.592,3.65,0.592
		c1.459,0,2.654-0.194,3.648-0.592c0.195-0.077,0.289-0.297,0.211-0.491L319.788,29.158z M319.788,29.158"/>
	<path fill="#CF7254" d="M305.05,12.855l0.695,0.298c0.049,0.021,0.1,0.03,0.148,0.03c0.146,0,0.287-0.085,0.35-0.229
		c0.346-0.805,0.947-1.632,1.842-2.524c0.893-0.895,1.719-1.497,2.523-1.843c0.094-0.04,0.166-0.114,0.203-0.208
		c0.037-0.093,0.037-0.197-0.004-0.289l-0.297-0.696c-0.084-0.191-0.307-0.28-0.498-0.198c-0.986,0.423-1.967,1.13-3,2.163
		s-1.738,2.014-2.162,3C304.769,12.549,304.858,12.772,305.05,12.855L305.05,12.855z M305.05,12.855"/>
	<path fill="#CF7254" d="M321.81,8.587c0.805,0.346,1.631,0.948,2.525,1.843c0.895,0.893,1.496,1.72,1.842,2.524
		c0.062,0.144,0.201,0.229,0.348,0.229c0.051,0,0.102-0.009,0.148-0.03l0.695-0.298c0.193-0.083,0.283-0.306,0.199-0.497
		c-0.422-0.985-1.129-1.967-2.162-3s-2.014-1.739-2.998-2.163c-0.193-0.082-0.414,0.007-0.496,0.198l-0.299,0.696
		c-0.041,0.092-0.043,0.196-0.006,0.289C321.644,8.473,321.716,8.547,321.81,8.587L321.81,8.587z M321.81,8.587"/>
</g>
<g>
	<path fill="#404B5A" d="M269.257,17.843h-1.631c-0.451,0-0.818,0.367-0.818,0.816v11.227c0,0.451,0.367,0.816,0.818,0.816h1.631
		c0.449,0,0.814-0.365,0.814-0.816V18.659C270.071,18.21,269.706,17.843,269.257,17.843L269.257,17.843z"/>
	<path fill="#404B5A" d="M277.106,13.643h-1.633c-0.449,0-0.814,0.367-0.814,0.815v15.428c0,0.451,0.365,0.816,0.814,0.816h1.633
		c0.451,0,0.814-0.365,0.814-0.816V14.458C277.921,14.009,277.558,13.643,277.106,13.643L277.106,13.643z"/>
	<path fill="#404B5A" d="M284.956,8.227h-1.633c-0.453,0-0.816,0.366-0.816,0.816v20.843c0,0.451,0.363,0.816,0.816,0.816h1.633
		c0.447,0,0.812-0.365,0.812-0.816V9.043C285.769,8.593,285.403,8.227,284.956,8.227L284.956,8.227z"/>
	<path fill="#404B5A" d="M292.802,13.234h-1.631c-0.451,0-0.816,0.366-0.816,0.816v15.835c0,0.451,0.365,0.816,0.816,0.816h1.631
		c0.451,0,0.816-0.365,0.816-0.816V14.05C293.618,13.601,293.253,13.234,292.802,13.234L292.802,13.234z"/>
	<path fill="#CF7254" d="M291.987,5.876c-0.576,0-1.098,0.216-1.506,0.562l-4.117-2.975c0.072-0.229,0.123-0.469,0.123-0.724
		c0-1.297-1.051-2.35-2.348-2.35c-1.299,0-2.352,1.053-2.352,2.35c0,0.284,0.061,0.554,0.148,0.806l-4.461,3.472
		c-0.35-0.205-0.75-0.331-1.186-0.331c-1.299,0-2.35,1.053-2.35,2.351c0,0.078,0.014,0.153,0.023,0.231l-3.824,2.039
		c-0.428-0.448-1.029-0.73-1.697-0.73c-1.299,0-2.352,1.053-2.352,2.351c0,1.297,1.053,2.35,2.352,2.35
		c1.297,0,2.35-1.053,2.35-2.35c0-0.159-0.02-0.312-0.047-0.461l3.709-1.979c0.432,0.543,1.09,0.899,1.836,0.899
		c1.299,0,2.35-1.053,2.35-2.35c0-0.385-0.1-0.743-0.264-1.063l4.34-3.376c0.395,0.304,0.887,0.491,1.424,0.491
		c0.568,0,1.08-0.209,1.486-0.544l4.129,2.981c-0.068,0.223-0.119,0.455-0.119,0.7c0,1.298,1.053,2.351,2.352,2.351
		s2.35-1.053,2.35-2.351C294.337,6.93,293.286,5.876,291.987,5.876z"/>
</g>
<g>
	<g>
		<circle fill="#DEB248" cx="83.539" cy="5.275" r="1.265"/>
		<circle fill="#81BBCD" cx="89.117" cy="5.275" r="1.265"/>
		<path fill="#404B5A" d="M110.34,0.39H83.024c-2.26,0-4.096,1.833-4.096,4.093V26.34c0,2.258,1.836,4.101,4.096,4.101h20.594h2.121
			h4.602c2.27,0,4.102-1.843,4.102-4.101V4.482C114.442,2.222,112.61,0.39,110.34,0.39z M87.118,4.67
			c0-0.736,0.588-1.333,1.326-1.333h1.326c0.729,0,1.326,0.597,1.326,1.333v1.327c0,0.732-0.598,1.329-1.326,1.329h-1.326
			c-0.73,0-1.326-0.597-1.326-1.329V4.67z M81.557,4.67c0-0.736,0.588-1.333,1.326-1.333h1.328c0.729,0,1.324,0.597,1.324,1.333
			v1.327c0,0.732-0.596,1.329-1.324,1.329h-1.328c-0.73,0-1.326-0.597-1.326-1.329V4.67z M111.709,26.34
			c0,0.754-0.613,1.368-1.369,1.368h-4.602h-2.121H83.024c-0.746,0-1.359-0.614-1.359-1.368V9.954h30.045V26.34z M110.649,6.54
			H94.206c-0.697,0-1.264-0.566-1.264-1.264s0.566-1.265,1.264-1.265h16.443c0.699,0,1.266,0.567,1.266,1.265
			S111.348,6.54,110.649,6.54z"/>
	</g>
	<g>
		<path fill="#CF7254" d="M98.472,19.417c0.086-2.883,1.947-5.406,4.742-6.856c0.255-0.134,0.404-0.36,0.404-0.598
			c0-0.063-0.013-0.129-0.035-0.194c-0.105-0.3-0.442-0.511-0.825-0.515h-0.105c-5.588,0-10.125,3.637-10.256,8.161h-1.625
			c-0.379,0-0.724,0.171-0.899,0.442c-0.08,0.122-0.12,0.254-0.12,0.387c0,0.164,0.062,0.326,0.18,0.467l4.722,5.619
			c0.168,0.201,0.449,0.321,0.749,0.322c0.298,0.001,0.579-0.119,0.751-0.319l4.783-5.618c0.119-0.139,0.182-0.305,0.182-0.471
			c0-0.132-0.04-0.263-0.117-0.385c-0.177-0.272-0.524-0.442-0.902-0.442H98.472z M98.472,19.417"/>
		<g>
			<path d="M102.727,13.48"/>
		</g>
	</g>
</g>
</svg>
