<?xml version="1.0" encoding="utf-8"?>
<!-- Generator: Adobe Illustrator 16.0.0, SVG Export Plug-In . SVG Version: 6.00 Build 0)  -->
<!DOCTYPE svg PUBLIC "-//W3C//DTD SVG 1.1//EN" "http://www.w3.org/Graphics/SVG/1.1/DTD/svg11.dtd">
<svg version="1.1" id="Capa_1" xmlns="http://www.w3.org/2000/svg" xmlns:xlink="http://www.w3.org/1999/xlink" x="0px" y="0px"
	 width="30.499px" height="30.186px" viewBox="0 0 30.499 30.186" enable-background="new 0 0 30.499 30.186" xml:space="preserve">
<g>
	<path fill="#CF7254" d="M-557.237,10.024h11.116c0.908,0,1.646-0.738,1.646-1.646V0.386h-14.411v7.992
		C-558.885,9.286-558.146,10.024-557.237,10.024L-557.237,10.024z M-557.237,10.024"/>
	<path fill="#DEB248" d="M-557.932,17.969h6.717c0.571,0,1.036-0.466,1.036-1.036s-0.465-1.035-1.036-1.035h-6.717
		c-0.573,0-1.035,0.465-1.035,1.035S-558.505,17.969-557.932,17.969L-557.932,17.969z M-557.932,17.969"/>
	<path fill="#DEB248" d="M-557.932,22.11h10.856c0.575,0,1.037-0.464,1.037-1.035s-0.462-1.035-1.037-1.035h-10.856
		c-0.573,0-1.035,0.464-1.035,1.035S-558.505,22.11-557.932,22.11L-557.932,22.11z M-557.932,22.11"/>
	<path fill="#DEB248" d="M-542.93,24.183h-15.002c-0.573,0-1.035,0.463-1.035,1.033c0,0.571,0.462,1.037,1.035,1.037h15.002
		c0.571,0,1.035-0.466,1.035-1.037C-541.895,24.646-542.359,24.183-542.93,24.183L-542.93,24.183z M-542.93,24.183"/>
	<path fill="#404B5A" d="M-541.282,0.386h-1.122v7.992c0,2.051-1.666,3.717-3.717,3.717h-11.116c-2.052,0-3.72-1.666-3.72-3.717
		V0.386h-1.768c-1.882,0-3.409,1.527-3.409,3.409v24.108c0,1.883,1.527,3.409,3.409,3.409h24.248c1.884,0,3.409-1.526,3.409-3.409
		V6.642L-541.282,0.386z M-539.73,25.591c0,1.151-0.935,2.086-2.086,2.086h-17.707c-1.149,0-2.085-0.935-2.085-2.086V16.56
		c0-1.152,0.936-2.086,2.085-2.086h17.707c1.151,0,2.086,0.934,2.086,2.086V25.591z M-537.4,10.801h-2.975V7.824h2.975V10.801z
		 M-537.4,10.801"/>
</g>
<g>
	<g>
		<path fill="#CF7254" d="M-508.013,26.145c3.556,0.085,6.666,1.955,8.454,4.762c0.165,0.256,0.447,0.406,0.738,0.406
			c0.078,0,0.159-0.011,0.238-0.034c0.373-0.106,0.63-0.443,0.635-0.83v-0.105c0-5.612-4.486-10.169-10.062-10.303v-1.632
			c0-0.379-0.214-0.727-0.547-0.902c-0.15-0.081-0.313-0.12-0.479-0.12c-0.201,0-0.4,0.062-0.575,0.179l-6.93,4.742
			c-0.248,0.169-0.396,0.451-0.396,0.751c-0.002,0.301,0.146,0.583,0.392,0.755l6.929,4.802c0.174,0.122,0.38,0.183,0.581,0.183
			c0.166,0,0.326-0.039,0.476-0.117c0.337-0.176,0.548-0.526,0.548-0.906V26.145z M-508.013,26.145"/>
		<path d="M-499.032,24.699"/>
	</g>
	<g>
		<path fill="#DEB248" d="M-517.717,5.296c0,0.701-0.566,1.271-1.271,1.271c-0.7,0-1.269-0.57-1.269-1.271
			c0-0.701,0.568-1.271,1.269-1.271C-518.283,4.026-517.717,4.596-517.717,5.296z"/>
		<path fill="#81BBCD" d="M-512.112,5.296c0,0.701-0.568,1.271-1.271,1.271c-0.698,0-1.27-0.57-1.27-1.271
			c0-0.701,0.571-1.271,1.27-1.271C-512.681,4.026-512.112,4.596-512.112,5.296z"/>
		<path fill="#404B5A" d="M-492.064,0.39h-27.438c-2.271,0-4.113,1.841-4.113,4.111v21.955c0,2.268,1.843,4.118,4.113,4.118h6.121
			v-2.745h-6.121c-0.75,0-1.367-0.617-1.367-1.373V9.996h30.18v16.459c0,0.756-0.617,1.373-1.374,1.373h-4.271v2.745h4.271
			c2.277,0,4.119-1.851,4.119-4.118V4.5C-487.945,2.23-489.787,0.39-492.064,0.39z M-516.98,6.021c0,0.736-0.598,1.335-1.331,1.335
			h-1.333c-0.735,0-1.332-0.599-1.332-1.335V4.689c0-0.74,0.591-1.338,1.332-1.338h1.333c0.733,0,1.331,0.599,1.331,1.338V6.021z
			 M-511.396,6.021c0,0.735-0.597,1.335-1.33,1.335h-1.332c-0.734,0-1.33-0.6-1.33-1.335V4.688c0-0.74,0.588-1.338,1.33-1.338h1.332
			c0.733,0,1.33,0.599,1.33,1.338V6.021z M-491.755,6.567h-16.516c-0.703,0-1.271-0.57-1.271-1.271c0-0.701,0.567-1.271,1.271-1.271
			h16.516c0.699,0,1.271,0.57,1.271,1.271C-490.484,5.998-491.056,6.567-491.755,6.567z"/>
	</g>
</g>
<g>
	<circle fill="#DEB248" cx="-472.188" cy="5.296" r="1.271"/>
	<g>
		<path fill="#CF7254" d="M-456.865,27.778c0,0.38,0.213,0.73,0.549,0.906c0.151,0.078,0.31,0.117,0.475,0.117
			c0.204,0,0.408-0.062,0.582-0.183l6.929-4.802c0.246-0.172,0.395-0.455,0.395-0.755c-0.002-0.3-0.15-0.582-0.397-0.751
			l-6.933-4.742c-0.174-0.118-0.371-0.179-0.575-0.179c-0.165,0-0.328,0.039-0.478,0.12c-0.333,0.175-0.546,0.523-0.546,0.902v1.632
			c-5.577,0.134-10.064,4.691-10.064,10.303v0.105c0.005,0.387,0.262,0.724,0.634,0.83c0.079,0.023,0.162,0.034,0.241,0.034
			c0.29,0,0.572-0.149,0.737-0.406c1.788-2.807,4.898-4.676,8.452-4.762V27.778z M-456.865,26.145"/>
		<path d="M-467.328,24.699"/>
	</g>
	<circle fill="#81BBCD" cx="-466.549" cy="5.296" r="1.271"/>
	<path fill="#404B5A" d="M-445.232,0.39h-27.438c-2.269,0-4.111,1.841-4.111,4.111v21.955c0,2.268,1.843,4.118,4.111,4.118h3.875
		v-2.745h-3.875c-0.747,0-1.366-0.617-1.366-1.373V9.996h30.18v16.459c0,0.756-0.615,1.373-1.375,1.373h-5.761v2.745h5.761
		c2.279,0,4.121-1.851,4.121-4.118V4.5C-441.111,2.23-442.953,0.39-445.232,0.39z M-470.146,6.021c0,0.736-0.6,1.335-1.332,1.335
		h-1.331c-0.736,0-1.332-0.599-1.332-1.335V4.689c0-0.74,0.59-1.338,1.332-1.338h1.331c0.732,0,1.332,0.599,1.332,1.338V6.021z
		 M-464.561,6.021c0,0.735-0.598,1.335-1.33,1.335h-1.333c-0.733,0-1.332-0.6-1.332-1.335V4.688c0-0.74,0.59-1.338,1.332-1.338
		h1.333c0.732,0,1.33,0.599,1.33,1.338V6.021z M-444.922,6.567h-16.514c-0.704,0-1.271-0.57-1.271-1.271
		c0-0.701,0.567-1.271,1.271-1.271h16.514c0.701,0,1.272,0.57,1.272,1.271C-443.65,5.998-444.221,6.567-444.922,6.567z"/>
</g>
<g>
	<path fill="#CF7254" d="M-416.04,26.836c-0.085,3.553-1.953,6.662-4.759,8.45c-0.255,0.164-0.405,0.444-0.405,0.736
		c0,0.079,0.012,0.161,0.035,0.24c0.105,0.371,0.444,0.629,0.828,0.635h0.105c5.607,0,10.161-4.484,10.295-10.058h1.632
		c0.379,0,0.725-0.21,0.902-0.546c0.08-0.148,0.118-0.313,0.118-0.476c0-0.202-0.061-0.403-0.179-0.575l-4.738-6.926
		c-0.171-0.248-0.452-0.395-0.753-0.396c-0.3-0.002-0.582,0.146-0.752,0.392l-4.802,6.924c-0.121,0.172-0.182,0.377-0.182,0.582
		c0,0.163,0.04,0.323,0.117,0.474c0.176,0.335,0.524,0.545,0.904,0.545H-416.04z M-416.04,26.836"/>
	<g>
		<circle fill="#DEB248" cx="-427.442" cy="5.289" r="1.271"/>
		<circle fill="#81BBCD" cx="-421.842" cy="5.289" r="1.269"/>
		<path fill="#404B5A" d="M-400.54,0.386h-27.419c-2.27,0-4.109,1.839-4.109,4.107v21.938c0,2.267,1.84,4.117,4.109,4.117h8.9
			v-2.744h-8.9c-0.748,0-1.364-0.616-1.364-1.373V9.985h30.155v16.446c0,0.757-0.615,1.373-1.372,1.373h-6.748v2.744h6.748
			c2.276,0,4.116-1.85,4.116-4.117V4.493C-396.424,2.225-398.264,0.386-400.54,0.386z M-425.438,6.014
			c0,0.735-0.597,1.333-1.329,1.333h-1.33c-0.735,0-1.332-0.599-1.332-1.333V4.683c0-0.74,0.588-1.338,1.332-1.338h1.33
			c0.732,0,1.329,0.599,1.329,1.338V6.014z M-419.855,6.013c0,0.735-0.599,1.333-1.331,1.333h-1.331
			c-0.734,0-1.331-0.599-1.331-1.333V4.682c0-0.74,0.59-1.338,1.331-1.338h1.331c0.732,0,1.331,0.599,1.331,1.338V6.013z
			 M-400.232,6.558h-16.502c-0.701,0-1.271-0.569-1.271-1.27c0-0.7,0.569-1.269,1.271-1.269h16.502c0.701,0,1.27,0.569,1.27,1.269
			C-398.963,5.989-399.531,6.558-400.232,6.558z"/>
	</g>
</g>
<g>
	<path fill="#CF7254" d="M-371.15,32.075c0.084-3.553,1.954-6.662,4.758-8.45c0.257-0.165,0.404-0.444,0.404-0.736
		c0-0.079-0.01-0.161-0.032-0.24c-0.107-0.371-0.445-0.629-0.83-0.635h-0.104c-5.608,0-10.161,4.484-10.296,10.059h-1.631
		c-0.378,0-0.727,0.21-0.902,0.545c-0.078,0.149-0.117,0.313-0.117,0.476c0,0.204,0.06,0.404,0.178,0.576l4.738,6.926
		c0.171,0.248,0.45,0.396,0.751,0.396c0.301,0.002,0.583-0.146,0.754-0.392l4.801-6.924c0.12-0.172,0.183-0.377,0.183-0.582
		c0-0.162-0.04-0.323-0.117-0.474c-0.177-0.335-0.524-0.545-0.904-0.545H-371.15z M-371.15,32.075"/>
	<g>
		<path fill="#DEB248" d="M-384.872,5.312c0,0.701-0.568,1.27-1.271,1.27c-0.698,0-1.268-0.569-1.268-1.27
			c0-0.7,0.569-1.269,1.268-1.269C-385.44,4.043-384.872,4.612-384.872,5.312z"/>
		<circle fill="#81BBCD" cx="-380.542" cy="5.312" r="1.269"/>
		<path fill="#404B5A" d="M-359.24,0.41h-27.417c-2.27,0-4.109,1.839-4.109,4.107v21.938c0,2.267,1.84,4.117,4.109,4.117h6.756
			v-2.744h-6.756c-0.749,0-1.365-0.616-1.365-1.373V10.009h30.156v16.446c0,0.757-0.617,1.373-1.374,1.373h-9.025v2.744h9.025
			c2.276,0,4.116-1.85,4.116-4.117V4.517C-355.124,2.249-356.964,0.41-359.24,0.41z M-384.138,6.038c0,0.735-0.598,1.333-1.33,1.333
			h-1.332c-0.733,0-1.33-0.599-1.33-1.333V4.707c0-0.74,0.59-1.338,1.33-1.338h1.332c0.732,0,1.33,0.599,1.33,1.338V6.038z
			 M-378.556,6.037c0,0.735-0.599,1.333-1.329,1.333h-1.332c-0.735,0-1.333-0.599-1.333-1.333V4.706c0-0.74,0.591-1.338,1.333-1.338
			h1.332c0.73,0,1.329,0.599,1.329,1.338V6.037z M-358.933,6.582h-16.501c-0.703,0-1.27-0.569-1.27-1.27
			c0-0.7,0.566-1.269,1.27-1.269h16.501c0.702,0,1.27,0.569,1.27,1.269C-357.663,6.013-358.23,6.582-358.933,6.582z"/>
	</g>
</g>
<g>
	<g>
		<path fill="#CF7254" d="M-288.486,20.028c3.549,0.084,6.652,1.952,8.438,4.753c0.166,0.256,0.445,0.404,0.736,0.404
			c0.078,0,0.16-0.011,0.24-0.033c0.369-0.107,0.629-0.443,0.633-0.829v-0.105c0-5.6-4.477-10.147-10.047-10.281v-1.628
			c0-0.378-0.209-0.726-0.543-0.902c-0.148-0.079-0.312-0.118-0.477-0.118c-0.201,0-0.4,0.06-0.574,0.178l-6.917,4.733
			c-0.247,0.169-0.394,0.45-0.396,0.75c-0.002,0.3,0.147,0.582,0.394,0.753l6.914,4.794c0.172,0.121,0.377,0.182,0.58,0.182
			c0.164,0,0.324-0.039,0.475-0.117c0.334-0.176,0.545-0.524,0.545-0.903V20.028z M-288.486,20.028"/>
		<g>
			<path d="M-281.181,24.292"/>
		</g>
	</g>
	<g>
		<circle fill="#DEB248" cx="-301.094" cy="4.929" r="1.269"/>
		<circle fill="#81BBCD" cx="-295.501" cy="4.929" r="1.267"/>
		<path fill="#404B5A" d="M-274.228,0.032h-27.382c-2.265,0-4.104,1.836-4.104,4.103v21.908c0,2.264,1.839,4.111,4.104,4.111h20.644
			h2.125h4.613c2.273,0,4.113-1.847,4.113-4.111V4.135C-270.115,1.869-271.955,0.032-274.228,0.032z M-297.506,4.323
			c0-0.739,0.59-1.336,1.331-1.336h1.329c0.73,0,1.327,0.597,1.327,1.336v1.329c0,0.734-0.597,1.332-1.327,1.332h-1.329
			c-0.734,0-1.331-0.598-1.331-1.332V4.323z M-303.081,4.324c0-0.739,0.59-1.337,1.331-1.337h1.329c0.732,0,1.329,0.598,1.329,1.337
			v1.329c0,0.734-0.597,1.332-1.329,1.332h-1.329c-0.733,0-1.331-0.598-1.331-1.332V4.324z M-272.855,26.043
			c0,0.756-0.617,1.371-1.373,1.371h-4.613h-2.125h-20.644c-0.747,0-1.363-0.615-1.363-1.371V9.619h30.119V26.043z M-273.919,6.197
			h-16.48c-0.699,0-1.268-0.568-1.268-1.268s0.568-1.268,1.268-1.268h16.48c0.701,0,1.268,0.568,1.268,1.268
			S-273.218,6.197-273.919,6.197z"/>
	</g>
</g>
<g>
	<g>
		<path fill="#CF7254" d="M-331.074,22.016c0,0.379,0.209,0.727,0.543,0.903c0.152,0.078,0.312,0.117,0.475,0.117
			c0.205,0,0.408-0.061,0.58-0.182l6.914-4.794c0.246-0.171,0.396-0.453,0.393-0.753c-0.002-0.3-0.146-0.581-0.395-0.75
			l-6.918-4.733c-0.172-0.118-0.371-0.178-0.574-0.178c-0.162,0-0.328,0.039-0.477,0.118c-0.334,0.176-0.543,0.523-0.543,0.902
			v1.628c-5.57,0.134-10.047,4.681-10.047,10.281v0.105c0.006,0.386,0.264,0.722,0.635,0.829c0.078,0.022,0.16,0.033,0.24,0.033
			c0.289,0,0.57-0.148,0.734-0.404c1.785-2.801,4.891-4.668,8.439-4.753V22.016z M-331.074,20.386"/>
		<g>
			<path d="M-338.38,24.649"/>
		</g>
	</g>
	<g>
		<circle fill="#DEB248" cx="-344.824" cy="5.287" r="1.268"/>
		<circle fill="#81BBCD" cx="-339.231" cy="5.287" r="1.267"/>
		<path fill="#404B5A" d="M-317.958,0.39h-27.381c-2.266,0-4.105,1.836-4.105,4.103V26.4c0,2.264,1.84,4.111,4.105,4.111h20.643
			h2.125h4.613c2.275,0,4.113-1.847,4.113-4.111V4.492C-313.845,2.226-315.683,0.39-317.958,0.39z M-341.236,4.68
			c0-0.739,0.59-1.336,1.33-1.336h1.33c0.732,0,1.328,0.597,1.328,1.336v1.329c0,0.734-0.596,1.332-1.328,1.332h-1.33
			c-0.732,0-1.33-0.598-1.33-1.332V4.68z M-346.81,4.681c0-0.739,0.59-1.337,1.33-1.337h1.33c0.73,0,1.328,0.598,1.328,1.337V6.01
			c0,0.734-0.598,1.332-1.328,1.332h-1.33c-0.732,0-1.33-0.598-1.33-1.332V4.681z M-316.585,26.4c0,0.756-0.615,1.371-1.373,1.371
			h-4.613h-2.125h-20.643c-0.748,0-1.363-0.615-1.363-1.371V9.977h30.117V26.4z M-317.65,6.554h-16.48
			c-0.699,0-1.268-0.568-1.268-1.268s0.568-1.268,1.268-1.268h16.48c0.701,0,1.27,0.568,1.27,1.268S-316.949,6.554-317.65,6.554z"/>
	</g>
</g>
<g>
	<g>
		<path fill="#CF7254" d="M-251.25,18.189c-0.086,2.894-1.957,5.426-4.76,6.881c-0.255,0.134-0.404,0.362-0.404,0.601
			c0,0.063,0.01,0.13,0.033,0.194c0.108,0.301,0.445,0.513,0.829,0.518h0.106c5.607,0,10.161-3.651,10.294-8.191h1.631
			c0.378,0,0.728-0.172,0.902-0.445c0.081-0.121,0.12-0.255,0.12-0.388c0-0.165-0.061-0.327-0.178-0.468l-4.741-5.64
			c-0.17-0.203-0.451-0.322-0.75-0.324c-0.3-0.001-0.583,0.12-0.753,0.32l-4.801,5.639c-0.122,0.14-0.182,0.307-0.182,0.473
			c0,0.132,0.039,0.263,0.118,0.386c0.176,0.273,0.525,0.444,0.904,0.444H-251.25z M-251.25,18.189"/>
		<g>
			<path d="M-255.519,24.147"/>
		</g>
	</g>
	<g>
		<circle fill="#DEB248" cx="-262.652" cy="4.926" r="1.269"/>
		<circle fill="#81BBCD" cx="-257.052" cy="4.926" r="1.271"/>
		<path fill="#404B5A" d="M-235.749,0.022h-27.42c-2.268,0-4.109,1.839-4.109,4.108V26.07c0,2.266,1.841,4.116,4.109,4.116h20.671
			h2.127h4.623c2.276,0,4.115-1.85,4.115-4.116V4.13C-231.633,1.862-233.472,0.022-235.749,0.022z M-259.058,4.319
			c0-0.739,0.588-1.338,1.331-1.338h1.331c0.731,0,1.329,0.599,1.329,1.338V5.65c0,0.735-0.598,1.334-1.329,1.334h-1.331
			c-0.735,0-1.331-0.599-1.331-1.334V4.319z M-264.641,4.319c0-0.739,0.59-1.338,1.331-1.338h1.331c0.733,0,1.332,0.599,1.332,1.338
			v1.332c0,0.735-0.598,1.334-1.332,1.334h-1.331c-0.733,0-1.331-0.599-1.331-1.334V4.319z M-234.376,26.07
			c0,0.756-0.618,1.373-1.373,1.373h-4.623h-2.127h-20.671c-0.749,0-1.366-0.616-1.366-1.373V9.623h30.159V26.07z M-235.44,6.195
			h-16.503c-0.702,0-1.271-0.568-1.271-1.269c0-0.701,0.569-1.27,1.271-1.27h16.503c0.702,0,1.27,0.569,1.27,1.27
			C-234.17,5.627-234.739,6.195-235.44,6.195z"/>
	</g>
</g>
<g>
	<g>
		<path fill="#404B5A" d="M-150.716,26.277l-4.35-4.342c-0.417-0.414-0.983-0.609-1.529-0.583l-2.092-2.093
			c3.563-4.713,3.201-11.452-1.091-15.75c-4.695-4.693-12.312-4.693-17.007,0.011c-4.705,4.702-4.705,12.312-0.011,17.006
			c4.299,4.297,11.039,4.654,15.75,1.091l2.092,2.093c-0.027,0.548,0.169,1.113,0.583,1.528l4.343,4.342
			c0.776,0.776,2.044,0.776,2.822,0l0.48-0.482C-149.94,28.321-149.94,27.062-150.716,26.277L-150.716,26.277z M-162.38,17.925
			c-3.259,3.259-8.556,3.269-11.813,0.008c-3.259-3.258-3.259-8.545,0.007-11.813c3.26-3.259,8.554-3.269,11.815-0.009
			C-159.114,9.372-159.125,14.656-162.38,17.925L-162.38,17.925z M-162.38,17.925"/>
	</g>
	<path fill="#CF7254" d="M-165.012,10.765h-1.968V8.797c0-0.712-0.576-1.287-1.279-1.287h-0.012c-0.702,0-1.277,0.575-1.277,1.287
		v1.968h-1.97c-0.71,0-1.284,0.576-1.284,1.278v0.008c0,0.703,0.574,1.277,1.284,1.277h1.97v1.968c0,0.71,0.576,1.286,1.277,1.286
		h0.01c0.702,0,1.275-0.576,1.275-1.286v-1.968h1.968c0.712,0,1.288-0.575,1.288-1.277v-0.008
		C-163.723,11.341-164.296,10.765-165.012,10.765L-165.012,10.765z M-165.012,10.765"/>
</g>
<g>
	<g>
		<path fill="#404B5A" d="M-113.061,26.247l-4.34-4.332c-0.412-0.414-0.978-0.608-1.523-0.582l-2.088-2.088
			c3.553-4.701,3.192-11.424-1.09-15.712c-4.684-4.683-12.284-4.683-16.967,0.01c-4.693,4.691-4.693,12.282-0.009,16.966
			c4.288,4.288,11.012,4.644,15.711,1.088l2.09,2.088c-0.025,0.547,0.167,1.111,0.582,1.525l4.33,4.331
			c0.776,0.775,2.04,0.775,2.817,0l0.477-0.48C-112.286,28.286-112.286,27.03-113.061,26.247L-113.061,26.247z M-124.696,17.915
			c-3.252,3.251-8.533,3.261-11.787,0.009c-3.252-3.251-3.252-8.525,0.007-11.786c3.252-3.251,8.535-3.26,11.787-0.009
			C-121.437,9.38-121.45,14.653-124.696,17.915L-124.696,17.915z M-124.696,17.915"/>
	</g>
	<path fill="#CF7254" d="M-127.323,10.771h-1.963h-2.563h-1.963c-0.708,0-1.283,0.574-1.283,1.274v0.008
		c0,0.702,0.574,1.274,1.283,1.274h1.963h2.558h1.965c0.71,0,1.281-0.573,1.281-1.274v-0.008
		C-126.035,11.345-126.609,10.771-127.323,10.771z"/>
</g>
<g>
	<path fill="#404B5A" d="M-103.11,28.7c0.034,0.812,0.701,1.455,1.516,1.455h14.167c0.812,0,1.481-0.643,1.512-1.455l1.015-21.357
		h-19.222L-103.11,28.7z M-91.305,12.648c0-0.341,0.275-0.617,0.616-0.617h0.984c0.342,0,0.618,0.276,0.618,0.617v12.201
		c0,0.341-0.276,0.617-0.618,0.617h-0.984c-0.34,0-0.616-0.276-0.616-0.617V12.648z M-95.619,12.648
		c0-0.341,0.273-0.617,0.615-0.617h0.986c0.341,0,0.617,0.276,0.617,0.617v12.201c0,0.341-0.276,0.617-0.617,0.617h-0.986
		c-0.342,0-0.615-0.276-0.615-0.617V12.648z M-99.934,12.648c0-0.341,0.278-0.617,0.618-0.617h0.984c0.34,0,0.616,0.276,0.616,0.617
		v12.201c0,0.341-0.276,0.617-0.616,0.617h-0.984c-0.34,0-0.618-0.276-0.618-0.617V12.648z M-99.934,12.648"/>
	<path fill="#CF7254" d="M-84.225,1.553h-6.536V0.317c0-0.174-0.144-0.317-0.316-0.317h-6.866c-0.172,0-0.316,0.143-0.316,0.317
		v1.235h-6.536c-0.526,0-0.951,0.428-0.951,0.954v2.991h22.473V2.506C-83.274,1.981-83.699,1.553-84.225,1.553L-84.225,1.553z
		 M-84.225,1.553"/>
</g>
<g>
	<path fill="#CF7254" d="M-50.325-0.018h-18.87v13.207h18.87V-0.018z M-52.213,11.302h-15.094V1.869h15.094V11.302z M-52.213,11.302
		"/>
	<path fill="#404B5A" d="M-48.439,13.189v1.888h-22.642v-1.888c-2.085,0-3.773,1.691-3.773,3.773v11.322
		c0,1.043,0.844,1.886,1.886,1.886h26.414c1.044,0,1.888-0.845,1.888-1.886V16.962C-44.667,14.88-46.355,13.189-48.439,13.189
		L-48.439,13.189z M-50.325,26.396c0,1.043-0.846,1.888-1.888,1.888h-15.094c-1.042,0-1.888-0.845-1.888-1.888v-1.887h18.87V26.396z
		 M-47.497,20.737h-1.886c-0.522,0-0.942-0.421-0.942-0.943c0-0.522,0.419-0.944,0.942-0.944h1.886c0.523,0,0.942,0.421,0.942,0.944
		C-46.555,20.315-46.974,20.737-47.497,20.737L-47.497,20.737z M-47.497,20.737"/>
	<rect x="-65.427" y="3.761" fill="#DEB248" width="11.322" height="1.886"/>
	<polygon fill="#DEB248" points="-65.419,7.529 -54.101,7.529 -54.105,9.42 -65.427,9.42 	"/>
</g>
<g>
	<g>
		<path fill="#404B5A" d="M16.862,7.038c0.949-0.655,1.587-1.869,1.587-3.256c0-1.879-0.382-3.798-3.199-3.798
			c-2.819,0-3.199,1.919-3.199,3.798c0,1.387,0.638,2.601,1.587,3.256c-2.1,0.63-3.619,2.453-3.619,4.6
			c0,1.107,0.563,1.892,1.674,2.335c0.815,0.324,1.943,0.475,3.557,0.475c1.612,0,2.742-0.151,3.556-0.475
			c1.113-0.443,1.676-1.229,1.676-2.335C20.481,9.491,18.96,7.667,16.862,7.038L16.862,7.038z M16.862,7.038"/>
	</g>
	<path fill="#404B5A" d="M6.843,21.241c0.947-0.656,1.587-1.87,1.587-3.256c0-1.879-0.38-3.799-3.199-3.799
		c-2.819,0-3.199,1.919-3.199,3.799c0,1.387,0.638,2.601,1.587,3.256C1.521,21.871,0,23.694,0,25.839
		c0,1.108,0.563,1.893,1.676,2.336c0.812,0.324,1.941,0.476,3.556,0.476c1.614,0,2.744-0.151,3.555-0.476
		c1.113-0.443,1.678-1.228,1.678-2.336C10.464,23.694,8.941,21.871,6.843,21.241L6.843,21.241z M6.843,21.241"/>
	<path fill="#404B5A" d="M26.879,21.241c0.949-0.656,1.587-1.87,1.587-3.256c0-1.879-0.38-3.799-3.199-3.799
		c-2.819,0-3.197,1.919-3.197,3.799c0,1.387,0.638,2.601,1.587,3.256c-2.098,0.63-3.621,2.453-3.621,4.598
		c0,1.108,0.565,1.893,1.676,2.336c0.813,0.324,1.943,0.476,3.555,0.476c1.614,0,2.744-0.151,3.558-0.476
		c1.113-0.443,1.674-1.228,1.674-2.336C30.499,23.694,28.977,21.871,26.879,21.241L26.879,21.241z M26.879,21.241"/>
	<path fill="#CF7254" d="M18.783,28.385c-0.037-0.092-0.108-0.166-0.199-0.205c-0.09-0.04-0.193-0.04-0.285-0.004
		c-0.804,0.321-1.801,0.478-3.049,0.478c-1.249,0-2.246-0.156-3.048-0.478c-0.092-0.036-0.197-0.036-0.285,0.004
		c-0.093,0.039-0.164,0.113-0.201,0.205l-0.278,0.694c-0.075,0.191,0.018,0.409,0.208,0.485c0.983,0.393,2.162,0.584,3.604,0.584
		c1.44,0,2.621-0.191,3.602-0.584c0.193-0.076,0.286-0.293,0.208-0.485L18.783,28.385z M18.783,28.385"/>
	<path fill="#CF7254" d="M4.232,12.29l0.687,0.295c0.048,0.02,0.098,0.029,0.146,0.029c0.145,0,0.283-0.084,0.345-0.226
		c0.341-0.794,0.935-1.611,1.818-2.492C8.11,9.012,8.926,8.418,9.72,8.076c0.092-0.039,0.164-0.112,0.2-0.205
		C9.958,7.78,9.958,7.676,9.917,7.586L9.624,6.898C9.541,6.709,9.321,6.622,9.132,6.703C8.158,7.121,7.19,7.818,6.17,8.838
		s-1.716,1.988-2.135,2.961C3.955,11.988,4.043,12.208,4.232,12.29L4.232,12.29z M4.232,12.29"/>
	<path fill="#CF7254" d="M20.778,8.076c0.794,0.342,1.61,0.936,2.493,1.819c0.883,0.881,1.477,1.698,1.818,2.492
		c0.062,0.142,0.199,0.226,0.343,0.226c0.05,0,0.1-0.009,0.146-0.029l0.687-0.295c0.191-0.082,0.28-0.302,0.197-0.491
		c-0.417-0.973-1.115-1.941-2.135-2.961s-1.988-1.717-2.959-2.135c-0.191-0.081-0.409,0.007-0.49,0.196l-0.295,0.688
		c-0.041,0.09-0.042,0.194-0.005,0.285C20.615,7.964,20.686,8.037,20.778,8.076L20.778,8.076z M20.778,8.076"/>
</g>
<g>
	<path fill="#404B5A" d="M-29.954,17.35h-1.622c-0.449,0-0.814,0.366-0.814,0.812v11.171c0,0.448,0.365,0.812,0.814,0.812h1.622
		c0.447,0,0.81-0.364,0.81-0.812V18.163C-29.144,17.716-29.507,17.35-29.954,17.35L-29.954,17.35z"/>
	<path fill="#404B5A" d="M-22.144,13.171h-1.624c-0.447,0-0.811,0.364-0.811,0.811v15.352c0,0.448,0.364,0.812,0.811,0.812h1.624
		c0.45,0,0.811-0.364,0.811-0.812V13.982C-21.333,13.535-21.694,13.171-22.144,13.171L-22.144,13.171z"/>
	<path fill="#404B5A" d="M-14.332,7.782h-1.625c-0.451,0-0.812,0.364-0.812,0.812v20.74c0,0.448,0.361,0.812,0.812,0.812h1.625
		c0.445,0,0.808-0.364,0.808-0.812V8.594C-13.524,8.146-13.887,7.782-14.332,7.782L-14.332,7.782z"/>
	<path fill="#404B5A" d="M-6.526,12.765h-1.622c-0.449,0-0.812,0.364-0.812,0.812v15.758c0,0.448,0.364,0.812,0.812,0.812h1.622
		c0.449,0,0.813-0.364,0.813-0.812V13.576C-5.713,13.129-6.077,12.765-6.526,12.765L-6.526,12.765z"/>
	<path fill="#CF7254" d="M-7.335,5.443c-0.573,0-1.092,0.215-1.498,0.559l-4.097-2.96c0.071-0.228,0.122-0.467,0.122-0.72
		c0-1.292-1.045-2.338-2.336-2.338c-1.292,0-2.34,1.047-2.34,2.338c0,0.283,0.061,0.551,0.147,0.802l-4.439,3.454
		c-0.348-0.203-0.746-0.329-1.179-0.329c-1.293,0-2.338,1.047-2.338,2.339c0,0.078,0.014,0.152,0.023,0.23l-3.806,2.03
		c-0.425-0.446-1.024-0.727-1.688-0.727c-1.293,0-2.341,1.047-2.341,2.339c0,1.291,1.047,2.339,2.341,2.339
		c1.29,0,2.337-1.048,2.337-2.339c0-0.158-0.02-0.311-0.047-0.458l3.691-1.969c0.429,0.54,1.084,0.895,1.827,0.895
		c1.292,0,2.337-1.048,2.337-2.339c0-0.383-0.099-0.739-0.262-1.057l4.318-3.36c0.393,0.303,0.882,0.489,1.417,0.489
		c0.565,0,1.074-0.209,1.479-0.542l4.108,2.966c-0.068,0.222-0.118,0.454-0.118,0.697c0,1.292,1.047,2.339,2.34,2.339
		c1.292,0,2.338-1.047,2.338-2.339C-4.998,6.49-6.043,5.443-7.335,5.443z"/>
</g>
<g>
	<g>
		<circle fill="#DEB248" cx="-222.149" cy="4.912" r="1.27"/>
		<circle fill="#81BBCD" cx="-216.548" cy="4.912" r="1.27"/>
		<path fill="#404B5A" d="M-195.238,0.006h-27.427c-2.269,0-4.112,1.84-4.112,4.109v21.946c0,2.267,1.843,4.118,4.112,4.118h20.677
			h2.13h4.62c2.279,0,4.118-1.851,4.118-4.118V4.116C-191.12,1.846-192.959,0.006-195.238,0.006z M-218.555,4.304
			c0-0.74,0.59-1.339,1.332-1.339h1.332c0.731,0,1.332,0.599,1.332,1.339v1.332c0,0.735-0.6,1.334-1.332,1.334h-1.332
			c-0.733,0-1.332-0.6-1.332-1.334V4.304z M-224.138,4.305c0-0.74,0.59-1.339,1.332-1.339h1.333c0.731,0,1.33,0.599,1.33,1.339
			v1.332c0,0.735-0.598,1.334-1.33,1.334h-1.333c-0.733,0-1.332-0.599-1.332-1.334V4.305z M-193.864,26.062
			c0,0.757-0.616,1.373-1.375,1.373h-4.62h-2.13h-20.677c-0.749,0-1.365-0.616-1.365-1.373V9.609h30.167V26.062z M-194.929,6.181
			h-16.51c-0.7,0-1.269-0.568-1.269-1.269c0-0.701,0.569-1.271,1.269-1.271h16.51c0.702,0,1.271,0.569,1.271,1.271
			C-193.658,5.613-194.227,6.181-194.929,6.181z"/>
	</g>
	<g>
		<path fill="#CF7254" d="M-207.155,19.11c0.086-2.895,1.956-5.428,4.762-6.884c0.256-0.134,0.406-0.362,0.406-0.601
			c0-0.063-0.013-0.13-0.035-0.195c-0.106-0.302-0.444-0.513-0.829-0.517h-0.106c-5.61,0-10.166,3.652-10.297,8.194h-1.632
			c-0.38,0-0.727,0.171-0.903,0.444c-0.081,0.122-0.121,0.255-0.121,0.388c0,0.164,0.062,0.327,0.18,0.469l4.741,5.642
			c0.168,0.202,0.451,0.322,0.752,0.324c0.299,0.001,0.582-0.12,0.754-0.321l4.803-5.64c0.12-0.14,0.182-0.307,0.182-0.473
			c0-0.133-0.04-0.264-0.118-0.386c-0.177-0.273-0.526-0.444-0.906-0.444H-207.155z M-207.155,19.11"/>
		<g>
			<path d="M-202.882,13.15"/>
		</g>
	</g>
</g>
</svg>
