<?xml version="1.0" encoding="utf-8"?>
<!-- Generator: Adobe Illustrator 16.0.0, SVG Export Plug-In . SVG Version: 6.00 Build 0)  -->
<!DOCTYPE svg PUBLIC "-//W3C//DTD SVG 1.1//EN" "http://www.w3.org/Graphics/SVG/1.1/DTD/svg11.dtd">
<svg version="1.1" id="Capa_1" xmlns="http://www.w3.org/2000/svg" xmlns:xlink="http://www.w3.org/1999/xlink" x="0px" y="0px"
	 width="28.107px" height="30.186px" viewBox="0 0 28.107 30.186" enable-background="new 0 0 28.107 30.186" xml:space="preserve">
<g>
	<path fill="#CF7254" d="M-524.132,10.024h11.116c0.908,0,1.646-0.738,1.646-1.646V0.386h-14.411v7.992
		C-525.781,9.286-525.042,10.024-524.132,10.024L-524.132,10.024z M-524.132,10.024"/>
	<path fill="#DEB248" d="M-524.828,17.969h6.717c0.571,0,1.036-0.466,1.036-1.036s-0.465-1.035-1.036-1.035h-6.717
		c-0.573,0-1.035,0.465-1.035,1.035S-525.401,17.969-524.828,17.969L-524.828,17.969z M-524.828,17.969"/>
	<path fill="#DEB248" d="M-524.828,22.11h10.856c0.575,0,1.037-0.464,1.037-1.035s-0.462-1.035-1.037-1.035h-10.856
		c-0.573,0-1.035,0.464-1.035,1.035S-525.401,22.11-524.828,22.11L-524.828,22.11z M-524.828,22.11"/>
	<path fill="#DEB248" d="M-509.826,24.183h-15.002c-0.573,0-1.035,0.463-1.035,1.033c0,0.571,0.462,1.037,1.035,1.037h15.002
		c0.571,0,1.035-0.466,1.035-1.037C-508.791,24.646-509.254,24.183-509.826,24.183L-509.826,24.183z M-509.826,24.183"/>
	<path fill="#404B5A" d="M-508.177,0.386h-1.122v7.992c0,2.051-1.666,3.717-3.717,3.717h-11.116c-2.052,0-3.72-1.666-3.72-3.717
		V0.386h-1.768c-1.882,0-3.409,1.527-3.409,3.409v24.108c0,1.883,1.527,3.409,3.409,3.409h24.248c1.884,0,3.409-1.526,3.409-3.409
		V6.642L-508.177,0.386z M-506.625,25.591c0,1.151-0.935,2.086-2.086,2.086h-17.707c-1.149,0-2.085-0.935-2.085-2.086V16.56
		c0-1.152,0.936-2.086,2.085-2.086h17.707c1.151,0,2.086,0.934,2.086,2.086V25.591z M-504.295,10.801h-2.975V7.824h2.975V10.801z
		 M-504.295,10.801"/>
</g>
<g>
	<g>
		<path fill="#CF7254" d="M-474.909,26.145c3.556,0.085,6.666,1.955,8.454,4.762c0.165,0.256,0.447,0.406,0.738,0.406
			c0.078,0,0.159-0.011,0.238-0.034c0.373-0.106,0.63-0.443,0.635-0.83v-0.105c0-5.612-4.486-10.169-10.062-10.303v-1.632
			c0-0.379-0.214-0.727-0.547-0.902c-0.15-0.081-0.313-0.12-0.479-0.12c-0.201,0-0.4,0.062-0.575,0.179l-6.93,4.742
			c-0.248,0.169-0.396,0.451-0.396,0.751c-0.002,0.301,0.146,0.583,0.392,0.755l6.929,4.802c0.174,0.122,0.38,0.183,0.581,0.183
			c0.166,0,0.326-0.039,0.476-0.117c0.337-0.176,0.548-0.526,0.548-0.906V26.145z M-474.909,26.145"/>
		<path d="M-465.928,24.699"/>
	</g>
	<g>
		<path fill="#DEB248" d="M-484.612,5.296c0,0.701-0.566,1.271-1.271,1.271c-0.7,0-1.269-0.57-1.269-1.271
			c0-0.701,0.568-1.271,1.269-1.271C-485.179,4.026-484.612,4.596-484.612,5.296z"/>
		<path fill="#81BBCD" d="M-479.008,5.296c0,0.701-0.568,1.271-1.271,1.271c-0.698,0-1.27-0.57-1.27-1.271
			c0-0.701,0.571-1.271,1.27-1.271C-479.576,4.026-479.008,4.596-479.008,5.296z"/>
		<path fill="#404B5A" d="M-458.96,0.39h-27.438c-2.271,0-4.113,1.841-4.113,4.111v21.955c0,2.268,1.843,4.118,4.113,4.118h6.121
			v-2.745h-6.121c-0.75,0-1.367-0.617-1.367-1.373V9.996h30.18v16.459c0,0.756-0.617,1.373-1.374,1.373h-4.271v2.745h4.271
			c2.277,0,4.119-1.851,4.119-4.118V4.5C-454.841,2.23-456.683,0.39-458.96,0.39z M-483.876,6.021c0,0.736-0.598,1.335-1.331,1.335
			h-1.333c-0.735,0-1.332-0.599-1.332-1.335V4.689c0-0.74,0.591-1.338,1.332-1.338h1.333c0.733,0,1.331,0.599,1.331,1.338V6.021z
			 M-478.292,6.021c0,0.735-0.597,1.335-1.33,1.335h-1.332c-0.734,0-1.33-0.6-1.33-1.335V4.688c0-0.74,0.588-1.338,1.33-1.338h1.332
			c0.733,0,1.33,0.599,1.33,1.338V6.021z M-458.65,6.567h-16.516c-0.703,0-1.271-0.57-1.271-1.271c0-0.701,0.567-1.271,1.271-1.271
			h16.516c0.699,0,1.271,0.57,1.271,1.271C-457.38,5.998-457.951,6.567-458.65,6.567z"/>
	</g>
</g>
<g>
	<circle fill="#DEB248" cx="-439.083" cy="5.296" r="1.271"/>
	<g>
		<path fill="#CF7254" d="M-423.76,27.778c0,0.38,0.213,0.73,0.549,0.906c0.151,0.078,0.31,0.117,0.475,0.117
			c0.204,0,0.408-0.062,0.582-0.183l6.929-4.802c0.246-0.172,0.395-0.455,0.395-0.755c-0.002-0.3-0.15-0.582-0.397-0.751
			l-6.933-4.742c-0.174-0.118-0.371-0.179-0.575-0.179c-0.165,0-0.328,0.039-0.478,0.12c-0.333,0.175-0.546,0.523-0.546,0.902v1.632
			c-5.577,0.134-10.064,4.691-10.064,10.303v0.105c0.005,0.387,0.262,0.724,0.634,0.83c0.079,0.023,0.162,0.034,0.241,0.034
			c0.29,0,0.572-0.149,0.737-0.406c1.788-2.807,4.898-4.676,8.452-4.762V27.778z M-423.76,26.145"/>
		<path d="M-434.223,24.699"/>
	</g>
	<circle fill="#81BBCD" cx="-433.445" cy="5.296" r="1.271"/>
	<path fill="#404B5A" d="M-412.127,0.39h-27.438c-2.269,0-4.111,1.841-4.111,4.111v21.955c0,2.268,1.843,4.118,4.111,4.118h3.875
		v-2.745h-3.875c-0.747,0-1.366-0.617-1.366-1.373V9.996h30.18v16.459c0,0.756-0.615,1.373-1.375,1.373h-5.761v2.745h5.761
		c2.279,0,4.121-1.851,4.121-4.118V4.5C-408.006,2.23-409.848,0.39-412.127,0.39z M-437.042,6.021c0,0.736-0.6,1.335-1.332,1.335
		h-1.331c-0.736,0-1.332-0.599-1.332-1.335V4.689c0-0.74,0.59-1.338,1.332-1.338h1.331c0.732,0,1.332,0.599,1.332,1.338V6.021z
		 M-431.457,6.021c0,0.735-0.598,1.335-1.33,1.335h-1.333c-0.733,0-1.332-0.6-1.332-1.335V4.688c0-0.74,0.59-1.338,1.332-1.338
		h1.333c0.732,0,1.33,0.599,1.33,1.338V6.021z M-411.818,6.567h-16.514c-0.704,0-1.271-0.57-1.271-1.271
		c0-0.701,0.567-1.271,1.271-1.271h16.514c0.701,0,1.272,0.57,1.272,1.271C-410.545,5.998-411.117,6.567-411.818,6.567z"/>
</g>
<g>
	<path fill="#CF7254" d="M-382.936,26.836c-0.085,3.553-1.953,6.662-4.759,8.45c-0.255,0.164-0.405,0.444-0.405,0.736
		c0,0.079,0.012,0.161,0.035,0.24c0.105,0.371,0.444,0.629,0.828,0.635h0.105c5.607,0,10.161-4.484,10.295-10.058h1.632
		c0.379,0,0.725-0.21,0.902-0.546c0.08-0.148,0.118-0.313,0.118-0.476c0-0.202-0.061-0.403-0.179-0.575l-4.738-6.926
		c-0.171-0.248-0.452-0.395-0.753-0.396c-0.3-0.002-0.582,0.146-0.752,0.392l-4.802,6.924c-0.121,0.172-0.182,0.377-0.182,0.582
		c0,0.163,0.04,0.323,0.117,0.474c0.176,0.335,0.524,0.545,0.904,0.545H-382.936z M-382.936,26.836"/>
	<g>
		<circle fill="#DEB248" cx="-394.338" cy="5.289" r="1.271"/>
		<circle fill="#81BBCD" cx="-388.738" cy="5.289" r="1.269"/>
		<path fill="#404B5A" d="M-367.436,0.386h-27.419c-2.27,0-4.109,1.839-4.109,4.107v21.938c0,2.267,1.84,4.117,4.109,4.117h8.9
			v-2.744h-8.9c-0.748,0-1.364-0.616-1.364-1.373V9.985h30.155v16.446c0,0.757-0.615,1.373-1.372,1.373h-6.748v2.744h6.748
			c2.276,0,4.116-1.85,4.116-4.117V4.493C-363.319,2.225-365.159,0.386-367.436,0.386z M-392.334,6.014
			c0,0.735-0.597,1.333-1.329,1.333h-1.33c-0.735,0-1.332-0.599-1.332-1.333V4.683c0-0.74,0.588-1.338,1.332-1.338h1.33
			c0.732,0,1.329,0.599,1.329,1.338V6.014z M-386.751,6.013c0,0.735-0.599,1.333-1.331,1.333h-1.331
			c-0.734,0-1.331-0.599-1.331-1.333V4.682c0-0.74,0.59-1.338,1.331-1.338h1.331c0.732,0,1.331,0.599,1.331,1.338V6.013z
			 M-367.128,6.558h-16.502c-0.701,0-1.271-0.569-1.271-1.27c0-0.7,0.569-1.269,1.271-1.269h16.502c0.701,0,1.27,0.569,1.27,1.269
			C-365.858,5.989-366.427,6.558-367.128,6.558z"/>
	</g>
</g>
<g>
	<path fill="#CF7254" d="M-338.046,32.075c0.084-3.553,1.954-6.662,4.758-8.45c0.257-0.165,0.404-0.444,0.404-0.736
		c0-0.079-0.01-0.161-0.032-0.24c-0.107-0.371-0.445-0.629-0.83-0.635h-0.104c-5.608,0-10.161,4.484-10.296,10.059h-1.631
		c-0.378,0-0.727,0.21-0.902,0.545c-0.078,0.149-0.117,0.313-0.117,0.476c0,0.204,0.06,0.404,0.178,0.576l4.738,6.926
		c0.171,0.248,0.45,0.396,0.751,0.396c0.301,0.002,0.583-0.146,0.754-0.392l4.801-6.924c0.12-0.172,0.183-0.377,0.183-0.582
		c0-0.162-0.04-0.323-0.117-0.474c-0.177-0.335-0.524-0.545-0.904-0.545H-338.046z M-338.046,32.075"/>
	<g>
		<path fill="#DEB248" d="M-351.768,5.312c0,0.701-0.568,1.27-1.271,1.27c-0.698,0-1.268-0.569-1.268-1.27
			c0-0.7,0.569-1.269,1.268-1.269C-352.336,4.043-351.768,4.612-351.768,5.312z"/>
		<circle fill="#81BBCD" cx="-347.438" cy="5.312" r="1.269"/>
		<path fill="#404B5A" d="M-326.136,0.41h-27.417c-2.27,0-4.109,1.839-4.109,4.107v21.938c0,2.267,1.84,4.117,4.109,4.117h6.756
			v-2.744h-6.756c-0.749,0-1.365-0.616-1.365-1.373V10.009h30.156v16.446c0,0.757-0.617,1.373-1.374,1.373h-9.025v2.744h9.025
			c2.276,0,4.116-1.85,4.116-4.117V4.517C-322.02,2.249-323.859,0.41-326.136,0.41z M-351.033,6.038c0,0.735-0.598,1.333-1.33,1.333
			h-1.332c-0.733,0-1.33-0.599-1.33-1.333V4.707c0-0.74,0.59-1.338,1.33-1.338h1.332c0.732,0,1.33,0.599,1.33,1.338V6.038z
			 M-345.451,6.037c0,0.735-0.599,1.333-1.329,1.333h-1.332c-0.735,0-1.333-0.599-1.333-1.333V4.706c0-0.74,0.591-1.338,1.333-1.338
			h1.332c0.73,0,1.329,0.599,1.329,1.338V6.037z M-325.828,6.582h-16.501c-0.703,0-1.27-0.569-1.27-1.27
			c0-0.7,0.566-1.269,1.27-1.269h16.501c0.702,0,1.27,0.569,1.27,1.269C-324.559,6.013-325.126,6.582-325.828,6.582z"/>
	</g>
</g>
<g>
	<g>
		<path fill="#CF7254" d="M-255.381,20.028c3.549,0.084,6.652,1.952,8.438,4.753c0.166,0.256,0.445,0.404,0.736,0.404
			c0.078,0,0.16-0.011,0.24-0.033c0.369-0.107,0.629-0.443,0.633-0.829v-0.105c0-5.6-4.477-10.147-10.047-10.281v-1.628
			c0-0.378-0.209-0.726-0.543-0.902c-0.148-0.079-0.312-0.118-0.477-0.118c-0.201,0-0.4,0.06-0.574,0.178l-6.917,4.733
			c-0.247,0.169-0.394,0.45-0.396,0.75c-0.002,0.3,0.147,0.582,0.394,0.753l6.914,4.794c0.172,0.121,0.377,0.182,0.58,0.182
			c0.164,0,0.324-0.039,0.475-0.117c0.334-0.176,0.545-0.524,0.545-0.903V20.028z M-255.381,20.028"/>
		<g>
			<path d="M-248.077,24.292"/>
		</g>
	</g>
	<g>
		<circle fill="#DEB248" cx="-267.989" cy="4.929" r="1.269"/>
		<circle fill="#81BBCD" cx="-262.397" cy="4.929" r="1.267"/>
		<path fill="#404B5A" d="M-241.124,0.032h-27.382c-2.265,0-4.104,1.836-4.104,4.103v21.908c0,2.264,1.839,4.111,4.104,4.111h20.644
			h2.125h4.613c2.273,0,4.113-1.847,4.113-4.111V4.135C-237.01,1.869-238.85,0.032-241.124,0.032z M-264.401,4.323
			c0-0.739,0.59-1.336,1.331-1.336h1.329c0.73,0,1.327,0.597,1.327,1.336v1.329c0,0.734-0.597,1.332-1.327,1.332h-1.329
			c-0.734,0-1.331-0.598-1.331-1.332V4.323z M-269.977,4.324c0-0.739,0.59-1.337,1.331-1.337h1.329c0.732,0,1.329,0.598,1.329,1.337
			v1.329c0,0.734-0.597,1.332-1.329,1.332h-1.329c-0.733,0-1.331-0.598-1.331-1.332V4.324z M-239.75,26.043
			c0,0.756-0.617,1.371-1.373,1.371h-4.613h-2.125h-20.644c-0.747,0-1.363-0.615-1.363-1.371V9.619h30.119V26.043z M-240.815,6.197
			h-16.48c-0.699,0-1.268-0.568-1.268-1.268s0.568-1.268,1.268-1.268h16.48c0.701,0,1.268,0.568,1.268,1.268
			S-240.114,6.197-240.815,6.197z"/>
	</g>
</g>
<g>
	<g>
		<path fill="#CF7254" d="M-297.969,22.016c0,0.379,0.209,0.727,0.543,0.903c0.152,0.078,0.312,0.117,0.475,0.117
			c0.205,0,0.408-0.061,0.58-0.182l6.914-4.794c0.246-0.171,0.396-0.453,0.393-0.753c-0.002-0.3-0.146-0.581-0.395-0.75
			l-6.918-4.733c-0.172-0.118-0.371-0.178-0.574-0.178c-0.162,0-0.328,0.039-0.477,0.118c-0.334,0.176-0.543,0.523-0.543,0.902
			v1.628c-5.57,0.134-10.047,4.681-10.047,10.281v0.105c0.006,0.386,0.264,0.722,0.635,0.829c0.078,0.022,0.16,0.033,0.24,0.033
			c0.289,0,0.57-0.148,0.734-0.404c1.785-2.801,4.891-4.668,8.439-4.753V22.016z M-297.969,20.386"/>
		<g>
			<path d="M-305.276,24.649"/>
		</g>
	</g>
	<g>
		<circle fill="#DEB248" cx="-311.719" cy="5.287" r="1.268"/>
		<circle fill="#81BBCD" cx="-306.126" cy="5.287" r="1.267"/>
		<path fill="#404B5A" d="M-284.854,0.39h-27.381c-2.266,0-4.105,1.836-4.105,4.103V26.4c0,2.264,1.84,4.111,4.105,4.111h20.643
			h2.125h4.613c2.275,0,4.113-1.847,4.113-4.111V4.492C-280.741,2.226-282.579,0.39-284.854,0.39z M-308.131,4.68
			c0-0.739,0.59-1.336,1.33-1.336h1.33c0.732,0,1.328,0.597,1.328,1.336v1.329c0,0.734-0.596,1.332-1.328,1.332h-1.33
			c-0.732,0-1.33-0.598-1.33-1.332V4.68z M-313.706,4.681c0-0.739,0.59-1.337,1.33-1.337h1.33c0.73,0,1.328,0.598,1.328,1.337V6.01
			c0,0.734-0.598,1.332-1.328,1.332h-1.33c-0.732,0-1.33-0.598-1.33-1.332V4.681z M-283.481,26.4c0,0.756-0.615,1.371-1.373,1.371
			h-4.613h-2.125h-20.643c-0.748,0-1.363-0.615-1.363-1.371V9.977h30.117V26.4z M-284.545,6.554h-16.48
			c-0.699,0-1.268-0.568-1.268-1.268s0.568-1.268,1.268-1.268h16.48c0.701,0,1.27,0.568,1.27,1.268S-283.844,6.554-284.545,6.554z"
			/>
	</g>
</g>
<g>
	<g>
		<path fill="#CF7254" d="M-218.145,18.189c-0.086,2.894-1.957,5.426-4.76,6.881c-0.255,0.134-0.404,0.362-0.404,0.601
			c0,0.063,0.01,0.13,0.033,0.194c0.108,0.301,0.445,0.513,0.829,0.518h0.106c5.607,0,10.161-3.651,10.294-8.191h1.631
			c0.378,0,0.728-0.172,0.902-0.445c0.081-0.121,0.12-0.255,0.12-0.388c0-0.165-0.061-0.327-0.178-0.468l-4.741-5.64
			c-0.17-0.203-0.451-0.322-0.75-0.324c-0.3-0.001-0.583,0.12-0.753,0.32l-4.801,5.639c-0.122,0.14-0.182,0.307-0.182,0.473
			c0,0.132,0.039,0.263,0.118,0.386c0.176,0.273,0.525,0.444,0.904,0.444H-218.145z M-218.145,18.189"/>
		<g>
			<path d="M-222.415,24.147"/>
		</g>
	</g>
	<g>
		<circle fill="#DEB248" cx="-229.548" cy="4.926" r="1.269"/>
		<circle fill="#81BBCD" cx="-223.948" cy="4.926" r="1.271"/>
		<path fill="#404B5A" d="M-202.644,0.022h-27.42c-2.268,0-4.109,1.839-4.109,4.108V26.07c0,2.266,1.841,4.116,4.109,4.116h20.671
			h2.127h4.623c2.276,0,4.115-1.85,4.115-4.116V4.13C-198.529,1.862-200.368,0.022-202.644,0.022z M-225.953,4.319
			c0-0.739,0.588-1.338,1.331-1.338h1.331c0.731,0,1.329,0.599,1.329,1.338V5.65c0,0.735-0.598,1.334-1.329,1.334h-1.331
			c-0.735,0-1.331-0.599-1.331-1.334V4.319z M-231.537,4.319c0-0.739,0.59-1.338,1.331-1.338h1.331c0.733,0,1.332,0.599,1.332,1.338
			v1.332c0,0.735-0.598,1.334-1.332,1.334h-1.331c-0.733,0-1.331-0.599-1.331-1.334V4.319z M-201.271,26.07
			c0,0.756-0.618,1.373-1.373,1.373h-4.623h-2.127h-20.671c-0.749,0-1.366-0.616-1.366-1.373V9.623h30.159V26.07z M-202.336,6.195
			h-16.503c-0.702,0-1.271-0.568-1.271-1.269c0-0.701,0.569-1.27,1.271-1.27h16.503c0.702,0,1.27,0.569,1.27,1.27
			C-201.066,5.627-201.634,6.195-202.336,6.195z"/>
	</g>
</g>
<g>
	<g>
		<path fill="#404B5A" d="M-117.612,26.277l-4.35-4.342c-0.417-0.414-0.983-0.609-1.529-0.583l-2.092-2.093
			c3.563-4.713,3.201-11.452-1.091-15.75c-4.695-4.693-12.312-4.693-17.007,0.011c-4.705,4.702-4.705,12.312-0.011,17.006
			c4.299,4.297,11.039,4.654,15.75,1.091l2.092,2.093c-0.027,0.548,0.169,1.113,0.583,1.528l4.343,4.342
			c0.776,0.776,2.044,0.776,2.822,0l0.48-0.482C-116.835,28.321-116.835,27.062-117.612,26.277L-117.612,26.277z M-129.276,17.925
			c-3.259,3.259-8.556,3.269-11.813,0.008c-3.259-3.258-3.259-8.545,0.007-11.813c3.26-3.259,8.554-3.269,11.815-0.009
			C-126.009,9.372-126.02,14.656-129.276,17.925L-129.276,17.925z M-129.276,17.925"/>
	</g>
	<path fill="#CF7254" d="M-131.907,10.765h-1.968V8.797c0-0.712-0.576-1.287-1.279-1.287h-0.012c-0.702,0-1.277,0.575-1.277,1.287
		v1.968h-1.97c-0.71,0-1.284,0.576-1.284,1.278v0.008c0,0.703,0.574,1.277,1.284,1.277h1.97v1.968c0,0.71,0.576,1.286,1.277,1.286
		h0.01c0.702,0,1.275-0.576,1.275-1.286v-1.968h1.968c0.712,0,1.288-0.575,1.288-1.277v-0.008
		C-130.618,11.341-131.192,10.765-131.907,10.765L-131.907,10.765z M-131.907,10.765"/>
</g>
<g>
	<g>
		<path fill="#404B5A" d="M-79.957,26.247l-4.34-4.332c-0.412-0.414-0.978-0.608-1.523-0.582l-2.088-2.088
			c3.553-4.701,3.192-11.424-1.09-15.712c-4.684-4.683-12.284-4.683-16.967,0.01c-4.693,4.691-4.693,12.282-0.009,16.966
			c4.288,4.288,11.012,4.644,15.711,1.088l2.09,2.088c-0.025,0.547,0.167,1.111,0.582,1.525l4.33,4.331
			c0.776,0.775,2.04,0.775,2.817,0l0.477-0.48C-79.182,28.286-79.182,27.03-79.957,26.247L-79.957,26.247z M-91.592,17.915
			c-3.252,3.251-8.533,3.261-11.787,0.009c-3.252-3.251-3.252-8.525,0.007-11.786c3.252-3.251,8.535-3.26,11.787-0.009
			C-88.332,9.38-88.345,14.653-91.592,17.915L-91.592,17.915z M-91.592,17.915"/>
	</g>
	<path fill="#CF7254" d="M-94.219,10.771h-1.963h-2.563h-1.963c-0.708,0-1.283,0.574-1.283,1.274v0.008
		c0,0.702,0.574,1.274,1.283,1.274h1.963h2.558h1.965c0.71,0,1.281-0.573,1.281-1.274v-0.008
		C-92.931,11.345-93.504,10.771-94.219,10.771z"/>
</g>
<g>
	<path fill="#404B5A" d="M-70.006,28.7c0.034,0.812,0.701,1.455,1.516,1.455h14.167c0.812,0,1.481-0.643,1.512-1.455l1.015-21.357
		h-19.222L-70.006,28.7z M-58.2,12.648c0-0.341,0.275-0.617,0.616-0.617h0.984c0.342,0,0.618,0.276,0.618,0.617v12.201
		c0,0.341-0.276,0.617-0.618,0.617h-0.984c-0.34,0-0.616-0.276-0.616-0.617V12.648z M-62.514,12.648
		c0-0.341,0.273-0.617,0.615-0.617h0.986c0.341,0,0.617,0.276,0.617,0.617v12.201c0,0.341-0.276,0.617-0.617,0.617h-0.986
		c-0.342,0-0.615-0.276-0.615-0.617V12.648z M-66.83,12.648c0-0.341,0.278-0.617,0.618-0.617h0.984c0.34,0,0.616,0.276,0.616,0.617
		v12.201c0,0.341-0.276,0.617-0.616,0.617h-0.984c-0.34,0-0.618-0.276-0.618-0.617V12.648z M-66.83,12.648"/>
	<path fill="#CF7254" d="M-51.121,1.553h-6.536V0.317C-57.657,0.143-57.8,0-57.973,0h-6.866c-0.172,0-0.316,0.143-0.316,0.317v1.235
		h-6.536c-0.526,0-0.951,0.428-0.951,0.954v2.991h22.473V2.506C-50.169,1.981-50.595,1.553-51.121,1.553L-51.121,1.553z
		 M-51.121,1.553"/>
</g>
<g>
	<path fill="#CF7254" d="M-17.22-0.018h-18.87v13.207h18.87V-0.018z M-19.108,11.302h-15.094V1.869h15.094V11.302z M-19.108,11.302"
		/>
	<path fill="#404B5A" d="M-15.334,13.189v1.888h-22.642v-1.888c-2.085,0-3.773,1.691-3.773,3.773v11.322
		c0,1.043,0.844,1.886,1.886,1.886h26.414c1.044,0,1.888-0.845,1.888-1.886V16.962C-11.562,14.88-13.251,13.189-15.334,13.189
		L-15.334,13.189z M-17.22,26.396c0,1.043-0.846,1.888-1.888,1.888h-15.094c-1.042,0-1.888-0.845-1.888-1.888v-1.887h18.87V26.396z
		 M-14.393,20.737h-1.886c-0.522,0-0.942-0.421-0.942-0.943c0-0.522,0.419-0.944,0.942-0.944h1.886c0.523,0,0.942,0.421,0.942,0.944
		C-13.45,20.315-13.87,20.737-14.393,20.737L-14.393,20.737z M-14.393,20.737"/>
	<rect x="-32.322" y="3.761" fill="#DEB248" width="11.322" height="1.886"/>
	<polygon fill="#DEB248" points="-32.314,7.529 -20.996,7.529 -21,9.42 -32.322,9.42 	"/>
</g>
<g>
	<g>
		<path fill="#404B5A" d="M49.447,7.535c0.961-0.664,1.607-1.893,1.607-3.298c0-1.903-0.387-3.848-3.24-3.848
			c-2.855,0-3.24,1.944-3.24,3.848c0,1.405,0.646,2.634,1.607,3.298c-2.127,0.638-3.666,2.485-3.666,4.659
			c0,1.122,0.57,1.917,1.695,2.366c0.826,0.328,1.969,0.481,3.604,0.481c1.633,0,2.777-0.153,3.602-0.481
			c1.127-0.449,1.697-1.244,1.697-2.366C53.113,10.02,51.572,8.173,49.447,7.535L49.447,7.535z M49.447,7.535"/>
	</g>
	<path fill="#404B5A" d="M39.298,21.922c0.959-0.664,1.607-1.894,1.607-3.298c0-1.903-0.385-3.848-3.24-3.848
		s-3.24,1.944-3.24,3.848c0,1.405,0.646,2.634,1.607,3.298c-2.125,0.638-3.666,2.485-3.666,4.658c0,1.122,0.57,1.917,1.697,2.366
		c0.822,0.329,1.967,0.482,3.602,0.482s2.779-0.153,3.602-0.482c1.127-0.449,1.699-1.244,1.699-2.366
		C42.966,24.407,41.423,22.56,39.298,21.922L39.298,21.922z M39.298,21.922"/>
	<path fill="#404B5A" d="M59.593,21.922c0.961-0.664,1.607-1.894,1.607-3.298c0-1.903-0.385-3.848-3.24-3.848
		s-3.238,1.944-3.238,3.848c0,1.405,0.646,2.634,1.607,3.298c-2.125,0.638-3.668,2.485-3.668,4.658c0,1.122,0.572,1.917,1.697,2.366
		c0.824,0.329,1.969,0.482,3.602,0.482c1.635,0,2.779-0.153,3.604-0.482c1.127-0.449,1.695-1.244,1.695-2.366
		C63.259,24.407,61.718,22.56,59.593,21.922L59.593,21.922z M59.593,21.922"/>
	<path fill="#CF7254" d="M51.392,29.158c-0.037-0.094-0.109-0.168-0.201-0.208c-0.092-0.04-0.195-0.041-0.289-0.004
		c-0.814,0.325-1.824,0.484-3.088,0.484c-1.266,0-2.275-0.158-3.088-0.484c-0.094-0.037-0.199-0.036-0.289,0.004
		c-0.094,0.04-0.166,0.114-0.203,0.208l-0.281,0.703c-0.076,0.194,0.018,0.414,0.211,0.491c0.996,0.398,2.189,0.592,3.65,0.592
		c1.459,0,2.654-0.194,3.648-0.592c0.195-0.077,0.289-0.297,0.211-0.491L51.392,29.158z M51.392,29.158"/>
	<path fill="#CF7254" d="M36.654,12.855l0.695,0.298c0.049,0.021,0.1,0.03,0.148,0.03c0.146,0,0.287-0.085,0.35-0.229
		c0.346-0.805,0.947-1.632,1.842-2.524c0.893-0.895,1.719-1.497,2.523-1.843c0.094-0.04,0.166-0.114,0.203-0.208
		c0.037-0.093,0.037-0.197-0.004-0.289l-0.297-0.696c-0.084-0.191-0.307-0.28-0.498-0.198c-0.986,0.423-1.967,1.13-3,2.163
		s-1.738,2.014-2.162,3C36.373,12.549,36.462,12.772,36.654,12.855L36.654,12.855z M36.654,12.855"/>
	<path fill="#CF7254" d="M53.414,8.587c0.805,0.346,1.631,0.948,2.525,1.843c0.895,0.893,1.496,1.72,1.842,2.524
		c0.062,0.144,0.201,0.229,0.348,0.229c0.051,0,0.102-0.009,0.148-0.03l0.695-0.298c0.193-0.083,0.283-0.306,0.199-0.497
		c-0.422-0.985-1.129-1.967-2.162-3s-2.014-1.739-2.998-2.163c-0.193-0.082-0.414,0.007-0.496,0.198L53.216,8.09
		c-0.041,0.092-0.043,0.196-0.006,0.289C53.248,8.473,53.32,8.547,53.414,8.587L53.414,8.587z M53.414,8.587"/>
</g>
<g>
	<path fill="#404B5A" d="M3.15,17.35H1.528c-0.449,0-0.814,0.366-0.814,0.812v11.171c0,0.448,0.365,0.812,0.814,0.812H3.15
		c0.447,0,0.81-0.364,0.81-0.812V18.163C3.96,17.716,3.598,17.35,3.15,17.35L3.15,17.35z"/>
	<path fill="#404B5A" d="M10.961,13.171H9.337c-0.447,0-0.811,0.364-0.811,0.811v15.352c0,0.448,0.364,0.812,0.811,0.812h1.624
		c0.45,0,0.811-0.364,0.811-0.812V13.982C11.772,13.535,11.411,13.171,10.961,13.171L10.961,13.171z"/>
	<path fill="#404B5A" d="M18.772,7.782h-1.625c-0.451,0-0.812,0.364-0.812,0.812v20.74c0,0.448,0.361,0.812,0.812,0.812h1.625
		c0.445,0,0.808-0.364,0.808-0.812V8.594C19.581,8.146,19.218,7.782,18.772,7.782L18.772,7.782z"/>
	<path fill="#404B5A" d="M26.579,12.765h-1.622c-0.449,0-0.812,0.364-0.812,0.812v15.758c0,0.448,0.364,0.812,0.812,0.812h1.622
		c0.449,0,0.813-0.364,0.813-0.812V13.576C27.392,13.129,27.028,12.765,26.579,12.765L26.579,12.765z"/>
	<path fill="#CF7254" d="M25.769,5.443c-0.573,0-1.092,0.215-1.498,0.559l-4.097-2.96c0.071-0.228,0.122-0.467,0.122-0.72
		c0-1.292-1.045-2.338-2.336-2.338c-1.292,0-2.34,1.047-2.34,2.338c0,0.283,0.061,0.551,0.147,0.802l-4.439,3.454
		c-0.348-0.203-0.746-0.329-1.179-0.329c-1.293,0-2.338,1.047-2.338,2.339c0,0.078,0.014,0.152,0.023,0.23l-3.806,2.03
		c-0.425-0.446-1.024-0.727-1.688-0.727C1.047,10.121,0,11.168,0,12.46c0,1.291,1.047,2.339,2.341,2.339
		c1.29,0,2.337-1.048,2.337-2.339c0-0.158-0.02-0.311-0.047-0.458l3.691-1.969c0.429,0.54,1.084,0.895,1.827,0.895
		c1.292,0,2.337-1.048,2.337-2.339c0-0.383-0.099-0.739-0.262-1.057l4.318-3.36c0.393,0.303,0.882,0.489,1.417,0.489
		c0.565,0,1.074-0.209,1.479-0.542l4.108,2.966c-0.068,0.222-0.118,0.454-0.118,0.697c0,1.292,1.047,2.339,2.34,2.339
		c1.292,0,2.338-1.047,2.338-2.339C28.107,6.49,27.062,5.443,25.769,5.443z"/>
</g>
<g>
	<g>
		<circle fill="#DEB248" cx="-189.044" cy="4.912" r="1.27"/>
		<circle fill="#81BBCD" cx="-183.444" cy="4.912" r="1.27"/>
		<path fill="#404B5A" d="M-162.134,0.006h-27.427c-2.269,0-4.112,1.84-4.112,4.109v21.946c0,2.267,1.843,4.118,4.112,4.118h20.677
			h2.13h4.62c2.279,0,4.118-1.851,4.118-4.118V4.116C-158.016,1.846-159.855,0.006-162.134,0.006z M-185.451,4.304
			c0-0.74,0.59-1.339,1.332-1.339h1.332c0.731,0,1.332,0.599,1.332,1.339v1.332c0,0.735-0.6,1.334-1.332,1.334h-1.332
			c-0.733,0-1.332-0.6-1.332-1.334V4.304z M-191.034,4.305c0-0.74,0.59-1.339,1.332-1.339h1.333c0.731,0,1.33,0.599,1.33,1.339
			v1.332c0,0.735-0.598,1.334-1.33,1.334h-1.333c-0.733,0-1.332-0.599-1.332-1.334V4.305z M-160.759,26.062
			c0,0.757-0.616,1.373-1.375,1.373h-4.62h-2.13h-20.677c-0.749,0-1.365-0.616-1.365-1.373V9.609h30.167V26.062z M-161.824,6.181
			h-16.51c-0.7,0-1.269-0.568-1.269-1.269c0-0.701,0.569-1.271,1.269-1.271h16.51c0.702,0,1.271,0.569,1.271,1.271
			C-160.553,5.613-161.122,6.181-161.824,6.181z"/>
	</g>
	<g>
		<path fill="#CF7254" d="M-174.05,19.11c0.086-2.895,1.956-5.428,4.762-6.884c0.256-0.134,0.406-0.362,0.406-0.601
			c0-0.063-0.013-0.13-0.035-0.195c-0.106-0.302-0.444-0.513-0.829-0.517h-0.106c-5.61,0-10.166,3.652-10.297,8.194h-1.632
			c-0.38,0-0.727,0.171-0.903,0.444c-0.081,0.122-0.121,0.255-0.121,0.388c0,0.164,0.062,0.327,0.18,0.469l4.741,5.642
			c0.168,0.202,0.451,0.322,0.752,0.324c0.299,0.001,0.582-0.12,0.754-0.321l4.803-5.64c0.12-0.14,0.182-0.307,0.182-0.473
			c0-0.133-0.04-0.264-0.118-0.386c-0.177-0.273-0.526-0.444-0.906-0.444H-174.05z M-174.05,19.11"/>
		<g>
			<path d="M-169.778,13.15"/>
		</g>
	</g>
</g>
</svg>
