<?xml version="1.0" encoding="utf-8"?>
<!-- Generator: Adobe Illustrator 16.0.0, SVG Export Plug-In . SVG Version: 6.00 Build 0)  -->
<!DOCTYPE svg PUBLIC "-//W3C//DTD SVG 1.1//EN" "http://www.w3.org/Graphics/SVG/1.1/DTD/svg11.dtd">
<svg version="1.1" id="Capa_1" xmlns="http://www.w3.org/2000/svg" xmlns:xlink="http://www.w3.org/1999/xlink" x="0px" y="0px"
	 width="35.222px" height="27.411px" viewBox="-4.355 -1.96 35.222 27.411" enable-background="new -4.355 -1.96 35.222 27.411"
	 xml:space="preserve">
<g>
	<g>
		<path fill="#DEB248" d="M14.667,9.634V8.419c0-0.337-0.272-0.609-0.608-0.609H0.101c-0.337,0-0.607,0.272-0.607,0.609v1.215
			c0,0.336,0.271,0.607,0.607,0.607h13.958C14.395,10.24,14.667,9.968,14.667,9.634L14.667,9.634z"/>
		<path fill="#DEB248" d="M10.792,13.948v-1.216c0-0.336-0.275-0.609-0.61-0.609H2.9c-0.337,0-0.609,0.273-0.609,0.609v1.216
			c0,0.335,0.273,0.606,0.609,0.606h7.282C10.517,14.556,10.792,14.282,10.792,13.948L10.792,13.948z"/>
		<path fill="#DEB248" d="M8.491,18.157v-1.216c0-0.336-0.268-0.608-0.605-0.608H4.855c-0.339,0-0.609,0.272-0.609,0.608v1.216
			c0,0.332,0.271,0.608,0.609,0.608h3.032C8.225,18.766,8.491,18.49,8.491,18.157L8.491,18.157z"/>
		<path fill="#DEB248" d="M21.042,9.634V8.419c0-0.337-0.271-0.609-0.604-0.609H17.4c-0.336,0-0.605,0.272-0.605,0.609v1.215
			c0,0.336,0.271,0.607,0.605,0.607h3.039C20.772,10.24,21.042,9.968,21.042,9.634L21.042,9.634z"/>
		<path fill="#DEB248" d="M18.917,18.157v-1.216c0-0.336-0.27-0.608-0.608-0.608h-7.283c-0.337,0-0.609,0.272-0.609,0.608v1.216
			c0,0.332,0.273,0.608,0.609,0.608h7.283C18.648,18.766,18.917,18.49,18.917,18.157L18.917,18.157z"/>
		<g>
			<g>
				<path fill="#CF7254" d="M30.769,19.895c-0.146-0.223-0.437-0.362-0.75-0.362h-1.359c-0.107-3.695-3.892-6.666-8.551-6.666
					h-0.087c-0.323,0.003-0.602,0.172-0.688,0.419c-0.018,0.055-0.031,0.108-0.031,0.16c0,0.193,0.125,0.379,0.336,0.489
					c2.332,1.182,3.888,3.245,3.957,5.604h-1.357c-0.314,0-0.604,0.137-0.752,0.359c-0.064,0.102-0.096,0.208-0.096,0.315
					c0,0.137,0.052,0.271,0.151,0.386l3.989,4.591c0.143,0.163,0.373,0.261,0.623,0.261c0.254-0.003,0.484-0.098,0.627-0.264
					l3.938-4.591c0.099-0.115,0.148-0.249,0.148-0.383C30.865,20.103,30.831,19.993,30.769,19.895z"/>
				<g>
					<path fill="#404B5A" d="M20.022,21.927c-0.274-0.314-0.458-0.689-0.56-1.081h-1.436h-1.771H-0.937
						c-0.624,0-1.132-0.511-1.132-1.142V6.024h25.082v5.158c0.803,0.19,1.566,0.451,2.281,0.786V1.456
						c0-1.887-1.532-3.417-3.422-3.417h-22.81c-1.883,0-3.418,1.53-3.418,3.417v18.248c0,1.884,1.535,3.423,3.418,3.423h17.192
						h1.771h3.039L20.022,21.927z M8.401,1.061h13.726c0.584,0,1.055,0.474,1.055,1.058c0,0.583-0.473,1.056-1.055,1.056H8.401
						c-0.585,0-1.058-0.474-1.058-1.056C7.342,1.533,7.815,1.061,8.401,1.061z M2.483,1.614c0-0.617,0.49-1.113,1.108-1.113H4.7
						c0.606,0,1.105,0.496,1.105,1.113v1.108c0,0.611-0.498,1.108-1.105,1.108h-1.11c-0.612,0-1.108-0.498-1.108-1.108V1.614z
						 M-2.159,1.614c0-0.617,0.487-1.113,1.105-1.113h1.108c0.608,0,1.11,0.496,1.11,1.113v1.108c0,0.611-0.5,1.108-1.11,1.108
						h-1.108c-0.609,0-1.105-0.498-1.105-1.108V1.614z"/>
				</g>
			</g>
		</g>
	</g>
</g>
<g>
	<path fill="#404B5A" d="M41.035,13.333h-1.317c-0.365,0-0.66,0.295-0.66,0.658v10.787c0,0.365,0.295,0.66,0.66,0.66h1.317
		c0.362,0,0.657-0.295,0.657-0.66V13.991C41.695,13.628,41.398,13.333,41.035,13.333L41.035,13.333z"/>
	<path fill="#404B5A" d="M47.371,8.962h-1.318c-0.363,0-0.658,0.294-0.658,0.658v15.159c0,0.365,0.298,0.66,0.658,0.66h1.318
		c0.363,0,0.658-0.295,0.658-0.66V9.619C48.03,9.256,47.735,8.962,47.371,8.962L47.371,8.962z"/>
	<path fill="#404B5A" d="M53.71,13.004h-1.318c-0.363,0-0.658,0.295-0.658,0.658v11.116c0,0.365,0.295,0.66,0.658,0.66h1.318
		c0.363,0,0.656-0.295,0.656-0.66V13.662C54.366,13.299,54.072,13.004,53.71,13.004L53.71,13.004z"/>
	<path fill="#DEB248" d="M59.377-1.948c-1.048,0-1.898,0.849-1.898,1.895c0,0.459,0.168,0.874,0.438,1.202l-4.214,6.037
		c-0.202-0.075-0.422-0.122-0.653-0.122c-0.466,0-0.885,0.173-1.216,0.452l-3.327-2.401c0.061-0.185,0.105-0.38,0.105-0.583
		c0-1.048-0.852-1.897-1.902-1.897c-1.045,0-1.896,0.849-1.896,1.897c0,0.229,0.049,0.446,0.122,0.65l-3.607,2.804
		C41.05,7.82,40.726,7.72,40.376,7.72c-1.051,0-1.898,0.848-1.898,1.896c0,1.047,0.848,1.898,1.898,1.898
		c1.045,0,1.896-0.852,1.896-1.898c0-0.31-0.084-0.598-0.214-0.858l3.504-2.725c0.321,0.245,0.72,0.397,1.147,0.397
		c0.461,0,0.873-0.169,1.205-0.441l3.334,2.409c-0.057,0.178-0.096,0.367-0.096,0.565c0,1.048,0.849,1.897,1.896,1.897
		s1.901-0.85,1.901-1.897c0-0.434-0.154-0.827-0.397-1.146l4.235-6.07c0.186,0.06,0.383,0.103,0.59,0.103
		c1.046,0,1.894-0.848,1.894-1.9C61.273-1.099,60.425-1.948,59.377-1.948z"/>
	<g>
		<g>
			<g>
				<path fill="#CF7254" d="M67.246,19.499c-0.121-0.188-0.367-0.307-0.638-0.307H65.46c-0.095-3.14-3.308-5.667-7.268-5.667h-0.073
					c-0.272,0.003-0.51,0.151-0.585,0.361c-0.017,0.044-0.024,0.09-0.024,0.134c0,0.163,0.104,0.324,0.285,0.417
					c1.979,1.004,3.3,2.756,3.358,4.757h-1.152c-0.266,0-0.512,0.117-0.639,0.305c-0.054,0.088-0.083,0.179-0.083,0.269
					c0,0.117,0.044,0.229,0.129,0.326l3.388,3.899c0.122,0.14,0.319,0.223,0.534,0.223c0.21,0,0.409-0.083,0.528-0.225l3.342-3.899
					c0.083-0.098,0.127-0.21,0.127-0.327C67.329,19.678,67.303,19.585,67.246,19.499z"/>
				<g>
					<path fill="#404B5A" d="M58.142,18.693c0.275-0.419,0.694-0.721,1.182-0.867c-0.278-0.551-0.717-1.051-1.265-1.482v2.501
						C58.085,18.793,58.11,18.744,58.142,18.693z"/>
					<path fill="#404B5A" d="M58.119,12.061h0.073c0.872,0,1.711,0.108,2.501,0.303V4.859c0-0.363-0.298-0.658-0.658-0.658h-1.319
						c-0.36,0-0.655,0.295-0.655,0.658v7.208C58.078,12.066,58.098,12.061,58.119,12.061z"/>
					<path fill="#404B5A" d="M58.31,21.06c-0.101-0.112-0.181-0.236-0.251-0.366v4.085c0,0.365,0.297,0.66,0.657,0.66h1.319
						c0.36,0,0.655-0.295,0.655-0.66v-0.97L58.31,21.06z"/>
				</g>
			</g>
		</g>
	</g>
</g>
<g>
	<g>
		<circle fill="#DEB248" cx="-0.459" cy="2.244" r="1.059"/>
		<circle fill="#81BBCD" cx="4.201" cy="2.243" r="1.056"/>
	</g>
</g>
</svg>
