<?xml version="1.0" encoding="utf-8"?>
<!-- Generator: Adobe Illustrator 16.0.0, SVG Export Plug-In . SVG Version: 6.00 Build 0)  -->
<!DOCTYPE svg PUBLIC "-//W3C//DTD SVG 1.1//EN" "http://www.w3.org/Graphics/SVG/1.1/DTD/svg11.dtd">
<svg version="1.1" id="Capa_1" xmlns="http://www.w3.org/2000/svg" xmlns:xlink="http://www.w3.org/1999/xlink" x="0px" y="0px"
	 width="31.066px" height="30.927px" viewBox="0 0 31.066 30.927" enable-background="new 0 0 31.066 30.927" xml:space="preserve">
<g>
	<path fill="#CF7254" d="M8.896,9.639h11.116c0.908,0,1.646-0.738,1.646-1.646V0H7.248v7.992C7.248,8.9,7.987,9.639,8.896,9.639
		L8.896,9.639z M8.896,9.639"/>
	<path fill="#DEB248" d="M8.201,17.583h6.717c0.571,0,1.036-0.466,1.036-1.036s-0.465-1.035-1.036-1.035H8.201
		c-0.573,0-1.035,0.465-1.035,1.035S7.628,17.583,8.201,17.583L8.201,17.583z M8.201,17.583"/>
	<path fill="#DEB248" d="M8.201,21.725h10.856c0.575,0,1.037-0.464,1.037-1.035s-0.462-1.035-1.037-1.035H8.201
		c-0.573,0-1.035,0.464-1.035,1.035S7.628,21.725,8.201,21.725L8.201,21.725z M8.201,21.725"/>
	<path fill="#DEB248" d="M23.203,23.797H8.201c-0.573,0-1.035,0.463-1.035,1.033c0,0.571,0.462,1.037,1.035,1.037h15.002
		c0.571,0,1.035-0.466,1.035-1.037C24.238,24.26,23.774,23.797,23.203,23.797L23.203,23.797z M23.203,23.797"/>
	<path fill="#404B5A" d="M24.852,0h-1.122v7.992c0,2.051-1.666,3.717-3.717,3.717H8.896c-2.052,0-3.72-1.666-3.72-3.717V0H3.409
		C1.527,0,0,1.527,0,3.409v24.108c0,1.883,1.527,3.409,3.409,3.409h24.248c1.884,0,3.409-1.526,3.409-3.409V6.256L24.852,0z
		 M26.403,25.205c0,1.151-0.935,2.086-2.086,2.086H6.61c-1.149,0-2.085-0.935-2.085-2.086v-9.031c0-1.152,0.936-2.086,2.085-2.086
		h17.707c1.151,0,2.086,0.934,2.086,2.086V25.205z M28.733,10.415h-2.975V7.438h2.975V10.415z M28.733,10.415"/>
</g>
<g>
	<g>
		<path fill="#CF7254" d="M71.609,31.469c3.556,0.085,6.666,1.955,8.454,4.762c0.165,0.256,0.447,0.406,0.738,0.406
			c0.078,0,0.159-0.011,0.238-0.034c0.373-0.106,0.63-0.443,0.635-0.83v-0.105c0-5.612-4.486-10.169-10.062-10.303v-1.632
			c0-0.379-0.214-0.727-0.547-0.902c-0.15-0.081-0.313-0.12-0.479-0.12c-0.201,0-0.4,0.062-0.575,0.179l-6.93,4.742
			c-0.248,0.169-0.396,0.451-0.396,0.751c-0.002,0.301,0.146,0.583,0.392,0.755l6.929,4.802c0.174,0.122,0.38,0.183,0.581,0.183
			c0.166,0,0.326-0.039,0.476-0.117c0.337-0.176,0.548-0.526,0.548-0.906V31.469z M71.609,31.469"/>
		<path d="M80.559,30.015"/>
	</g>
	<g>
		<path fill="#DEB248" d="M61.875,10.612c0,0.701-0.566,1.271-1.271,1.271c-0.7,0-1.269-0.57-1.269-1.271
			c0-0.701,0.568-1.271,1.269-1.271C61.308,9.341,61.875,9.911,61.875,10.612z"/>
		<path fill="#81BBCD" d="M67.479,10.612c0,0.701-0.568,1.271-1.271,1.271c-0.698,0-1.27-0.57-1.27-1.271
			c0-0.701,0.571-1.271,1.27-1.271C66.911,9.341,67.479,9.911,67.479,10.612z"/>
		<path fill="#404B5A" d="M87.527,5.705H60.088c-2.271,0-4.113,1.841-4.113,4.111v21.955c0,2.268,1.843,4.118,4.113,4.118h6.121
			v-2.745h-6.121c-0.75,0-1.367-0.617-1.367-1.373V15.311h30.18v16.459c0,0.756-0.617,1.373-1.374,1.373h-4.271v2.745h4.271
			c2.277,0,4.119-1.851,4.119-4.118V9.816C91.646,7.546,89.804,5.705,87.527,5.705z M62.611,11.337c0,0.736-0.598,1.335-1.331,1.335
			h-1.333c-0.735,0-1.332-0.599-1.332-1.335v-1.333c0-0.74,0.591-1.338,1.332-1.338h1.333c0.733,0,1.331,0.599,1.331,1.338V11.337z
			 M68.195,11.337c0,0.735-0.597,1.335-1.33,1.335h-1.332c-0.734,0-1.33-0.6-1.33-1.335v-1.333c0-0.74,0.588-1.338,1.33-1.338h1.332
			c0.733,0,1.33,0.599,1.33,1.338V11.337z M87.836,11.883H71.321c-0.703,0-1.271-0.57-1.271-1.271c0-0.701,0.567-1.271,1.271-1.271
			h16.516c0.699,0,1.271,0.57,1.271,1.271C89.107,11.313,88.536,11.883,87.836,11.883z"/>
	</g>
</g>
<g>
	<circle fill="#DEB248" cx="120.137" cy="10.612" r="1.271"/>
	<g>
		<path fill="#CF7254" d="M135.46,33.102c0,0.38,0.213,0.73,0.549,0.906c0.151,0.078,0.31,0.117,0.475,0.117
			c0.204,0,0.408-0.062,0.582-0.183l6.929-4.802c0.246-0.172,0.395-0.455,0.395-0.755c-0.002-0.3-0.15-0.582-0.397-0.751
			l-6.933-4.742c-0.174-0.118-0.371-0.179-0.575-0.179c-0.165,0-0.328,0.039-0.478,0.12c-0.333,0.175-0.546,0.523-0.546,0.902v1.632
			c-5.577,0.134-10.064,4.691-10.064,10.303v0.105c0.005,0.387,0.262,0.724,0.634,0.83c0.079,0.023,0.162,0.034,0.241,0.034
			c0.29,0,0.572-0.149,0.737-0.406c1.788-2.807,4.898-4.676,8.452-4.762V33.102z M135.46,31.469"/>
		<path d="M124.998,30.015"/>
	</g>
	<circle fill="#81BBCD" cx="125.776" cy="10.612" r="1.271"/>
	<path fill="#404B5A" d="M147.093,5.705h-27.438c-2.269,0-4.111,1.841-4.111,4.111v21.955c0,2.268,1.843,4.118,4.111,4.118h3.875
		v-2.745h-3.875c-0.747,0-1.366-0.617-1.366-1.373V15.311h30.18v16.459c0,0.756-0.615,1.373-1.375,1.373h-5.761v2.745h5.761
		c2.279,0,4.121-1.851,4.121-4.118V9.816C151.214,7.546,149.373,5.705,147.093,5.705z M122.179,11.337
		c0,0.736-0.6,1.335-1.332,1.335h-1.331c-0.736,0-1.332-0.599-1.332-1.335v-1.333c0-0.74,0.59-1.338,1.332-1.338h1.331
		c0.732,0,1.332,0.599,1.332,1.338V11.337z M127.764,11.337c0,0.735-0.598,1.335-1.33,1.335h-1.333c-0.733,0-1.332-0.6-1.332-1.335
		v-1.333c0-0.74,0.59-1.338,1.332-1.338h1.333c0.732,0,1.33,0.599,1.33,1.338V11.337z M147.403,11.883h-16.514
		c-0.704,0-1.271-0.57-1.271-1.271c0-0.701,0.567-1.271,1.271-1.271h16.514c0.701,0,1.272,0.57,1.272,1.271
		C148.675,11.313,148.104,11.883,147.403,11.883z"/>
</g>
<g>
	<path fill="#CF7254" d="M190.355,32.156c-0.085,3.553-1.953,6.662-4.759,8.45c-0.255,0.164-0.405,0.444-0.405,0.736
		c0,0.079,0.012,0.161,0.035,0.24c0.105,0.371,0.444,0.629,0.828,0.635h0.105c5.607,0,10.161-4.484,10.295-10.058h1.632
		c0.379,0,0.725-0.21,0.902-0.546c0.08-0.148,0.118-0.313,0.118-0.476c0-0.202-0.061-0.403-0.179-0.575l-4.738-6.926
		c-0.171-0.248-0.452-0.395-0.753-0.396c-0.3-0.002-0.582,0.146-0.752,0.392l-4.802,6.924c-0.121,0.172-0.182,0.377-0.182,0.582
		c0,0.163,0.04,0.323,0.117,0.474c0.176,0.335,0.524,0.545,0.904,0.545H190.355z M190.355,32.156"/>
	<g>
		<circle fill="#DEB248" cx="178.953" cy="10.608" r="1.271"/>
		<circle fill="#81BBCD" cx="184.553" cy="10.608" r="1.269"/>
		<path fill="#404B5A" d="M205.855,5.705h-27.419c-2.27,0-4.109,1.839-4.109,4.107V31.75c0,2.267,1.84,4.117,4.109,4.117h8.9v-2.744
			h-8.9c-0.748,0-1.364-0.616-1.364-1.373V15.304h30.155V31.75c0,0.757-0.615,1.373-1.372,1.373h-6.748v2.744h6.748
			c2.276,0,4.116-1.85,4.116-4.117V9.812C209.971,7.544,208.131,5.705,205.855,5.705z M180.957,11.333
			c0,0.735-0.597,1.333-1.329,1.333h-1.33c-0.735,0-1.332-0.599-1.332-1.333v-1.331c0-0.74,0.588-1.338,1.332-1.338h1.33
			c0.732,0,1.329,0.599,1.329,1.338V11.333z M186.54,11.333c0,0.735-0.599,1.333-1.331,1.333h-1.331
			c-0.734,0-1.331-0.599-1.331-1.333v-1.331c0-0.74,0.59-1.338,1.331-1.338h1.331c0.732,0,1.331,0.599,1.331,1.338V11.333z
			 M206.163,11.877h-16.502c-0.701,0-1.271-0.569-1.271-1.27c0-0.7,0.569-1.269,1.271-1.269h16.502c0.701,0,1.27,0.569,1.27,1.269
			C207.432,11.309,206.864,11.877,206.163,11.877z"/>
	</g>
</g>
<g>
	<path fill="#CF7254" d="M255.367,37.371c0.084-3.553,1.954-6.662,4.758-8.45c0.257-0.165,0.404-0.444,0.404-0.736
		c0-0.079-0.01-0.161-0.032-0.24c-0.107-0.371-0.445-0.629-0.83-0.635h-0.104c-5.608,0-10.161,4.484-10.296,10.059h-1.631
		c-0.378,0-0.727,0.21-0.902,0.545c-0.078,0.149-0.117,0.313-0.117,0.476c0,0.204,0.06,0.404,0.178,0.576l4.738,6.926
		c0.171,0.248,0.45,0.396,0.751,0.396c0.301,0.002,0.583-0.146,0.754-0.392l4.801-6.924c0.12-0.172,0.183-0.377,0.183-0.582
		c0-0.162-0.04-0.323-0.117-0.474c-0.177-0.335-0.524-0.545-0.904-0.545H255.367z M255.367,37.371"/>
	<g>
		<path fill="#DEB248" d="M241.645,10.608c0,0.701-0.568,1.27-1.271,1.27c-0.698,0-1.268-0.569-1.268-1.27
			c0-0.7,0.569-1.269,1.268-1.269C241.077,9.339,241.645,9.908,241.645,10.608z"/>
		<circle fill="#81BBCD" cx="245.975" cy="10.608" r="1.269"/>
		<path fill="#404B5A" d="M267.277,5.705H239.86c-2.27,0-4.109,1.839-4.109,4.107V31.75c0,2.267,1.84,4.117,4.109,4.117h6.756
			v-2.744h-6.756c-0.749,0-1.365-0.616-1.365-1.373V15.304h30.156V31.75c0,0.757-0.617,1.373-1.374,1.373h-9.025v2.744h9.025
			c2.276,0,4.116-1.85,4.116-4.117V9.812C271.393,7.544,269.553,5.705,267.277,5.705z M242.379,11.333
			c0,0.735-0.598,1.333-1.33,1.333h-1.332c-0.733,0-1.33-0.599-1.33-1.333v-1.331c0-0.74,0.59-1.338,1.33-1.338h1.332
			c0.732,0,1.33,0.599,1.33,1.338V11.333z M247.961,11.333c0,0.735-0.599,1.333-1.329,1.333H245.3c-0.735,0-1.333-0.599-1.333-1.333
			v-1.331c0-0.74,0.591-1.338,1.333-1.338h1.332c0.73,0,1.329,0.599,1.329,1.338V11.333z M267.584,11.877h-16.501
			c-0.703,0-1.27-0.569-1.27-1.27c0-0.7,0.566-1.269,1.27-1.269h16.501c0.702,0,1.27,0.569,1.27,1.269
			C268.854,11.309,268.287,11.877,267.584,11.877z"/>
	</g>
</g>
<g>
	<g>
		<path fill="#CF7254" d="M311.256,25.74c3.549,0.084,6.652,1.952,8.438,4.753c0.166,0.256,0.445,0.404,0.736,0.404
			c0.078,0,0.16-0.011,0.24-0.033c0.369-0.107,0.629-0.443,0.633-0.829v-0.105c0-5.6-4.477-10.147-10.047-10.281V18.02
			c0-0.378-0.209-0.726-0.543-0.902C310.564,17.04,310.4,17,310.236,17c-0.201,0-0.4,0.06-0.574,0.178l-6.917,4.733
			c-0.247,0.169-0.394,0.45-0.396,0.75c-0.002,0.3,0.147,0.582,0.394,0.753l6.914,4.794c0.172,0.121,0.377,0.182,0.58,0.182
			c0.164,0,0.324-0.039,0.475-0.117c0.334-0.176,0.545-0.524,0.545-0.903V25.74z M311.256,25.74"/>
		<g>
			<path d="M318.561,30.003"/>
		</g>
	</g>
	<g>
		<circle fill="#DEB248" cx="298.648" cy="10.641" r="1.269"/>
		<circle fill="#81BBCD" cx="304.24" cy="10.641" r="1.267"/>
		<path fill="#404B5A" d="M325.514,5.744h-27.382c-2.265,0-4.104,1.836-4.104,4.103v21.908c0,2.264,1.839,4.111,4.104,4.111h20.644
			h2.125h4.613c2.273,0,4.113-1.847,4.113-4.111V9.846C329.627,7.58,327.787,5.744,325.514,5.744z M302.236,10.034
			c0-0.739,0.59-1.336,1.331-1.336h1.329c0.73,0,1.327,0.597,1.327,1.336v1.329c0,0.734-0.597,1.332-1.327,1.332h-1.329
			c-0.734,0-1.331-0.598-1.331-1.332V10.034z M296.661,10.035c0-0.739,0.59-1.337,1.331-1.337h1.329
			c0.732,0,1.329,0.598,1.329,1.337v1.329c0,0.734-0.597,1.332-1.329,1.332h-1.329c-0.733,0-1.331-0.598-1.331-1.332V10.035z
			 M326.887,31.754c0,0.756-0.617,1.371-1.373,1.371H320.9h-2.125h-20.644c-0.747,0-1.363-0.615-1.363-1.371V15.331h30.119V31.754z
			 M325.822,11.908h-16.48c-0.699,0-1.268-0.568-1.268-1.268s0.568-1.268,1.268-1.268h16.48c0.701,0,1.268,0.568,1.268,1.268
			S326.523,11.908,325.822,11.908z"/>
	</g>
</g>
<g>
	<g>
		<path fill="#CF7254" d="M374.299,27.37c0,0.379,0.209,0.727,0.543,0.903c0.152,0.078,0.312,0.117,0.475,0.117
			c0.205,0,0.408-0.061,0.58-0.182l6.914-4.794c0.246-0.171,0.396-0.453,0.393-0.753c-0.002-0.3-0.146-0.581-0.395-0.75
			l-6.918-4.733C375.719,17.061,375.52,17,375.316,17c-0.162,0-0.328,0.039-0.477,0.118c-0.334,0.176-0.543,0.523-0.543,0.902v1.628
			c-5.57,0.134-10.047,4.681-10.047,10.281v0.105c0.006,0.386,0.264,0.722,0.635,0.829c0.078,0.022,0.16,0.033,0.24,0.033
			c0.289,0,0.57-0.148,0.734-0.404c1.785-2.801,4.891-4.668,8.439-4.753V27.37z M374.299,25.74"/>
		<g>
			<path d="M366.992,30.003"/>
		</g>
	</g>
	<g>
		<circle fill="#DEB248" cx="360.549" cy="10.641" r="1.268"/>
		<circle fill="#81BBCD" cx="366.142" cy="10.641" r="1.267"/>
		<path fill="#404B5A" d="M387.414,5.744h-27.381c-2.266,0-4.105,1.836-4.105,4.103v21.908c0,2.264,1.84,4.111,4.105,4.111h20.643
			h2.125h4.613c2.275,0,4.113-1.847,4.113-4.111V9.846C391.527,7.58,389.689,5.744,387.414,5.744z M364.137,10.034
			c0-0.739,0.59-1.336,1.33-1.336h1.33c0.732,0,1.328,0.597,1.328,1.336v1.329c0,0.734-0.596,1.332-1.328,1.332h-1.33
			c-0.732,0-1.33-0.598-1.33-1.332V10.034z M358.562,10.035c0-0.739,0.59-1.337,1.33-1.337h1.33c0.73,0,1.328,0.598,1.328,1.337
			v1.329c0,0.734-0.598,1.332-1.328,1.332h-1.33c-0.732,0-1.33-0.598-1.33-1.332V10.035z M388.787,31.754
			c0,0.756-0.615,1.371-1.373,1.371h-4.613h-2.125h-20.643c-0.748,0-1.363-0.615-1.363-1.371V15.331h30.117V31.754z M387.723,11.908
			h-16.48c-0.699,0-1.268-0.568-1.268-1.268s0.568-1.268,1.268-1.268h16.48c0.701,0,1.27,0.568,1.27,1.268
			S388.424,11.908,387.723,11.908z"/>
	</g>
</g>
<g>
	<g>
		<path fill="#CF7254" d="M430.264,23.842c-0.086,2.883-1.949,5.406-4.742,6.856c-0.254,0.134-0.402,0.361-0.402,0.598
			c0,0.063,0.01,0.129,0.033,0.194c0.107,0.3,0.443,0.511,0.826,0.516h0.105c5.586,0,10.123-3.638,10.256-8.161h1.625
			c0.377,0,0.725-0.171,0.898-0.443c0.08-0.121,0.119-0.254,0.119-0.386c0-0.164-0.061-0.326-0.178-0.466l-4.723-5.619
			c-0.17-0.202-0.449-0.321-0.748-0.323c-0.299-0.001-0.58,0.119-0.75,0.319l-4.783,5.618c-0.121,0.14-0.182,0.306-0.182,0.472
			c0,0.132,0.039,0.262,0.117,0.385c0.176,0.272,0.523,0.442,0.9,0.442H430.264z M430.264,23.842"/>
		<g>
			<path d="M426.01,29.779"/>
		</g>
	</g>
	<g>
		<circle fill="#DEB248" cx="418.903" cy="10.629" r="1.265"/>
		<circle fill="#81BBCD" cx="424.482" cy="10.629" r="1.266"/>
		<path fill="#404B5A" d="M445.707,5.744h-27.318c-2.26,0-4.094,1.833-4.094,4.093v21.857c0,2.258,1.834,4.101,4.094,4.101h20.594
			h2.119h4.605c2.268,0,4.1-1.843,4.1-4.101V9.836C449.807,7.576,447.975,5.744,445.707,5.744z M422.484,10.024
			c0-0.736,0.586-1.333,1.326-1.333h1.326c0.729,0,1.324,0.597,1.324,1.333v1.327c0,0.732-0.596,1.329-1.324,1.329h-1.326
			c-0.732,0-1.326-0.597-1.326-1.329V10.024z M416.922,10.024c0-0.736,0.588-1.333,1.326-1.333h1.326
			c0.73,0,1.326,0.597,1.326,1.333v1.327c0,0.732-0.596,1.329-1.326,1.329h-1.326c-0.73,0-1.326-0.597-1.326-1.329V10.024z
			 M447.074,31.694c0,0.754-0.615,1.368-1.367,1.368h-4.605h-2.119h-20.594c-0.746,0-1.361-0.614-1.361-1.368V15.308h30.047V31.694z
			 M446.014,11.894h-16.441c-0.699,0-1.266-0.566-1.266-1.264s0.566-1.265,1.266-1.265h16.441c0.699,0,1.266,0.567,1.266,1.265
			S446.713,11.894,446.014,11.894z"/>
	</g>
</g>
<g>
	<circle fill="#DEB248" cx="479.69" cy="10.629" r="1.265"/>
	<circle fill="#81BBCD" cx="485.269" cy="10.629" r="1.265"/>
	<path fill="#404B5A" d="M506.492,5.744h-27.316c-2.26,0-4.096,1.833-4.096,4.093v21.857c0,2.258,1.836,4.101,4.096,4.101h20.594
		h2.121h4.602c2.27,0,4.102-1.843,4.102-4.101V9.836C510.594,7.576,508.762,5.744,506.492,5.744z M483.27,10.024
		c0-0.736,0.588-1.333,1.326-1.333h1.326c0.729,0,1.326,0.597,1.326,1.333v1.327c0,0.732-0.598,1.329-1.326,1.329h-1.326
		c-0.73,0-1.326-0.597-1.326-1.329V10.024z M477.709,10.024c0-0.736,0.588-1.333,1.326-1.333h1.328c0.729,0,1.324,0.597,1.324,1.333
		v1.327c0,0.732-0.596,1.329-1.324,1.329h-1.328c-0.73,0-1.326-0.597-1.326-1.329V10.024z M507.861,31.694
		c0,0.754-0.613,1.368-1.369,1.368h-4.602h-2.121h-20.594c-0.746,0-1.359-0.614-1.359-1.368V15.308h30.045V31.694z M506.801,11.894
		h-16.443c-0.697,0-1.264-0.566-1.264-1.264s0.566-1.265,1.264-1.265h16.443c0.699,0,1.266,0.567,1.266,1.265
		S507.5,11.894,506.801,11.894z"/>
</g>
<g>
	<g>
		<path fill="#404B5A" d="M566.543,32.225l-4.369-4.36c-0.418-0.417-0.986-0.612-1.535-0.585l-2.102-2.102
			c3.578-4.733,3.215-11.5-1.096-15.817c-4.715-4.713-12.365-4.713-17.08,0.01c-4.725,4.722-4.725,12.364-0.01,17.079
			c4.316,4.316,11.086,4.674,15.816,1.096l2.102,2.102c-0.027,0.55,0.17,1.118,0.586,1.535l4.361,4.36
			c0.779,0.78,2.053,0.78,2.834,0l0.482-0.484C567.322,34.278,567.322,33.014,566.543,32.225L566.543,32.225z M554.828,23.837
			c-3.273,3.273-8.592,3.283-11.863,0.009c-3.273-3.272-3.273-8.582,0.008-11.864c3.273-3.273,8.59-3.282,11.865-0.009
			C558.109,15.247,558.098,20.555,554.828,23.837L554.828,23.837z M554.828,23.837"/>
	</g>
	<path fill="#CF7254" d="M552.186,16.647h-1.977V14.67c0-0.715-0.578-1.292-1.285-1.292h-0.012c-0.705,0-1.283,0.577-1.283,1.292
		v1.977h-1.979c-0.713,0-1.289,0.578-1.289,1.283v0.008c0,0.706,0.576,1.282,1.289,1.282h1.979v1.978
		c0,0.714,0.578,1.291,1.283,1.291h0.01c0.705,0,1.281-0.577,1.281-1.291v-1.978h1.977c0.715,0,1.293-0.577,1.293-1.282V17.93
		C553.48,17.225,552.904,16.647,552.186,16.647L552.186,16.647z M552.186,16.647"/>
</g>
<g>
	<g>
		<path fill="#404B5A" d="M626.203,32.225l-4.369-4.36c-0.414-0.417-0.984-0.612-1.533-0.585l-2.102-2.102
			c3.576-4.733,3.213-11.5-1.098-15.817c-4.715-4.713-12.365-4.713-17.08,0.01c-4.725,4.722-4.725,12.364-0.01,17.079
			c4.316,4.316,11.086,4.674,15.816,1.096l2.104,2.102c-0.025,0.55,0.168,1.118,0.586,1.535l4.359,4.36
			c0.781,0.78,2.053,0.78,2.836,0l0.48-0.484C626.982,34.278,626.982,33.014,626.203,32.225L626.203,32.225z M614.49,23.837
			c-3.273,3.273-8.59,3.283-11.865,0.009c-3.273-3.272-3.273-8.582,0.008-11.864c3.273-3.273,8.592-3.282,11.865-0.009
			C617.771,15.247,617.758,20.555,614.49,23.837L614.49,23.837z M614.49,23.837"/>
	</g>
	<path fill="#CF7254" d="M611.846,16.647h-1.977h-2.58h-1.977c-0.713,0-1.291,0.578-1.291,1.283v0.008
		c0,0.706,0.578,1.282,1.291,1.282h1.977h2.574h1.979c0.715,0,1.289-0.577,1.289-1.282V17.93
		C613.143,17.225,612.564,16.647,611.846,16.647z"/>
</g>
<g>
	<path fill="#404B5A" d="M663.361,34.702c0.033,0.817,0.705,1.463,1.525,1.463h14.25c0.816,0,1.49-0.646,1.521-1.463l1.021-21.482
		h-19.336L663.361,34.702z M675.236,18.556c0-0.343,0.277-0.621,0.619-0.621h0.99c0.344,0,0.621,0.277,0.621,0.621v12.272
		c0,0.343-0.277,0.621-0.621,0.621h-0.99c-0.342,0-0.619-0.278-0.619-0.621V18.556z M670.896,18.556
		c0-0.343,0.275-0.621,0.619-0.621h0.992c0.344,0,0.621,0.277,0.621,0.621v12.272c0,0.343-0.277,0.621-0.621,0.621h-0.992
		c-0.344,0-0.619-0.278-0.619-0.621V18.556z M666.557,18.556c0-0.343,0.279-0.621,0.621-0.621h0.99c0.342,0,0.619,0.277,0.619,0.621
		v12.272c0,0.343-0.277,0.621-0.619,0.621h-0.99c-0.342,0-0.621-0.278-0.621-0.621V18.556z M666.557,18.556"/>
	<path fill="#CF7254" d="M682.357,7.396h-6.574V6.152c0-0.175-0.145-0.319-0.318-0.319h-6.906c-0.174,0-0.318,0.144-0.318,0.319
		v1.243h-6.574c-0.529,0-0.957,0.43-0.957,0.959v3.008h22.605V8.354C683.314,7.826,682.887,7.396,682.357,7.396L682.357,7.396z
		 M682.357,7.396"/>
</g>
<g>
	<path fill="#CF7254" d="M741.641,5.833h-19.053v13.335h19.053V5.833z M739.734,17.263h-15.24V7.738h15.24V17.263z M739.734,17.263"
		/>
	<path fill="#404B5A" d="M743.545,19.168v1.906h-22.861v-1.906c-2.105,0-3.811,1.707-3.811,3.81v11.432
		c0,1.053,0.852,1.904,1.904,1.904h26.67c1.055,0,1.906-0.853,1.906-1.904V22.978C747.354,20.875,745.648,19.168,743.545,19.168
		L743.545,19.168z M741.641,32.502c0,1.054-0.854,1.907-1.906,1.907h-15.24c-1.053,0-1.906-0.853-1.906-1.907v-1.904h19.053V32.502z
		 M744.496,26.789h-1.904c-0.527,0-0.951-0.425-0.951-0.952s0.424-0.952,0.951-0.952h1.904c0.527,0,0.951,0.425,0.951,0.952
		S745.023,26.789,744.496,26.789L744.496,26.789z M744.496,26.789"/>
	<rect x="726.393" y="9.648" fill="#DEB248" width="11.432" height="1.904"/>
	<polygon fill="#DEB248" points="726.4,13.453 737.828,13.453 737.824,15.362 726.393,15.362 	"/>
</g>
<g>
	<g>
		<path fill="#404B5A" d="M853.953,13.01c0.961-0.664,1.607-1.893,1.607-3.298c0-1.903-0.387-3.848-3.24-3.848
			c-2.855,0-3.24,1.944-3.24,3.848c0,1.405,0.646,2.634,1.607,3.298c-2.127,0.638-3.666,2.485-3.666,4.659
			c0,1.122,0.57,1.917,1.695,2.366c0.826,0.328,1.969,0.481,3.604,0.481c1.633,0,2.777-0.153,3.602-0.481
			c1.127-0.449,1.697-1.244,1.697-2.366C857.619,15.495,856.078,13.647,853.953,13.01L853.953,13.01z M853.953,13.01"/>
	</g>
	<path fill="#404B5A" d="M843.805,27.396c0.959-0.664,1.607-1.894,1.607-3.298c0-1.903-0.385-3.848-3.24-3.848
		s-3.24,1.944-3.24,3.848c0,1.405,0.646,2.634,1.607,3.298c-2.125,0.638-3.666,2.485-3.666,4.658c0,1.122,0.57,1.917,1.697,2.366
		c0.822,0.329,1.967,0.482,3.602,0.482s2.779-0.153,3.602-0.482c1.127-0.449,1.699-1.244,1.699-2.366
		C847.473,29.881,845.93,28.035,843.805,27.396L843.805,27.396z M843.805,27.396"/>
	<path fill="#404B5A" d="M864.1,27.396c0.961-0.664,1.607-1.894,1.607-3.298c0-1.903-0.385-3.848-3.24-3.848
		s-3.238,1.944-3.238,3.848c0,1.405,0.646,2.634,1.607,3.298c-2.125,0.638-3.668,2.485-3.668,4.658c0,1.122,0.572,1.917,1.697,2.366
		c0.824,0.329,1.969,0.482,3.602,0.482c1.635,0,2.779-0.153,3.604-0.482c1.127-0.449,1.695-1.244,1.695-2.366
		C867.766,29.881,866.225,28.035,864.1,27.396L864.1,27.396z M864.1,27.396"/>
	<path fill="#CF7254" d="M855.898,34.633c-0.037-0.094-0.109-0.168-0.201-0.208c-0.092-0.04-0.195-0.041-0.289-0.004
		c-0.814,0.325-1.824,0.484-3.088,0.484c-1.266,0-2.275-0.158-3.088-0.484c-0.094-0.037-0.199-0.036-0.289,0.004
		c-0.094,0.04-0.166,0.114-0.203,0.208l-0.281,0.703c-0.076,0.194,0.018,0.414,0.211,0.491c0.996,0.398,2.189,0.592,3.65,0.592
		c1.459,0,2.654-0.194,3.648-0.592c0.195-0.077,0.289-0.297,0.211-0.491L855.898,34.633z M855.898,34.633"/>
	<path fill="#CF7254" d="M841.16,18.33l0.695,0.298c0.049,0.021,0.1,0.03,0.148,0.03c0.146,0,0.287-0.085,0.35-0.229
		c0.346-0.805,0.947-1.632,1.842-2.524c0.893-0.895,1.719-1.497,2.523-1.843c0.094-0.04,0.166-0.114,0.203-0.208
		c0.037-0.093,0.037-0.197-0.004-0.289l-0.297-0.696c-0.084-0.191-0.307-0.28-0.498-0.198c-0.986,0.423-1.967,1.13-3,2.163
		s-1.738,2.014-2.162,3C840.879,18.024,840.969,18.247,841.16,18.33L841.16,18.33z M841.16,18.33"/>
	<path fill="#CF7254" d="M857.92,14.062c0.805,0.346,1.631,0.948,2.525,1.843c0.895,0.893,1.496,1.72,1.842,2.524
		c0.062,0.144,0.201,0.229,0.348,0.229c0.051,0,0.102-0.009,0.148-0.03l0.695-0.298c0.193-0.083,0.283-0.306,0.199-0.497
		c-0.422-0.985-1.129-1.967-2.162-3s-2.014-1.739-2.998-2.163c-0.193-0.082-0.414,0.007-0.496,0.198l-0.299,0.696
		c-0.041,0.092-0.043,0.196-0.006,0.289C857.754,13.948,857.826,14.022,857.92,14.062L857.92,14.062z M857.92,14.062"/>
</g>
<g>
	<path fill="#404B5A" d="M781.26,23.247h-1.631c-0.451,0-0.818,0.367-0.818,0.816V35.29c0,0.451,0.367,0.816,0.818,0.816h1.631
		c0.449,0,0.814-0.365,0.814-0.816V24.063C782.074,23.614,781.709,23.247,781.26,23.247L781.26,23.247z"/>
	<path fill="#404B5A" d="M789.109,19.046h-1.633c-0.449,0-0.814,0.367-0.814,0.815V35.29c0,0.451,0.365,0.816,0.814,0.816h1.633
		c0.451,0,0.814-0.365,0.814-0.816V19.862C789.924,19.413,789.561,19.046,789.109,19.046L789.109,19.046z"/>
	<path fill="#404B5A" d="M796.959,13.631h-1.633c-0.453,0-0.816,0.366-0.816,0.816V35.29c0,0.451,0.363,0.816,0.816,0.816h1.633
		c0.447,0,0.812-0.365,0.812-0.816V14.447C797.771,13.997,797.406,13.631,796.959,13.631L796.959,13.631z"/>
	<path fill="#404B5A" d="M804.805,18.638h-1.631c-0.451,0-0.816,0.366-0.816,0.816V35.29c0,0.451,0.365,0.816,0.816,0.816h1.631
		c0.451,0,0.816-0.365,0.816-0.816V19.454C805.621,19.004,805.256,18.638,804.805,18.638L804.805,18.638z"/>
	<path fill="#CF7254" d="M803.99,11.28c-0.576,0-1.098,0.216-1.506,0.562l-4.117-2.975c0.072-0.229,0.123-0.469,0.123-0.724
		c0-1.297-1.051-2.35-2.348-2.35c-1.299,0-2.352,1.053-2.352,2.35c0,0.284,0.061,0.554,0.148,0.806l-4.461,3.472
		c-0.35-0.205-0.75-0.331-1.186-0.331c-1.299,0-2.35,1.053-2.35,2.351c0,0.078,0.014,0.153,0.023,0.231l-3.824,2.039
		c-0.428-0.448-1.029-0.73-1.697-0.73c-1.299,0-2.352,1.053-2.352,2.351c0,1.297,1.053,2.35,2.352,2.35
		c1.297,0,2.35-1.053,2.35-2.35c0-0.159-0.02-0.312-0.047-0.461l3.709-1.979c0.432,0.543,1.09,0.899,1.836,0.899
		c1.299,0,2.35-1.053,2.35-2.35c0-0.385-0.1-0.743-0.264-1.063l4.34-3.376c0.395,0.304,0.887,0.491,1.424,0.491
		c0.568,0,1.08-0.209,1.486-0.544l4.129,2.981c-0.068,0.223-0.119,0.455-0.119,0.7c0,1.298,1.053,2.351,2.352,2.351
		s2.35-1.053,2.35-2.351C806.34,12.333,805.289,11.28,803.99,11.28z"/>
</g>
</svg>
