<?xml version="1.0" encoding="utf-8"?>
<!-- Generator: Adobe Illustrator 16.0.0, SVG Export Plug-In . SVG Version: 6.00 Build 0)  -->
<!DOCTYPE svg PUBLIC "-//W3C//DTD SVG 1.1//EN" "http://www.w3.org/Graphics/SVG/1.1/DTD/svg11.dtd">
<svg version="1.1" id="Capa_1" xmlns="http://www.w3.org/2000/svg" xmlns:xlink="http://www.w3.org/1999/xlink" x="0px" y="0px"
	 width="28.873px" height="27.411px" viewBox="-4.355 -1.96 28.873 27.411" enable-background="new -4.355 -1.96 28.873 27.411"
	 xml:space="preserve">
<g>
	<g>
		<path fill="#DEB248" d="M-28.143,9.634V8.419c0-0.337-0.272-0.609-0.608-0.609h-13.958c-0.337,0-0.607,0.272-0.607,0.609v1.215
			c0,0.336,0.271,0.607,0.607,0.607h13.958C-28.415,10.24-28.143,9.968-28.143,9.634L-28.143,9.634z"/>
		<path fill="#DEB248" d="M-32.018,13.948v-1.216c0-0.336-0.275-0.609-0.61-0.609h-7.282c-0.337,0-0.609,0.273-0.609,0.609v1.216
			c0,0.335,0.273,0.606,0.609,0.606h7.282C-32.293,14.556-32.018,14.282-32.018,13.948L-32.018,13.948z"/>
		<path fill="#DEB248" d="M-34.319,18.157v-1.216c0-0.336-0.268-0.608-0.605-0.608h-3.032c-0.339,0-0.609,0.272-0.609,0.608v1.216
			c0,0.332,0.271,0.608,0.609,0.608h3.032C-34.585,18.766-34.319,18.49-34.319,18.157L-34.319,18.157z"/>
		<path fill="#DEB248" d="M-21.768,9.634V8.419c0-0.337-0.271-0.609-0.604-0.609h-3.039c-0.336,0-0.605,0.272-0.605,0.609v1.215
			c0,0.336,0.271,0.607,0.605,0.607h3.039C-22.038,10.24-21.768,9.968-21.768,9.634L-21.768,9.634z"/>
		<path fill="#DEB248" d="M-23.893,18.157v-1.216c0-0.336-0.27-0.608-0.608-0.608h-7.283c-0.337,0-0.609,0.272-0.609,0.608v1.216
			c0,0.332,0.273,0.608,0.609,0.608h7.283C-24.162,18.766-23.893,18.49-23.893,18.157L-23.893,18.157z"/>
		<g>
			<g>
				<path fill="#CF7254" d="M-12.041,19.895c-0.146-0.223-0.437-0.362-0.75-0.362h-1.359c-0.107-3.695-3.892-6.666-8.551-6.666
					h-0.087c-0.323,0.003-0.602,0.172-0.688,0.419c-0.018,0.055-0.031,0.108-0.031,0.16c0,0.193,0.125,0.379,0.336,0.489
					c2.332,1.182,3.888,3.245,3.957,5.604h-1.357c-0.314,0-0.604,0.137-0.752,0.359c-0.064,0.102-0.096,0.208-0.096,0.315
					c0,0.137,0.052,0.271,0.151,0.386l3.989,4.591c0.143,0.163,0.373,0.261,0.623,0.261c0.254-0.003,0.484-0.098,0.627-0.264
					l3.938-4.591c0.099-0.115,0.148-0.249,0.148-0.383C-11.945,20.103-11.979,19.993-12.041,19.895z"/>
				<g>
					<path fill="#404B5A" d="M-22.788,21.927c-0.274-0.314-0.458-0.689-0.56-1.081h-1.436h-1.771h-17.192
						c-0.624,0-1.132-0.511-1.132-1.142V6.024h25.082v5.158c0.803,0.19,1.566,0.451,2.281,0.786V1.456
						c0-1.887-1.532-3.417-3.422-3.417h-22.81c-1.883,0-3.418,1.53-3.418,3.417v18.248c0,1.884,1.535,3.423,3.418,3.423h17.192
						h1.771h3.039L-22.788,21.927z M-34.409,1.061h13.726c0.584,0,1.055,0.474,1.055,1.058c0,0.583-0.473,1.056-1.055,1.056h-13.726
						c-0.585,0-1.058-0.474-1.058-1.056C-35.469,1.533-34.995,1.061-34.409,1.061z M-40.327,1.614c0-0.617,0.49-1.113,1.108-1.113
						h1.11c0.606,0,1.105,0.496,1.105,1.113v1.108c0,0.611-0.498,1.108-1.105,1.108h-1.11c-0.612,0-1.108-0.498-1.108-1.108V1.614z
						 M-44.969,1.614c0-0.617,0.487-1.113,1.105-1.113h1.108c0.608,0,1.11,0.496,1.11,1.113v1.108c0,0.611-0.5,1.108-1.11,1.108
						h-1.108c-0.609,0-1.105-0.498-1.105-1.108V1.614z"/>
				</g>
			</g>
		</g>
	</g>
</g>
<g>
	<path fill="#404B5A" d="M-1.775,13.333h-1.317c-0.365,0-0.66,0.295-0.66,0.658v10.787c0,0.365,0.295,0.66,0.66,0.66h1.317
		c0.362,0,0.657-0.295,0.657-0.66V13.991C-1.115,13.628-1.412,13.333-1.775,13.333L-1.775,13.333z"/>
	<path fill="#404B5A" d="M4.561,8.962H3.243c-0.363,0-0.658,0.294-0.658,0.658v15.159c0,0.365,0.298,0.66,0.658,0.66h1.318
		c0.363,0,0.658-0.295,0.658-0.66V9.619C5.219,9.256,4.925,8.962,4.561,8.962L4.561,8.962z"/>
	<path fill="#404B5A" d="M10.9,13.004H9.582c-0.363,0-0.658,0.295-0.658,0.658v11.116c0,0.365,0.295,0.66,0.658,0.66H10.9
		c0.363,0,0.656-0.295,0.656-0.66V13.662C11.556,13.299,11.261,13.004,10.9,13.004L10.9,13.004z"/>
	<path fill="#DEB248" d="M16.568-1.948c-1.049,0-1.898,0.849-1.898,1.895c0,0.459,0.168,0.874,0.438,1.202l-4.213,6.037
		c-0.202-0.075-0.422-0.122-0.653-0.122c-0.466,0-0.885,0.173-1.216,0.452L5.697,5.115c0.061-0.185,0.105-0.38,0.105-0.583
		c0-1.048-0.852-1.897-1.902-1.897c-1.045,0-1.896,0.849-1.896,1.897c0,0.229,0.049,0.446,0.122,0.65l-3.607,2.804
		C-1.76,7.82-2.084,7.72-2.434,7.72c-1.051,0-1.898,0.848-1.898,1.896c0,1.047,0.848,1.898,1.898,1.898
		c1.045,0,1.896-0.852,1.896-1.898c0-0.31-0.084-0.598-0.214-0.858l3.504-2.725C3.074,6.279,3.472,6.431,3.9,6.431
		c0.461,0,0.873-0.169,1.205-0.441l3.334,2.409C8.383,8.576,8.344,8.765,8.344,8.964c0,1.048,0.849,1.897,1.896,1.897
		s1.902-0.85,1.902-1.897c0-0.434-0.155-0.827-0.398-1.146l4.236-6.07c0.186,0.06,0.383,0.103,0.59,0.103
		c1.045,0,1.893-0.848,1.893-1.9C18.462-1.099,17.615-1.948,16.568-1.948z"/>
	<g>
		<g>
			<g>
				<path fill="#CF7254" d="M24.437,19.499c-0.121-0.188-0.367-0.307-0.639-0.307H22.65c-0.094-3.14-3.307-5.667-7.268-5.667H15.31
					c-0.273,0.003-0.51,0.151-0.586,0.361c-0.016,0.044-0.023,0.09-0.023,0.134c0,0.163,0.104,0.324,0.285,0.417
					c1.979,1.004,3.299,2.756,3.357,4.757h-1.152c-0.266,0-0.512,0.117-0.639,0.305c-0.053,0.088-0.082,0.179-0.082,0.269
					c0,0.117,0.043,0.229,0.129,0.326l3.387,3.899c0.123,0.14,0.32,0.223,0.535,0.223c0.209,0,0.408-0.083,0.527-0.225l3.342-3.899
					c0.084-0.098,0.127-0.21,0.127-0.327C24.519,19.678,24.493,19.585,24.437,19.499z"/>
				<g>
					<path fill="#404B5A" d="M15.331,18.693c0.275-0.419,0.695-0.721,1.182-0.867c-0.277-0.551-0.717-1.051-1.264-1.482v2.501
						C15.275,18.793,15.3,18.744,15.331,18.693z"/>
					<path fill="#404B5A" d="M15.31,12.061h0.072c0.873,0,1.711,0.108,2.502,0.303V4.859c0-0.363-0.299-0.658-0.658-0.658h-1.32
						c-0.359,0-0.654,0.295-0.654,0.658v7.208C15.269,12.066,15.288,12.061,15.31,12.061z"/>
					<path fill="#404B5A" d="M15.499,21.06c-0.1-0.112-0.18-0.236-0.25-0.366v4.085c0,0.365,0.297,0.66,0.656,0.66h1.32
						c0.359,0,0.654-0.295,0.654-0.66v-0.97L15.499,21.06z"/>
				</g>
			</g>
		</g>
	</g>
</g>
<g>
	<g>
		<circle fill="#DEB248" cx="-43.269" cy="2.244" r="1.059"/>
		<circle fill="#81BBCD" cx="-38.609" cy="2.243" r="1.056"/>
	</g>
</g>
</svg>
