<?xml version="1.0" encoding="utf-8"?>
<!-- Generator: Adobe Illustrator 16.0.0, SVG Export Plug-In . SVG Version: 6.00 Build 0)  -->
<!DOCTYPE svg PUBLIC "-//W3C//DTD SVG 1.1//EN" "http://www.w3.org/Graphics/SVG/1.1/DTD/svg11.dtd">
<svg version="1.1" id="Capa_1" xmlns="http://www.w3.org/2000/svg" xmlns:xlink="http://www.w3.org/1999/xlink" x="0px" y="0px"
	 width="36.838px" height="32.586px" viewBox="0 0 36.838 32.586" enable-background="new 0 0 36.838 32.586" xml:space="preserve">
<g>
	<g>
		<path d="M-130.098,25.472"/>
		<g>
			<g>
				<path fill="#CF7254" d="M-131.138,12.564c-0.456,0.458-0.456,1.2,0,1.655l6.374,6.375l-1.147,1.148
					c-0.384,0.383-0.384,1.004,0,1.387l0.691,0.69c0.344,1.447,0.688,2.896,1.033,4.342l0.798,3.348
					c0.055,0.224,0.217,0.406,0.433,0.486c0.076,0.028,0.157,0.042,0.236,0.042c0.143,0,0.286-0.046,0.405-0.134
					c4.021-2.958,7.559-6.497,10.518-10.517c0.136-0.185,0.169-0.426,0.091-0.642c-0.079-0.217-0.261-0.378-0.485-0.432
					l-2.673-0.637c-1.674-0.398-3.345-0.796-5.019-1.194l-0.691-0.691c-0.38-0.384-1.002-0.384-1.383,0l-1.15,1.148l-6.374-6.375
					C-129.939,12.108-130.681,12.108-131.138,12.564L-131.138,12.564z M-123.753,24.063l4.115-4.114l6.108,1.456
					c-0.462,0.603-0.939,1.193-1.43,1.772l-2.562-0.91l1.792,1.793c-0.53,0.597-1.075,1.179-1.637,1.747l-1.422-0.892l0.897,1.418
					c-0.611,0.601-1.238,1.187-1.881,1.755l-1.787-1.787l0.905,2.548c-0.537,0.452-1.084,0.895-1.644,1.323L-123.753,24.063z
					 M-122.297,30.173"/>
			</g>
		</g>
		<g>
			<circle fill="#DEB248" cx="-147.333" cy="5.704" r="1.058"/>
			<circle fill="#81BBCD" cx="-142.673" cy="5.704" r="1.056"/>
		</g>
		<g>
			<path fill="#DEB248" d="M-133.16,13.103v-1.218c0-0.336-0.273-0.608-0.609-0.608h-13.013c-0.337,0-0.609,0.272-0.609,0.608v1.218
				c0,0.334,0.272,0.606,0.609,0.606h13.013C-133.433,13.709-133.16,13.438-133.16,13.103L-133.16,13.103z"/>
			<path fill="#DEB248" d="M-136.085,17.419v-1.216c0-0.338-0.273-0.61-0.608-0.61h-7.288c-0.338,0-0.61,0.272-0.61,0.61v1.216
				c0,0.335,0.272,0.608,0.61,0.608h7.288C-136.359,18.027-136.085,17.754-136.085,17.419L-136.085,17.419z"/>
			<path fill="#DEB248" d="M-138.384,21.632v-1.217c0-0.337-0.272-0.61-0.607-0.61h-3.036c-0.338,0-0.608,0.272-0.608,0.61v1.217
				c0,0.334,0.271,0.608,0.608,0.608h3.036C-138.657,22.24-138.384,21.966-138.384,21.632L-138.384,21.632z"/>
			<path fill="#DEB248" d="M-125.827,13.103v-1.218c0-0.336-0.271-0.608-0.607-0.608h-0.646c-0.337,0-0.609,0.272-0.609,0.608v1.218
				c0,0.334,0.272,0.606,0.609,0.606h0.646C-126.098,13.709-125.827,13.438-125.827,13.103L-125.827,13.103z"/>
			<path fill="#DEB248" d="M-127.953,21.632v-1.217c0-0.337-0.273-0.61-0.608-0.61h-7.29c-0.336,0-0.609,0.272-0.609,0.61v1.217
				c0,0.334,0.273,0.608,0.609,0.608h7.29C-128.226,22.24-127.953,21.966-127.953,21.632L-127.953,21.632z"/>
			<g>
				<g>
					<g>
						<path fill="#404B5A" d="M-126.847,25.401c-0.274-0.313-0.46-0.686-0.562-1.08h-1.437h-1.771h-17.203
							c-0.624,0-1.138-0.514-1.138-1.143V9.49h25.101v7.022c0.582-0.582,0.937-1.078,2.284-1.078V4.918
							c0-1.888-1.531-3.418-3.426-3.418h-22.821c-1.889,0-3.422,1.531-3.422,3.418v18.26c0,1.886,1.533,3.426,3.422,3.426h17.203
							h1.771h2.348L-126.847,25.401z M-138.479,4.524h13.736c0.584,0,1.057,0.473,1.057,1.057c0,0.583-0.473,1.057-1.057,1.057
							h-13.736c-0.583,0-1.057-0.474-1.057-1.057C-139.536,4.998-139.062,4.524-138.479,4.524z M-144.399,5.076
							c0-0.615,0.489-1.113,1.107-1.113h1.109c0.607,0,1.105,0.498,1.105,1.113v1.108c0,0.612-0.498,1.109-1.105,1.109h-1.109
							c-0.613,0-1.107-0.498-1.107-1.109V5.076z M-149.045,5.076c0-0.615,0.49-1.113,1.107-1.113h1.107
							c0.609,0,1.108,0.498,1.108,1.113v1.109c0,0.612-0.499,1.109-1.108,1.109h-1.107c-0.611,0-1.107-0.498-1.107-1.109V5.076z"/>
					</g>
				</g>
			</g>
		</g>
	</g>
	<g>
		<g>
			<path fill="#404B5A" d="M-9.639,7.242h-22.547c-0.715,0-1.411,0.579-1.559,1.292l-3.204,15.587
				c-0.146,0.713,0.312,1.292,1.025,1.292h22.547c0.716,0,1.411-0.578,1.559-1.292l3.204-15.587
				C-8.467,7.821-8.925,7.242-9.639,7.242L-9.639,7.242z M-12.337,12.459l-10.006,4.826c-0.432,0.208-0.924,0.208-1.269,0
				l-8.024-4.826c-0.581-0.349-0.659-1.166-0.175-1.819c0.324-0.438,0.834-0.71,1.332-0.71c0.221,0,0.427,0.054,0.601,0.159
				l7.458,4.487l9.303-4.487c0.216-0.104,0.446-0.159,0.665-0.159c0.496,0,0.896,0.272,1.04,0.708
				C-11.197,11.293-11.611,12.11-12.337,12.459L-12.337,12.459z M-12.337,12.459"/>
		</g>
		<path fill="#CF7254" d="M-45.399,10.647h9.714c0.516,0,0.931-0.417,0.931-0.931c0-0.515-0.415-0.932-0.931-0.932h-9.714
			c-0.514,0-0.932,0.417-0.932,0.932C-46.331,10.23-45.913,10.647-45.399,10.647L-45.399,10.647z M-45.399,10.647"/>
		<path fill="#CF7254" d="M-38.292,17.255h-9.716c-0.514,0-0.93,0.417-0.93,0.931c0,0.515,0.416,0.931,0.93,0.931h9.716
			c0.515,0,0.932-0.416,0.932-0.931C-37.36,17.671-37.777,17.255-38.292,17.255L-38.292,17.255z M-38.292,17.255"/>
		<path fill="#DEB248" d="M-36.058,13.897c0-0.515-0.416-0.931-0.93-0.931h-5.806c-0.514,0-0.933,0.416-0.933,0.931
			c0,0.513,0.419,0.93,0.933,0.93h5.806C-36.474,14.827-36.058,14.411-36.058,13.897L-36.058,13.897z M-36.058,13.897"/>
		<path fill="#DEB248" d="M-39.594,21.435h-3.103c-0.515,0-0.931,0.417-0.931,0.931c0,0.514,0.416,0.931,0.931,0.931h3.103
			c0.514,0,0.93-0.417,0.93-0.931C-38.665,21.852-39.081,21.435-39.594,21.435L-39.594,21.435z M-39.594,21.435"/>
	</g>
	<g>
		<path fill="#CF7254" d="M-89.018,9.409c0.161,0,0.323-0.039,0.472-0.116c0.335-0.176,0.548-0.525,0.548-0.904V7.245V6.76
			c3.546,0.084,6.649,1.95,8.434,4.75c0.163,0.256,0.443,0.404,0.734,0.404c0.08,0,0.159-0.011,0.239-0.034
			c0.371-0.106,0.628-0.442,0.633-0.828v-0.104c0-5.599-4.474-10.144-10.04-10.277v-1.628c0-0.378-0.209-0.725-0.544-0.901
			c-0.148-0.079-0.312-0.119-0.475-0.119c-0.204,0-0.403,0.061-0.577,0.179l-6.912,4.731c-0.248,0.169-0.396,0.45-0.397,0.75
			c0,0.299,0.146,0.581,0.393,0.752l6.912,4.792C-89.425,9.348-89.222,9.409-89.018,9.409z"/>
		<path fill="#404B5A" d="M-78.831,13.599c-0.876,0-1.682-0.441-2.154-1.183c-1.229-1.929-3.156-3.264-5.343-3.76
			c-0.09,0.901-0.622,1.701-1.442,2.133c-0.386,0.199-0.818,0.304-1.248,0.304c-0.558,0-1.092-0.167-1.54-0.482l-3.243-2.248
			l-0.113,0.022V30.28l16.243,3.132V13.318c-0.142,0.071-0.29,0.133-0.447,0.179C-78.35,13.565-78.587,13.599-78.831,13.599z
			 M-83.641,24.835l-1.89-3.575c-0.072-0.132-0.146-0.375-0.222-0.734h-0.029c-0.039,0.168-0.117,0.423-0.255,0.767l-1.894,3.542
			h-2.946l3.495-5.483l-3.198-5.49h3.01l1.564,3.29c0.123,0.26,0.233,0.573,0.334,0.926h0.026c0.063-0.212,0.179-0.535,0.343-0.958
			l1.744-3.258h2.756l-3.289,5.442l3.38,5.531H-83.641z"/>
		<path fill="#404B5A" d="M-66.667,8.501h-9.86c0.162,0.79,0.254,1.605,0.254,2.447v0.125c-0.003,0.23-0.042,0.451-0.103,0.663
			h3.073v2.193h-3.284v2.153h3.248v2.168h-3.248v2.163h3.248v2.167h-3.248v2.162h3.248v2.169h-3.248v3.246h9.92
			c0.502,0,0.91-0.422,0.91-0.94V9.448C-65.757,8.923-66.166,8.501-66.667,8.501z M-67.926,26.913h-4.33v-2.169h4.33V26.913z
			 M-67.926,22.582h-4.33v-2.167h4.33V22.582z M-67.926,18.251h-4.33v-2.168h4.33V18.251z M-67.926,13.915h-4.33v-2.162h4.33V13.915
			z"/>
	</g>
	<g>
		<g>
			<path fill="#404B5A" d="M3.043,18.183H1.475c-0.434,0-0.783,0.353-0.783,0.784v12.836c0,0.433,0.35,0.784,0.783,0.784h1.568
				c0.432,0,0.783-0.351,0.783-0.784V18.966C3.826,18.535,3.475,18.183,3.043,18.183L3.043,18.183z"/>
			<path fill="#404B5A" d="M10.582,12.98H9.014c-0.432,0-0.783,0.352-0.783,0.784v18.038c0,0.433,0.352,0.784,0.783,0.784h1.568
				c0.432,0,0.783-0.351,0.783-0.784V13.765C11.365,13.332,11.014,12.98,10.582,12.98L10.582,12.98z"/>
			<path fill="#404B5A" d="M18.123,17.791h-1.568c-0.432,0-0.783,0.353-0.783,0.784v13.228c0,0.433,0.352,0.784,0.783,0.784h1.568
				c0.432,0,0.783-0.351,0.783-0.784V18.575C18.906,18.144,18.555,17.791,18.123,17.791L18.123,17.791z"/>
			<path fill="#DEB248" d="M24.865,0c-1.248,0-2.258,1.01-2.258,2.257c0,0.544,0.201,1.038,0.521,1.428l-5.012,7.183
				c-0.244-0.089-0.504-0.146-0.777-0.146c-0.555,0-1.055,0.207-1.449,0.539l-3.955-2.857c0.072-0.221,0.119-0.452,0.119-0.696
				c0-1.247-1.008-2.257-2.256-2.257c-1.246,0-2.26,1.011-2.26,2.257c0,0.273,0.057,0.533,0.146,0.775l-4.289,3.336
				C3.061,11.621,2.676,11.5,2.258,11.5C1.012,11.5,0,12.511,0,13.758c0,1.247,1.012,2.259,2.258,2.259
				c1.248,0,2.258-1.012,2.258-2.259c0-0.369-0.098-0.712-0.254-1.02l4.17-3.243c0.381,0.292,0.85,0.472,1.367,0.472
				c0.545,0,1.039-0.201,1.428-0.523l3.969,2.865c-0.068,0.213-0.115,0.437-0.115,0.672c0,1.248,1.014,2.258,2.26,2.258
				c1.248,0,2.256-1.01,2.256-2.258c0-0.515-0.178-0.984-0.469-1.364l5.039-7.222c0.221,0.072,0.453,0.122,0.699,0.122
				c1.246,0,2.258-1.011,2.258-2.258S26.111,0,24.865,0z"/>
			<g>
				<path stroke="#FFFFFF" stroke-width="2" stroke-miterlimit="10" d="M21.055,29.657"/>
				<g>
					<g>
						<g>
							<path fill="#404B5A" d="M23.289,17.114L23.289,17.114c0.748-0.66,2.148-1.23,3.143-1.301V8.1
								c0-0.431-0.352-0.784-0.783-0.784H24.08c-0.434,0-0.783,0.353-0.783,0.784v8.577C23.289,17.114,23.264,17.114,23.289,17.114z
								"/>
							<path fill="#404B5A" d="M26.432,28.864c-1.566-0.042-3.051-1.272-3.135-1.426v4.365c0,0.433,0.35,0.784,0.783,0.784h1.568
								c0.432,0,0.783-0.351,0.783-0.784V28.864L26.432,28.864z"/>
						</g>
					</g>
				</g>
			</g>
		</g>
		<g>
			<path fill="#CF7254" d="M28.65,17.413c-3.57,0-6.666,2.08-8.188,5.116c1.521,3.039,4.617,5.118,8.188,5.118
				s6.664-2.079,8.188-5.118C35.314,19.493,32.221,17.413,28.65,17.413L28.65,17.413z M32.688,20.127
				c0.961,0.612,1.775,1.436,2.389,2.402c-0.613,0.968-1.428,1.791-2.389,2.404c-1.209,0.771-2.605,1.178-4.037,1.178
				c-1.434,0-2.828-0.407-4.037-1.178c-0.963-0.614-1.777-1.436-2.389-2.404c0.611-0.966,1.426-1.79,2.389-2.402
				c0.062-0.041,0.125-0.08,0.191-0.118c-0.162,0.437-0.248,0.909-0.248,1.4c0,2.261,1.832,4.094,4.094,4.094
				s4.092-1.833,4.092-4.094c0-0.491-0.086-0.963-0.244-1.4C32.561,20.047,32.623,20.086,32.688,20.127L32.688,20.127z
				 M28.65,20.898c0,0.848-0.688,1.536-1.535,1.536c-0.85,0-1.535-0.688-1.535-1.536s0.686-1.535,1.535-1.535
				C27.963,19.363,28.65,20.051,28.65,20.898L28.65,20.898z M28.65,20.898"/>
		</g>
	</g>
	<g>
		<path fill="#CF7254" d="M57.637-2.206c2.775,1.768,4.623,4.841,4.707,8.356h-1.613c-0.377,0-0.723,0.208-0.896,0.541
			c-0.076,0.148-0.115,0.308-0.115,0.468c0,0.056,0.016,0.108,0.025,0.164l0,0v0.002c0.012,0.065,0.025,0.128,0.049,0.192
			c0.027,0.075,0.059,0.15,0.105,0.217l4.748,6.847c0.17,0.244,0.449,0.39,0.744,0.39c0.297-0.002,0.576-0.148,0.744-0.394
			l1.844-2.694l0,0l1.863-2.724l0,0l0.98-1.43c0.115-0.171,0.176-0.37,0.176-0.569c0-0.162-0.039-0.325-0.117-0.471
			c-0.174-0.331-0.52-0.54-0.893-0.54h-1.613c-0.131-5.514-4.635-9.946-10.18-9.946h-0.104c-0.383,0.004-0.717,0.259-0.82,0.627
			c-0.023,0.078-0.035,0.158-0.035,0.236C57.237-2.646,57.385-2.367,57.637-2.206z"/>
		<path fill="#404B5A" d="M77.807,9.159h-5.941l-2.195,3.206h1.562v2.172h-3.049l-0.205,0.299v1.835h3.219v2.147h-3.219v2.143h3.219
			v2.147h-3.219v2.142h3.219v2.149h-3.219v3.216h9.828c0.496,0,0.9-0.42,0.9-0.932V10.096C78.708,9.577,78.303,9.159,77.807,9.159z
			 M76.561,27.398H72.27V25.25h4.291V27.398z M76.561,23.108H72.27v-2.147h4.291V23.108z M76.561,18.818H72.27v-2.147h4.291V18.818z
			 M76.561,14.522H72.27v-2.142h4.291V14.522z"/>
		<path fill="#404B5A" d="M63.28,15.534l-0.064-0.09l-2.67,4.417l3.35,5.479h-2.904l-1.869-3.542
			c-0.074-0.13-0.146-0.372-0.221-0.727H58.87c-0.037,0.167-0.115,0.419-0.252,0.76l-1.873,3.509h-2.92l3.463-5.432l-3.168-5.439
			h2.98l1.551,3.259c0.119,0.257,0.23,0.567,0.328,0.917h0.025c0.064-0.211,0.18-0.53,0.34-0.948l1.73-3.229h1.465l-4.012-5.783
			c-0.219-0.314-0.361-0.67-0.428-1.046l-7.287,1.405v21.69l16.092,3.103V16.123c-0.434,0.318-0.953,0.513-1.506,0.516
			C64.555,16.642,63.762,16.229,63.28,15.534z"/>
	</g>
	<g>
		<path fill="#CF7254" d="M103.404,7.053c0-0.164,0.039-0.325,0.117-0.475c0.174-0.337,0.525-0.547,0.906-0.547h1.145h0.488
			c-0.086-3.556-1.957-6.667-4.766-8.458c-0.254-0.163-0.404-0.444-0.404-0.736c0-0.079,0.014-0.161,0.035-0.239
			c0.107-0.373,0.443-0.63,0.828-0.635h0.105c5.613,0,10.172,4.486,10.305,10.067h1.633c0.379,0,0.729,0.209,0.902,0.546
			c0.08,0.148,0.121,0.312,0.121,0.475c0,0.204-0.062,0.404-0.18,0.579l-4.742,6.931c-0.172,0.247-0.453,0.396-0.754,0.396
			c-0.299,0.002-0.582-0.147-0.752-0.394l-4.807-6.929C103.465,7.461,103.404,7.257,103.404,7.053z"/>
		<path fill="#404B5A" d="M122.256,9l-6.887,0.063l-1.852,2.519h2.391l4.867,0.012l0.049,16.93h-8.514v2.192h9.945
			c0.504,0,0.912-0.424,0.912-0.944V9.951C123.168,9.425,122.76,9,122.256,9z"/>
		<path fill="#404B5A" d="M102.373,15.999c-0.723,0-1.273,0.057-1.559,0.132v4.982c0.361,0.095,0.818,0.134,1.369,0.134
			c1.998,0,3.213-0.969,3.213-2.738C105.396,16.816,104.199,15.999,102.373,15.999z"/>
		<path fill="#404B5A" d="M114.035,20.276l2.838,2.837l2.84-2.837l-0.896-0.896l-1.205,0.001v-5.335
			c0-0.323-0.254-0.584-0.562-0.584h-4.855c0,0-0.789,1.221-1.082,1.571c-0.129,0.155-0.494,1.083-1.998,1.083
			c-1.258,0-1.752-0.745-2.008-1.056c-0.561-0.679-3.92-5.15-4.396-5.89c-0.371-0.573-0.918-1.256-0.918-1.896l-6.855,1.611v21.953
			l16.287,3.14v-8.892l1.809,1.809l2.836-2.838l-2.836-2.839l-1.809,1.809v-7.97l4.916,0.003l0.025,4.323l-1.234,0.003
			L114.035,20.276z M106.061,21.17c-0.873,0.934-2.299,1.408-3.914,1.408c-0.496,0-0.955-0.021-1.332-0.114v5.133H99.16V14.934
			c0.797-0.134,1.844-0.247,3.174-0.247c1.637,0,2.834,0.38,3.596,1.065c0.703,0.608,1.121,1.542,1.121,2.681
			C107.051,19.593,106.707,20.505,106.061,21.17z"/>
	</g>
	<g>
		<path fill="#404B5A" d="M204.118,19.842l-4.992,9.444c-0.244,0.47-0.936,0.968-1.471,0.968l-20.014,0.002
			c-0.424,0-0.828-0.167-1.127-0.466c-0.299-0.297-0.467-0.703-0.467-1.126l0.002-15.541c0-0.878,0.713-1.593,1.594-1.593
			l1.461-0.003v1.359h-0.979c-0.191,0-0.373,0.076-0.512,0.21c-0.135,0.137-0.211,0.32-0.211,0.512l0.002,14.568
			c0,0.4,0.324,0.724,0.725,0.724h1.002l4.729-9.568c0.268-0.536,0.773-0.966,1.307-0.966h11.584l0.004-3.851
			c0.758,0.071,1.354,0.697,1.354,1.471v2.38h5.312C204.046,18.371,204.575,18.992,204.118,19.842L204.118,19.842z"/>
		<path fill="#CF7254" d="M195.62,7.594l-3.381-3.676c-0.113-0.123-0.273-0.193-0.441-0.193h-10.463
			c-0.719,0-1.307,0.586-1.307,1.307c0,0-0.043,14.289,0,19.053c0.004,0.481,0.26,0.499,0.26,0.5l0.838-1.7V5.032
			c0-0.116,0.096-0.21,0.209-0.21h9.662c0.15,0,0.273,0.123,0.273,0.273V8c0,0.304,0.246,0.549,0.549,0.549h2.59
			c0.152,0,0.273,0.123,0.273,0.273v8.7h1.098V8C195.78,7.849,195.722,7.705,195.62,7.594z M192.37,7.452V5.681l1.629,1.771H192.37z
			"/>
		<path fill="#DEB248" d="M192.964,9.667h-10.113c-0.371,0-0.674,0.303-0.674,0.673c0,0.374,0.303,0.677,0.674,0.677h10.113
			c0.373,0,0.676-0.304,0.676-0.677C193.64,9.97,193.337,9.667,192.964,9.667L192.964,9.667z"/>
		<path fill="#DEB248" d="M193.64,14.273c0-0.371-0.303-0.673-0.676-0.673h-10.113c-0.371,0-0.674,0.302-0.674,0.673
			c0,0.373,0.303,0.676,0.674,0.676h10.113C193.337,14.949,193.64,14.646,193.64,14.273L193.64,14.273z"/>
		<path fill="#DEB248" d="M182.177,18.234c0,0.371,0.303,0.673,0.674,0.673h0.242c0.428-1.189,1.486-1.349,1.486-1.349h-1.729
			C182.479,17.558,182.177,17.86,182.177,18.234L182.177,18.234z"/>
	</g>
	<g>
		<path fill="#DEB248" d="M152.072,14.639h-12.359c-0.447,0-0.791,0.345-0.791,0.792c0,0.445,0.344,0.805,0.791,0.805h12.359
			c0.445,0,0.791-0.359,0.791-0.805C152.863,14.984,152.518,14.639,152.072,14.639L152.072,14.639z M152.072,14.639"/>
		<g>
			<path fill="#CF7254" d="M149.469,24.612l-1.119,3.835c-0.023,0.084-0.043,0.167-0.043,0.25c0,0.348,0.344,0.71,0.789,0.71
				c0.104,0,0.176-0.013,0.232-0.028l3.928-1.105L149.469,24.612z"/>
			<path fill="#CF7254" d="M163.762,15.938l-1.785-1.788c-0.34-0.339-0.711-0.5-1.146-0.5c-0.371,0-0.707,0.147-1,0.437
				l-1.986,1.952l-7.273,7.276l3.908,3.819l7.301-7.286l1.951-1.952c0.26-0.258,0.404-0.581,0.453-0.967
				C164.184,16.491,164.037,16.211,163.762,15.938z"/>
		</g>
		<path fill="#DEB248" d="M152.045,18.994c0-0.445-0.348-0.79-0.791-0.79h-11.541c-0.447,0-0.791,0.345-0.791,0.79
			s0.344,0.805,0.791,0.805h11.541C151.697,19.799,152.045,19.439,152.045,18.994L152.045,18.994z"/>
		<path fill="#DEB248" d="M145.447,21.739h-5.734c-0.447,0-0.791,0.346-0.791,0.79c0,0.447,0.344,0.792,0.791,0.792h5.734
			c0.447,0,0.805-0.344,0.805-0.792C146.252,22.084,145.895,21.739,145.447,21.739L145.447,21.739z"/>
		<path fill="#DEB248" d="M145.447,25.304h-5.734c-0.447,0-0.791,0.345-0.791,0.79c0,0.446,0.344,0.79,0.791,0.79h5.734
			c0.447,0,0.805-0.343,0.805-0.79C146.252,25.649,145.895,25.304,145.447,25.304L145.447,25.304z M145.447,25.304"/>
		<path fill="#404B5A" d="M155.607,11.105l-7.654-8.522l-10.067,0.035c-0.488,0-0.906,0.171-1.234,0.503
			c-0.332,0.331-0.504,0.747-0.504,1.222V28.45c0,0.978,0.76,1.726,1.738,1.726h8.743l0.209-1.58h-8.952
			c-0.102,0-0.143-0.042-0.143-0.146V4.342c0-0.101,0.041-0.145,0.143-0.145l8.7-0.01v6.743c0,0.978,0.744,1.769,1.721,1.769h5.734
			v4.83l1.594-1.512v-4.912H155.607z M148.199,11.103c-0.1,0-0.143-0.057-0.143-0.172V5.061l5.445,6.042H148.199z"/>
	</g>
	<g>
		<g>
			<path fill="#CF7254" d="M233.347,7.612l-3.379-3.673c-0.113-0.123-0.273-0.192-0.441-0.192h-10.453
				c-0.719,0-1.307,0.586-1.307,1.306c0,0-0.043,14.276,0,19.037c0.006,0.48,0.26,0.499,0.26,0.499l0.838-1.697V5.052
				c0-0.116,0.096-0.21,0.211-0.21h9.652c0.15,0,0.273,0.123,0.273,0.272v2.903c0,0.302,0.246,0.549,0.549,0.549h2.586
				c0.152,0,0.275,0.122,0.275,0.272v8.692h1.096V8.018C233.507,7.866,233.45,7.723,233.347,7.612z M230.097,7.471V5.7l1.631,1.771
				H230.097z"/>
			<path fill="#DEB248" d="M230.692,9.683h-10.104c-0.373,0-0.674,0.304-0.674,0.673c0,0.374,0.301,0.676,0.674,0.676h10.104
				c0.373,0,0.674-0.302,0.674-0.676C231.366,9.987,231.065,9.683,230.692,9.683L230.692,9.683z"/>
			<path fill="#DEB248" d="M231.366,14.286c0-0.371-0.301-0.673-0.674-0.673h-10.104c-0.373,0-0.674,0.302-0.674,0.673
				c0,0.373,0.301,0.676,0.674,0.676h10.104C231.065,14.961,231.366,14.659,231.366,14.286L231.366,14.286z"/>
			<path fill="#DEB248" d="M219.915,18.243c0,0.371,0.301,0.673,0.674,0.673h0.242c0.428-1.188,1.482-1.349,1.482-1.349h-1.725
				C220.216,17.568,219.915,17.87,219.915,18.243L219.915,18.243z"/>
			<path fill="#CF7254" d="M219.915,18.243"/>
		</g>
		<g>
			<path fill="#CF7254" d="M250.044,20.894c-0.195-0.374-0.584-0.609-1.01-0.609h-1.822c-0.148-6.233-5.24-11.244-11.51-11.244
				h-0.115c-0.434,0.005-0.809,0.293-0.93,0.709c-0.023,0.089-0.035,0.179-0.035,0.267c0,0.326,0.166,0.641,0.449,0.824
				c3.137,1.999,5.227,5.473,5.324,9.446h-1.828c-0.424,0-0.812,0.235-1.01,0.611c-0.088,0.168-0.131,0.348-0.131,0.53
				c0,0-0.049,0.289,0.203,0.649l5.365,7.741c0.193,0.276,0.51,0.441,0.846,0.44c0.334-0.002,0.65-0.167,0.838-0.444l2.086-3.046
				l2.105-3.079l1.105-1.616c0.135-0.193,0.201-0.418,0.201-0.644C250.177,21.243,250.134,21.06,250.044,20.894z"/>
			<g>
				<path fill="#404B5A" d="M236.085,23.156c-0.502-0.719-0.562-1.409-0.543-1.794c0.01-0.459,0.125-0.918,0.346-1.34
					c0.477-0.912,1.373-1.508,2.383-1.607c-0.004-0.013-0.008-0.026-0.01-0.039h-2.428v-2.379c0-0.773-0.598-1.399-1.354-1.47
					l-0.002,3.849h-11.576c-0.531,0-1.037,0.43-1.305,0.965l-4.725,9.561h-1.002c-0.4,0-0.725-0.324-0.725-0.724V13.621
					c0-0.191,0.076-0.375,0.211-0.511c0.137-0.134,0.318-0.21,0.512-0.21h0.979v-1.358l-1.463,0.003c-0.879,0-1.59,0.714-1.59,1.592
					l-0.004,15.529c0,0.423,0.168,0.828,0.465,1.125c0.301,0.299,0.703,0.466,1.129,0.466l19.996-0.003
					c0.535,0,1.225-0.497,1.471-0.967l1.508-2.852L236.085,23.156z"/>
			</g>
		</g>
	</g>
</g>
</svg>
