<?xml version="1.0" encoding="utf-8"?>
<!-- Generator: Adobe Illustrator 16.0.0, SVG Export Plug-In . SVG Version: 6.00 Build 0)  -->
<!DOCTYPE svg PUBLIC "-//W3C//DTD SVG 1.1//EN" "http://www.w3.org/Graphics/SVG/1.1/DTD/svg11.dtd">
<svg version="1.1" id="Capa_1" xmlns="http://www.w3.org/2000/svg" xmlns:xlink="http://www.w3.org/1999/xlink" x="0px" y="0px"
	 width="30.18px" height="30.186px" viewBox="0 0 30.18 30.186" enable-background="new 0 0 30.18 30.186" xml:space="preserve">
<g>
	<path fill="#CF7254" d="M-414.646,10.024h11.116c0.908,0,1.646-0.738,1.646-1.646V0.386h-14.411v7.992
		C-416.294,9.286-415.555,10.024-414.646,10.024L-414.646,10.024z M-414.646,10.024"/>
	<path fill="#DEB248" d="M-415.341,17.969h6.717c0.571,0,1.036-0.466,1.036-1.036s-0.465-1.035-1.036-1.035h-6.717
		c-0.573,0-1.035,0.465-1.035,1.035S-415.915,17.969-415.341,17.969L-415.341,17.969z M-415.341,17.969"/>
	<path fill="#DEB248" d="M-415.341,22.11h10.856c0.575,0,1.037-0.464,1.037-1.035s-0.462-1.035-1.037-1.035h-10.856
		c-0.573,0-1.035,0.464-1.035,1.035S-415.915,22.11-415.341,22.11L-415.341,22.11z M-415.341,22.11"/>
	<path fill="#DEB248" d="M-400.339,24.183h-15.002c-0.573,0-1.035,0.463-1.035,1.033c0,0.571,0.462,1.037,1.035,1.037h15.002
		c0.571,0,1.035-0.466,1.035-1.037C-399.304,24.646-399.768,24.183-400.339,24.183L-400.339,24.183z M-400.339,24.183"/>
	<path fill="#404B5A" d="M-398.691,0.386h-1.122v7.992c0,2.051-1.666,3.717-3.717,3.717h-11.116c-2.052,0-3.72-1.666-3.72-3.717
		V0.386h-1.768c-1.882,0-3.409,1.527-3.409,3.409v24.108c0,1.883,1.527,3.409,3.409,3.409h24.248c1.884,0,3.409-1.526,3.409-3.409
		V6.642L-398.691,0.386z M-397.139,25.591c0,1.151-0.935,2.086-2.086,2.086h-17.707c-1.149,0-2.085-0.935-2.085-2.086V16.56
		c0-1.152,0.936-2.086,2.085-2.086h17.707c1.151,0,2.086,0.934,2.086,2.086V25.591z M-394.809,10.801h-2.975V7.824h2.975V10.801z
		 M-394.809,10.801"/>
</g>
<g>
	<g>
		<path fill="#CF7254" d="M-365.422,26.145c3.556,0.085,6.666,1.955,8.454,4.762c0.165,0.256,0.447,0.406,0.738,0.406
			c0.078,0,0.159-0.011,0.238-0.034c0.373-0.106,0.63-0.443,0.635-0.83v-0.105c0-5.612-4.486-10.169-10.062-10.303v-1.632
			c0-0.379-0.214-0.727-0.547-0.902c-0.15-0.081-0.313-0.12-0.479-0.12c-0.201,0-0.4,0.062-0.575,0.179l-6.93,4.742
			c-0.248,0.169-0.396,0.451-0.396,0.751c-0.002,0.301,0.146,0.583,0.392,0.755l6.929,4.802c0.174,0.122,0.38,0.183,0.581,0.183
			c0.166,0,0.326-0.039,0.476-0.117c0.337-0.176,0.548-0.526,0.548-0.906V26.145z M-365.422,26.145"/>
		<path d="M-356.441,24.699"/>
	</g>
	<g>
		<path fill="#DEB248" d="M-375.126,5.296c0,0.701-0.566,1.271-1.271,1.271c-0.7,0-1.269-0.57-1.269-1.271
			c0-0.701,0.568-1.271,1.269-1.271C-375.692,4.026-375.126,4.596-375.126,5.296z"/>
		<path fill="#81BBCD" d="M-369.521,5.296c0,0.701-0.568,1.271-1.271,1.271c-0.698,0-1.27-0.57-1.27-1.271
			c0-0.701,0.571-1.271,1.27-1.271C-370.09,4.026-369.521,4.596-369.521,5.296z"/>
		<path fill="#404B5A" d="M-349.474,0.39h-27.438c-2.271,0-4.113,1.841-4.113,4.111v21.955c0,2.268,1.843,4.118,4.113,4.118h6.121
			v-2.745h-6.121c-0.75,0-1.367-0.617-1.367-1.373V9.996h30.18v16.459c0,0.756-0.617,1.373-1.374,1.373h-4.271v2.745h4.271
			c2.277,0,4.119-1.851,4.119-4.118V4.5C-345.354,2.23-347.196,0.39-349.474,0.39z M-374.39,6.021c0,0.736-0.598,1.335-1.331,1.335
			h-1.333c-0.735,0-1.332-0.599-1.332-1.335V4.689c0-0.74,0.591-1.338,1.332-1.338h1.333c0.733,0,1.331,0.599,1.331,1.338V6.021z
			 M-368.806,6.021c0,0.735-0.597,1.335-1.33,1.335h-1.332c-0.734,0-1.33-0.6-1.33-1.335V4.688c0-0.74,0.588-1.338,1.33-1.338h1.332
			c0.733,0,1.33,0.599,1.33,1.338V6.021z M-349.164,6.567h-16.516c-0.703,0-1.271-0.57-1.271-1.271c0-0.701,0.567-1.271,1.271-1.271
			h16.516c0.699,0,1.271,0.57,1.271,1.271C-347.894,5.998-348.465,6.567-349.164,6.567z"/>
	</g>
</g>
<g>
	<circle fill="#DEB248" cx="-329.597" cy="5.296" r="1.271"/>
	<g>
		<path fill="#CF7254" d="M-314.274,27.778c0,0.38,0.213,0.73,0.549,0.906c0.151,0.078,0.31,0.117,0.475,0.117
			c0.204,0,0.408-0.062,0.582-0.183l6.929-4.802c0.246-0.172,0.395-0.455,0.395-0.755c-0.002-0.3-0.15-0.582-0.397-0.751
			l-6.933-4.742c-0.174-0.118-0.371-0.179-0.575-0.179c-0.165,0-0.328,0.039-0.478,0.12c-0.333,0.175-0.546,0.523-0.546,0.902v1.632
			c-5.577,0.134-10.064,4.691-10.064,10.303v0.105c0.005,0.387,0.262,0.724,0.634,0.83c0.079,0.023,0.162,0.034,0.241,0.034
			c0.29,0,0.572-0.149,0.737-0.406c1.788-2.807,4.898-4.676,8.452-4.762V27.778z M-314.274,26.145"/>
		<path d="M-324.737,24.699"/>
	</g>
	<circle fill="#81BBCD" cx="-323.958" cy="5.296" r="1.271"/>
	<path fill="#404B5A" d="M-302.641,0.39h-27.438c-2.269,0-4.111,1.841-4.111,4.111v21.955c0,2.268,1.843,4.118,4.111,4.118h3.875
		v-2.745h-3.875c-0.747,0-1.366-0.617-1.366-1.373V9.996h30.18v16.459c0,0.756-0.615,1.373-1.375,1.373h-5.761v2.745h5.761
		c2.279,0,4.121-1.851,4.121-4.118V4.5C-298.52,2.23-300.362,0.39-302.641,0.39z M-327.555,6.021c0,0.736-0.6,1.335-1.332,1.335
		h-1.331c-0.736,0-1.332-0.599-1.332-1.335V4.689c0-0.74,0.59-1.338,1.332-1.338h1.331c0.732,0,1.332,0.599,1.332,1.338V6.021z
		 M-321.97,6.021c0,0.735-0.598,1.335-1.33,1.335h-1.333c-0.733,0-1.332-0.6-1.332-1.335V4.688c0-0.74,0.59-1.338,1.332-1.338h1.333
		c0.732,0,1.33,0.599,1.33,1.338V6.021z M-302.332,6.567h-16.514c-0.704,0-1.271-0.57-1.271-1.271c0-0.701,0.567-1.271,1.271-1.271
		h16.514c0.701,0,1.272,0.57,1.272,1.271C-301.059,5.998-301.63,6.567-302.332,6.567z"/>
</g>
<g>
	<path fill="#CF7254" d="M-273.449,26.836c-0.085,3.553-1.953,6.662-4.759,8.45c-0.255,0.164-0.405,0.444-0.405,0.736
		c0,0.079,0.012,0.161,0.035,0.24c0.105,0.371,0.444,0.629,0.828,0.635h0.105c5.607,0,10.161-4.484,10.295-10.058h1.632
		c0.379,0,0.725-0.21,0.902-0.546c0.08-0.148,0.118-0.313,0.118-0.476c0-0.202-0.061-0.403-0.179-0.575l-4.738-6.926
		c-0.171-0.248-0.452-0.395-0.753-0.396c-0.3-0.002-0.582,0.146-0.752,0.392l-4.802,6.924c-0.121,0.172-0.182,0.377-0.182,0.582
		c0,0.163,0.04,0.323,0.117,0.474c0.176,0.335,0.524,0.545,0.904,0.545H-273.449z M-273.449,26.836"/>
	<g>
		<circle fill="#DEB248" cx="-284.852" cy="5.289" r="1.271"/>
		<circle fill="#81BBCD" cx="-279.251" cy="5.289" r="1.269"/>
		<path fill="#404B5A" d="M-257.949,0.386h-27.419c-2.27,0-4.109,1.839-4.109,4.107v21.938c0,2.267,1.84,4.117,4.109,4.117h8.9
			v-2.744h-8.9c-0.748,0-1.364-0.616-1.364-1.373V9.985h30.155v16.446c0,0.757-0.615,1.373-1.372,1.373h-6.748v2.744h6.748
			c2.276,0,4.116-1.85,4.116-4.117V4.493C-253.833,2.225-255.673,0.386-257.949,0.386z M-282.848,6.014
			c0,0.735-0.597,1.333-1.329,1.333h-1.33c-0.735,0-1.332-0.599-1.332-1.333V4.683c0-0.74,0.588-1.338,1.332-1.338h1.33
			c0.732,0,1.329,0.599,1.329,1.338V6.014z M-277.265,6.013c0,0.735-0.599,1.333-1.331,1.333h-1.331
			c-0.734,0-1.331-0.599-1.331-1.333V4.682c0-0.74,0.59-1.338,1.331-1.338h1.331c0.732,0,1.331,0.599,1.331,1.338V6.013z
			 M-257.642,6.558h-16.502c-0.701,0-1.271-0.569-1.271-1.27c0-0.7,0.569-1.269,1.271-1.269h16.502c0.701,0,1.27,0.569,1.27,1.269
			C-256.372,5.989-256.94,6.558-257.642,6.558z"/>
	</g>
</g>
<g>
	<path fill="#CF7254" d="M-228.56,32.075c0.084-3.553,1.954-6.662,4.758-8.45c0.257-0.165,0.404-0.444,0.404-0.736
		c0-0.079-0.01-0.161-0.032-0.24c-0.107-0.371-0.445-0.629-0.83-0.635h-0.104c-5.608,0-10.161,4.484-10.296,10.059h-1.631
		c-0.378,0-0.727,0.21-0.902,0.545c-0.078,0.149-0.117,0.313-0.117,0.476c0,0.204,0.06,0.404,0.178,0.576l4.738,6.926
		c0.171,0.248,0.45,0.396,0.751,0.396c0.301,0.002,0.583-0.146,0.754-0.392l4.801-6.924c0.12-0.172,0.183-0.377,0.183-0.582
		c0-0.162-0.04-0.323-0.117-0.474c-0.177-0.335-0.524-0.545-0.904-0.545H-228.56z M-228.56,32.075"/>
	<g>
		<path fill="#DEB248" d="M-242.281,5.312c0,0.701-0.568,1.27-1.271,1.27c-0.698,0-1.268-0.569-1.268-1.27
			c0-0.7,0.569-1.269,1.268-1.269C-242.85,4.043-242.281,4.612-242.281,5.312z"/>
		<circle fill="#81BBCD" cx="-237.952" cy="5.312" r="1.269"/>
		<path fill="#404B5A" d="M-216.649,0.41h-27.417c-2.27,0-4.109,1.839-4.109,4.107v21.938c0,2.267,1.84,4.117,4.109,4.117h6.756
			v-2.744h-6.756c-0.749,0-1.365-0.616-1.365-1.373V10.009h30.156v16.446c0,0.757-0.617,1.373-1.374,1.373h-9.025v2.744h9.025
			c2.276,0,4.116-1.85,4.116-4.117V4.517C-212.533,2.249-214.373,0.41-216.649,0.41z M-241.547,6.038
			c0,0.735-0.598,1.333-1.33,1.333h-1.332c-0.733,0-1.33-0.599-1.33-1.333V4.707c0-0.74,0.59-1.338,1.33-1.338h1.332
			c0.732,0,1.33,0.599,1.33,1.338V6.038z M-235.965,6.037c0,0.735-0.599,1.333-1.329,1.333h-1.332c-0.735,0-1.333-0.599-1.333-1.333
			V4.706c0-0.74,0.591-1.338,1.333-1.338h1.332c0.73,0,1.329,0.599,1.329,1.338V6.037z M-216.342,6.582h-16.501
			c-0.703,0-1.27-0.569-1.27-1.27c0-0.7,0.566-1.269,1.27-1.269h16.501c0.702,0,1.27,0.569,1.27,1.269
			C-215.072,6.013-215.64,6.582-216.342,6.582z"/>
	</g>
</g>
<g>
	<g>
		<path fill="#CF7254" d="M-145.895,20.028c3.549,0.084,6.652,1.952,8.438,4.753c0.166,0.256,0.445,0.404,0.736,0.404
			c0.078,0,0.16-0.011,0.24-0.033c0.369-0.107,0.629-0.443,0.633-0.829v-0.105c0-5.6-4.477-10.147-10.047-10.281v-1.628
			c0-0.378-0.209-0.726-0.543-0.902c-0.148-0.079-0.312-0.118-0.477-0.118c-0.201,0-0.4,0.06-0.574,0.178l-6.917,4.733
			c-0.247,0.169-0.394,0.45-0.396,0.75c-0.002,0.3,0.147,0.582,0.394,0.753l6.914,4.794c0.172,0.121,0.377,0.182,0.58,0.182
			c0.164,0,0.324-0.039,0.475-0.117c0.334-0.176,0.545-0.524,0.545-0.903V20.028z M-145.895,20.028"/>
		<g>
			<path d="M-138.59,24.292"/>
		</g>
	</g>
	<g>
		<circle fill="#DEB248" cx="-158.503" cy="4.929" r="1.269"/>
		<circle fill="#81BBCD" cx="-152.911" cy="4.929" r="1.267"/>
		<path fill="#404B5A" d="M-131.637,0.032h-27.382c-2.265,0-4.104,1.836-4.104,4.103v21.908c0,2.264,1.839,4.111,4.104,4.111h20.644
			h2.125h4.613c2.273,0,4.113-1.847,4.113-4.111V4.135C-127.524,1.869-129.364,0.032-131.637,0.032z M-154.915,4.323
			c0-0.739,0.59-1.336,1.331-1.336h1.329c0.73,0,1.327,0.597,1.327,1.336v1.329c0,0.734-0.597,1.332-1.327,1.332h-1.329
			c-0.734,0-1.331-0.598-1.331-1.332V4.323z M-160.49,4.324c0-0.739,0.59-1.337,1.331-1.337h1.329c0.732,0,1.329,0.598,1.329,1.337
			v1.329c0,0.734-0.597,1.332-1.329,1.332h-1.329c-0.733,0-1.331-0.598-1.331-1.332V4.324z M-130.264,26.043
			c0,0.756-0.617,1.371-1.373,1.371h-4.613h-2.125h-20.644c-0.747,0-1.363-0.615-1.363-1.371V9.619h30.119V26.043z M-131.329,6.197
			h-16.48c-0.699,0-1.268-0.568-1.268-1.268s0.568-1.268,1.268-1.268h16.48c0.701,0,1.268,0.568,1.268,1.268
			S-130.627,6.197-131.329,6.197z"/>
	</g>
</g>
<g>
	<g>
		<path fill="#CF7254" d="M-188.483,22.016c0,0.379,0.209,0.727,0.543,0.903c0.152,0.078,0.312,0.117,0.475,0.117
			c0.205,0,0.408-0.061,0.58-0.182l6.914-4.794c0.246-0.171,0.396-0.453,0.393-0.753c-0.002-0.3-0.146-0.581-0.395-0.75
			l-6.918-4.733c-0.172-0.118-0.371-0.178-0.574-0.178c-0.162,0-0.328,0.039-0.477,0.118c-0.334,0.176-0.543,0.523-0.543,0.902
			v1.628c-5.57,0.134-10.047,4.681-10.047,10.281v0.105c0.006,0.386,0.264,0.722,0.635,0.829c0.078,0.022,0.16,0.033,0.24,0.033
			c0.289,0,0.57-0.148,0.734-0.404c1.785-2.801,4.891-4.668,8.439-4.753V22.016z M-188.483,20.386"/>
		<g>
			<path d="M-195.79,24.649"/>
		</g>
	</g>
	<g>
		<circle fill="#DEB248" cx="-202.233" cy="5.287" r="1.268"/>
		<circle fill="#81BBCD" cx="-196.64" cy="5.287" r="1.267"/>
		<path fill="#404B5A" d="M-175.368,0.39h-27.381c-2.266,0-4.105,1.836-4.105,4.103V26.4c0,2.264,1.84,4.111,4.105,4.111h20.643
			h2.125h4.613c2.275,0,4.113-1.847,4.113-4.111V4.492C-171.254,2.226-173.092,0.39-175.368,0.39z M-198.645,4.68
			c0-0.739,0.59-1.336,1.33-1.336h1.33c0.732,0,1.328,0.597,1.328,1.336v1.329c0,0.734-0.596,1.332-1.328,1.332h-1.33
			c-0.732,0-1.33-0.598-1.33-1.332V4.68z M-204.219,4.681c0-0.739,0.59-1.337,1.33-1.337h1.33c0.73,0,1.328,0.598,1.328,1.337V6.01
			c0,0.734-0.598,1.332-1.328,1.332h-1.33c-0.732,0-1.33-0.598-1.33-1.332V4.681z M-173.995,26.4c0,0.756-0.615,1.371-1.373,1.371
			h-4.613h-2.125h-20.643c-0.748,0-1.363-0.615-1.363-1.371V9.977h30.117V26.4z M-175.059,6.554h-16.48
			c-0.699,0-1.268-0.568-1.268-1.268s0.568-1.268,1.268-1.268h16.48c0.701,0,1.27,0.568,1.27,1.268S-174.358,6.554-175.059,6.554z"
			/>
	</g>
</g>
<g>
	<g>
		<path fill="#CF7254" d="M-108.659,18.189c-0.086,2.894-1.957,5.426-4.76,6.881c-0.255,0.134-0.404,0.362-0.404,0.601
			c0,0.063,0.01,0.13,0.033,0.194c0.108,0.301,0.445,0.513,0.829,0.518h0.106c5.607,0,10.161-3.651,10.294-8.191h1.631
			c0.378,0,0.728-0.172,0.902-0.445c0.081-0.121,0.12-0.255,0.12-0.388c0-0.165-0.061-0.327-0.178-0.468l-4.741-5.64
			c-0.17-0.203-0.451-0.322-0.75-0.324c-0.3-0.001-0.583,0.12-0.753,0.32l-4.801,5.639c-0.122,0.14-0.182,0.307-0.182,0.473
			c0,0.132,0.039,0.263,0.118,0.386c0.176,0.273,0.525,0.444,0.904,0.444H-108.659z M-108.659,18.189"/>
		<g>
			<path d="M-112.928,24.147"/>
		</g>
	</g>
	<g>
		<circle fill="#DEB248" cx="-120.061" cy="4.926" r="1.269"/>
		<circle fill="#81BBCD" cx="-114.461" cy="4.926" r="1.271"/>
		<path fill="#404B5A" d="M-93.158,0.022h-27.42c-2.268,0-4.109,1.839-4.109,4.108V26.07c0,2.266,1.841,4.116,4.109,4.116h20.671
			h2.127h4.623c2.276,0,4.115-1.85,4.115-4.116V4.13C-89.042,1.862-90.881,0.022-93.158,0.022z M-116.467,4.319
			c0-0.739,0.588-1.338,1.331-1.338h1.331c0.731,0,1.329,0.599,1.329,1.338V5.65c0,0.735-0.598,1.334-1.329,1.334h-1.331
			c-0.735,0-1.331-0.599-1.331-1.334V4.319z M-122.05,4.319c0-0.739,0.59-1.338,1.331-1.338h1.331c0.733,0,1.332,0.599,1.332,1.338
			v1.332c0,0.735-0.598,1.334-1.332,1.334h-1.331c-0.733,0-1.331-0.599-1.331-1.334V4.319z M-91.785,26.07
			c0,0.756-0.618,1.373-1.373,1.373h-4.623h-2.127h-20.671c-0.749,0-1.366-0.616-1.366-1.373V9.623h30.159V26.07z M-92.85,6.195
			h-16.503c-0.702,0-1.271-0.568-1.271-1.269c0-0.701,0.569-1.27,1.271-1.27h16.503c0.702,0,1.27,0.569,1.27,1.27
			C-91.58,5.627-92.148,6.195-92.85,6.195z"/>
	</g>
</g>
<g>
	<g>
		<path fill="#404B5A" d="M-8.125,26.277l-4.35-4.342c-0.417-0.414-0.983-0.609-1.529-0.583l-2.092-2.093
			c3.563-4.713,3.201-11.452-1.091-15.75C-21.882-1.184-29.5-1.184-34.194,3.52c-4.705,4.702-4.705,12.312-0.011,17.006
			c4.299,4.297,11.039,4.654,15.75,1.091l2.092,2.093c-0.027,0.548,0.169,1.113,0.583,1.528l4.343,4.342
			c0.776,0.776,2.044,0.776,2.822,0l0.48-0.482C-7.349,28.321-7.349,27.062-8.125,26.277L-8.125,26.277z M-19.79,17.925
			c-3.259,3.259-8.556,3.269-11.813,0.008c-3.259-3.258-3.259-8.545,0.007-11.813c3.26-3.259,8.554-3.269,11.815-0.009
			C-16.523,9.372-16.534,14.656-19.79,17.925L-19.79,17.925z M-19.79,17.925"/>
	</g>
	<path fill="#CF7254" d="M-22.421,10.765h-1.968V8.797c0-0.712-0.576-1.287-1.279-1.287h-0.012c-0.702,0-1.277,0.575-1.277,1.287
		v1.968h-1.97c-0.71,0-1.284,0.576-1.284,1.278v0.008c0,0.703,0.574,1.277,1.284,1.277h1.97v1.968c0,0.71,0.576,1.286,1.277,1.286
		h0.01c0.702,0,1.275-0.576,1.275-1.286v-1.968h1.968c0.712,0,1.288-0.575,1.288-1.277v-0.008
		C-21.132,11.341-21.706,10.765-22.421,10.765L-22.421,10.765z M-22.421,10.765"/>
</g>
<g>
	<g>
		<path fill="#404B5A" d="M29.53,26.247l-4.34-4.332c-0.412-0.414-0.978-0.608-1.523-0.582l-2.088-2.088
			c3.553-4.701,3.192-11.424-1.09-15.712C15.805-1.149,8.205-1.149,3.521,3.543c-4.693,4.691-4.693,12.282-0.009,16.966
			c4.288,4.288,11.012,4.644,15.711,1.088l2.09,2.088c-0.025,0.547,0.167,1.111,0.582,1.525l4.33,4.331
			c0.776,0.775,2.04,0.775,2.817,0l0.477-0.48C30.305,28.286,30.305,27.03,29.53,26.247L29.53,26.247z M17.895,17.915
			c-3.252,3.251-8.533,3.261-11.787,0.009C2.856,14.672,2.856,9.398,6.115,6.137c3.252-3.251,8.535-3.26,11.787-0.009
			C21.154,9.38,21.141,14.653,17.895,17.915L17.895,17.915z M17.895,17.915"/>
	</g>
	<path fill="#CF7254" d="M15.268,10.771h-1.963h-2.563H8.778c-0.708,0-1.283,0.574-1.283,1.274v0.008
		c0,0.702,0.574,1.274,1.283,1.274h1.963h2.558h1.965c0.71,0,1.281-0.573,1.281-1.274v-0.008
		C16.556,11.345,15.982,10.771,15.268,10.771z"/>
</g>
<g>
	<path fill="#404B5A" d="M38.858,29.258c0.033,0.817,0.705,1.463,1.525,1.463h14.25c0.816,0,1.49-0.646,1.521-1.463l1.021-21.482
		H37.841L38.858,29.258z M50.733,13.112c0-0.343,0.277-0.621,0.619-0.621h0.99c0.344,0,0.621,0.277,0.621,0.621v12.272
		c0,0.343-0.277,0.621-0.621,0.621h-0.99c-0.342,0-0.619-0.278-0.619-0.621V13.112z M46.394,13.112c0-0.343,0.275-0.621,0.619-0.621
		h0.992c0.344,0,0.621,0.277,0.621,0.621v12.272c0,0.343-0.277,0.621-0.621,0.621h-0.992c-0.344,0-0.619-0.278-0.619-0.621V13.112z
		 M42.054,13.112c0-0.343,0.279-0.621,0.621-0.621h0.99c0.342,0,0.619,0.277,0.619,0.621v12.272c0,0.343-0.277,0.621-0.619,0.621
		h-0.99c-0.342,0-0.621-0.278-0.621-0.621V13.112z M42.054,13.112"/>
	<path fill="#CF7254" d="M57.854,1.952H51.28V0.708c0-0.175-0.145-0.319-0.318-0.319h-6.906c-0.174,0-0.318,0.144-0.318,0.319v1.243
		h-6.574c-0.529,0-0.957,0.43-0.957,0.959v3.008h22.605V2.911C58.812,2.382,58.384,1.952,57.854,1.952L57.854,1.952z M57.854,1.952"
		/>
</g>
<g>
	<path fill="#CF7254" d="M92.663,0.39H73.61v13.335h19.053V0.39z M90.757,11.82h-15.24V2.295h15.24V11.82z M90.757,11.82"/>
	<path fill="#404B5A" d="M94.567,13.725v1.906H71.706v-1.906c-2.105,0-3.811,1.707-3.811,3.81v11.432
		c0,1.053,0.852,1.904,1.904,1.904h26.67c1.055,0,1.906-0.853,1.906-1.904V17.535C98.376,15.432,96.671,13.725,94.567,13.725
		L94.567,13.725z M92.663,27.06c0,1.054-0.854,1.907-1.906,1.907h-15.24c-1.053,0-1.906-0.853-1.906-1.907v-1.904h19.053V27.06z
		 M95.519,21.346h-1.904c-0.527,0-0.951-0.425-0.951-0.952s0.424-0.952,0.951-0.952h1.904c0.527,0,0.951,0.425,0.951,0.952
		S96.046,21.346,95.519,21.346L95.519,21.346z M95.519,21.346"/>
	<rect x="77.415" y="4.206" fill="#DEB248" width="11.432" height="1.904"/>
	<polygon fill="#DEB248" points="77.423,8.01 88.851,8.01 88.847,9.919 77.415,9.919 	"/>
</g>
<g>
	<g>
		<path fill="#404B5A" d="M158.933,7.535c0.961-0.664,1.607-1.893,1.607-3.298c0-1.903-0.387-3.848-3.24-3.848
			c-2.855,0-3.24,1.944-3.24,3.848c0,1.405,0.646,2.634,1.607,3.298c-2.127,0.638-3.666,2.485-3.666,4.659
			c0,1.122,0.57,1.917,1.695,2.366c0.826,0.328,1.969,0.481,3.604,0.481c1.633,0,2.777-0.153,3.602-0.481
			c1.127-0.449,1.697-1.244,1.697-2.366C162.599,10.02,161.058,8.173,158.933,7.535L158.933,7.535z M158.933,7.535"/>
	</g>
	<path fill="#404B5A" d="M148.785,21.922c0.959-0.664,1.607-1.894,1.607-3.298c0-1.903-0.385-3.848-3.24-3.848
		s-3.24,1.944-3.24,3.848c0,1.405,0.646,2.634,1.607,3.298c-2.125,0.638-3.666,2.485-3.666,4.658c0,1.122,0.57,1.917,1.697,2.366
		c0.822,0.329,1.967,0.482,3.602,0.482s2.779-0.153,3.602-0.482c1.127-0.449,1.699-1.244,1.699-2.366
		C152.453,24.407,150.91,22.56,148.785,21.922L148.785,21.922z M148.785,21.922"/>
	<path fill="#404B5A" d="M169.08,21.922c0.961-0.664,1.607-1.894,1.607-3.298c0-1.903-0.385-3.848-3.24-3.848
		s-3.238,1.944-3.238,3.848c0,1.405,0.646,2.634,1.607,3.298c-2.125,0.638-3.668,2.485-3.668,4.658c0,1.122,0.572,1.917,1.697,2.366
		c0.824,0.329,1.969,0.482,3.602,0.482c1.635,0,2.779-0.153,3.604-0.482c1.127-0.449,1.695-1.244,1.695-2.366
		C172.746,24.407,171.205,22.56,169.08,21.922L169.08,21.922z M169.08,21.922"/>
	<path fill="#CF7254" d="M160.878,29.158c-0.037-0.094-0.109-0.168-0.201-0.208c-0.092-0.04-0.195-0.041-0.289-0.004
		c-0.814,0.325-1.824,0.484-3.088,0.484c-1.266,0-2.275-0.158-3.088-0.484c-0.094-0.037-0.199-0.036-0.289,0.004
		c-0.094,0.04-0.166,0.114-0.203,0.208l-0.281,0.703c-0.076,0.194,0.018,0.414,0.211,0.491c0.996,0.398,2.189,0.592,3.65,0.592
		c1.459,0,2.654-0.194,3.648-0.592c0.195-0.077,0.289-0.297,0.211-0.491L160.878,29.158z M160.878,29.158"/>
	<path fill="#CF7254" d="M146.14,12.855l0.695,0.298c0.049,0.021,0.1,0.03,0.148,0.03c0.146,0,0.287-0.085,0.35-0.229
		c0.346-0.805,0.947-1.632,1.842-2.524c0.893-0.895,1.719-1.497,2.523-1.843c0.094-0.04,0.166-0.114,0.203-0.208
		c0.037-0.093,0.037-0.197-0.004-0.289l-0.297-0.696c-0.084-0.191-0.307-0.28-0.498-0.198c-0.986,0.423-1.967,1.13-3,2.163
		s-1.738,2.014-2.162,3C145.859,12.549,145.949,12.772,146.14,12.855L146.14,12.855z M146.14,12.855"/>
	<path fill="#CF7254" d="M162.9,8.587c0.805,0.346,1.631,0.948,2.525,1.843c0.895,0.893,1.496,1.72,1.842,2.524
		c0.062,0.144,0.201,0.229,0.348,0.229c0.051,0,0.102-0.009,0.148-0.03l0.695-0.298c0.193-0.083,0.283-0.306,0.199-0.497
		c-0.422-0.985-1.129-1.967-2.162-3s-2.014-1.739-2.998-2.163c-0.193-0.082-0.414,0.007-0.496,0.198l-0.299,0.696
		c-0.041,0.092-0.043,0.196-0.006,0.289C162.734,8.473,162.806,8.547,162.9,8.587L162.9,8.587z M162.9,8.587"/>
</g>
<g>
	<path fill="#404B5A" d="M110.347,17.843h-1.631c-0.451,0-0.818,0.367-0.818,0.816v11.227c0,0.451,0.367,0.816,0.818,0.816h1.631
		c0.449,0,0.814-0.365,0.814-0.816V18.659C111.162,18.21,110.796,17.843,110.347,17.843L110.347,17.843z"/>
	<path fill="#404B5A" d="M118.197,13.643h-1.633c-0.449,0-0.814,0.367-0.814,0.815v15.428c0,0.451,0.365,0.816,0.814,0.816h1.633
		c0.451,0,0.814-0.365,0.814-0.816V14.458C119.011,14.009,118.648,13.643,118.197,13.643L118.197,13.643z"/>
	<path fill="#404B5A" d="M126.046,8.227h-1.633c-0.453,0-0.816,0.366-0.816,0.816v20.843c0,0.451,0.363,0.816,0.816,0.816h1.633
		c0.447,0,0.812-0.365,0.812-0.816V9.043C126.859,8.593,126.494,8.227,126.046,8.227L126.046,8.227z"/>
	<path fill="#404B5A" d="M133.892,13.234h-1.631c-0.451,0-0.816,0.366-0.816,0.816v15.835c0,0.451,0.365,0.816,0.816,0.816h1.631
		c0.451,0,0.816-0.365,0.816-0.816V14.05C134.708,13.601,134.343,13.234,133.892,13.234L133.892,13.234z"/>
	<path fill="#CF7254" d="M133.078,5.876c-0.576,0-1.098,0.216-1.506,0.562l-4.117-2.975c0.072-0.229,0.123-0.469,0.123-0.724
		c0-1.297-1.051-2.35-2.348-2.35c-1.299,0-2.352,1.053-2.352,2.35c0,0.284,0.061,0.554,0.148,0.806l-4.461,3.472
		c-0.35-0.205-0.75-0.331-1.186-0.331c-1.299,0-2.35,1.053-2.35,2.351c0,0.078,0.014,0.153,0.023,0.231l-3.824,2.039
		c-0.428-0.448-1.029-0.73-1.697-0.73c-1.299,0-2.352,1.053-2.352,2.351c0,1.297,1.053,2.35,2.352,2.35
		c1.297,0,2.35-1.053,2.35-2.35c0-0.159-0.02-0.312-0.047-0.461l3.709-1.979c0.432,0.543,1.09,0.899,1.836,0.899
		c1.299,0,2.35-1.053,2.35-2.35c0-0.385-0.1-0.743-0.264-1.063l4.34-3.376c0.395,0.304,0.887,0.491,1.424,0.491
		c0.568,0,1.08-0.209,1.486-0.544l4.129,2.981c-0.068,0.223-0.119,0.455-0.119,0.7c0,1.298,1.053,2.351,2.352,2.351
		s2.35-1.053,2.35-2.351C135.427,6.93,134.376,5.876,133.078,5.876z"/>
</g>
<g>
	<g>
		<circle fill="#DEB248" cx="-79.558" cy="4.912" r="1.27"/>
		<circle fill="#81BBCD" cx="-73.957" cy="4.912" r="1.27"/>
		<path fill="#404B5A" d="M-52.647,0.006h-27.427c-2.269,0-4.112,1.84-4.112,4.109v21.946c0,2.267,1.843,4.118,4.112,4.118h20.677
			h2.13h4.62c2.279,0,4.118-1.851,4.118-4.118V4.116C-48.529,1.846-50.369,0.006-52.647,0.006z M-75.964,4.304
			c0-0.74,0.59-1.339,1.332-1.339h1.332c0.731,0,1.332,0.599,1.332,1.339v1.332c0,0.735-0.6,1.334-1.332,1.334h-1.332
			c-0.733,0-1.332-0.6-1.332-1.334V4.304z M-81.547,4.305c0-0.74,0.59-1.339,1.332-1.339h1.333c0.731,0,1.33,0.599,1.33,1.339v1.332
			c0,0.735-0.598,1.334-1.33,1.334h-1.333c-0.733,0-1.332-0.599-1.332-1.334V4.305z M-51.273,26.062
			c0,0.757-0.616,1.373-1.375,1.373h-4.62h-2.13h-20.677c-0.749,0-1.365-0.616-1.365-1.373V9.609h30.167V26.062z M-52.338,6.181
			h-16.51c-0.7,0-1.269-0.568-1.269-1.269c0-0.701,0.569-1.271,1.269-1.271h16.51c0.702,0,1.271,0.569,1.271,1.271
			C-51.067,5.613-51.636,6.181-52.338,6.181z"/>
	</g>
	<g>
		<path fill="#CF7254" d="M-64.564,19.11c0.086-2.895,1.956-5.428,4.762-6.884c0.256-0.134,0.406-0.362,0.406-0.601
			c0-0.063-0.013-0.13-0.035-0.195c-0.106-0.302-0.444-0.513-0.829-0.517h-0.106c-5.61,0-10.166,3.652-10.297,8.194h-1.632
			c-0.38,0-0.727,0.171-0.903,0.444c-0.081,0.122-0.121,0.255-0.121,0.388c0,0.164,0.062,0.327,0.18,0.469l4.741,5.642
			c0.168,0.202,0.451,0.322,0.752,0.324c0.299,0.001,0.582-0.12,0.754-0.321l4.803-5.64c0.12-0.14,0.182-0.307,0.182-0.473
			c0-0.133-0.04-0.264-0.118-0.386c-0.177-0.273-0.526-0.444-0.906-0.444H-64.564z M-64.564,19.11"/>
		<g>
			<path d="M-60.292,13.15"/>
		</g>
	</g>
</g>
</svg>
